<?xml version="1.0" standalone="no"?>
<!DOCTYPE svg PUBLIC "-//W3C//DTD SVG 1.1//EN" "http://www.w3.org/Graphics/SVG/1.1/DTD/svg11.dtd" >
<svg xmlns="http://www.w3.org/2000/svg">
<metadata></metadata>
<defs>
<font id="gt_walsheimthin_oblique" horiz-adv-x="1388" >
<font-face units-per-em="2048" ascent="1475" descent="-573" />
<missing-glyph horiz-adv-x="631" />
<glyph unicode="IJ" horiz-adv-x="1857" d="M216 0l182 1721h111l-183 -1721h-110zM642 518h108q-12 -103 13 -186.5t81 -142t134.5 -91t174.5 -32.5q94 0 173 30.5t141 90t101 143t52 188.5l125 1203h108l-125 -1203q-14 -127 -63.5 -229t-125.5 -174.5t-177 -111t-220 -38.5q-117 0 -215.5 39.5t-165.5 112.5 t-99.5 175t-19.5 226z" />
<glyph unicode="ij" horiz-adv-x="1078" d="M216 0l110 1060h104l-111 -1060h-103zM302 1480q0 56 40.5 94t95.5 38q49 0 79.5 -32t30.5 -79q0 -56 -40.5 -94t-94.5 -38q-49 0 -80 32t-31 79zM386 -647l12 99q62 -35 120 -34q92 0 142 57.5t62 165.5l150 1419h101l-150 -1424q-35 -312 -290 -312q-35 0 -75 6t-72 23 zM848 1480q0 56 40.5 94t94.5 38q49 0 78.5 -32t29.5 -79q0 -56 -39 -94t-93 -38q-49 0 -80 32t-31 79z" />
<glyph unicode="&#xfb00;" horiz-adv-x="1584" d="M160 966l9 94h253l33 294q14 127 52.5 203.5t89 115.5t107 50.5t105.5 11.5q54 0 85.5 -7t61.5 -20l-10 -93q-33 12 -60.5 18t-69.5 6t-84 -8.5t-77.5 -37.5t-61 -85t-35.5 -146l-32 -302h361l-10 -94h-361l-101 -966h-103l101 966h-253zM952 966l9 94h253l32 294 q14 127 52.5 203.5t89 115.5t106.5 50.5t106 11.5q54 0 87.5 -7t59.5 -20l-9 -93q-33 12 -60 18t-69 6q-44 0 -85.5 -8.5t-75.5 -37.5t-60 -85t-37 -146l-31 -302h359l-10 -94h-359l-100 -966h-106l101 966h-253z" />
<glyph unicode="&#xfb01;" horiz-adv-x="1356" d="M160 966l9 94h253l33 294q14 127 52.5 203.5t89 115.5t107 50.5t105.5 11.5q54 0 85.5 -7t61.5 -20l-10 -93q-33 12 -60.5 18t-69.5 6t-84 -8.5t-77.5 -37.5t-61 -85t-35.5 -146l-32 -302h361l-10 -94h-361l-101 -966h-103l101 966h-253zM1022 0l111 1060h103l-110 -1060 h-104zM1111 1480q0 54 38 90.5t92 36.5q47 0 77.5 -30.5t30.5 -77.5q0 -54 -39 -90.5t-93 -36.5q-47 0 -76.5 30.5t-29.5 77.5z" />
<glyph unicode="&#xfb02;" horiz-adv-x="1328" d="M160 966l9 94h253l33 294q14 127 52.5 203.5t89 115.5t107 50.5t105.5 11.5q54 0 85.5 -7t61.5 -20l-10 -93q-33 12 -60.5 18t-69.5 6t-84 -8.5t-77.5 -37.5t-61 -85t-35.5 -146l-32 -302h361l-10 -94h-361l-101 -966h-103l101 966h-253zM1008 0l179 1721h105l-178 -1721 h-106z" />
<glyph unicode="&#xfb03;" horiz-adv-x="2146" d="M160 966l9 94h253l33 294q14 127 52.5 203.5t89 115.5t107 50.5t105.5 11.5q54 0 85.5 -7t61.5 -20l-10 -93q-33 12 -60.5 18t-69.5 6t-84 -8.5t-77.5 -37.5t-61 -85t-35.5 -146l-32 -302h361l-10 -94h-361l-101 -966h-103l101 966h-253zM952 966l9 94h253l32 294 q14 127 52.5 203.5t89 115.5t106.5 50.5t106 11.5q54 0 87.5 -7t59.5 -20l-9 -93q-33 12 -60 18t-69 6q-44 0 -85.5 -8.5t-75.5 -37.5t-60 -85t-37 -146l-31 -302h359l-10 -94h-359l-100 -966h-106l101 966h-253zM1813 0l112 1060h103l-112 -1060h-103zM1902 1480 q0 56 39.5 94t93.5 38q49 0 80 -32t31 -79q0 -56 -42 -94t-94 -38q-49 0 -78.5 32t-29.5 79z" />
<glyph unicode="&#xfb04;" horiz-adv-x="2118" d="M160 966l9 94h253l33 294q14 127 52.5 203.5t89 115.5t107 50.5t105.5 11.5q54 0 85.5 -7t61.5 -20l-10 -93q-33 12 -60.5 18t-69.5 6t-84 -8.5t-77.5 -37.5t-61 -85t-35.5 -146l-32 -302h361l-10 -94h-361l-101 -966h-103l101 966h-253zM952 966l9 94h253l32 294 q14 127 52.5 203.5t89 115.5t106.5 50.5t106 11.5q54 0 87.5 -7t59.5 -20l-9 -93q-33 12 -60 18t-69 6q-44 0 -85.5 -8.5t-75.5 -37.5t-60 -85t-37 -146l-31 -302h359l-10 -94h-359l-100 -966h-106l101 966h-253zM1801 0l180 1721h103l-180 -1721h-103z" />
<glyph horiz-adv-x="0" />
<glyph horiz-adv-x="0" />
<glyph unicode="&#xd;" horiz-adv-x="614" />
<glyph unicode=" "  horiz-adv-x="631" />
<glyph unicode="&#x09;" horiz-adv-x="631" />
<glyph unicode="&#xa0;" horiz-adv-x="631" />
<glyph unicode="!" horiz-adv-x="662" d="M218 94q0 56 41 95t97 39q50 0 80.5 -32t30.5 -78q0 -57 -40.5 -96t-97.5 -39q-49 0 -80 32t-31 79zM324 474l136 1278h110l-136 -1278h-110z" />
<glyph unicode="&#x22;" horiz-adv-x="697" d="M286 1145l40 555l5 62h101l-5 -62l-75 -555h-66zM587 1145l42 555l5 62h100l-4 -62l-74 -555h-69z" />
<glyph unicode="#" horiz-adv-x="1353" d="M131 539l9 87h278l112 467h-267l9 89h281l130 539h93l-132 -539h430l131 539h92l-132 -539h244l-11 -89h-256l-112 -467h246l-10 -87h-258l-133 -539h-91l130 539h-427l-133 -539h-91l131 539h-263zM509 626h429l114 467h-430z" />
<glyph unicode="$" horiz-adv-x="1407" d="M199 518h108q-9 -98 15.5 -181.5t83 -143.5t150 -93.5t211.5 -33.5q108 0 198 27t154.5 78.5t102 125.5t37.5 167q0 94 -35 154t-92.5 98.5t-129 62t-144.5 39.5q-101 24 -192 54t-162.5 77.5t-113 120t-41.5 189.5q0 103 35.5 190t103.5 152.5t168.5 104.5t230.5 46 l27 246h87l-28 -246q226 -12 343 -143.5t100 -360.5h-108q12 185 -81.5 295.5t-309.5 110.5q-108 0 -193.5 -28.5t-144 -79t-90.5 -120.5t-32 -150q0 -89 34.5 -146.5t92.5 -96t132.5 -60t155.5 -42.5q99 -24 188.5 -54.5t157 -81t108.5 -126.5t41 -190 q0 -221 -152.5 -359.5t-428.5 -151.5l-26 -245h-87l28 245q-127 7 -227.5 50t-164 114.5t-93 170t-17.5 215.5z" />
<glyph unicode="%" horiz-adv-x="2080" d="M253 1064l40 374q7 61 35 115t74 94.5t107 64t133 23.5q71 0 127.5 -24.5t93.5 -67.5t54 -99.5t9 -120.5l-39 -374q-7 -61 -35.5 -115t-75 -94.5t-108 -64t-129.5 -23.5q-73 0 -129 25t-93 67.5t-54 99.5t-10 120zM347 1064q-10 -93 43 -162t156 -69q101 0 169.5 65.5 t81.5 165.5l38 359q10 94 -45.5 162.5t-158.5 68.5q-101 0 -167 -65t-78 -166zM479 -5l1268 1851l82 -50l-1271 -1850zM1334 293l40 373q7 61 35.5 115t74 95t106.5 64.5t133 23.5q71 0 127.5 -25t93.5 -68t54 -99.5t10 -119.5l-40 -375q-7 -61 -35.5 -115t-75 -94 t-108 -63.5t-129.5 -23.5q-73 0 -129 24.5t-92.5 67t-54 99t-10.5 121.5zM1428 293q-10 -94 43 -163t156 -69q101 0 169.5 65.5t81.5 166.5l38 359q10 93 -45 161.5t-159 68.5q-51 0 -93.5 -18t-74.5 -50.5t-52 -74t-24 -87.5z" />
<glyph unicode="&#x26;" horiz-adv-x="1468" d="M176 420q0 172 106.5 300t301.5 169q-140 30 -215.5 123.5t-75.5 235.5q0 108 42.5 199t118.5 158t182 103.5t229 36.5q118 0 211.5 -34.5t156 -97.5t89.5 -148.5t17 -191.5h-108q17 167 -81 269t-294 102q-101 0 -185 -28t-143 -78.5t-92 -122t-33 -156.5 q0 -145 95 -233t278 -88h106l-12 -100h-108q-110 0 -199 -32t-150 -87t-94 -129t-33 -160q0 -158 106.5 -256t305.5 -98q123 0 213 39.5t148.5 107t90.5 158.5t44 194h-253l11 101h540l-10 -101h-180q-14 -127 -58.5 -237t-121 -191t-183 -126t-249.5 -45q-115 0 -209.5 32 t-162 89.5t-105 139.5t-37.5 183z" />
<glyph unicode="'" horiz-adv-x="394" d="M286 1145l40 555l5 62h101l-5 -62l-75 -555h-66z" />
<glyph unicode="(" horiz-adv-x="793" d="M234 -30l149 1428q12 113 63 213.5t130.5 177t186.5 121t232 44.5l-12 -101q-101 0 -187 -36.5t-151 -98.5t-104 -145.5t-49 -174.5l-150 -1428q-10 -91 13 -173.5t73.5 -143.5t129 -97.5t179.5 -36.5l-10 -101q-125 0 -222 44t-162.5 120t-93.5 177t-15 211z" />
<glyph unicode=")" horiz-adv-x="793" d="M-54 -582l10 101q100 0 185 36.5t150 97.5t106 144t51 173l150 1428q9 91 -14.5 174.5t-75 145.5t-129 98.5t-177.5 36.5l9 101q125 0 222 -44.5t162.5 -121t94 -176.5t16.5 -214l-150 -1428q-12 -110 -61.5 -211t-129 -177t-187 -120t-232.5 -44z" />
<glyph unicode="*" horiz-adv-x="1105" d="M256 1409l32 75l378 -142l32 420h83l-56 -420l403 142l17 -75l-408 -121l222 -339l-75 -49l-199 350l-277 -350l-64 49l298 339z" />
<glyph unicode="+" d="M286 649l9 99h425l47 432h105l-46 -432h424l-9 -99h-425l-44 -428h-106l44 428h-424z" />
<glyph unicode="," horiz-adv-x="561" d="M120 -286l7 70q73 0 123 33t62 94q12 42 9.5 65.5t-7.5 35.5q-30 -24 -68 -24q-47 0 -75 32t-28 76q0 54 39 95t104 41q70 0 109 -57t39 -158q0 -157 -87 -230t-227 -73z" />
<glyph unicode="-" horiz-adv-x="722" d="M143 652l9 98h575l-9 -98h-575z" />
<glyph unicode="." horiz-adv-x="498" d="M140 98q0 57 39 95.5t93 38.5q50 0 80.5 -31.5t30.5 -80.5q0 -56 -40.5 -93t-94.5 -37q-49 0 -78.5 31t-29.5 77z" />
<glyph unicode="/" horiz-adv-x="987" d="M22 -140l1113 2077l91 -42l-1113 -2077z" />
<glyph unicode="0" horiz-adv-x="1414" d="M209 521l71 675q12 113 61.5 214.5t129.5 177t186.5 120t234.5 44.5q127 0 226 -45.5t163.5 -122t93 -176.5t16.5 -212l-71 -675q-12 -111 -61 -211.5t-131 -177t-188.5 -120.5t-233.5 -44q-128 0 -227 45.5t-162.5 121.5t-91.5 175.5t-16 210.5zM317 521 q-10 -89 12.5 -171t72.5 -144.5t129 -100t182 -37.5t190 37.5t152.5 98.5t105.5 143.5t51 173.5l71 675q9 92 -14 175t-75 145t-130.5 98.5t-181.5 36.5t-189 -36.5t-151.5 -98.5t-104.5 -145t-48 -175z" />
<glyph unicode="1" horiz-adv-x="744" d="M223 1342l11 93q110 0 177.5 16.5t108 49.5t59.5 87t26 133h103l-180 -1721h-110l140 1342h-335z" />
<glyph unicode="2" horiz-adv-x="1292" d="M118 0q24 216 71 354t122 226t181 144.5t247 110.5q84 33 167.5 67t150 85.5t107.5 126.5t41 183q0 162 -95 254.5t-275 92.5q-103 0 -187.5 -32t-147 -89.5t-101 -139t-47.5 -176.5h-108q12 118 62 217.5t129 171t185.5 110.5t232.5 39q221 0 340.5 -116.5t119.5 -315.5 q0 -131 -48 -223.5t-123 -157t-170 -108t-191 -74.5q-140 -49 -234.5 -106t-157.5 -131.5t-96 -175.5t-47 -236h953l-10 -101h-1071z" />
<glyph unicode="3" horiz-adv-x="1321" d="M131 479h108q-10 -91 14 -164.5t78.5 -126t134.5 -82.5t181 -30q105 0 194.5 32t152.5 88.5t98.5 133t35.5 167.5q0 152 -102 246.5t-294 94.5h-137l12 100h138q103 0 185.5 29.5t139 80t87 120.5t30.5 152q0 152 -102 238t-279 86q-196 0 -315.5 -102t-136.5 -269h-108 q10 106 56.5 191.5t121.5 148.5t173.5 97.5t216.5 34.5q110 0 199 -29.5t151 -83.5t96.5 -131.5t34.5 -170.5q0 -82 -26 -154t-74 -131.5t-118.5 -99.5t-159.5 -56q152 -30 235.5 -132.5t83.5 -257.5q0 -113 -45.5 -209t-126.5 -166t-191.5 -109t-241.5 -39 q-122 0 -220.5 35.5t-164.5 102t-97 158.5t-18 207z" />
<glyph unicode="4" horiz-adv-x="1323" d="M244 626l115 1095h108l-106 -994h561l58 558h108l-58 -558h302l-10 -101h-302l-66 -626h-108l66 626h-668z" />
<glyph unicode="5" horiz-adv-x="1429" d="M234 528h108q-10 -91 12 -173.5t73.5 -143.5t130 -98t181.5 -37q111 0 203 40.5t159 109.5t103.5 158.5t36.5 187.5q0 84 -28.5 158t-81 128t-129 84.5t-172.5 30.5q-133 0 -239.5 -60t-172.5 -181h-120l105 989h951l-12 -101h-850l-82 -772q69 111 192 168.5t263 57.5 q113 0 203 -38.5t152.5 -104.5t95.5 -156t33 -193q0 -120 -45 -230.5t-128 -194.5t-195.5 -132.5t-248.5 -48.5q-127 0 -225.5 44t-164 120t-93.5 177t-15 211z" />
<glyph unicode="6" horiz-adv-x="1299" d="M143 474q0 108 34 199t88 165l642 883h125l-528 -720q49 44 119.5 63.5t143.5 19.5q113 0 204 -40.5t156 -108t99.5 -160t34.5 -195.5q0 -120 -45.5 -229.5t-127.5 -193.5t-195 -132.5t-246 -48.5q-118 0 -212.5 39t-159 108t-98.5 159.5t-34 191.5zM251 487 q0 -84 27 -159t78.5 -130t127.5 -88.5t172 -33.5q108 0 199 40.5t156 109.5t102 158.5t37 187.5q0 84 -27 159t-79 130.5t-128 88.5t-171 33q-108 0 -199 -40.5t-156.5 -109.5t-102 -159t-36.5 -187z" />
<glyph unicode="7" horiz-adv-x="1086" d="M155 0l951 1620h-843l12 101h1005l-1010 -1721h-115z" />
<glyph unicode="8" horiz-adv-x="1377" d="M180 415q0 84 27 162.5t78.5 141t126.5 107t172 63.5q-147 30 -218 128.5t-71 230.5q0 103 41.5 194.5t116.5 159t180.5 105.5t234.5 38q115 0 205 -30.5t152.5 -86t95.5 -133t33 -168.5q0 -79 -25 -148.5t-71 -129t-115 -101t-160 -59.5q155 -30 232 -136t77 -251 q0 -111 -42.5 -207t-123 -167.5t-190.5 -111.5t-246 -40q-122 0 -217 33t-160 90.5t-99 138.5t-34 177zM288 425q0 -155 108 -252t302 -97q108 0 197.5 32t154 87.5t99.5 131.5t35 165q0 152 -105.5 249t-304.5 97q-113 0 -203 -32t-152.5 -87t-96.5 -131.5t-34 -162.5z M408 1250q0 -142 96.5 -230.5t281.5 -88.5q103 0 188.5 29.5t145.5 81t91.5 122t31.5 151.5q0 148 -100.5 238.5t-282.5 90.5q-100 0 -183.5 -29.5t-143 -82t-92.5 -125.5t-33 -157z" />
<glyph unicode="9" horiz-adv-x="1299" d="M221 1138q0 120 46.5 231t127.5 194t194 132.5t246 49.5q120 0 213.5 -41t158 -108t98.5 -158.5t34 -194.5t-33 -192.5t-92 -168.5l-642 -882h-124l530 720q-42 -42 -109 -63t-147 -21q-112 0 -204.5 39.5t-158.5 107.5t-102 158.5t-36 196.5zM329 1147q0 -84 27 -158.5 t80.5 -129.5t129.5 -88.5t171 -33.5q108 0 199 40.5t156.5 109.5t102 158.5t36.5 188.5q0 84 -27 157.5t-78.5 130t-126.5 89.5t-173 33q-108 0 -199.5 -40t-157.5 -109t-103 -159t-37 -189z" />
<glyph unicode=":" horiz-adv-x="498" d="M140 98q0 57 39 95.5t93 38.5q50 0 80.5 -32.5t30.5 -79.5q0 -56 -41.5 -94t-93.5 -38q-49 0 -78.5 32t-29.5 78zM232 946q0 56 37.5 93t91.5 37q49 0 80 -30.5t31 -79.5q0 -56 -39 -93.5t-93 -37.5q-50 0 -79 30.5t-29 80.5z" />
<glyph unicode=";" horiz-adv-x="505" d="M120 -286l7 70q73 0 123 33t62 94q12 42 9.5 65.5t-7.5 35.5q-30 -24 -68 -24q-47 0 -75 32t-28 76q0 54 39 95t104 41q70 0 109 -57t39 -158q0 -157 -87 -230t-227 -73zM232 946q0 56 39 94.5t93 38.5q49 0 78.5 -32t29.5 -79q0 -56 -39 -93t-93 -37q-50 0 -79 30.5 t-29 77.5z" />
<glyph unicode="&#x3c;" d="M138 656l10 83l1294 468l-12 -105l-1135 -404l1049 -405l-10 -106z" />
<glyph unicode="=" d="M246 434l10 99h992l-10 -99h-992zM290 860l10 99h992l-9 -99h-993z" />
<glyph unicode="&#x3e;" d="M94 187l12 106l1135 405l-1051 404l12 105l1196 -468l-10 -83z" />
<glyph unicode="?" horiz-adv-x="1201" d="M180 1214q12 118 61 216.5t129 170t187 111.5t237 40q216 0 335 -109t119 -304q0 -113 -36.5 -194t-89.5 -136t-108 -91t-92 -55q-59 -35 -108.5 -67t-83.5 -76t-57.5 -105.5t-30.5 -152.5h-103q9 96 32.5 166t62.5 124t92 93t120 77q30 14 78.5 43.5t96.5 77.5t83.5 118 t35.5 171q0 155 -93 237t-263 82q-108 0 -195 -33t-150 -90.5t-102 -137.5t-49 -176h-108zM427 96q0 56 41 94t97 38q49 0 81 -32t32 -81q0 -56 -41.5 -94t-97.5 -38q-49 0 -80.5 32t-31.5 81z" />
<glyph unicode="@" horiz-adv-x="2216" d="M143 427q0 214 78.5 409.5t227.5 345.5t366 238t498 88q199 0 357.5 -49.5t269 -157t169 -274.5t58.5 -401q0 -105 -15.5 -237.5t-62.5 -251t-131.5 -199.5t-222.5 -81q-135 0 -193 80t-53 208l12 127q-59 -117 -176.5 -193.5t-272.5 -76.5q-105 0 -189 37t-143 100 t-89.5 145t-30.5 176q0 110 41.5 209.5t115 176t175.5 122t224 45.5q154 0 256 -74t138 -200l28 251h91l-84 -798q-12 -125 35 -185.5t132 -60.5q98 0 161 74t98.5 180.5t49.5 226t14 209.5q0 204 -54.5 353t-153.5 245t-244.5 141.5t-325.5 45.5q-251 0 -448 -80 t-334 -216.5t-208 -316t-71 -376.5q0 -164 53 -315.5t163.5 -265.5t280 -181.5t402.5 -67.5q64 0 141.5 6t163.5 23t177 48t179 77l33 -73q-96 -51 -192 -83t-188.5 -52t-176 -27.5t-154.5 -7.5q-250 0 -433 75t-304 200.5t-179.5 291.5t-58.5 347zM694 467q0 -79 24 -147.5 t72 -120t118 -82.5t159 -31q101 0 185.5 38t146 101t96 146.5t34.5 174.5q0 79 -26 147.5t-74 120t-119.5 82t-159.5 30.5q-101 0 -184.5 -36.5t-143.5 -100.5t-94 -147.5t-34 -174.5z" />
<glyph unicode="A" horiz-adv-x="1311" d="M19 0l775 1721h88l408 -1721h-113l-84 354h-803l-157 -354h-114zM335 455h734l-248 1103z" />
<glyph unicode="B" horiz-adv-x="1414" d="M216 0l182 1721h587q103 0 182 -35t131.5 -91.5t78.5 -130t26 -149.5q0 -84 -28.5 -160t-77.5 -135t-114 -99.5t-139 -55.5q59 -9 111 -43t90 -83t60 -111.5t22 -133.5q0 -91 -37 -179.5t-104.5 -158.5t-164.5 -113t-217 -43h-588zM335 101h481q89 0 162.5 31.5 t127.5 84.5t83.5 123t29.5 147q0 61 -22 120t-63 106t-98.5 74t-130.5 27h-495zM420 914h490q86 0 157 33t121 87t78.5 123t28.5 143q0 61 -22.5 119t-62.5 102.5t-100.5 71.5t-136.5 27h-479z" />
<glyph unicode="C" horiz-adv-x="1902" d="M197 779q0 187 69 363t195 312t307 218t407 82q162 0 292 -42.5t225 -121t152.5 -187t74.5 -238.5h-113q-17 106 -66 196.5t-130 154.5t-191.5 101t-248.5 37q-199 0 -358.5 -73t-272 -194t-172.5 -277t-60 -324q0 -148 48 -278t137.5 -228t221.5 -156t301 -58 q123 0 234 32.5t202.5 87.5t162 131.5t114.5 166.5h120q-52 -111 -134 -206.5t-191 -164.5t-241 -108.5t-279 -39.5q-192 0 -342 65.5t-253 176t-157 258t-54 314.5z" />
<glyph unicode="D" horiz-adv-x="1695" d="M216 0l182 1721h474q200 0 350 -66.5t252 -174.5t153.5 -250t51.5 -292q0 -174 -69 -342.5t-197 -301t-311 -213.5t-412 -81h-474zM335 101h366q199 0 360 71.5t273.5 187.5t174.5 265t62 304q0 133 -45.5 257t-135.5 219.5t-223 155t-307 59.5h-366z" />
<glyph unicode="E" horiz-adv-x="1328" d="M216 0l182 1721h910l-13 -101h-801l-74 -715h802l-12 -101h-802l-73 -703h800l-9 -101h-910z" />
<glyph unicode="F" horiz-adv-x="1321" d="M216 0l182 1721h910l-13 -101h-801l-79 -750h802l-10 -101h-801l-82 -769h-108z" />
<glyph unicode="G" horiz-adv-x="2041" d="M194 764q0 192 70.5 370.5t198 317t305.5 220.5t397 82q136 0 248.5 -33t197.5 -91.5t139 -141.5t74 -178h-112q-19 71 -65.5 133.5t-118 109.5t-167 74t-208.5 27q-192 0 -348 -74t-267 -195t-172 -281.5t-61 -329.5q0 -140 43 -268t131.5 -226t221 -156t309.5 -58 q150 0 272.5 43t216 122t155.5 188t88 242h-560l10 101h850l-9 -101h-178q-32 -155 -104 -282.5t-181.5 -220t-253.5 -143t-319 -50.5q-204 0 -353.5 66.5t-250 177t-150 254.5t-49.5 301z" />
<glyph unicode="H" horiz-adv-x="1623" d="M216 0l182 1721h108l-86 -816h976l86 816h108l-181 -1721h-109l84 804h-976l-84 -804h-108z" />
<glyph unicode="I" horiz-adv-x="542" d="M216 0l182 1721h111l-183 -1721h-110z" />
<glyph unicode="J" horiz-adv-x="1314" d="M101 518h108q-4 -33 -4 -64q0 -66 17 -122q26 -84 80 -142.5t133 -91t175 -32.5q93 0 174 30.5t142.5 90t101 143t51.5 188.5l126 1203h108l-126 -1203q-15 -127 -64 -229t-126.5 -174.5t-178 -111t-218.5 -38.5t-216 39.5t-166 112.5t-100 175q-22 69 -22 149q0 37 5 77 z" />
<glyph unicode="K" horiz-adv-x="1365" d="M216 0l182 1721h108l-88 -834l973 834h145l-1001 -861l819 -860h-144l-797 833l-89 -833h-108z" />
<glyph unicode="L" horiz-adv-x="1027" d="M216 0l182 1721h108l-171 -1620h621l-10 -101h-730z" />
<glyph unicode="M" horiz-adv-x="1987" d="M216 0l182 1721h106l506 -1566l836 1566h108l-182 -1721h-109l156 1470l-780 -1470h-93l-467 1470l-155 -1470h-108z" />
<glyph unicode="N" horiz-adv-x="1621" d="M216 0l182 1721h123l797 -1539l162 1539h108l-183 -1721h-120l-798 1538l-163 -1538h-108z" />
<glyph unicode="O" horiz-adv-x="1987" d="M197 774q0 187 71.5 364t199 314.5t307 219.5t397.5 82q195 0 343 -66t250 -178t153.5 -258t51.5 -306q0 -190 -69.5 -365t-198.5 -312.5t-309 -220.5t-396 -83q-194 0 -343.5 66.5t-250.5 178.5t-153.5 258t-52.5 306zM310 781q0 -140 45.5 -269t133.5 -228t219 -158.5 t300 -59.5q190 0 347 74t268.5 195.5t174 279t62.5 323.5q0 141 -45 270t-134 228.5t-220 158.5t-301 59q-189 0 -346.5 -74t-269.5 -195t-173 -278.5t-61 -325.5z" />
<glyph unicode="P" horiz-adv-x="1461" d="M216 0l182 1721h578q117 0 212 -39.5t159 -108.5t98.5 -160t34.5 -194q0 -120 -46 -229.5t-128 -193t-196.5 -133t-251.5 -49.5h-469l-65 -614h-108zM401 715h469q110 0 202.5 41t158.5 108t103.5 157t37.5 189q0 84 -28.5 158t-80 130.5t-127.5 89t-172 32.5h-470z" />
<glyph unicode="Q" horiz-adv-x="1987" d="M197 774q0 187 71.5 364t200.5 314.5t308 219.5t398 82q192 0 340 -64.5t250 -177t153.5 -261t51.5 -313.5q0 -192 -67 -357.5t-183 -292t-274 -207.5t-337 -100l137 -227l-101 -49l-157 260q-192 0 -339 68t-248 178.5t-152.5 256.5t-51.5 306zM310 781 q0 -140 45.5 -269t133.5 -228t219 -158.5t300 -59.5q190 0 347 74t268.5 195.5t174 279t62.5 323.5q0 141 -45 270t-134 228.5t-220 158.5t-301 59q-189 0 -346.5 -74t-269.5 -195t-173 -278.5t-61 -325.5z" />
<glyph unicode="R" horiz-adv-x="1471" d="M216 0l182 1721h578q117 0 212 -39.5t159 -108.5t98.5 -160t34.5 -194q0 -105 -34.5 -201t-98.5 -175t-152.5 -134t-193.5 -80l338 -629h-127l-330 614h-493l-65 -614h-108zM401 715h469q110 0 202.5 41t158.5 108t103.5 157t37.5 189q0 84 -28.5 158t-80 130.5 t-127.5 89t-172 32.5h-470z" />
<glyph unicode="S" horiz-adv-x="1407" d="M174 518h109q-2 -27 -2 -52q0 -68 17 -130q24 -84 83 -143.5t150 -93t211 -33.5q108 0 198 27t155 78.5t100.5 125.5t35.5 167q0 92 -34 152t-89.5 99.5t-126.5 61.5t-148 41q-99 24 -190.5 54t-162 77.5t-113.5 120t-43 189.5q0 108 39.5 198.5t114.5 157t182 103 t242 36.5q261 0 384 -136q105 -116 105 -304q0 -32 -3 -66h-108q1 21 1 42q0 158 -82 254q-93 110 -310 110q-108 0 -192.5 -28.5t-143.5 -79t-90 -120.5t-31 -150q0 -89 35 -146.5t91 -95t132.5 -60t157.5 -43.5q99 -24 187 -54.5t157 -81t109.5 -126.5t40.5 -190 q0 -123 -47 -217.5t-129 -160.5t-195 -101t-244 -35q-145 0 -254 41t-179 114q-72 74 -102 175q-22 72 -21 156q0 33 3 67z" />
<glyph unicode="T" horiz-adv-x="1152" d="M209 1620l9 101h1074l-9 -101h-484l-170 -1620h-108l169 1620h-481z" />
<glyph unicode="U" horiz-adv-x="1489" d="M239 521l125 1200h108l-125 -1200q-3 -28 -3 -56q0 -63 16 -120q23 -82 75 -143.5t132 -98.5t183 -37t190 37t153.5 98.5t107 143.5t49.5 176l126 1200h108l-124 -1200q-12 -113 -63 -214t-132 -177t-189 -120.5t-237 -44.5q-131 0 -228.5 45.5t-162.5 121.5 q-66 78 -94 178q-20 69 -19 142q0 34 4 69z" />
<glyph unicode="V" horiz-adv-x="1351" d="M197 1721h115l382 -1557l711 1557h114l-797 -1721h-91z" />
<glyph unicode="W" horiz-adv-x="2275" d="M197 1721h115l344 -1547l620 1547h91l294 -1547l666 1547h116l-759 -1721h-89l-295 1543l-617 -1543h-90z" />
<glyph unicode="X" horiz-adv-x="1276" d="M30 0l638 860l-457 861h124l404 -767l569 767h122l-639 -861l457 -860h-122l-406 764l-568 -764h-122z" />
<glyph unicode="Y" horiz-adv-x="1346" d="M199 1721h127l495 -935l582 935h119l-1072 -1721h-121l423 676z" />
<glyph unicode="Z" horiz-adv-x="1326" d="M42 0l1250 1620h-1029l12 101h1217l-1253 -1620h1117l-10 -101h-1304z" />
<glyph unicode="[" horiz-adv-x="724" d="M155 -575l265 2529h460l-10 -99h-356l-246 -2334h356l-10 -96h-459z" />
<glyph unicode="\" horiz-adv-x="987" d="M164 1895l101 42l676 -2077l-101 -42z" />
<glyph unicode="]" horiz-adv-x="724" d="M-12 -575l10 96h356l246 2334h-356l9 99h460l-265 -2529h-460z" />
<glyph unicode="^" horiz-adv-x="1518" d="M232 794l678 1049h82l462 -1049h-117l-401 922l-589 -922h-115z" />
<glyph unicode="_" horiz-adv-x="1375" d="M52 -206l9 84h1229l-10 -84h-1228z" />
<glyph unicode="`" horiz-adv-x="832" d="M251 1691l59 86l574 -337l-56 -86z" />
<glyph unicode="a" horiz-adv-x="1440" d="M162 476q0 120 45.5 231t126.5 194.5t192.5 133t242.5 49.5q169 0 280 -81t150 -215l30 272h105l-110 -1060h-106l27 268q-66 -131 -194 -211.5t-295 -80.5q-115 0 -206 40t-154.5 108t-98.5 158.5t-35 193.5zM268 484q0 -84 27 -158.5t79.5 -130t129 -89t172.5 -33.5 q108 0 200 41t159 110t104.5 158.5t37.5 189.5q0 84 -28 160.5t-81 131.5t-129 88t-172 33q-108 0 -200.5 -40t-158.5 -109t-103 -160.5t-37 -191.5z" />
<glyph unicode="b" horiz-adv-x="1440" d="M216 0l182 1721h104l-99 -933q66 134 195 215t296 81q113 0 205.5 -40.5t155.5 -108t97 -160t34 -195.5q0 -120 -45.5 -229.5t-126.5 -193.5t-191.5 -132.5t-241.5 -48.5q-169 0 -280.5 81t-153.5 211l-28 -268h-103zM371 487q0 -86 28 -161t81 -130.5t129 -89t175 -33.5 q108 0 200 41t159 110t103.5 158.5t36.5 189.5q0 84 -27 160.5t-80 131.5t-129 88t-172 33q-108 0 -200.5 -40t-159.5 -109t-105.5 -160.5t-38.5 -188.5z" />
<glyph unicode="c" horiz-adv-x="1274" d="M174 472q0 117 39.5 227t116 195.5t188 137.5t256.5 52q118 0 202 -34.5t136.5 -92t77 -131.5t24.5 -153h-105q0 61 -20 118t-62 101t-106.5 70t-158.5 26q-118 0 -209 -43t-151 -114t-92.5 -162.5t-32.5 -189.5q0 -82 22.5 -155t70.5 -128.5t123 -89t178 -33.5 q169 0 271 84t137 207h105q-42 -170 -178 -279t-347 -109q-125 0 -217.5 40t-151 109t-87.5 158.5t-29 188.5z" />
<glyph unicode="d" horiz-adv-x="1440" d="M162 476q0 120 45.5 231t126.5 194.5t192.5 133t242.5 49.5q169 0 280 -81t150 -215l98 933h106l-179 -1721h-106l27 268q-66 -131 -194 -211.5t-295 -80.5q-115 0 -206 40t-154.5 108t-98.5 158.5t-35 193.5zM268 484q0 -84 27 -158.5t79.5 -130t129 -89t172.5 -33.5 q108 0 200 41t159 110t104.5 158.5t37.5 189.5q0 84 -28 160.5t-81 131.5t-129 88t-172 33q-108 0 -200.5 -40t-158.5 -109t-103 -160.5t-37 -191.5z" />
<glyph unicode="e" horiz-adv-x="1260" d="M174 474q0 125 41 237t116 194.5t179 130.5t229 48q106 0 191 -33t144 -92t90.5 -140.5t31.5 -176.5q0 -40 -4.5 -67t-11.5 -57h-900q-3 -28 -3 -55q1 -59 13 -115q18 -82 62 -143.5t119 -99t181 -37.5q152 0 248.5 68t138.5 162h108q-49 -138 -181.5 -230t-321.5 -92 q-120 0 -208.5 39t-146 108t-86.5 158.5t-29 192.5zM293 607h798q2 22 2 43q-1 64 -17 117q-22 71 -68.5 122.5t-115.5 79.5t-155 28q-87 0 -160 -28t-132 -78.5t-98.5 -122.5t-53.5 -161z" />
<glyph unicode="f" horiz-adv-x="790" d="M160 966l9 94h253l33 294q14 127 52.5 203.5t89 115.5t107 50.5t105.5 11.5q54 0 85.5 -7t61.5 -20l-10 -93q-33 12 -60.5 18t-69.5 6t-84 -8.5t-77.5 -37.5t-61 -85t-35.5 -146l-32 -302h361l-10 -94h-361l-101 -966h-103l101 966h-253z" />
<glyph unicode="g" horiz-adv-x="1437" d="M106 -169h103q-1 -20 -1 -39q0 -61 12 -119q16 -76 60 -133.5t124 -92t206 -34.5q213 0 342 115.5t157 373.5l38 368q-68 -133 -196 -213.5t-295 -80.5q-115 0 -206 40t-154.5 109t-98.5 160t-35 194q0 120 47 229.5t128 193t191 133t241 49.5q169 0 280 -81t152 -215 l28 272h108l-123 -1158q-16 -162 -68.5 -274t-131 -182t-184 -100.5t-228.5 -30.5q-150 0 -248 40t-154.5 110.5t-77.5 164.5q-17 75 -17 160q0 20 1 41zM268 487q0 -86 27 -161t79.5 -130.5t129 -89t172.5 -33.5q108 0 200 41t159 110t104.5 158.5t37.5 189.5 q0 84 -28 160.5t-81 131.5t-129 88t-172 33q-108 0 -200.5 -40t-158.5 -109t-103 -160.5t-37 -188.5z" />
<glyph unicode="h" horiz-adv-x="1370" d="M216 0l182 1721h104l-99 -937q28 58 70.5 113t101.5 96t134 66t163 25q200 0 300 -128q47 -58 64 -141q10 -49 10 -108q0 -42 -5 -90l-64 -617h-103l61 590q4 36 4 69q1 45 -7 87q-14 72 -51 125t-98 83.5t-150 30.5q-103 0 -185.5 -40t-139 -105.5t-91 -145.5 t-41.5 -155l-57 -539h-103z" />
<glyph unicode="i" horiz-adv-x="535" d="M216 0l110 1060h104l-111 -1060h-103zM302 1480q0 56 40.5 94t95.5 38q49 0 79.5 -32t30.5 -79q0 -56 -40.5 -94t-94.5 -38q-49 0 -80 32t-31 79z" />
<glyph unicode="j" horiz-adv-x="535" d="M-157 -647l9 101q64 -31 120 -31h4q94 0 142.5 60t61.5 163l146 1414h104l-150 -1424q-17 -154 -93.5 -233t-200.5 -79q-42 0 -80.5 8.5t-62.5 20.5zM305 1480q0 56 39 94t96 38q50 0 79 -32t29 -79q0 -56 -39.5 -94t-95.5 -38q-49 0 -78.5 32t-29.5 79z" />
<glyph unicode="k" horiz-adv-x="1060" d="M216 0l182 1721h104l-126 -1175l612 514h145l-627 -532l516 -528h-145l-504 511l-54 -511h-103z" />
<glyph unicode="l" horiz-adv-x="535" d="M216 0l182 1721h104l-183 -1721h-103z" />
<glyph unicode="m" horiz-adv-x="1963" d="M216 0l110 1060h104l-29 -279q17 54 51.5 109.5t83 97.5t114 69t147.5 27q133 0 219 -76.5t90 -231.5q20 59 56.5 114.5t88 98.5t119.5 69t152 26q70 0 133 -22.5t107 -73t65 -130.5q13 -51 14 -114q0 -37 -5 -78l-68 -666h-105l67 638q4 37 4 70q0 52 -10 93 q-16 67 -49 107.5t-82.5 58.5t-105.5 18q-87 0 -154 -36.5t-115 -99.5t-77.5 -144t-38.5 -170l-58 -535h-103l65 598q5 46 5 86q0 63 -12 110q-19 76 -55.5 119t-84.5 57.5t-95 14.5q-86 0 -153 -36.5t-116.5 -99.5t-79 -144t-39.5 -170l-57 -535h-103z" />
<glyph unicode="n" horiz-adv-x="1370" d="M216 0l110 1060h104l-27 -276q28 58 70.5 113t101.5 96t134 66t163 25q200 0 300 -128q47 -58 64 -141q10 -49 10 -108q0 -42 -5 -90l-64 -617h-103l61 590q4 36 4 69q1 45 -7 87q-14 72 -51 125t-98 83.5t-150 30.5q-103 0 -185.5 -40t-139 -105.5t-91 -145.5 t-41.5 -155l-57 -539h-103z" />
<glyph unicode="o" horiz-adv-x="1334" d="M162 476q0 120 45.5 231t126.5 194.5t194.5 133t245.5 49.5q120 0 215 -40.5t160 -108t99.5 -160t34.5 -195.5q0 -120 -45.5 -229.5t-128 -193.5t-195 -132.5t-246.5 -48.5q-120 0 -213.5 39t-158 108t-99.5 159.5t-35 193.5zM268 484q0 -84 27 -158.5t79.5 -130t129 -89 t172.5 -33.5q108 0 200 41t159 110t104.5 158.5t37.5 189.5q0 84 -28 160.5t-81 131.5t-129 88t-172 33q-108 0 -200.5 -40t-158.5 -109t-103 -160.5t-37 -191.5z" />
<glyph unicode="p" horiz-adv-x="1440" d="M148 -661l181 1721h103l-29 -272q66 134 196.5 215t298.5 81q112 0 203 -40.5t155 -108t97 -159t33 -194.5q0 -120 -45.5 -230.5t-126.5 -194.5t-191.5 -132.5t-241.5 -48.5q-169 0 -280.5 81t-151.5 213l-98 -931h-103zM373 487q0 -86 27 -161t80 -130.5t129 -89 t175 -33.5q108 0 200 41t159 110t103.5 158.5t36.5 189.5q0 84 -27 159t-80 131.5t-129 89.5t-175 33q-108 0 -200 -40t-158 -109t-103.5 -160.5t-37.5 -188.5z" />
<glyph unicode="q" horiz-adv-x="1440" d="M164 476q0 120 46 231t127 194.5t191 133t241 49.5q169 0 281.5 -81t150.5 -215l30 272h103l-181 -1721h-104l98 931q-66 -133 -195 -213.5t-296 -80.5q-112 0 -203.5 39t-155 108t-98.5 159.5t-35 193.5zM268 487q0 -86 27 -161t79.5 -130.5t129 -89t174.5 -33.5 q108 0 200.5 41t159 110t104.5 159.5t38 191.5q0 84 -28.5 159t-81 131.5t-129 88t-172.5 31.5q-110 0 -202.5 -40t-158.5 -109t-103 -160.5t-37 -188.5z" />
<glyph unicode="r" horiz-adv-x="835" d="M216 0l110 1060h104l-29 -293q71 157 191.5 233t247.5 76q64 0 101 -16l-10 -99q-32 10 -52.5 12.5t-43.5 2.5q-110 0 -192.5 -44.5t-140 -115.5t-91 -159.5t-43.5 -177.5l-49 -479h-103z" />
<glyph unicode="s" horiz-adv-x="1100" d="M157 359h103q-2 -20 -2 -39q0 -58 16 -100q21 -56 65 -90t105.5 -49t132.5 -15q155 0 239 60.5t84 163.5q0 54 -23.5 87t-66.5 55.5t-105.5 37t-144.5 32.5q-66 14 -126.5 30t-104 43t-69.5 71t-26 114q0 75 32 135.5t87 102t131 64t165 22.5q87 0 160 -21t124.5 -65 t77.5 -110q20 -52 21 -119q0 -18 -2 -37h-104q2 18 2 34q0 106 -67 162q-77 64 -214 64q-138 0 -225 -60t-87 -165q0 -49 20.5 -80t61 -52t100 -36t135.5 -29q73 -14 137 -31.5t110.5 -46t74 -72.5t27.5 -118q0 -150 -114.5 -238t-318.5 -88q-94 0 -174 21.5t-136 67 t-84 118.5q-20 51 -21 118q0 27 4 58z" />
<glyph unicode="t" horiz-adv-x="778" d="M150 966l10 94h234l44 432h103l-44 -432h341l-10 -94h-341l-65 -600q-4 -39 -4 -72q0 -45 8 -78q12 -56 39 -85.5t66 -38t83 -8.5q35 0 81.5 3.5t80.5 8.5l-9 -96q-35 -5 -83 -9.5t-97 -4.5q-61 0 -115 12t-92 50t-56 111q-10 43 -10 103q0 41 5 90l64 614h-233z" />
<glyph unicode="u" horiz-adv-x="1365" d="M234 443l64 617h108l-62 -591q-4 -35 -4 -68q0 -130 60 -219q76 -111 247 -111q103 0 184 42t137.5 106t90.5 144t43 158l56 539h106l-114 -1060h-106l30 275q-28 -59 -71.5 -114t-103 -96t-132.5 -65t-162 -24q-199 0 -298 127q-47 59 -67 143q-12 50 -11 111q0 40 5 86 z" />
<glyph unicode="v" horiz-adv-x="1124" d="M138 1060h113l324 -915l521 915h114l-608 -1060h-84z" />
<glyph unicode="w" horiz-adv-x="1707" d="M140 1060h111l241 -910l420 910h106l225 -910l433 910h113l-518 -1060h-84l-235 938l-434 -938h-80z" />
<glyph unicode="x" horiz-adv-x="1048" d="M73 0l445 530l-331 530h123l277 -448l374 448h123l-442 -530l334 -530h-123l-283 450l-373 -450h-124z" />
<glyph unicode="y" horiz-adv-x="1380" d="M180 -176h103q-2 -28 -2 -53q0 -165 67 -257q77 -107 281 -107q98 0 173 26t126.5 81.5t83.5 140.5t45 205l45 415q-30 -59 -72 -113t-100 -96t-134 -66t-172 -24q-101 0 -174.5 28t-125.5 92q-49 61 -62 144q-7 39 -7 91q0 57 8 131l63 598h101l-59 -573q-5 -46 -5 -88 q0 -40 5 -77q8 -76 40 -131t93.5 -87.5t157.5 -32.5q113 0 196 42t141.5 106t90 144t39.5 158l56 539h103l-125 -1200q-32 -296 -166 -420.5t-375 -124.5q-258 0 -359 129q-83 108 -83 300q0 38 3 80z" />
<glyph unicode="z" horiz-adv-x="1048" d="M68 0l809 961h-675l9 99h865l-808 -964h715l-10 -96h-905z" />
<glyph unicode="{" horiz-adv-x="835" d="M169 614l11 92q30 0 70 13t78 41t66 70t36 101l72 678q9 87 45.5 151t88.5 106.5t115 63.5t121 21h138l-9 -89h-124q-49 0 -96 -16.5t-84.5 -51.5t-62 -84t-32.5 -113l-72 -673q-7 -61 -31.5 -105.5t-57.5 -76.5t-71.5 -51.5t-69.5 -29.5q32 -12 65 -31.5t60 -52.5 t41.5 -81t7.5 -116l-64 -601q-12 -127 54 -196.5t167 -69.5h124l-10 -88h-138q-59 0 -117 21t-102 62.5t-67 107t-14 150.5l64 605q7 63 -12 109t-51.5 75t-70.5 44t-68 15z" />
<glyph unicode="|" horiz-adv-x="535" d="M160 -575l265 2526h96l-265 -2526h-96z" />
<glyph unicode="}" horiz-adv-x="835" d="M-30 -575l11 88h120q49 0 96 17.5t84.5 52t62 83t32.5 113.5l64 601q8 64 31 111.5t56 81.5t71 55t75 33q-32 10 -65 29.5t-60 51.5t-42.5 76.5t-8.5 105.5l71 673q12 127 -54 196t-167 69h-121l10 89h137q59 0 117 -21t102 -63.5t67.5 -106.5t13.5 -151l-71 -678 q-7 -59 13.5 -101t53 -70t70 -41t67.5 -13l-9 -92q-30 0 -71 -15t-78.5 -44t-66 -75t-35.5 -109l-65 -605q-9 -86 -46 -151t-89.5 -106.5t-115.5 -62.5t-122 -21h-138z" />
<glyph unicode="~" horiz-adv-x="1231" d="M140 629l12 105q64 64 132 89t124 25q64 0 136.5 -23t143.5 -56q73 -32 137 -60.5t127 -28.5q37 0 76 13t75.5 32.5t69 42.5t56.5 46l-12 -106q-61 -54 -134 -89t-145 -35q-56 0 -119.5 23.5t-154.5 65.5q-64 33 -134 56t-129 23q-66 0 -135 -33.5t-126 -89.5z" />
<glyph unicode="&#xa2;" horiz-adv-x="1304" d="M192 544q0 112 38 218t108 190.5t172 139.5t229 64l30 267h89l-30 -267q110 -8 187.5 -46t125.5 -94.5t69 -127t21 -143.5h-103q0 61 -20 117.5t-61 101t-108 70.5t-160 26q-118 0 -208 -43.5t-151 -115t-91.5 -162t-30.5 -188.5q0 -82 22 -155.5t70 -129t122.5 -88.5 t177.5 -33q86 0 155 23.5t118.5 63.5t82.5 92t50 110h109q-19 -79 -60 -145t-101.5 -117.5t-143 -83.5t-187.5 -39l-30 -270h-88l29 270q-108 7 -189 49t-135 109.5t-81 155t-27 181.5z" />
<glyph unicode="&#xa3;" horiz-adv-x="1486" d="M136 0l9 89q30 35 51.5 72.5t39 84.5t31 105.5t23.5 140.5q3 5 6.5 38t9.5 78.5t11 98.5t11.5 99.5t10 81t5.5 41.5h-168l9 86h167l21 202q12 113 63 209t131 165.5t182 109t217 39.5q120 0 215 -42t158.5 -114t93.5 -170.5t17 -212.5h-108q9 91 -12.5 171t-70.5 139.5 t-126.5 93.5t-178.5 34q-167 0 -286.5 -89.5t-165.5 -236.5q-20 -52 -26.5 -137t-13.5 -158h526l-10 -89h-526q-2 -12 -10 -77.5t-16 -141.5t-15.5 -140t-9.5 -73q-19 -153 -49 -243t-84 -153h928l-9 -101h-1051z" />
<glyph unicode="&#xa5;" horiz-adv-x="1515" d="M169 1721h124l553 -957l742 957h124l-812 -1043h434l-7 -83h-447l-27 -264h447l-10 -87h-448l-26 -244h-101l27 244h-444l9 87h445l27 264h-444l7 83h430z" />
<glyph unicode="&#xa7;" horiz-adv-x="1422" d="M138 17h108q-7 -89 15 -166t78.5 -136t148.5 -93.5t225 -34.5q91 0 172 18.5t142 57.5t98.5 103.5t37.5 157.5q0 82 -30.5 135.5t-90 92t-149.5 67.5t-208 64q-105 30 -193.5 60t-151.5 71t-97 98.5t-34 143.5q0 74 24.5 138t67.5 113t101 80t121 43q-71 46 -119 122.5 t-48 191.5q0 110 47 198t127 146.5t185.5 89t220.5 30.5q127 0 226 -36.5t162.5 -103t92 -158.5t18.5 -200h-108q17 180 -87.5 291t-315.5 111q-91 0 -174.5 -22.5t-146 -67t-99.5 -112.5t-37 -156q0 -89 37 -146.5t97 -94.5t137.5 -61.5t155.5 -45.5q115 -35 205 -67 t152 -74t93.5 -97t31.5 -134q0 -74 -25.5 -138t-69 -112.5t-97.5 -82t-110 -48.5q103 -54 150 -129t47 -185q0 -115 -45.5 -199t-124.5 -139.5t-182 -82.5t-221 -27q-147 0 -257 39.5t-180.5 109.5t-102 166t-20.5 211zM324 668q0 -93 70 -150.5t244 -109.5q8 -5 57.5 -20 t108.5 -30.5t110.5 -29.5t61.5 -16q51 2 104 27t93.5 67t66.5 96t26 117q0 59 -23.5 97.5t-66.5 66.5t-105.5 50.5t-139.5 46.5q-7 2 -49 16t-92.5 29.5t-95.5 28t-56 17.5q-79 -3 -137 -30t-97.5 -70t-59.5 -96t-20 -107z" />
<glyph unicode="&#xa8;" horiz-adv-x="1171" d="M352 1602q0 54 37.5 92.5t89.5 38.5q49 0 78.5 -32t29.5 -79q0 -54 -38 -91t-92 -37q-47 0 -76 30.5t-29 77.5zM919 1602q0 52 36.5 91.5t90.5 39.5q47 0 78.5 -32t31.5 -79q0 -54 -40 -91t-94 -37q-46 0 -74.5 30.5t-28.5 77.5z" />
<glyph unicode="&#xa9;" horiz-adv-x="1984" d="M199 772q0 189 71.5 367.5t200.5 317t307 222t394 83.5q195 0 343 -67.5t249 -179.5t153.5 -259t52.5 -307q0 -189 -70.5 -368.5t-199.5 -317.5t-308 -221.5t-395 -83.5q-194 0 -342.5 68t-250.5 179.5t-153.5 259t-51.5 307.5zM290 779q0 -145 46.5 -279t137.5 -237 t224.5 -164.5t307.5 -61.5q194 0 353.5 76.5t275 203t179.5 289.5t64 335q0 145 -47 279t-138 237t-225 165t-305 62q-195 0 -354.5 -76.5t-275 -203t-179.5 -289.5t-64 -336zM563 811q0 111 39.5 214t114 184t182 129t241.5 48q98 0 175.5 -27t131.5 -74t86.5 -110.5 t39.5 -135.5h-81q-22 118 -115.5 194.5t-248.5 76.5q-113 0 -203 -42t-152.5 -111t-95.5 -157t-33 -182q0 -81 26 -156t77.5 -130.5t125 -88.5t169.5 -33q138 0 243.5 64.5t159.5 161.5h86q-59 -133 -190 -217t-307 -84q-112 0 -200.5 37.5t-149 103t-91 151.5t-30.5 184z " />
<glyph unicode="&#xab;" horiz-adv-x="1159" d="M169 676l7 79l530 425l-12 -116l-429 -349l354 -349l-12 -115zM652 676l7 79l528 425l-12 -116l-427 -349l354 -349l-14 -115z" />
<glyph unicode="&#xad;" horiz-adv-x="722" d="M143 652l9 98h575l-9 -98h-575z" />
<glyph unicode="&#xae;" horiz-adv-x="2005" d="M199 772q0 189 71.5 367.5t201.5 317t311 222t399 83.5q197 0 347 -67.5t252 -179.5t154.5 -259t52.5 -307q0 -189 -71 -368.5t-200 -317.5t-310 -221.5t-399 -83.5q-197 0 -348 68t-253 179.5t-155 259t-53 307.5zM290 779q0 -145 46.5 -279t139 -237t228 -164.5 t309.5 -61.5q197 0 360 76.5t280 203t180.5 289.5t63.5 335q0 145 -46.5 279t-138.5 237t-227.5 165t-309.5 62q-197 0 -360 -76.5t-280 -203t-181 -289.5t-64 -336zM752 394l106 999h349q66 0 120 -23.5t92 -63.5t57.5 -94t19.5 -114q0 -120 -76 -215t-201 -121l199 -368 h-98l-192 358h-251l-39 -358h-86zM884 830h258q118 0 192.5 77.5t74.5 185.5q0 91 -57 156.5t-158 65.5h-258z" />
<glyph unicode="&#xb0;" horiz-adv-x="817" d="M204 1379q0 79 32 148.5t84.5 121t123 82.5t149.5 31q68 0 127 -25t102 -67.5t66.5 -102t23.5 -125.5q0 -79 -32 -148.5t-85 -121t-124 -82t-148 -30.5q-71 0 -128.5 24.5t-100.5 67t-66.5 102t-23.5 125.5zM288 1386q0 -103 67 -173.5t173 -70.5q59 0 112.5 23.5 t93.5 63t64.5 92.5t24.5 114q0 103 -67.5 173.5t-173.5 70.5q-59 0 -113 -23.5t-94 -63t-63.5 -92.5t-23.5 -114z" />
<glyph unicode="&#xb2;" horiz-adv-x="874" d="M218 774q12 118 40 194t69 126.5t97.5 83t128.5 60.5q49 20 95 41t80 48t55 65t21 95q0 79 -47 125t-133 46q-103 0 -166.5 -61t-77.5 -159h-92q14 127 105 212t238 85q123 0 195 -63t72 -180q0 -74 -29 -124t-70.5 -86t-94 -61t-99.5 -44q-73 -30 -123 -58t-80.5 -63.5 t-46 -83.5t-26.5 -119h504l-7 -79h-608z" />
<glyph unicode="&#xb3;" horiz-adv-x="894" d="M226 1046h93q-9 -93 46 -150.5t158 -57.5q108 0 173.5 61.5t65.5 152.5q0 76 -49 124t-148 48h-78l7 78h78q106 0 164 56t58 138q0 76 -48 119t-136 43q-101 0 -160 -52.5t-70 -137.5h-92q12 117 99 192t227 75q120 0 196.5 -60t76.5 -171q0 -94 -56.5 -159t-142.5 -81 q79 -17 123.5 -74t44.5 -138q0 -63 -27 -117.5t-73 -93.5t-109 -60t-136 -21q-143 0 -220 78.5t-65 207.5z" />
<glyph unicode="&#xb4;" horiz-adv-x="832" d="M204 1440l647 337l41 -86l-648 -337z" />
<glyph unicode="&#xb6;" horiz-adv-x="1530" d="M167 1243q0 113 33.5 196t88.5 140.5t126.5 93t145 55t144.5 27t128 7.5h722l-9 -93h-130l-215 -2033h-99l213 2031h-473l-213 -2031h-101l124 1173q-106 0 -195 24.5t-153.5 77.5t-100.5 135t-36 197z" />
<glyph unicode="&#xb7;" horiz-adv-x="498" d="M209 757q0 57 39.5 94.5t93.5 37.5q49 0 79.5 -31.5t30.5 -81.5q0 -54 -39.5 -91.5t-95.5 -37.5q-49 0 -78.5 30.5t-29.5 79.5z" />
<glyph unicode="&#xb8;" horiz-adv-x="798" d="M164 -354h77q-2 -56 32 -103t107 -47q76 0 124.5 51.5t48.5 121.5q0 59 -37 99t-106 40q-32 0 -71 -17t-74 -81h-68l29 290h79l-22 -204q28 40 69.5 59.5t87.5 19.5q82 0 135.5 -57t53.5 -142q0 -49 -18 -94.5t-51.5 -80t-79.5 -55.5t-102 -21q-44 0 -84.5 14.5t-70 42.5 t-45.5 69t-14 95z" />
<glyph unicode="&#xb9;" horiz-adv-x="586" d="M275 1489l8 71q61 0 101.5 9t64 29t33.5 50.5t15 72.5h85l-101 -947h-95l76 715h-187z" />
<glyph unicode="&#xbb;" horiz-adv-x="1159" d="M125 251l13 115l427 349l-354 349l12 116l438 -425l-9 -79zM607 251l12 115l427 349l-352 349l12 116l436 -425l-9 -79z" />
<glyph unicode="&#xc0;" horiz-adv-x="1311" d="M19 0l775 1721h88l408 -1721h-113l-84 354h-803l-157 -354h-114zM335 455h734l-248 1103zM568 2180l58 86l579 -336l-60 -87z" />
<glyph unicode="&#xc2;" horiz-adv-x="1311" d="M19 0l775 1721h88l408 -1721h-113l-84 354h-803l-157 -354h-114zM335 455h734l-248 1103zM432 1916l462 365l386 -365l-68 -73l-330 317l-392 -314z" />
<glyph unicode="&#xc4;" horiz-adv-x="1311" d="M19 0l775 1721h88l408 -1721h-113l-84 354h-803l-157 -354h-114zM335 455h734l-248 1103zM462 2003q0 56 39.5 94.5t93.5 38.5q49 0 80 -32.5t31 -77.5q0 -57 -41 -94t-95 -37q-49 0 -78.5 30.5t-29.5 77.5zM1030 2003q0 56 39.5 94.5t93.5 38.5q49 0 78.5 -32.5 t29.5 -77.5q0 -57 -39.5 -94t-93.5 -37q-50 0 -79 30.5t-29 77.5z" />
<glyph unicode="&#xc6;" horiz-adv-x="2034" d="M7 0l1055 1721h948l-12 -101h-802l-73 -715h802l-13 -101h-801l-74 -703h801l-9 -101h-910l37 354h-616l-215 -354h-118zM401 455h565l118 1121z" />
<glyph unicode="&#xc7;" horiz-adv-x="1902" d="M197 776q0 188 67 365t195 313t309 218t407 82q162 0 292 -42.5t225 -121t152.5 -187t74.5 -238.5h-113q-17 106 -66 196.5t-130 154.5t-191.5 101t-248.5 37q-199 0 -358.5 -73t-272 -194t-172.5 -277t-60 -324q0 -148 48 -278t137.5 -228t221.5 -156t301 -58 q123 0 234 32.5t202.5 87.5t162 131.5t114.5 166.5h120q-49 -111 -131.5 -204t-189 -163t-237 -109.5t-272.5 -39.5h-57l-18 -162q24 32 66.5 52t92.5 20q84 0 131 -53t47 -130q0 -44 -17 -86.5t-49 -75t-77.5 -52.5t-99.5 -20q-37 0 -74 10.5t-66 32.5t-49 56t-22 84h79 q5 -47 36.5 -80t95.5 -33q75 0 121.5 46.5t46.5 110.5q0 52 -35 87t-98 35q-35 0 -74 -15.5t-72 -69.5h-70l24 247q-165 20 -292.5 92t-213.5 178.5t-131.5 244t-45.5 289.5z" />
<glyph unicode="&#xc8;" horiz-adv-x="1328" d="M216 0l182 1721h910l-13 -101h-801l-74 -715h802l-12 -101h-802l-73 -703h800l-9 -101h-910zM593 2165l59 86l577 -337l-61 -85z" />
<glyph unicode="&#xc9;" horiz-adv-x="1328" d="M216 0l182 1721h910l-13 -101h-801l-74 -715h802l-12 -101h-802l-73 -703h800l-9 -101h-910zM575 1930l647 336l39 -86l-647 -337z" />
<glyph unicode="&#xca;" horiz-adv-x="1328" d="M216 0l182 1721h910l-13 -101h-801l-74 -715h802l-12 -101h-802l-73 -703h800l-9 -101h-910zM464 1916l462 365l387 -365l-70 -73l-331 317l-391 -314z" />
<glyph unicode="&#xcb;" horiz-adv-x="1328" d="M216 0l182 1721h910l-13 -101h-801l-74 -715h802l-12 -101h-802l-73 -703h800l-9 -101h-910zM484 2003q0 56 38 94.5t95 38.5q49 0 78.5 -32.5t29.5 -77.5q0 -57 -39 -94t-93 -37q-49 0 -79 30.5t-30 77.5zM1049 2003q0 56 38.5 94.5t94.5 38.5q49 0 79.5 -32.5 t30.5 -77.5q0 -57 -39 -94t-95 -37q-49 0 -79 30.5t-30 77.5z" />
<glyph unicode="&#xcc;" horiz-adv-x="542" d="M169 2165l63 86l574 -337l-58 -85zM216 0l182 1721h111l-183 -1721h-110z" />
<glyph unicode="&#xce;" horiz-adv-x="542" d="M49 1916l462 365l387 -365l-70 -73l-329 317l-393 -314zM216 0l182 1721h111l-183 -1721h-110z" />
<glyph unicode="&#xcf;" horiz-adv-x="542" d="M82 2003q0 56 37.5 94.5t94.5 38.5q49 0 78.5 -32.5t29.5 -77.5q0 -57 -38 -94t-94 -37q-50 0 -79 30.5t-29 77.5zM216 0l182 1721h111l-183 -1721h-110zM649 2003q0 56 38 94.5t92 38.5q49 0 79.5 -32.5t30.5 -77.5q0 -57 -40 -94t-92 -37q-49 0 -78.5 30.5t-29.5 77.5z " />
<glyph unicode="&#xd2;" horiz-adv-x="1987" d="M197 774q0 187 71.5 364t199 314.5t307 219.5t397.5 82q195 0 343 -66t250 -178t153.5 -258t51.5 -306q0 -190 -69.5 -365t-198.5 -312.5t-309 -220.5t-396 -83q-194 0 -343.5 66.5t-250.5 178.5t-153.5 258t-52.5 306zM310 781q0 -140 45.5 -269t133.5 -228t219 -158.5 t300 -59.5q190 0 347 74t268.5 195.5t174 279t62.5 323.5q0 141 -45 270t-134 228.5t-220 158.5t-301 59q-189 0 -346.5 -74t-269.5 -195t-173 -278.5t-61 -325.5zM882 2180l56 86l579 -336l-60 -87z" />
<glyph unicode="&#xd3;" horiz-adv-x="1987" d="M197 774q0 187 71.5 364t199 314.5t307 219.5t397.5 82q195 0 343 -66t250 -178t153.5 -258t51.5 -306q0 -190 -69.5 -365t-198.5 -312.5t-309 -220.5t-396 -83q-194 0 -343.5 66.5t-250.5 178.5t-153.5 258t-52.5 306zM310 781q0 -140 45.5 -269t133.5 -228t219 -158.5 t300 -59.5q190 0 347 74t268.5 195.5t174 279t62.5 323.5q0 141 -45 270t-134 228.5t-220 158.5t-301 59q-189 0 -346.5 -74t-269.5 -195t-173 -278.5t-61 -325.5zM875 1930l647 336l44 -86l-649 -337z" />
<glyph unicode="&#xd4;" horiz-adv-x="1987" d="M197 774q0 187 71.5 364t199 314.5t307 219.5t397.5 82q195 0 343 -66t250 -178t153.5 -258t51.5 -306q0 -190 -69.5 -365t-198.5 -312.5t-309 -220.5t-396 -83q-194 0 -343.5 66.5t-250.5 178.5t-153.5 258t-52.5 306zM310 781q0 -140 45.5 -269t133.5 -228t219 -158.5 t300 -59.5q190 0 347 74t268.5 195.5t174 279t62.5 323.5q0 141 -45 270t-134 228.5t-220 158.5t-301 59q-189 0 -346.5 -74t-269.5 -195t-173 -278.5t-61 -325.5zM772 1916l462 365l386 -365l-70 -73l-326 317l-396 -314z" />
<glyph unicode="&#xd6;" horiz-adv-x="1987" d="M197 774q0 187 71.5 364t199 314.5t307 219.5t397.5 82q195 0 343 -66t250 -178t153.5 -258t51.5 -306q0 -190 -69.5 -365t-198.5 -312.5t-309 -220.5t-396 -83q-194 0 -343.5 66.5t-250.5 178.5t-153.5 258t-52.5 306zM310 781q0 -140 45.5 -269t133.5 -228 t218.5 -158.5t300.5 -59.5q190 0 347 74t268.5 195.5t174 279t62.5 323.5q0 141 -45 270t-134 228.5t-220 158.5t-301 59q-189 0 -346.5 -74t-269.5 -195t-173 -279t-61 -325zM802 2003q0 56 39 94.5t95 38.5q49 0 78.5 -32.5t29.5 -77.5q0 -57 -39 -94t-95 -37 q-50 0 -79 30.5t-29 77.5zM1369 2003q0 56 39 94.5t93 38.5q49 0 80 -32.5t31 -77.5q0 -57 -40.5 -94t-94.5 -37q-49 0 -78.5 30.5t-29.5 77.5z" />
<glyph unicode="&#xd9;" horiz-adv-x="1489" d="M239 521l125 1200h108l-125 -1200q-10 -94 13 -176t75 -143.5t132 -98.5t183 -37t190 37t153.5 98.5t107 143.5t49.5 176l126 1200h108l-124 -1200q-12 -113 -63 -214t-132 -177t-189 -120.5t-237 -44.5q-131 0 -228.5 45.5t-162.5 122t-93.5 177t-15.5 211.5zM652 2180 l58 86l578 -336l-62 -87z" />
<glyph unicode="&#xdb;" horiz-adv-x="1489" d="M239 521l125 1200h108l-125 -1200q-10 -94 13 -176t75 -143.5t132 -98.5t183 -37t190 37t153.5 98.5t107 143.5t49.5 176l126 1200h108l-124 -1200q-12 -113 -63 -214t-132 -177t-189 -120.5t-237 -44.5q-131 0 -228.5 45.5t-162.5 122t-93.5 177t-15.5 211.5zM526 1919 l459 365l389 -365l-72 -73l-326 314l-396 -314z" />
<glyph unicode="&#xdc;" horiz-adv-x="1489" d="M239 521l125 1200h108l-125 -1200q-10 -94 13 -176t75 -143.5t132 -98.5t183 -37t190 37t153.5 98.5t107 143.5t49.5 176l126 1200h108l-124 -1200q-12 -113 -63 -214t-132 -177t-189 -120.5t-237 -44.5q-131 0 -228.5 45.5t-162.5 122t-93.5 177t-15.5 211.5zM548 2003 q0 56 39 94.5t96 38.5q49 0 78.5 -32.5t29.5 -77.5q0 -57 -39 -94t-93 -37q-49 0 -80 30.5t-31 77.5zM1116 2003q0 56 39 94.5t93 38.5q49 0 80.5 -32.5t31.5 -77.5q0 -57 -41 -94t-95 -37q-49 0 -78.5 30.5t-29.5 77.5z" />
<glyph unicode="&#xdf;" horiz-adv-x="1363" d="M185 0l134 1280q10 106 54.5 192t115.5 149t167 97t214 34q216 0 340 -113t124 -297q0 -87 -27 -162.5t-78.5 -136t-125 -101t-169.5 -53.5q169 -30 260 -138.5t91 -269.5q0 -115 -46.5 -208t-129 -162t-191.5 -106t-235 -37q-123 0 -207 32l11 98q45 -16 98 -24t105 -8 q106 0 196 30.5t155 85t102 129.5t37 165q0 76 -27 142.5t-80 116t-128 77.5t-171 28h-125l10 96h122q103 0 187 30.5t140.5 85t87 126.5t30.5 154q0 148 -94.5 235t-268.5 87q-192 0 -306 -103.5t-132 -270.5l-135 -1280h-105z" />
<glyph unicode="&#xe0;" horiz-adv-x="1440" d="M162 476q0 120 45.5 231t126.5 194.5t192.5 133t242.5 49.5q169 0 280 -81t150 -215l30 272h105l-110 -1060h-106l27 268q-66 -131 -194 -211.5t-295 -80.5q-115 0 -206 40t-154.5 108t-98.5 158.5t-35 193.5zM268 484q0 -84 27 -158.5t79.5 -130t129 -89t172.5 -33.5 q108 0 200 41t159 110t104.5 158.5t37.5 189.5q0 84 -28 160.5t-81 131.5t-129 88t-172 33q-108 0 -200.5 -40t-158.5 -109t-103 -160.5t-37 -191.5zM502 1607l61 86l577 -337l-61 -85z" />
<glyph unicode="&#xe2;" horiz-adv-x="1440" d="M162 476q0 120 45.5 231t126.5 194.5t192.5 133t242.5 49.5q169 0 280 -81t150 -215l30 272h105l-110 -1060h-106l27 268q-66 -131 -194 -211.5t-295 -80.5q-115 0 -206 40t-154.5 108t-98.5 158.5t-35 193.5zM268 484q0 -84 27 -158.5t79.5 -130t129 -89t172.5 -33.5 q108 0 200 41t159 110t104.5 158.5t37.5 189.5q0 84 -28 160.5t-81 131.5t-129 88t-172 33q-108 0 -200.5 -40t-158.5 -109t-103 -160.5t-37 -191.5zM410 1400l460 364l389 -364l-70 -73l-329 315l-393 -315z" />
<glyph unicode="&#xe4;" horiz-adv-x="1440" d="M162 476q0 120 45.5 231t126.5 194.5t192.5 133t242.5 49.5q169 0 280 -81t150 -215l30 272h105l-110 -1060h-106l27 268q-66 -131 -194 -211.5t-295 -80.5q-115 0 -206 40t-154.5 108t-98.5 158.5t-35 193.5zM268 484q0 -84 27 -158.5t79.5 -130t129 -89t172.5 -33.5 q108 0 200 41t159 110t104.5 158.5t37.5 189.5q0 84 -28 160.5t-81 131.5t-129 88t-172 33q-108 0 -200.5 -40t-158.5 -109t-103 -160.5t-37 -191.5zM415 1465q0 57 38.5 94.5t92.5 37.5q49 0 79.5 -31.5t30.5 -78.5q0 -57 -40.5 -94t-92.5 -37q-49 0 -78.5 31t-29.5 78z M980 1465q0 57 38.5 94.5t95.5 37.5q49 0 78.5 -31.5t29.5 -78.5q0 -57 -38.5 -94t-95.5 -37q-49 0 -78.5 31t-29.5 78z" />
<glyph unicode="&#xe6;" horiz-adv-x="2258" d="M162 476q0 120 45.5 231t126.5 194.5t192.5 133t242.5 49.5q169 0 280 -81t150 -215l30 272h105l-21 -207q71 108 182.5 169.5t251.5 61.5q99 0 181 -32t141.5 -91t92.5 -140.5t33 -178.5q0 -40 -5 -67t-16 -57h-896q-10 -96 10 -178t65 -142t120 -95t176 -35 q152 0 248 68t138 162h106q-22 -64 -66.5 -123.5t-108.5 -103t-145 -69.5t-177 -26q-157 0 -255.5 66t-142.5 169l-22 -211h-106l27 268q-66 -131 -194 -211.5t-295 -80.5q-115 0 -206 40t-154.5 108t-98.5 158.5t-35 193.5zM268 484q0 -84 27 -158.5t79.5 -130t129 -89 t172.5 -33.5q108 0 200 41t159 110t104.5 159.5t37.5 191.5q0 84 -28 159t-81 131.5t-129 88t-172 31.5q-108 0 -200.5 -40t-158.5 -109t-103 -160.5t-37 -191.5zM1290 607h799q7 87 -15 156.5t-70 120t-117.5 78.5t-153.5 28t-158 -27t-132.5 -77.5t-98.5 -120t-54 -158.5z " />
<glyph unicode="&#xe7;" horiz-adv-x="1274" d="M174 474q0 115 39.5 226t116 195.5t188 136.5t256.5 52q118 0 202 -35.5t136.5 -92t77 -131.5t24.5 -152h-105q0 61 -20 118t-62 101t-106.5 70t-158.5 26q-118 0 -209 -43t-151 -114t-92.5 -162.5t-32.5 -189.5q0 -82 22.5 -155t70.5 -128.5t123 -89t178 -33.5 q169 0 271 84t137 207h105q-51 -183 -174 -279.5t-351 -106.5q-33 -2 -37.5 -1t-9.5 1l-17 -172q19 32 62.5 52t92.5 20q82 0 130.5 -52t48.5 -131q0 -93 -66 -163.5t-175 -70.5q-40 0 -76.5 11.5t-66 33.5t-48 56.5t-21.5 81.5h80q2 -47 36 -80t96 -33q70 0 117.5 46.5 t47.5 110.5q0 52 -34.5 87t-98.5 35q-35 0 -75 -15.5t-70 -69.5h-71l26 261q-88 16 -155.5 63t-112 112t-66.5 146.5t-22 166.5z" />
<glyph unicode="&#xe8;" horiz-adv-x="1260" d="M174 474q0 125 41 237t116 194.5t179 130.5t229 48q106 0 191 -33t144 -92t90.5 -140.5t31.5 -176.5q0 -40 -4.5 -67t-11.5 -57h-900q-8 -88 9.5 -170.5t62 -143.5t119.5 -98.5t181 -37.5q152 0 248.5 68t138.5 162h108q-49 -138 -181.5 -230t-321.5 -92 q-120 0 -208.5 39t-146 108t-86.5 158.5t-29 192.5zM293 607h798q9 89 -12.5 160t-69.5 121t-118 78.5t-154 28.5t-158.5 -27t-133.5 -78.5t-98.5 -122.5t-53.5 -160zM487 1607l59 86l577 -337l-61 -85z" />
<glyph unicode="&#xe9;" horiz-adv-x="1260" d="M174 474q0 125 41 237t116 194.5t179 130.5t229 48q106 0 191 -33t144 -92t90.5 -140.5t31.5 -176.5q0 -40 -4.5 -67t-11.5 -57h-900q-8 -88 9.5 -170.5t62 -143.5t119.5 -98.5t181 -37.5q152 0 248.5 68t138.5 162h108q-49 -138 -181.5 -230t-321.5 -92 q-120 0 -208.5 39t-146 108t-86.5 158.5t-29 192.5zM293 607h798q9 89 -12.5 160t-69.5 121t-118 78.5t-154 28.5t-158.5 -27t-133.5 -78.5t-98.5 -122.5t-53.5 -160zM420 1356l647 337l44 -86l-649 -336z" />
<glyph unicode="&#xea;" horiz-adv-x="1260" d="M174 474q0 125 41 237t116 194.5t179 130.5t229 48q106 0 191 -33t144 -92t90.5 -140.5t31.5 -176.5q0 -40 -4.5 -67t-11.5 -57h-900q-8 -88 9.5 -170.5t62 -143.5t119.5 -98.5t181 -37.5q152 0 248.5 68t138.5 162h108q-49 -138 -181.5 -230t-321.5 -92 q-120 0 -208.5 39t-146 108t-86.5 158.5t-29 192.5zM293 607h798q9 89 -12.5 160t-69.5 121t-118 78.5t-154 28.5t-158.5 -27t-133.5 -78.5t-98.5 -122.5t-53.5 -160zM361 1400l460 364l389 -364l-70 -73l-329 315l-393 -315z" />
<glyph unicode="&#xeb;" horiz-adv-x="1260" d="M174 474q0 125 41 237t116 194.5t179 130.5t229 48q106 0 191 -33t144 -92t90.5 -140.5t31.5 -176.5q0 -40 -4.5 -67t-11.5 -57h-900q-8 -88 9.5 -170.5t62 -143.5t119.5 -98.5t181 -37.5q152 0 248.5 68t138.5 162h108q-49 -138 -181.5 -230t-321.5 -92 q-120 0 -208.5 39t-146 108t-86.5 158.5t-29 192.5zM293 607h798q9 89 -12.5 160t-69.5 121t-118 78.5t-154 28.5t-158.5 -27t-133.5 -78.5t-98.5 -122.5t-53.5 -160zM389 1465q0 57 37.5 93.5t94.5 36.5q49 0 79.5 -30.5t30.5 -80.5q0 -56 -39 -93t-95 -37q-49 0 -78.5 31 t-29.5 80zM956 1465q0 57 39 93.5t91 36.5q49 0 79.5 -30.5t30.5 -80.5q0 -56 -39 -93t-93 -37q-49 0 -78.5 31t-29.5 80z" />
<glyph unicode="&#xec;" horiz-adv-x="535" d="M108 1622l59 86l575 -336l-57 -87zM216 0l110 1060h104l-111 -1060h-103z" />
<glyph unicode="&#xee;" horiz-adv-x="535" d="M-7 1400l462 364l385 -364l-68 -73l-332 315l-391 -315zM216 0l110 1060h104l-111 -1060h-103z" />
<glyph unicode="&#xef;" horiz-adv-x="535" d="M40 1465q0 57 37.5 94.5t91.5 37.5q49 0 80 -31.5t31 -78.5q0 -57 -39 -94t-93 -37q-50 0 -79 31t-29 78zM216 0l110 1060h104l-111 -1060h-103zM580 1465q0 57 38 94.5t95 37.5q49 0 78.5 -31.5t29.5 -78.5q0 -57 -38 -94t-95 -37q-50 0 -79 31t-29 78z" />
<glyph unicode="&#xf2;" horiz-adv-x="1334" d="M162 476q0 120 45.5 231t126.5 194.5t194.5 133t245.5 49.5q120 0 215 -40.5t160 -108t99.5 -160t34.5 -195.5q0 -120 -45.5 -229.5t-128 -193.5t-195 -132.5t-246.5 -48.5q-120 0 -213.5 39t-158 108t-99.5 159.5t-35 193.5zM268 484q0 -84 27 -158.5t79.5 -130t129 -89 t172.5 -33.5q108 0 200 41t159 110t104.5 158.5t37.5 189.5q0 84 -28 160.5t-81 131.5t-129 88t-172 33q-108 0 -200.5 -40t-158.5 -109t-103 -160.5t-37 -191.5zM509 1607l61 86l577 -337l-61 -85z" />
<glyph unicode="&#xf3;" horiz-adv-x="1334" d="M162 476q0 120 45.5 231t126.5 194.5t194.5 133t245.5 49.5q120 0 215 -40.5t160 -108t99.5 -160t34.5 -195.5q0 -120 -45.5 -229.5t-128 -193.5t-195 -132.5t-246.5 -48.5q-120 0 -213.5 39t-158 108t-99.5 159.5t-35 193.5zM268 484q0 -84 27 -158.5t79.5 -130t129 -89 t172.5 -33.5q108 0 200 41t159 110t104.5 158.5t37.5 189.5q0 84 -28 160.5t-81 131.5t-129 88t-172 33q-108 0 -200.5 -40t-158.5 -109t-103 -160.5t-37 -191.5zM460 1356l646 337l41 -86l-645 -336z" />
<glyph unicode="&#xf4;" horiz-adv-x="1334" d="M162 476q0 120 45.5 231t126.5 194.5t194.5 133t245.5 49.5q120 0 215 -40.5t160 -108t99.5 -160t34.5 -195.5q0 -120 -45.5 -229.5t-128 -193.5t-195 -132.5t-246.5 -48.5q-120 0 -213.5 39t-158 108t-99.5 159.5t-35 193.5zM268 484q0 -84 27 -158.5t79.5 -130t129 -89 t172.5 -33.5q108 0 200 41t159 110t104.5 158.5t37.5 189.5q0 84 -28 160.5t-81 131.5t-129 88t-172 33q-108 0 -200.5 -40t-158.5 -109t-103 -160.5t-37 -191.5zM391 1403l460 361l387 -361l-68 -73l-332 314l-393 -314z" />
<glyph unicode="&#xf6;" horiz-adv-x="1334" d="M162 476q0 120 45.5 231t126.5 194.5t194.5 133t245.5 49.5q120 0 215 -40.5t160 -108t99.5 -160t34.5 -195.5q0 -120 -45.5 -229.5t-128 -193.5t-195 -132.5t-246.5 -48.5q-120 0 -213.5 39t-158 108t-99.5 159.5t-35 193.5zM268 484q0 -84 27 -158.5t79.5 -130t129 -89 t172.5 -33.5q108 0 200 41t159 110t104.5 158.5t37.5 189.5q0 84 -28 160.5t-81 131.5t-129 88t-172 33q-108 0 -200.5 -40t-158.5 -109t-103 -160.5t-37 -191.5zM418 1465q0 57 39.5 94.5t93.5 37.5q49 0 78.5 -31.5t29.5 -78.5q0 -57 -39.5 -94t-93.5 -37q-50 0 -79 31 t-29 78zM983 1465q0 57 38.5 94.5t94.5 37.5q49 0 79.5 -31.5t30.5 -78.5q0 -57 -39.5 -94t-95.5 -37q-49 0 -78.5 31t-29.5 78z" />
<glyph unicode="&#xf9;" horiz-adv-x="1365" d="M234 443l64 617h108l-62 -591q-19 -176 56.5 -287t246.5 -111q103 0 184 42t137.5 106t90.5 144t43 158l56 539h106l-114 -1060h-106l30 275q-28 -59 -71.5 -114t-103 -96t-132.5 -65t-162 -24q-199 0 -298 127q-47 59 -66.5 142.5t-6.5 197.5zM528 1607l62 86l578 -337 l-62 -85z" />
<glyph unicode="&#xfb;" horiz-adv-x="1368" d="M234 443l64 617h108l-62 -591q-19 -176 56.5 -287t246.5 -111q103 0 184 42t137.5 106t90.5 144t43 158l56 539h106l-114 -1060h-106l30 275q-28 -59 -71.5 -114t-103 -96t-132.5 -65t-162 -24q-199 0 -298 127q-47 59 -66.5 142.5t-6.5 197.5zM415 1400l462 364 l387 -364l-70 -73l-326 315l-396 -315z" />
<glyph unicode="&#xfc;" horiz-adv-x="1365" d="M234 443l64 617h108l-62 -591q-19 -176 56.5 -287t246.5 -111q103 0 184 42t137.5 106t90.5 144t43 158l56 539h106l-114 -1060h-106l30 275q-28 -59 -71.5 -114t-103 -96t-132.5 -65t-162 -24q-199 0 -298 127q-47 59 -66.5 142.5t-6.5 197.5zM420 1465q0 57 41 94.5 t92 37.5q49 0 80 -33t31 -77q0 -57 -41 -94t-95 -37q-49 0 -78.5 31t-29.5 78zM985 1465q0 57 39.5 94.5t96.5 37.5q49 0 79.5 -31.5t30.5 -78.5q0 -57 -40.5 -94t-94.5 -37q-50 0 -80.5 31t-30.5 78z" />
<glyph unicode="&#xff;" horiz-adv-x="1380" d="M180 -176h103q-12 -204 65 -310.5t281 -106.5q98 0 173 26t126.5 81.5t83.5 140.5t45 205l45 415q-30 -59 -72 -113t-100 -96t-134 -66t-172 -24q-101 0 -174.5 28t-125.5 92q-49 61 -62.5 143.5t1.5 222.5l63 598h101l-59 -573q-9 -89 -0.5 -165t40.5 -131t93.5 -87.5 t157.5 -32.5q113 0 196 42t141.5 106t90 144t39.5 158l56 539h103l-125 -1200q-32 -296 -166 -420.5t-375 -124.5q-258 0 -358.5 129t-80.5 380zM464 1465q0 54 38.5 90.5t90.5 36.5q49 0 78.5 -30.5t29.5 -77.5q0 -54 -38.5 -91t-92.5 -37q-49 0 -77.5 31t-28.5 78z M1030 1465q0 54 38 90.5t92 36.5q47 0 77.5 -30.5t30.5 -77.5q0 -54 -39.5 -91t-93.5 -37q-47 0 -76 31t-29 78z" />
<glyph unicode="&#x100;" horiz-adv-x="1311" d="M19 0l775 1721h88l408 -1721h-113l-84 354h-803l-157 -354h-114zM335 455h734l-248 1103zM420 1963l10 96h880l-10 -96h-880z" />
<glyph unicode="&#x101;" horiz-adv-x="1440" d="M162 476q0 120 45.5 231t126.5 194.5t192.5 133t242.5 49.5q169 0 280 -81t150 -215l30 272h105l-110 -1060h-106l27 268q-66 -131 -194 -211.5t-295 -80.5q-115 0 -206 40t-154.5 108t-98.5 158.5t-35 193.5zM268 484q0 -84 27 -158.5t79.5 -130t129 -89t172.5 -33.5 q108 0 200 41t159 110t104.5 158.5t37.5 189.5q0 84 -28 160.5t-81 131.5t-129 88t-172 33q-108 0 -200.5 -40t-158.5 -109t-103 -160.5t-37 -191.5zM371 1428l9 96h881l-11 -96h-879z" />
<glyph unicode="&#x102;" horiz-adv-x="1311" d="M19 0l775 1721h88l408 -1721h-113l-84 354h-803l-157 -354h-114zM335 455h734l-248 1103zM445 2234h101q14 -122 100 -190t219 -68t233.5 67.5t139.5 190.5h104q-22 -81 -70 -144.5t-112 -108t-143 -68t-161 -23.5q-87 0 -159.5 23.5t-126.5 68t-87 108t-38 144.5z" />
<glyph unicode="&#x103;" horiz-adv-x="1440" d="M162 476q0 120 45.5 231t126.5 194.5t192.5 133t242.5 49.5q169 0 280 -81t150 -215l30 272h105l-110 -1060h-106l27 268q-66 -131 -194 -211.5t-295 -80.5q-115 0 -206 40t-154.5 108t-98.5 158.5t-35 193.5zM268 484q0 -84 27 -158.5t79.5 -130t129 -89t172.5 -33.5 q108 0 200 41t159 110t104.5 158.5t37.5 189.5q0 84 -28 160.5t-81 131.5t-129 88t-172 33q-108 0 -200.5 -40t-158.5 -109t-103 -160.5t-37 -191.5zM413 1721h101q14 -123 97 -192t207 -69q125 0 220 68.5t137 192.5h101q-22 -82 -67.5 -145.5t-106 -108t-135.5 -68 t-156 -23.5q-164 0 -275 91t-123 254z" />
<glyph unicode="&#x104;" horiz-adv-x="1311" d="M19 0l775 1721h88l408 -1721h-26q-134 -54 -207.5 -123t-73.5 -154q0 -69 45.5 -113t127.5 -44q39 0 86.5 8t82.5 20l-15 -88q-37 -10 -85 -18.5t-99 -8.5q-125 0 -185.5 59t-60.5 148q0 96 72.5 171t224.5 143l-84 354h-803l-157 -354h-114zM335 455h734l-248 1103z" />
<glyph unicode="&#x105;" horiz-adv-x="1440" d="M162 476q0 120 45.5 231t126.5 194.5t192.5 133t242.5 49.5q169 0 280 -81t150 -215l30 272h105l-110 -1060h-17q-133 -56 -209 -125t-76 -161q0 -63 42 -105.5t124 -42.5q42 0 89 8t79 20l-10 -88q-38 -10 -86.5 -18.5t-99.5 -8.5q-125 0 -185.5 59t-60.5 148 q0 98 72.5 172t231.5 144l27 266q-66 -131 -194 -211.5t-295 -80.5q-115 0 -206 40t-154.5 108t-98.5 158.5t-35 193.5zM268 484q0 -84 27 -158.5t79.5 -130t129 -89t172.5 -33.5q108 0 200 41t159 110t104.5 158.5t37.5 189.5q0 84 -28 160.5t-81 131.5t-129 88t-172 33 q-108 0 -200.5 -40t-158.5 -109t-103 -160.5t-37 -191.5z" />
<glyph unicode="&#x106;" horiz-adv-x="1902" d="M197 779q0 187 69 363t195 312t307 218t407 82q162 0 292 -42.5t225 -121t152.5 -187t74.5 -238.5h-113q-17 106 -66 196.5t-130 154.5t-191.5 101t-248.5 37q-199 0 -358.5 -73t-272 -194t-172.5 -277t-60 -324q0 -148 48 -278t137.5 -228t221.5 -156t301 -58 q123 0 234 32.5t202.5 87.5t162 131.5t114.5 166.5h120q-52 -111 -134 -206.5t-191 -164.5t-241 -108.5t-279 -39.5q-192 0 -342 65.5t-253 176t-157 258t-54 314.5zM860 1930l646 336l44 -86l-648 -337z" />
<glyph unicode="&#x107;" horiz-adv-x="1274" d="M174 472q0 117 39.5 227t116 195.5t188 137.5t256.5 52q118 0 202 -34.5t136.5 -92t77 -131.5t24.5 -153h-105q0 61 -20 118t-62 101t-106.5 70t-158.5 26q-118 0 -209 -43t-151 -114t-92.5 -162.5t-32.5 -189.5q0 -82 22.5 -155t70.5 -128.5t123 -89t178 -33.5 q169 0 271 84t137 207h105q-42 -170 -178 -279t-347 -109q-125 0 -217.5 40t-151 109t-87.5 158.5t-29 188.5zM467 1356l647 337l42 -86l-650 -336z" />
<glyph unicode="&#x108;" horiz-adv-x="1902" d="M197 779q0 187 69 363t195 312t307 218t407 82q162 0 292 -42.5t225 -121t152.5 -187t74.5 -238.5h-113q-17 106 -66 196.5t-130 154.5t-191.5 101t-248.5 37q-199 0 -358.5 -73t-272 -194t-172.5 -277t-60 -324q0 -148 48 -278t137.5 -228t221.5 -156t301 -58 q123 0 234 32.5t202.5 87.5t162 131.5t114.5 166.5h120q-52 -111 -134 -206.5t-191 -164.5t-241 -108.5t-279 -39.5q-192 0 -342 65.5t-253 176t-157 258t-54 314.5zM755 1916l462 365l385 -365l-68 -73l-327 317l-396 -314z" />
<glyph unicode="&#x109;" horiz-adv-x="1274" d="M174 472q0 117 39.5 227t116 195.5t188 137.5t256.5 52q118 0 202 -34.5t136.5 -92t77 -131.5t24.5 -153h-105q0 61 -20 118t-62 101t-106.5 70t-158.5 26q-118 0 -209 -43t-151 -114t-92.5 -162.5t-32.5 -189.5q0 -82 22.5 -155t70.5 -128.5t123 -89t178 -33.5 q169 0 271 84t137 207h105q-42 -170 -178 -279t-347 -109q-125 0 -217.5 40t-151 109t-87.5 158.5t-29 188.5zM378 1400l460 364l388 -364l-68 -73l-332 315l-392 -315z" />
<glyph unicode="&#x10a;" horiz-adv-x="1902" d="M197 779q0 187 69 363t195 312t307 218t407 82q162 0 292 -42.5t225 -121t152.5 -187t74.5 -238.5h-113q-17 106 -66 196.5t-130 154.5t-191.5 101t-248.5 37q-199 0 -358.5 -73t-272 -194t-172.5 -277t-60 -324q0 -148 48 -278t137.5 -228t221.5 -156t301 -58 q123 0 234 32.5t202.5 87.5t162 131.5t114.5 166.5h120q-52 -111 -134 -206.5t-191 -164.5t-241 -108.5t-279 -39.5q-192 0 -342 65.5t-253 176t-157 258t-54 314.5zM1067 2005q0 57 39 95t95 38q49 0 80.5 -30.5t31.5 -79.5q0 -56 -41 -93.5t-95 -37.5q-49 0 -79.5 30.5 t-30.5 77.5z" />
<glyph unicode="&#x10b;" horiz-adv-x="1274" d="M174 472q0 117 39.5 227t116 195.5t188 137.5t256.5 52q118 0 202 -34.5t136.5 -92t77 -131.5t24.5 -153h-105q0 61 -20 118t-62 101t-106.5 70t-158.5 26q-118 0 -209 -43t-151 -114t-92.5 -162.5t-32.5 -189.5q0 -82 22.5 -155t70.5 -128.5t123 -89t178 -33.5 q169 0 271 84t137 207h105q-42 -170 -178 -279t-347 -109q-125 0 -217.5 40t-151 109t-87.5 158.5t-29 188.5zM688 1465q0 57 39.5 94.5t93.5 37.5q49 0 78.5 -31.5t29.5 -78.5q0 -57 -39 -94t-93 -37q-49 0 -79 31t-30 78z" />
<glyph unicode="&#x10c;" horiz-adv-x="1902" d="M197 779q0 187 69 363t195 312t307 218t407 82q162 0 292 -42.5t225 -121t152.5 -187t74.5 -238.5h-113q-17 106 -66 196.5t-130 154.5t-191.5 101t-248.5 37q-199 0 -358.5 -73t-272 -194t-172.5 -277t-60 -324q0 -148 48 -278t137.5 -228t221.5 -156t301 -58 q123 0 234 32.5t202.5 87.5t162 131.5t114.5 166.5h120q-52 -111 -134 -206.5t-191 -164.5t-241 -108.5t-279 -39.5q-192 0 -342 65.5t-253 176t-157 258t-54 314.5zM802 2209l70 72l308 -313l375 313l57 -72l-447 -363z" />
<glyph unicode="&#x10d;" horiz-adv-x="1274" d="M174 472q0 117 39.5 227t116 195.5t188 137.5t256.5 52q118 0 202 -34.5t136.5 -92t77 -131.5t24.5 -153h-105q0 61 -20 118t-62 101t-106.5 70t-158.5 26q-118 0 -209 -43t-151 -114t-92.5 -162.5t-32.5 -189.5q0 -82 22.5 -155t70.5 -128.5t123 -89t178 -33.5 q169 0 271 84t137 207h105q-42 -170 -178 -279t-347 -109q-125 0 -217.5 40t-151 109t-87.5 158.5t-29 188.5zM422 1688l72 71l310 -309l376 309l54 -71l-446 -361z" />
<glyph unicode="&#x10e;" horiz-adv-x="1695" d="M216 0l182 1721h474q200 0 350 -66.5t252 -174.5t153.5 -250t51.5 -292q0 -174 -69 -342.5t-197 -301t-311 -213.5t-412 -81h-474zM335 101h366q199 0 360 71.5t273.5 187.5t174.5 265t62 304q0 133 -45.5 257t-135.5 219.5t-223 155t-307 59.5h-366zM659 2209l73 72 l305 -313l379 313l54 -72l-445 -363z" />
<glyph unicode="&#x10f;" horiz-adv-x="1630" d="M162 476q0 120 45.5 231t126.5 194.5t192.5 133t242.5 49.5q169 0 280 -81t150 -215l98 933h106l-179 -1721h-106l27 268q-66 -131 -194 -211.5t-295 -80.5q-115 0 -206 40t-154.5 108t-98.5 158.5t-35 193.5zM268 484q0 -84 27 -158.5t79.5 -130t129 -89t172.5 -33.5 q108 0 200 41t159 110t104.5 158.5t37.5 189.5q0 84 -28 160.5t-81 131.5t-129 88t-172 33q-108 0 -200.5 -40t-158.5 -109t-103 -160.5t-37 -191.5zM1484 1238l8 66q73 0 121 35t61 96q12 42 8.5 64.5t-8.5 34.5q-12 -12 -30.5 -17t-39.5 -5q-46 0 -74.5 29.5t-28.5 76.5 q0 51 38.5 90t102.5 39q73 0 111.5 -56.5t38.5 -156.5q0 -155 -85 -225.5t-223 -70.5z" />
<glyph unicode="&#x110;" horiz-adv-x="1695" d="M-82 821l11 98h383l84 802h474q199 0 350.5 -66.5t253.5 -174.5t153.5 -250t51.5 -292q0 -174 -69 -342.5t-197 -301t-311 -213.5t-412 -81h-474l86 821h-384zM335 101h366q199 0 360 71.5t273.5 187.5t173 265t60.5 304q0 133 -45.5 257t-134 219.5t-221.5 155 t-307 59.5h-366l-74 -701h389l-10 -98h-389z" />
<glyph unicode="&#x111;" horiz-adv-x="1440" d="M162 476q0 120 45.5 231t126.5 194.5t192.5 133t242.5 49.5q169 0 280 -81t150 -215l60 558h-305l10 82h304l29 293h106l-29 -293h179l-10 -82h-179l-140 -1346h-106l27 268q-66 -131 -194 -211.5t-295 -80.5q-115 0 -206 40t-154.5 108t-98.5 158.5t-35 193.5zM268 484 q0 -84 27 -158.5t79.5 -130t129 -89t172.5 -33.5q108 0 200 41t159 110t104.5 158.5t37.5 189.5q0 84 -28 160.5t-81 131.5t-129 88t-172 33q-108 0 -200.5 -40t-158.5 -109t-103 -160.5t-37 -191.5z" />
<glyph unicode="&#x112;" horiz-adv-x="1328" d="M216 0l182 1721h910l-13 -101h-801l-74 -715h802l-12 -101h-802l-73 -703h800l-9 -101h-910zM432 1963l11 96h879l-9 -96h-881z" />
<glyph unicode="&#x113;" horiz-adv-x="1260" d="M174 474q0 125 41 237t116 194.5t179 130.5t229 48q106 0 191 -33t144 -92t90.5 -140.5t31.5 -176.5q0 -40 -4.5 -67t-11.5 -57h-900q-8 -88 9.5 -170.5t62 -143.5t119.5 -98.5t181 -37.5q152 0 248.5 68t138.5 162h108q-49 -138 -181.5 -230t-321.5 -92 q-120 0 -208.5 39t-146 108t-86.5 158.5t-29 192.5zM293 607h798q9 89 -12.5 160t-69.5 121t-118 78.5t-154 28.5t-158.5 -27t-133.5 -78.5t-98.5 -122.5t-53.5 -160zM347 1428l9 96h880l-10 -96h-879z" />
<glyph unicode="&#x114;" horiz-adv-x="1328" d="M216 0l182 1721h910l-13 -101h-801l-74 -715h802l-12 -101h-802l-73 -703h800l-9 -101h-910zM460 2234h100q15 -122 100.5 -190t219.5 -68q133 0 233.5 67.5t139.5 190.5h103q-22 -81 -70 -144.5t-111.5 -108t-142 -68t-162.5 -23.5q-172 0 -286.5 90.5t-123.5 253.5z " />
<glyph unicode="&#x115;" horiz-adv-x="1260" d="M174 474q0 125 41 237t116 194.5t179 130.5t229 48q106 0 191 -33t144 -92t90.5 -140.5t31.5 -176.5q0 -40 -4.5 -67t-11.5 -57h-900q-8 -88 9.5 -170.5t62 -143.5t119.5 -98.5t181 -37.5q152 0 248.5 68t138.5 162h108q-49 -138 -181.5 -230t-321.5 -92 q-120 0 -208.5 39t-146 108t-86.5 158.5t-29 192.5zM293 607h798q9 89 -12.5 160t-69.5 121t-118 78.5t-154 28.5t-158.5 -27t-133.5 -78.5t-98.5 -122.5t-53.5 -160zM396 1721h101q12 -123 93.5 -192t206.5 -69t222 68.5t137 192.5h100q-21 -82 -67.5 -145.5t-107.5 -108 t-136 -68t-157 -23.5q-81 0 -150.5 23.5t-121.5 68t-83.5 108t-36.5 145.5z" />
<glyph unicode="&#x116;" horiz-adv-x="1328" d="M216 0l182 1721h910l-13 -101h-801l-74 -715h802l-12 -101h-802l-73 -703h800l-9 -101h-910zM755 2008q0 56 39 94.5t95 38.5q49 0 78.5 -32t29.5 -79q0 -56 -39 -93t-95 -37q-49 0 -78.5 30.5t-29.5 77.5z" />
<glyph unicode="&#x117;" horiz-adv-x="1260" d="M174 474q0 125 41 237t116 194.5t179 130.5t229 48q106 0 191 -33t144 -92t90.5 -140.5t31.5 -176.5q0 -40 -4.5 -67t-11.5 -57h-900q-8 -88 9.5 -170.5t62 -143.5t119.5 -98.5t181 -37.5q152 0 248.5 68t138.5 162h108q-49 -138 -181.5 -230t-321.5 -92 q-120 0 -208.5 39t-146 108t-86.5 158.5t-29 192.5zM293 607h798q9 89 -12.5 160t-69.5 121t-118 78.5t-154 28.5t-158.5 -27t-133.5 -78.5t-98.5 -122.5t-53.5 -160zM673 1463q0 56 38.5 94t94.5 38q50 0 79 -32t29 -79q0 -56 -38 -93t-95 -37q-49 0 -78.5 31t-29.5 78z " />
<glyph unicode="&#x118;" horiz-adv-x="1328" d="M216 0l182 1721h910l-13 -101h-801l-74 -715h802l-12 -101h-802l-73 -703h800l-9 -101h-234q-94 -61 -146 -132.5t-52 -142.5q0 -63 46 -111t142 -48q49 0 103 12t94 24l-12 -86q-40 -12 -96.5 -24.5t-117.5 -12.5q-135 0 -199 63.5t-64 155.5q0 86 56.5 156t174.5 146 h-605z" />
<glyph unicode="&#x119;" horiz-adv-x="1260" d="M174 474q0 127 41 238t116 193.5t179 130.5t229 48q106 0 191 -33t144 -92t90.5 -140.5t31.5 -176.5q0 -40 -4.5 -67t-11.5 -57h-897q-9 -86 6.5 -167t61 -143.5t120.5 -101t183 -38.5q150 0 246.5 68t138.5 162h108q-21 -62 -63 -117.5t-101 -99.5t-135 -71t-165 -32 q-79 -58 -123 -123.5t-44 -129.5q0 -63 48 -111t142 -48q49 0 103 12t93 24l-13 -86q-42 -12 -97 -24.5t-116 -12.5q-136 0 -199.5 63.5t-63.5 155.5q0 79 46.5 145t150.5 135q-113 5 -196 46.5t-135.5 109.5t-78.5 155t-26 185zM293 607h798q9 89 -12.5 160t-69.5 121 t-118 78.5t-154 28.5t-158.5 -27t-133.5 -78.5t-98.5 -122.5t-53.5 -160z" />
<glyph unicode="&#x11a;" horiz-adv-x="1328" d="M216 0l182 1721h910l-13 -101h-801l-74 -715h802l-12 -101h-802l-73 -703h800l-9 -101h-910zM490 2209l73 72l307 -313l378 313l52 -72l-444 -363z" />
<glyph unicode="&#x11b;" horiz-adv-x="1260" d="M174 474q0 125 41 237t116 194.5t179 130.5t229 48q106 0 191 -33t144 -92t90.5 -140.5t31.5 -176.5q0 -40 -4.5 -67t-11.5 -57h-900q-8 -88 9.5 -170.5t62 -143.5t119.5 -98.5t181 -37.5q152 0 248.5 68t138.5 162h108q-49 -138 -181.5 -230t-321.5 -92 q-120 0 -208.5 39t-146 108t-86.5 158.5t-29 192.5zM293 607h798q9 89 -12.5 160t-69.5 121t-118 78.5t-154 28.5t-158.5 -27t-133.5 -78.5t-98.5 -122.5t-53.5 -160zM410 1688l71 71l307 -309l377 309l57 -71l-446 -361z" />
<glyph unicode="&#x11c;" horiz-adv-x="2041" d="M194 764q0 192 70.5 370.5t198 317t305.5 220.5t397 82q136 0 248.5 -33t197.5 -91.5t139 -141.5t74 -178h-112q-19 71 -65.5 133.5t-118 109.5t-167 74t-208.5 27q-192 0 -348 -74t-267 -195t-172 -281.5t-61 -329.5q0 -140 43 -268t131.5 -226t221 -156t309.5 -58 q150 0 272.5 43t216 122t155.5 188t88 242h-560l10 101h850l-9 -101h-178q-32 -155 -104 -282.5t-181.5 -220t-253.5 -143t-319 -50.5q-204 0 -353.5 66.5t-250 177t-150 254.5t-49.5 301zM767 1916l462 365l389 -365l-72 -73l-329 317l-396 -314z" />
<glyph unicode="&#x11d;" horiz-adv-x="1437" d="M106 -169h103q-5 -82 11 -158t60 -133.5t124 -92t206 -34.5q213 0 342 115.5t157 373.5l38 368q-68 -133 -196 -213.5t-295 -80.5q-115 0 -206 40t-154.5 109t-98.5 160t-35 194q0 120 47 229.5t128 193t191 133t241 49.5q169 0 280 -81t152 -215l28 272h108l-123 -1158 q-16 -162 -68.5 -274t-131 -182t-184 -100.5t-228.5 -30.5q-150 0 -248 40t-154.5 110.5t-77.5 164t-16 201.5zM268 487q0 -86 27 -161t79.5 -130.5t129 -89t172.5 -33.5q108 0 200 41t159 110t104.5 158.5t37.5 189.5q0 84 -28 160.5t-81 131.5t-129 88t-172 33 q-108 0 -200.5 -40t-158.5 -109t-103 -160.5t-37 -188.5zM386 1400l460 364l388 -364l-69 -73l-332 315l-393 -315z" />
<glyph unicode="&#x11e;" horiz-adv-x="2041" d="M194 764q0 192 70.5 370.5t198 317t305.5 220.5t397 82q136 0 248.5 -33t197.5 -91.5t139 -141.5t74 -178h-112q-19 71 -65.5 133.5t-118 109.5t-167 74t-208.5 27q-192 0 -348 -74t-267 -195t-172 -281.5t-61 -329.5q0 -140 43 -268t131.5 -226t221 -156t309.5 -58 q150 0 272.5 43t216 122t155.5 188t88 242h-560l10 101h850l-9 -101h-178q-32 -155 -104 -282.5t-181.5 -220t-253.5 -143t-319 -50.5q-204 0 -353.5 66.5t-250 177t-150 254.5t-49.5 301zM752 2234h101q15 -122 102 -190t220 -68t232 67.5t141 190.5h101 q-22 -81 -68.5 -144.5t-111 -108t-143 -68t-161.5 -23.5q-171 0 -286 90.5t-127 253.5z" />
<glyph unicode="&#x11f;" horiz-adv-x="1437" d="M106 -169h103q-5 -82 11 -158t60 -133.5t124 -92t206 -34.5q213 0 342 115.5t157 373.5l38 368q-68 -133 -196 -213.5t-295 -80.5q-115 0 -206 40t-154.5 109t-98.5 160t-35 194q0 120 47 229.5t128 193t191 133t241 49.5q169 0 280 -81t152 -215l28 272h108l-123 -1158 q-16 -162 -68.5 -274t-131 -182t-184 -100.5t-228.5 -30.5q-150 0 -248 40t-154.5 110.5t-77.5 164t-16 201.5zM268 487q0 -86 27 -161t79.5 -130.5t129 -89t172.5 -33.5q108 0 200 41t159 110t104.5 158.5t37.5 189.5q0 84 -28 160.5t-81 131.5t-129 88t-172 33 q-108 0 -200.5 -40t-158.5 -109t-103 -160.5t-37 -188.5zM422 1721h101q15 -123 96.5 -192t206.5 -69q124 0 221.5 68.5t136.5 192.5h99q-45 -162 -172.5 -253.5t-292.5 -91.5q-81 0 -150.5 23.5t-122.5 68t-85.5 108t-37.5 145.5z" />
<glyph unicode="&#x120;" horiz-adv-x="2041" d="M194 764q0 192 70.5 370.5t198 317t305.5 220.5t397 82q136 0 248.5 -33t197.5 -91.5t139 -141.5t74 -178h-112q-19 71 -65.5 133.5t-118 109.5t-167 74t-208.5 27q-192 0 -348 -74t-267 -195t-172 -281.5t-61 -329.5q0 -140 43 -268t131.5 -226t221 -156t309.5 -58 q150 0 272.5 43t216 122t155.5 188t88 242h-560l10 101h850l-9 -101h-178q-32 -155 -104 -282.5t-181.5 -220t-253.5 -143t-319 -50.5q-204 0 -353.5 66.5t-250 177t-150 254.5t-49.5 301zM1079 2008q0 56 38.5 94.5t94.5 38.5q49 0 78.5 -32t29.5 -79q0 -56 -38.5 -93 t-94.5 -37q-49 0 -78.5 30.5t-29.5 77.5z" />
<glyph unicode="&#x121;" horiz-adv-x="1437" d="M106 -169h103q-5 -82 11 -158t60 -133.5t124 -92t206 -34.5q213 0 342 115.5t157 373.5l38 368q-68 -133 -196 -213.5t-295 -80.5q-115 0 -206 40t-154.5 109t-98.5 160t-35 194q0 120 47 229.5t128 193t191 133t241 49.5q169 0 280 -81t152 -215l28 272h108l-123 -1158 q-16 -162 -68.5 -274t-131 -182t-184 -100.5t-228.5 -30.5q-150 0 -248 40t-154.5 110.5t-77.5 164t-16 201.5zM268 487q0 -86 27 -161t79.5 -130.5t129 -89t172.5 -33.5q108 0 200 41t159 110t104.5 158.5t37.5 189.5q0 84 -28 160.5t-81 131.5t-129 88t-172 33 q-108 0 -200.5 -40t-158.5 -109t-103 -160.5t-37 -188.5zM690 1463q0 56 38.5 94t94.5 38q49 0 78.5 -32t29.5 -79q0 -56 -37.5 -93t-94.5 -37q-49 0 -79 31t-30 78z" />
<glyph unicode="&#x122;" horiz-adv-x="2041" d="M194 764q0 192 70.5 370.5t198 317t305.5 220.5t397 82q136 0 248.5 -33t197.5 -91.5t139 -141.5t74 -178h-112q-19 71 -65.5 133.5t-118 109.5t-167 74t-208.5 27q-192 0 -348 -74t-267 -195t-172 -281.5t-61 -329.5q0 -140 43 -268t131.5 -226t221 -156t309.5 -58 q150 0 272.5 43t216 122t155.5 188t88 242h-560l10 101h850l-9 -101h-178q-32 -155 -104 -282.5t-181.5 -220t-253.5 -143t-319 -50.5q-204 0 -353.5 66.5t-250 177t-150 254.5t-49.5 301zM851 -484l5 62q58 0 97 23t53 73q7 30 3.5 52.5t-3.5 27.5q-28 -19 -57 -19 q-37 0 -60.5 24.5t-23.5 64.5q0 42 30.5 73.5t82.5 31.5q56 0 90 -46.5t34 -128.5q0 -122 -70.5 -180t-180.5 -58z" />
<glyph unicode="&#x123;" horiz-adv-x="1437" d="M106 -169h103q-5 -82 11 -158t60 -133.5t124 -92t206 -34.5q213 0 342 115.5t157 373.5l38 368q-68 -133 -196 -213.5t-295 -80.5q-115 0 -206 40t-154.5 109t-98.5 160t-35 194q0 120 47 229.5t128 193t191 133t241 49.5q169 0 280 -81t152 -215l28 272h108l-123 -1158 q-16 -162 -68.5 -274t-131 -182t-184 -100.5t-228.5 -30.5q-150 0 -248 40t-154.5 110.5t-77.5 164t-16 201.5zM268 487q0 -86 27 -161t79.5 -130.5t129 -89t172.5 -33.5q108 0 200 41t159 110t104.5 158.5t37.5 189.5q0 84 -28 160.5t-81 131.5t-129 88t-172 33 q-108 0 -200.5 -40t-158.5 -109t-103 -160.5t-37 -188.5zM666 1482q0 79 24.5 135.5t66.5 92t98.5 53t120.5 17.5l-8 -70q-70 0 -119.5 -33t-62.5 -94q-12 -42 -9.5 -64.5t7.5 -34.5q12 12 30.5 17t38.5 5q47 0 76.5 -29.5t29.5 -76.5q0 -54 -39.5 -91.5t-103.5 -37.5 q-71 0 -110.5 56.5t-39.5 154.5z" />
<glyph unicode="&#x124;" horiz-adv-x="1623" d="M216 0l182 1721h108l-86 -816h976l86 816h108l-181 -1721h-109l84 804h-976l-84 -804h-108zM590 1916l465 365l383 -365l-69 -73l-330 317l-392 -314z" />
<glyph unicode="&#x125;" horiz-adv-x="1370" d="M216 0l182 1721h104l-99 -937q28 58 70.5 113t101.5 96t134 66t163 25q200 0 300 -128q47 -58 64 -141t5 -198l-64 -617h-103l61 590q10 84 -3.5 156t-50.5 125t-98 83.5t-150 30.5q-103 0 -185.5 -40t-139 -105.5t-91 -145.5t-41.5 -155l-57 -539h-103zM502 1916 l462 365l385 -365l-69 -73l-331 317l-391 -314z" />
<glyph unicode="&#x126;" horiz-adv-x="1623" d="M216 0l182 1721h108l-42 -377h976l42 377h108l-181 -1721h-109l84 804h-976l-84 -804h-108zM420 905h976l37 351h-976z" />
<glyph unicode="&#x127;" horiz-adv-x="1370" d="M143 1346l7 82h216l32 293h104l-33 -293h539l-7 -82h-539l-59 -562q28 56 70.5 110.5t101.5 96t134 67.5t166 26q199 0 300 -128q47 -58 64 -141t4 -198l-63 -617h-104l62 590q9 84 -4 156t-50.5 125t-98.5 83.5t-150 30.5q-103 0 -185 -40t-140 -105.5t-92.5 -145.5 t-41.5 -155l-57 -539h-103l143 1346h-216z" />
<glyph unicode="&#x128;" horiz-adv-x="542" d="M47 1991q51 93 127.5 140t154.5 47q59 0 101 -22t76.5 -50.5t70 -50.5t79.5 -22q57 0 109.5 40t82.5 105l81 -40q-52 -98 -129.5 -145t-152.5 -47q-59 0 -102 22.5t-80.5 50.5t-71.5 50.5t-79 22.5q-58 0 -108.5 -42t-80.5 -104zM216 0l180 1721h110l-180 -1721h-110z " />
<glyph unicode="&#x129;" horiz-adv-x="535" d="M5 1442q51 94 127.5 139.5t153.5 45.5q58 0 101 -22t77.5 -50.5t69 -50.5t78.5 -22q59 0 111.5 41t82.5 104l81 -37q-52 -98 -129.5 -145t-155.5 -47q-58 0 -100 22t-77.5 49t-70.5 49.5t-79 22.5q-57 0 -108.5 -39t-82.5 -104zM216 0l113 1060h103l-113 -1060h-103z" />
<glyph unicode="&#x12a;" horiz-adv-x="542" d="M40 1963l9 96h880l-10 -96h-879zM216 0l182 1721h111l-183 -1721h-110z" />
<glyph unicode="&#x12b;" horiz-adv-x="535" d="M-37 1428l9 96h881l-11 -96h-879zM216 0l110 1060h104l-111 -1060h-103z" />
<glyph unicode="&#x12c;" horiz-adv-x="542" d="M61 2234h101q14 -122 100 -190t219 -68t234 67.5t141 190.5h103q-22 -81 -69.5 -144.5t-112 -108t-143 -68t-162.5 -23.5q-87 0 -159 23.5t-126 68t-87.5 108t-38.5 144.5zM216 0l182 1721h111l-183 -1721h-110z" />
<glyph unicode="&#x12d;" horiz-adv-x="535" d="M19 1721h99q14 -123 97 -192t207 -69q125 0 221 68.5t136 192.5h101q-22 -82 -67.5 -145.5t-107 -108t-136.5 -68t-156 -23.5q-82 0 -151.5 23.5t-121 68t-84 108t-37.5 145.5zM216 0l113 1060h103l-113 -1060h-103z" />
<glyph unicode="&#x12e;" horiz-adv-x="542" d="M0 -302q0 91 60 161t172 141h-16l180 1721h110l-180 -1721h-24q-93 -61 -146 -132.5t-53 -142.5q0 -63 47 -111t143 -48q49 0 103 12t94 24l-14 -86q-42 -12 -98 -24.5t-115 -12.5q-136 0 -199.5 63.5t-63.5 155.5z" />
<glyph unicode="&#x12f;" horiz-adv-x="535" d="M-5 -302q0 91 60 161t171 141h-10l110 1060h104l-111 -1060h-21q-94 -61 -147 -132.5t-53 -144.5q0 -64 47 -110.5t143 -46.5q49 0 104.5 12t91.5 24l-12 -86q-42 -12 -98.5 -24.5t-115.5 -12.5q-136 0 -199.5 63.5t-63.5 155.5zM302 1480q0 56 40.5 94t95.5 38 q49 0 79.5 -32t30.5 -79q0 -56 -40.5 -94t-94.5 -38q-49 0 -80 32t-31 79z" />
<glyph unicode="&#x130;" horiz-adv-x="542" d="M216 0l182 1721h111l-183 -1721h-110zM361 2008q0 56 39.5 94.5t93.5 38.5q50 0 80.5 -32t30.5 -79q0 -56 -41 -93t-95 -37q-49 0 -78.5 30.5t-29.5 77.5z" />
<glyph unicode="&#x131;" horiz-adv-x="525" d="M211 0l111 1060h103l-111 -1060h-103z" />
<glyph unicode="&#x134;" horiz-adv-x="1314" d="M101 518h108q-12 -103 13.5 -186.5t79.5 -142t133 -91t175 -32.5q93 0 174 30.5t142.5 90t101 143t51.5 188.5l126 1203h108l-126 -1203q-15 -127 -64 -229t-126.5 -174.5t-178 -111t-218.5 -38.5t-216 39.5t-166 112.5t-100 175t-17 226zM856 1916l462 365l385 -365 l-69 -73l-326 317l-396 -314z" />
<glyph unicode="&#x135;" horiz-adv-x="535" d="M-157 -647l9 99q66 -35 124 -34q91 0 139.5 57.5t60.5 165.5l150 1419h104l-150 -1424q-17 -154 -91 -233t-196 -79q-28 0 -70.5 5t-79.5 24zM-5 1400l460 364l387 -364l-70 -73l-329 315l-394 -315z" />
<glyph unicode="&#x136;" horiz-adv-x="1365" d="M216 0l182 1721h108l-88 -834l973 834h145l-1001 -861l819 -860h-144l-797 833l-89 -833h-108zM570 -457l7 61q49 0 90 20t58 76q9 30 8 49t-6 33q-27 -20 -56 -21q-40 0 -62 24.5t-22 62.5q0 44 31 76t83 32q56 0 89 -47t33 -127q0 -123 -70 -181t-183 -58z" />
<glyph unicode="&#x137;" horiz-adv-x="1060" d="M216 0l182 1721h104l-126 -1175l612 514h145l-627 -532l516 -528h-145l-504 511l-54 -511h-103zM415 -457l7 61q50 0 90.5 20t57.5 76q10 30 8.5 49t-6.5 33q-27 -20 -56 -21q-40 0 -62 24.5t-22 62.5q0 44 31 76t83 32q59 0 90.5 -47t31.5 -127q0 -123 -70 -181 t-183 -58z" />
<glyph unicode="&#x138;" horiz-adv-x="1060" d="M216 0l110 1060h104l-54 -514l612 514h145l-627 -532l516 -528h-145l-504 511l-54 -511h-103z" />
<glyph unicode="&#x139;" horiz-adv-x="1027" d="M216 0l182 1721h108l-171 -1620h621l-10 -101h-730zM335 1930l645 336l42 -86l-646 -337z" />
<glyph unicode="&#x13a;" horiz-adv-x="535" d="M143 1930l645 336l42 -86l-648 -337zM216 0l182 1721h104l-183 -1721h-103z" />
<glyph unicode="&#x13b;" horiz-adv-x="1027" d="M216 0l182 1721h108l-171 -1620h621l-10 -101h-730zM443 -460l7 62q52 0 92 19.5t56 76.5q7 27 7 47.5t-5 33.5q-24 -17 -56 -18q-40 0 -62 23.5t-22 60.5q0 45 30.5 76.5t81.5 31.5q59 0 91.5 -46.5t32.5 -127.5q0 -122 -70 -180.5t-183 -58.5z" />
<glyph unicode="&#x13c;" horiz-adv-x="535" d="M127 -457l9 61q58 0 96 23.5t51 72.5q12 35 9.5 51.5t-6.5 30.5q-24 -20 -60 -21q-35 0 -58 24.5t-23 62.5q0 44 32 76t83 32q57 0 88.5 -47t31.5 -125q0 -125 -70.5 -183t-182.5 -58zM216 0l180 1721h103l-180 -1721h-103z" />
<glyph unicode="&#x13d;" horiz-adv-x="1027" d="M216 0l182 1721h108l-171 -1620h621l-10 -101h-730zM816 1241l7 67q150 0 183 127q9 35 8 62t-6 39q-28 -24 -70 -24q-46 0 -75.5 30.5t-29.5 75.5q0 54 39.5 93t103.5 39q70 0 110 -58t40 -158q0 -153 -86 -223t-224 -70z" />
<glyph unicode="&#x13e;" horiz-adv-x="729" d="M216 0l182 1721h104l-183 -1721h-103zM580 1241l7 67q73 0 121.5 33t60.5 94q12 42 11 65.5t-6 35.5q-28 -24 -68 -24q-50 0 -78 32t-28 74q0 54 39 93t103 39q70 0 110 -58t40 -158q0 -153 -86 -223t-226 -70z" />
<glyph unicode="&#x13f;" horiz-adv-x="1027" d="M216 0l182 1721h108l-171 -1620h621l-10 -101h-730zM710 926q0 57 38 95.5t92 38.5q49 0 80.5 -32.5t31.5 -81.5q0 -54 -40 -92t-96 -38q-49 0 -77.5 30.5t-28.5 79.5z" />
<glyph unicode="&#x140;" horiz-adv-x="734" d="M216 0l182 1721h104l-183 -1721h-103zM598 779q0 56 40 94.5t92 38.5q49 0 79.5 -33t30.5 -77q0 -57 -40 -95.5t-94 -38.5q-50 0 -79 32t-29 79z" />
<glyph unicode="&#x141;" horiz-adv-x="1027" d="M138 654l10 101l157 75l93 891h108l-88 -841l405 199l-9 -99l-408 -199l-71 -680h621l-10 -101h-730l77 732z" />
<glyph unicode="&#x142;" horiz-adv-x="535" d="M52 656l9 96l246 125l91 844h111l-84 -785l269 140l-11 -96l-268 -138l-89 -842h-110l82 784z" />
<glyph unicode="&#x143;" horiz-adv-x="1621" d="M216 0l182 1721h123l797 -1539l162 1539h108l-183 -1721h-120l-798 1538l-163 -1538h-108zM703 1930l646 336l39 -86l-646 -337z" />
<glyph unicode="&#x144;" horiz-adv-x="1370" d="M216 0l110 1060h104l-27 -276q28 58 70.5 113t101.5 96t134 66t163 25q200 0 300 -128q47 -58 64 -141t5 -198l-64 -617h-103l61 590q10 84 -3.5 156t-50.5 125t-98 83.5t-150 30.5q-103 0 -185.5 -40t-139 -105.5t-91 -145.5t-41.5 -155l-57 -539h-103zM535 1356 l647 337l44 -86l-649 -336z" />
<glyph unicode="&#x145;" horiz-adv-x="1621" d="M216 0l182 1721h123l797 -1539l162 1539h108l-183 -1721h-120l-798 1538l-163 -1538h-108zM694 -460l7 62q51 0 91.5 19.5t55.5 76.5q8 27 8 47.5t-5 33.5q-24 -17 -54 -18q-40 0 -63.5 23.5t-23.5 60.5q0 45 31 76.5t82 31.5q59 0 91 -46.5t32 -127.5q0 -122 -70 -180.5 t-182 -58.5z" />
<glyph unicode="&#x146;" horiz-adv-x="1370" d="M216 0l110 1060h104l-27 -276q28 58 70.5 113t101.5 96t134 66t163 25q200 0 300 -128q47 -58 64 -141t5 -198l-64 -617h-103l61 590q10 84 -3.5 156t-50.5 125t-98 83.5t-150 30.5q-103 0 -185.5 -40t-139 -105.5t-91 -145.5t-41.5 -155l-57 -539h-103zM577 -457l7 61 q52 0 93 20t55 76q7 28 7 48t-5 34q-24 -20 -56 -21q-37 0 -60 23.5t-23 63.5q0 44 32 76t81 32q59 0 90.5 -47t31.5 -127q0 -123 -70 -181t-183 -58z" />
<glyph unicode="&#x147;" horiz-adv-x="1621" d="M216 0l182 1721h123l797 -1539l162 1539h108l-183 -1721h-120l-798 1538l-163 -1538h-108zM664 2209l73 72l305 -313l379 313l54 -72l-445 -363z" />
<glyph unicode="&#x148;" horiz-adv-x="1370" d="M216 0l110 1060h104l-27 -276q28 58 70.5 113t101.5 96t134 66t163 25q200 0 300 -128q47 -58 64 -141t5 -198l-64 -617h-103l61 590q10 84 -3.5 156t-50.5 125t-98 83.5t-150 30.5q-103 0 -185.5 -40t-139 -105.5t-91 -145.5t-41.5 -155l-57 -539h-103zM502 1688l70 71 l310 -309l377 309l56 -71l-445 -361z" />
<glyph unicode="&#x149;" horiz-adv-x="1370" d="M120 1344l7 61q52 0 92.5 20t55.5 76q7 28 7.5 49t-5.5 33q-27 -19 -56 -19q-40 0 -61.5 24t-21.5 61q0 44 30.5 76t82.5 32q59 0 90.5 -47t31.5 -127q0 -123 -69.5 -181t-183.5 -58zM216 0l110 1060h104l-27 -276q28 58 70.5 113t101.5 96t134 66t163 25q200 0 300 -128 q47 -58 64 -141t5 -198l-64 -617h-103l61 590q10 84 -3.5 156t-50.5 125t-98 83.5t-150 30.5q-103 0 -185.5 -40t-139 -105.5t-91 -145.5t-41.5 -155l-57 -539h-103z" />
<glyph unicode="&#x14a;" horiz-adv-x="1621" d="M216 0l182 1721h116l806 -1522l160 1522h108l-195 -1848q-12 -125 -61 -226.5t-125.5 -174t-177 -111.5t-218.5 -39q-145 0 -258 57.5t-177 163.5l76 71q57 -92 150.5 -143t215.5 -51q92 0 173 31t142 88.5t102 141t50 192.5l12 127l-810 1538l-163 -1538h-108z" />
<glyph unicode="&#x14b;" horiz-adv-x="1370" d="M187 -499l76 69q59 -75 143 -116t189 -41q91 0 172 30.5t141 87t99 140t53 186.5l78 733q9 84 -4 156t-51.5 125t-99.5 83.5t-150 30.5q-103 0 -185.5 -40t-139 -105.5t-91 -145.5t-41.5 -155l-57 -539h-103l113 1060h103l-29 -276q28 58 71.5 113t102.5 96t133 66 t162 25q202 0 300 -128q47 -58 65.5 -141t5.5 -198l-80 -760q-12 -125 -61.5 -224.5t-125.5 -171t-175.5 -109t-213.5 -37.5q-131 0 -233.5 49t-166.5 137z" />
<glyph unicode="&#x14c;" horiz-adv-x="1987" d="M197 774q0 187 71.5 364t199 314.5t307 219.5t397.5 82q195 0 343 -66t250 -178t153.5 -258t51.5 -306q0 -190 -69.5 -365t-198.5 -312.5t-309 -220.5t-396 -83q-194 0 -343.5 66.5t-250.5 178.5t-153.5 258t-52.5 306zM310 781q0 -140 45.5 -269t133.5 -228t219 -158.5 t300 -59.5q190 0 347 74t268.5 195.5t174 279t62.5 323.5q0 141 -45 270t-134 228.5t-220 158.5t-301 59q-189 0 -346.5 -74t-269.5 -195t-173 -278.5t-61 -325.5zM760 1963l9 96h880l-10 -96h-879z" />
<glyph unicode="&#x14d;" horiz-adv-x="1334" d="M162 476q0 120 45.5 231t126.5 194.5t194.5 133t245.5 49.5q120 0 215 -40.5t160 -108t99.5 -160t34.5 -195.5q0 -120 -45.5 -229.5t-128 -193.5t-195 -132.5t-246.5 -48.5q-120 0 -213.5 39t-158 108t-99.5 159.5t-35 193.5zM268 484q0 -84 27 -158.5t79.5 -130t129 -89 t172.5 -33.5q108 0 200 41t159 110t104.5 158.5t37.5 189.5q0 84 -28 160.5t-81 131.5t-129 88t-172 33q-108 0 -200.5 -40t-158.5 -109t-103 -160.5t-37 -191.5zM376 1428l10 96h880l-10 -96h-880z" />
<glyph unicode="&#x14e;" horiz-adv-x="1987" d="M197 774q0 187 71.5 364t199 314.5t307 219.5t397.5 82q195 0 343 -66t250 -178t153.5 -258t51.5 -306q0 -190 -69.5 -365t-198.5 -312.5t-309 -220.5t-396 -83q-194 0 -343.5 66.5t-250.5 178.5t-153.5 258t-52.5 306zM310 781q0 -140 45.5 -269t133.5 -228t219 -158.5 t300 -59.5q190 0 347 74t268.5 195.5t174 279t62.5 323.5q0 141 -45 270t-134 228.5t-220 158.5t-301 59q-189 0 -346.5 -74t-269.5 -195t-173 -278.5t-61 -325.5zM781 2234h101q14 -122 100 -190t219 -68t234 67.5t143 190.5h101q-22 -81 -68.5 -144.5t-111 -108t-143 -68 t-164.5 -23.5q-87 0 -159 23.5t-126 68t-87.5 108t-38.5 144.5z" />
<glyph unicode="&#x14f;" horiz-adv-x="1334" d="M162 476q0 120 45.5 231t126.5 194.5t194.5 133t245.5 49.5q120 0 215 -40.5t160 -108t99.5 -160t34.5 -195.5q0 -120 -45.5 -229.5t-128 -193.5t-195 -132.5t-246.5 -48.5q-120 0 -213.5 39t-158 108t-99.5 159.5t-35 193.5zM268 484q0 -84 27 -158.5t79.5 -130t129 -89 t172.5 -33.5q108 0 200 41t159 110t104.5 158.5t37.5 189.5q0 84 -28 160.5t-81 131.5t-129 88t-172 33q-108 0 -200.5 -40t-158.5 -109t-103 -160.5t-37 -191.5zM413 1721h101q12 -123 94.5 -192t207.5 -69t221 68.5t138 192.5h98q-44 -162 -172 -253.5t-292 -91.5 q-82 0 -152 23.5t-123 68t-84.5 108t-36.5 145.5z" />
<glyph unicode="&#x150;" horiz-adv-x="1987" d="M197 774q0 187 71.5 364t199 314.5t307 219.5t397.5 82q195 0 343 -66t250 -178t153.5 -258t51.5 -306q0 -190 -69.5 -365t-198.5 -312.5t-309 -220.5t-396 -83q-194 0 -343.5 66.5t-250.5 178.5t-153.5 258t-52.5 306zM310 781q0 -140 45.5 -269t133.5 -228t219 -158.5 t300 -59.5q190 0 347 74t268.5 195.5t174 279t62.5 323.5q0 141 -45 270t-134 228.5t-220 158.5t-301 59q-189 0 -346.5 -74t-269.5 -195t-173 -278.5t-61 -325.5zM848 1900l348 408l89 -47l-375 -396zM1327 1900l349 408l88 -47l-376 -399z" />
<glyph unicode="&#x151;" horiz-adv-x="1334" d="M162 476q0 120 45.5 231t126.5 194.5t194.5 133t245.5 49.5q120 0 215 -40.5t160 -108t99.5 -160t34.5 -195.5q0 -120 -45.5 -229.5t-128 -193.5t-195 -132.5t-246.5 -48.5q-120 0 -213.5 39t-158 108t-99.5 159.5t-35 193.5zM268 484q0 -84 27 -158.5t79.5 -130t129 -89 t172.5 -33.5q108 0 200 41t159 110t104.5 158.5t37.5 189.5q0 84 -28 160.5t-81 131.5t-129 88t-172 33q-108 0 -200.5 -40t-158.5 -109t-103 -160.5t-37 -191.5zM452 1297l352 408l85 -47l-375 -394zM931 1297l352 408l86 -47l-377 -397z" />
<glyph unicode="&#x152;" horiz-adv-x="2880" d="M197 774q0 187 71.5 364t200.5 313.5t308 219.5t398 83q143 0 260.5 -36.5t208.5 -103t154.5 -157t98.5 -201.5l49 465h912l-9 -101h-804l-77 -715h804l-10 -101h-804l-73 -703h804l-13 -101h-912l49 462q-56 -106 -137 -197t-186.5 -158t-231 -105.5t-268.5 -38.5 q-192 0 -339 66.5t-248 179.5t-153.5 259t-52.5 306zM310 781q0 -140 45.5 -270.5t133.5 -229.5t220 -158t301 -59q190 0 347 73.5t269 195.5t173 279t61 324q0 140 -45 269t-134 229t-219 160t-299 60q-190 0 -347 -74t-270.5 -195t-174.5 -278.5t-61 -325.5z" />
<glyph unicode="&#x153;" horiz-adv-x="2258" d="M162 476q0 120 45.5 231t126.5 194.5t194.5 133t247.5 49.5q185 0 305 -91t162 -231q69 145 198.5 233.5t300.5 88.5q104 0 187 -33t142.5 -92t91.5 -140.5t32 -176.5q0 -40 -5 -67t-16 -57h-896q-10 -88 7 -170.5t64 -143.5t122 -98.5t180 -37.5q150 0 246 68t138 162 h106q-22 -64 -66.5 -123.5t-108.5 -103t-146 -69.5t-178 -26q-94 0 -169 24t-130 68.5t-90.5 104t-53.5 127.5q-71 -140 -212 -232t-323 -92q-118 0 -211.5 40t-157 108t-98.5 158.5t-35 193.5zM268 484q0 -84 27 -158.5t79.5 -130t129 -89t174.5 -33.5q108 0 199 41 t158 108.5t104.5 158.5t37.5 191q0 87 -28 162t-81 131.5t-129 88t-172 31.5q-108 0 -200.5 -40t-158.5 -109t-103 -160.5t-37 -191.5zM1290 607h799q7 87 -15 156.5t-70 120t-117.5 78.5t-153.5 28t-158 -27t-132.5 -77.5t-98.5 -120t-54 -158.5z" />
<glyph unicode="&#x154;" horiz-adv-x="1471" d="M216 0l182 1721h578q117 0 212 -39.5t159 -108.5t98.5 -160t34.5 -194q0 -105 -34.5 -201t-98.5 -175t-152.5 -134t-193.5 -80l338 -629h-127l-330 614h-493l-65 -614h-108zM401 715h469q110 0 202.5 41t158.5 108t103.5 157t37.5 189q0 84 -28.5 158t-80 130.5 t-127.5 89t-172 32.5h-470zM607 1930l646 336l42 -86l-646 -337z" />
<glyph unicode="&#x155;" horiz-adv-x="835" d="M216 0l110 1060h104l-29 -293q71 157 191.5 233t247.5 76q64 0 101 -16l-10 -99q-32 10 -52.5 12.5t-43.5 2.5q-110 0 -192.5 -44.5t-140 -115.5t-91 -159.5t-43.5 -177.5l-49 -479h-103zM295 1369l646 336l39 -85l-645 -337z" />
<glyph unicode="&#x156;" horiz-adv-x="1471" d="M216 0l182 1721h578q117 0 212 -39.5t159 -108.5t98.5 -160t34.5 -194q0 -105 -34.5 -201t-98.5 -175t-152.5 -134t-193.5 -80l338 -629h-127l-330 614h-493l-65 -614h-108zM401 715h469q110 0 202.5 41t158.5 108t103.5 157t37.5 189q0 84 -28.5 158t-80 130.5 t-127.5 89t-172 32.5h-470zM598 -460l7 62q79 0 120.5 36t41.5 94q0 22 -3.5 32t-8.5 15q-12 -9 -27 -13.5t-27 -4.5q-40 0 -63.5 23.5t-23.5 60.5q0 45 32 76.5t81 31.5q59 0 91.5 -46.5t32.5 -127.5q0 -122 -70.5 -180.5t-182.5 -58.5z" />
<glyph unicode="&#x157;" horiz-adv-x="835" d="M127 -457l9 61q58 0 96 23.5t51 72.5q12 35 9.5 51.5t-6.5 30.5q-24 -20 -60 -21q-35 0 -58 24.5t-23 62.5q0 44 32 76t83 32q57 0 88.5 -47t31.5 -125q0 -125 -70.5 -183t-182.5 -58zM216 0l110 1060h104l-32 -293q71 157 193 233t249 76q59 0 101 -16l-10 -99 q-35 10 -55 12.5t-43 2.5q-111 0 -193 -44.5t-139.5 -115.5t-90 -159.5t-42.5 -177.5l-49 -479h-103z" />
<glyph unicode="&#x158;" horiz-adv-x="1471" d="M216 0l182 1721h578q117 0 212 -39.5t159 -108.5t98.5 -160t34.5 -194q0 -105 -34.5 -201t-98.5 -175t-152.5 -134t-193.5 -80l338 -629h-127l-330 614h-493l-65 -614h-108zM401 715h469q110 0 202.5 41t158.5 108t103.5 157t37.5 189q0 84 -28.5 158t-80 130.5 t-127.5 89t-172 32.5h-470zM546 2209l73 72l307 -313l378 313l56 -72l-448 -363z" />
<glyph unicode="&#x159;" horiz-adv-x="835" d="M216 0l110 1060h104l-29 -293q71 157 191.5 233t247.5 76q64 0 101 -16l-10 -99q-32 10 -52.5 12.5t-43.5 2.5q-110 0 -192.5 -44.5t-140 -115.5t-91 -159.5t-43.5 -177.5l-49 -479h-103zM246 1688l71 71l309 -309l377 309l54 -71l-445 -361z" />
<glyph unicode="&#x15a;" horiz-adv-x="1407" d="M174 518h109q-9 -98 15 -181.5t83 -143.5t150 -93.5t211 -33.5q108 0 198 27t155 78.5t100.5 125.5t35.5 167q0 92 -34 152t-89.5 99.5t-126.5 61.5t-148 41q-99 24 -190.5 54t-162 77.5t-113.5 120t-43 189.5q0 108 39.5 198.5t114.5 157t182 103t242 36.5 q261 0 384 -136t102 -370h-108q12 187 -81 296.5t-310 109.5q-108 0 -192.5 -28.5t-143.5 -79t-90 -120.5t-31 -150q0 -89 35 -146.5t91 -95t132.5 -60t157.5 -43.5q99 -24 187 -54.5t157 -81t109.5 -126.5t40.5 -190q0 -123 -47 -217.5t-129 -160.5t-195 -101t-244 -35 q-145 0 -254 41t-179.5 114.5t-101 174.5t-18.5 223zM593 1930l648 336l42 -86l-647 -337z" />
<glyph unicode="&#x15b;" horiz-adv-x="1100" d="M157 359h103q-7 -82 14 -138.5t65 -90.5t105.5 -49t132.5 -15q155 0 239 60.5t84 163.5q0 54 -23.5 87t-66.5 55.5t-105.5 37t-144.5 32.5q-66 14 -126.5 30t-104 43t-69.5 71t-26 114q0 75 32 135.5t87 102t131 64t165 22.5q87 0 160 -21t124.5 -65t77.5 -110.5 t19 -155.5h-104q12 131 -65 195.5t-214 64.5q-138 0 -225 -60t-87 -165q0 -49 20.5 -80t61 -52t100 -36t135.5 -29q73 -14 137 -31.5t110.5 -46t74 -72.5t27.5 -118q0 -150 -114.5 -238t-318.5 -88q-94 0 -174 21.5t-136 67t-84.5 118.5t-16.5 176zM356 1356l650 337l40 -86 l-645 -336z" />
<glyph unicode="&#x15c;" horiz-adv-x="1407" d="M174 518h109q-9 -98 15 -181.5t83 -143.5t150 -93.5t211 -33.5q108 0 198 27t155 78.5t100.5 125.5t35.5 167q0 92 -34 152t-89.5 99.5t-126.5 61.5t-148 41q-99 24 -190.5 54t-162 77.5t-113.5 120t-43 189.5q0 108 39.5 198.5t114.5 157t182 103t242 36.5 q261 0 384 -136t102 -370h-108q12 187 -81 296.5t-310 109.5q-108 0 -192.5 -28.5t-143.5 -79t-90 -120.5t-31 -150q0 -89 35 -146.5t91 -95t132.5 -60t157.5 -43.5q99 -24 187 -54.5t157 -81t109.5 -126.5t40.5 -190q0 -123 -47 -217.5t-129 -160.5t-195 -101t-244 -35 q-145 0 -254 41t-179.5 114.5t-101 174.5t-18.5 223zM509 1916l459 365l388 -365l-68 -73l-332 317l-391 -314z" />
<glyph unicode="&#x15d;" horiz-adv-x="1100" d="M157 359h103q-7 -82 14 -138.5t65 -90.5t105.5 -49t132.5 -15q155 0 239 60.5t84 163.5q0 54 -23.5 87t-66.5 55.5t-105.5 37t-144.5 32.5q-66 14 -126.5 30t-104 43t-69.5 71t-26 114q0 75 32 135.5t87 102t131 64t165 22.5q87 0 160 -21t124.5 -65t77.5 -110.5 t19 -155.5h-104q12 131 -65 195.5t-214 64.5q-138 0 -225 -60t-87 -165q0 -49 20.5 -80t61 -52t100 -36t135.5 -29q73 -14 137 -31.5t110.5 -46t74 -72.5t27.5 -118q0 -150 -114.5 -238t-318.5 -88q-94 0 -174 21.5t-136 67t-84.5 118.5t-16.5 176zM268 1400l464 364 l386 -364l-69 -73l-329 315l-396 -315z" />
<glyph unicode="&#x15e;" horiz-adv-x="1407" d="M174 518h109q-9 -98 15 -181.5t83 -143.5t150 -93.5t211 -33.5q108 0 198 27t155 78.5t100.5 126.5t35.5 171q0 91 -33 151t-89.5 98.5t-132.5 63t-165 44.5q-91 24 -178 52.5t-156 76.5t-111 120t-42 186q0 106 41 196.5t116 157t181.5 103t239.5 36.5q261 0 384 -135 t102 -371h-108q12 187 -81 296.5t-310 109.5q-108 0 -192.5 -28.5t-143.5 -79t-90 -118.5t-31 -150q0 -89 36 -147.5t93.5 -96t132.5 -60t157 -43.5q96 -27 185.5 -56t157 -78t108 -124t40.5 -192q0 -122 -47 -218t-129 -161t-197.5 -99.5t-250.5 -37.5l-17 -169 q24 40 66 59.5t89 19.5q84 0 137 -57t53 -142q0 -49 -18 -94.5t-51.5 -80t-79.5 -55.5t-103 -21q-44 0 -83.5 14.5t-69 42.5t-45.5 69t-14 95h77q-5 -56 29 -103t109 -47q79 0 125 51.5t46 121.5q0 59 -35 99t-107 40q-33 0 -70.5 -17t-75.5 -81h-68l26 258q-117 12 -209 56 t-152.5 117t-87.5 169t-15 208z" />
<glyph unicode="&#x15f;" horiz-adv-x="1100" d="M157 359h103q-9 -82 12 -137t64.5 -89.5t105.5 -50.5t133 -16q155 0 239 60.5t84 163.5q0 59 -28 93.5t-73 55.5t-108 34.5t-136 30.5q-66 12 -124 28t-102 44.5t-68.5 71t-24.5 112.5q0 75 32 135.5t87 102t131 64t165 22.5q87 0 160 -21t124.5 -65t77.5 -110.5 t16 -155.5h-103q14 131 -63 195.5t-214 64.5q-138 0 -225 -58.5t-87 -161.5q0 -52 22.5 -84t67 -53t107.5 -34.5t141 -30.5q61 -14 120.5 -30.5t104.5 -44.5t74 -75t29 -120q0 -150 -116 -234.5t-315 -87.5l-19 -182q27 40 68.5 59.5t88.5 19.5q82 0 136 -57t54 -142 q0 -49 -19 -94.5t-52 -80t-79.5 -55.5t-100.5 -21q-91 0 -155.5 57.5t-59.5 163.5h77q-3 -56 31.5 -103t108.5 -47q76 0 124 51.5t48 121.5q0 56 -36.5 97.5t-108.5 41.5q-33 0 -70.5 -17t-72.5 -81h-71l28 271q-80 7 -145 33t-110 72.5t-66 112.5t-12 160z" />
<glyph unicode="&#x160;" horiz-adv-x="1407" d="M174 518h109q-9 -98 15 -181.5t83 -143.5t150 -93.5t211 -33.5q108 0 198 27t155 78.5t100.5 125.5t35.5 167q0 92 -34 152t-89.5 99.5t-126.5 61.5t-148 41q-99 24 -190.5 54t-162 77.5t-113.5 120t-43 189.5q0 108 41 198.5t116 157t181.5 103t242.5 36.5 q260 0 382 -136t101 -370h-108q12 187 -81 296.5t-310 109.5q-108 0 -192.5 -28.5t-143.5 -79t-90 -120.5t-31 -150q0 -89 35 -146.5t91 -95t132.5 -60t157.5 -43.5q99 -24 187 -54.5t157 -81t109.5 -126.5t40.5 -190q0 -123 -47 -217.5t-129 -160.5t-195 -101t-244 -35 q-145 0 -254 41t-179.5 114.5t-101 174.5t-18.5 223zM563 2230l71 70l307 -312l379 312l54 -70l-448 -365z" />
<glyph unicode="&#x161;" horiz-adv-x="1100" d="M157 359h103q-7 -82 14 -138.5t65 -90.5t105.5 -49t132.5 -15q155 0 239 60.5t84 163.5q0 54 -23.5 87t-66.5 55.5t-105.5 37t-144.5 32.5q-66 14 -126.5 30t-104 43t-69.5 71t-26 114q0 75 32 135.5t87 102t131 64t165 22.5q87 0 160 -21t124.5 -65t77.5 -110.5 t19 -155.5h-104q12 131 -65 195.5t-214 64.5q-138 0 -225 -60t-87 -165q0 -49 20.5 -80t61 -52t100 -36t135.5 -29q73 -14 137 -31.5t110.5 -46t74 -72.5t27.5 -118q0 -150 -114.5 -238t-318.5 -88q-94 0 -174 21.5t-136 67t-84.5 118.5t-16.5 176zM322 1676l72 71l307 -312 l375 312l57 -71l-448 -363z" />
<glyph unicode="&#x162;" horiz-adv-x="1152" d="M209 1620l9 101h1074l-9 -101h-484l-170 -1620h-108l169 1620h-481zM440 -460l8 62q79 0 120.5 36t41.5 99q0 35 -12 42q-12 -9 -27 -13.5t-30 -4.5q-39 0 -62.5 23.5t-23.5 60.5q0 45 33 76.5t84 31.5q57 0 87.5 -46.5t30.5 -124.5q0 -125 -68.5 -183.5t-181.5 -58.5z " />
<glyph unicode="&#x163;" horiz-adv-x="778" d="M150 966l10 94h234l44 432h103l-44 -432h341l-10 -94h-341l-65 -600q-9 -94 3.5 -150t39.5 -85.5t66 -38t83 -8.5q35 0 81.5 3.5t80.5 8.5l-9 -96q-35 -5 -83 -9.5t-97 -4.5q-61 0 -115 12t-92 50t-55.5 111t-5.5 193l64 614h-233zM324 -457l7 61q52 0 92.5 20t55.5 76 q5 19 6.5 43.5t-6.5 38.5q-19 -20 -57 -21q-37 0 -59.5 24.5t-22.5 62.5q0 44 33 76t82 32q56 0 88 -47t32 -127q0 -123 -68.5 -181t-182.5 -58z" />
<glyph unicode="&#x164;" horiz-adv-x="1152" d="M209 1620l9 101h1074l-9 -101h-484l-170 -1620h-108l169 1620h-481zM401 2209l71 72l309 -313l377 313l56 -72l-445 -363z" />
<glyph unicode="&#x165;" horiz-adv-x="910" d="M150 966l10 94h234l44 432h103l-44 -432h341l-10 -94h-341l-65 -600q-9 -94 3.5 -150t39.5 -85.5t66 -38t83 -8.5q35 0 81.5 3.5t80.5 8.5l-9 -96q-35 -5 -83 -9.5t-97 -4.5q-61 0 -115 12t-92 50t-55.5 111t-5.5 193l64 614h-233zM688 1226l8 66q79 0 124 37.5t60 93.5 q9 35 6.5 60t-6.5 39q-30 -22 -69 -23q-47 0 -76 29.5t-29 73.5q0 54 39 93.5t103 39.5q71 0 110 -55t39 -158q0 -153 -84.5 -224.5t-224.5 -71.5z" />
<glyph unicode="&#x166;" horiz-adv-x="1152" d="M209 1620l9 101h1074l-9 -101h-484l-42 -398h396l-11 -89h-394l-119 -1133h-108l117 1133h-375l9 89h377l41 398h-481z" />
<glyph unicode="&#x167;" horiz-adv-x="778" d="M108 553l10 83h234l34 330h-234l10 94h234l44 432h104l-45 -432h341l-10 -94h-340l-35 -330h324l-10 -83h-324l-20 -187q-10 -94 2.5 -150t39.5 -85.5t66 -38t84 -8.5q35 0 81.5 3.5t77.5 8.5l-9 -96q-33 -5 -81 -9.5t-96 -4.5q-61 0 -115.5 12t-93.5 50t-56.5 111 t-5.5 193l23 201h-234z" />
<glyph unicode="&#x168;" horiz-adv-x="1489" d="M239 521l125 1200h108l-125 -1200q-10 -94 13 -176t75 -143.5t132 -98.5t183 -37t190 37t153.5 98.5t107 143.5t49.5 176l126 1200h108l-124 -1200q-12 -113 -63 -214t-132 -177t-189 -120.5t-237 -44.5q-131 0 -228.5 45.5t-162.5 122t-93.5 177t-15.5 211.5zM523 1991 q52 93 128 140t153 47q59 0 102 -22t77.5 -50.5t68.5 -50.5t78 -22q62 0 113.5 41.5t81.5 103.5l80 -40q-54 -98 -130 -145t-152 -47q-59 0 -102 22.5t-79.5 50.5t-71.5 50.5t-79 22.5q-59 0 -110.5 -42t-78.5 -104z" />
<glyph unicode="&#x169;" horiz-adv-x="1365" d="M234 443l64 617h108l-62 -591q-19 -176 56.5 -287t246.5 -111q103 0 184 42t137.5 106t90.5 144t43 158l56 539h106l-114 -1060h-106l30 275q-28 -59 -71.5 -114t-103 -96t-132.5 -65t-162 -24q-199 0 -298 127q-47 59 -66.5 142.5t-6.5 197.5zM394 1442q54 94 129 139.5 t150 45.5q59 0 102 -22t78.5 -50.5t69 -50.5t78.5 -22q61 0 114 43t79 102l82 -37q-52 -98 -129.5 -145t-156.5 -47q-59 0 -100.5 22t-77.5 49t-70 49.5t-78 22.5q-57 0 -108.5 -39t-83.5 -104z" />
<glyph unicode="&#x16a;" horiz-adv-x="1489" d="M239 521l125 1200h108l-125 -1200q-10 -94 13 -176t75 -143.5t132 -98.5t183 -37t190 37t153.5 98.5t107 143.5t49.5 176l126 1200h108l-124 -1200q-12 -113 -63 -214t-132 -177t-189 -120.5t-237 -44.5q-131 0 -228.5 45.5t-162.5 122t-93.5 177t-15.5 211.5zM511 1963 l10 96h879l-9 -96h-880z" />
<glyph unicode="&#x16b;" horiz-adv-x="1365" d="M234 443l64 617h108l-62 -591q-19 -176 56.5 -287t246.5 -111q103 0 184 42t137.5 106t90.5 144t43 158l56 539h106l-114 -1060h-106l30 275q-28 -59 -71.5 -114t-103 -96t-132.5 -65t-162 -24q-199 0 -298 127q-47 59 -66.5 142.5t-6.5 197.5zM394 1428l9 96h880 l-10 -96h-879z" />
<glyph unicode="&#x16c;" horiz-adv-x="1489" d="M239 521l125 1200h108l-125 -1200q-10 -94 13 -176t75 -143.5t132 -98.5t183 -37t190 37t153.5 98.5t107 143.5t49.5 176l126 1200h108l-124 -1200q-12 -113 -63 -214t-132 -177t-189 -120.5t-237 -44.5q-131 0 -228.5 45.5t-162.5 122t-93.5 177t-15.5 211.5zM518 2234 h101q15 -122 100.5 -190t218.5 -68q134 0 234.5 67.5t140.5 190.5h103q-22 -81 -69 -144.5t-112 -108t-143.5 -68t-162.5 -23.5q-87 0 -159 23.5t-126 68t-87.5 108t-38.5 144.5z" />
<glyph unicode="&#x16d;" horiz-adv-x="1365" d="M234 443l64 617h108l-62 -591q-19 -176 56.5 -287t246.5 -111q103 0 184 42t137.5 106t90.5 144t43 158l56 539h106l-114 -1060h-106l30 275q-28 -59 -71.5 -114t-103 -96t-132.5 -65t-162 -24q-199 0 -298 127q-47 59 -66.5 142.5t-6.5 197.5zM422 1721h101 q15 -123 97.5 -192t207.5 -69t219.5 68.5t136.5 192.5h101q-21 -82 -67 -145.5t-107.5 -108t-136 -68t-156.5 -23.5q-164 0 -274 91t-122 254z" />
<glyph unicode="&#x16e;" horiz-adv-x="1489" d="M239 521l125 1200h108l-125 -1200q-10 -94 13 -176t75 -143.5t132 -98.5t183 -37t190 37t153.5 98.5t107 143.5t49.5 176l126 1200h108l-124 -1200q-12 -113 -63 -214t-132 -177t-189 -120.5t-237 -44.5q-131 0 -228.5 45.5t-162.5 122t-93.5 177t-15.5 211.5zM661 2071 q0 66 27 125.5t74 105t105.5 71.5t124.5 26q59 0 110 -22.5t87.5 -59t57.5 -87t21 -107.5q0 -66 -27 -126t-73.5 -104.5t-106.5 -71.5t-127 -27q-59 0 -109.5 22t-86 59t-56.5 87t-21 109zM739 2080q0 -87 58.5 -145.5t143.5 -58.5q49 0 93.5 19t78.5 52.5t54 76t20 92.5 q0 86 -56.5 145t-145.5 59q-49 0 -93 -19.5t-78.5 -53t-54.5 -76t-20 -91.5z" />
<glyph unicode="&#x16f;" horiz-adv-x="1365" d="M234 443l64 617h108l-62 -591q-19 -176 56.5 -287t246.5 -111q103 0 184 42t137.5 106t90.5 144t43 158l56 539h106l-114 -1060h-106l30 275q-28 -59 -71.5 -114t-103 -96t-132.5 -65t-162 -24q-199 0 -298 127q-47 59 -66.5 142.5t-6.5 197.5zM528 1494q0 66 28 126.5 t74 106t107.5 72.5t127.5 27q61 0 111.5 -22t88 -60.5t57.5 -90t20 -107.5q0 -66 -28 -126t-75 -106t-108 -73t-127 -27q-61 0 -111.5 22.5t-87.5 60t-57 89.5t-20 108zM607 1501q0 -86 57.5 -147.5t146.5 -61.5q49 0 95 20t81 54t56 78.5t21 96.5q0 86 -57.5 146t-148.5 60 q-49 0 -94.5 -19.5t-80 -52.5t-55.5 -77.5t-21 -96.5z" />
<glyph unicode="&#x170;" horiz-adv-x="1489" d="M239 521l125 1200h108l-125 -1200q-10 -94 13 -176t75 -143.5t132 -98.5t183 -37t190 37t153.5 98.5t107 143.5t49.5 176l126 1200h108l-124 -1200q-12 -113 -63 -214t-132 -177t-189 -120.5t-237 -44.5q-131 0 -228.5 45.5t-162.5 122t-93.5 177t-15.5 211.5zM584 1900 l350 408l88 -47l-375 -396zM1064 1900l350 408l87 -47l-375 -399z" />
<glyph unicode="&#x171;" horiz-adv-x="1365" d="M234 443l64 617h108l-62 -591q-19 -176 56.5 -287t246.5 -111q103 0 184 42t137.5 106t90.5 144t43 158l56 539h106l-114 -1060h-106l30 275q-28 -59 -71.5 -114t-103 -96t-132.5 -65t-162 -24q-199 0 -298 127q-47 59 -66.5 142.5t-6.5 197.5zM452 1283l352 408l85 -47 l-375 -396zM931 1283l352 408l86 -47l-377 -398z" />
<glyph unicode="&#x172;" horiz-adv-x="1489" d="M239 521l125 1200h108l-125 -1200q-10 -94 13 -176t76.5 -143.5t133 -98.5t182.5 -37q104 0 191 37t152 98.5t105.5 143.5t49.5 176l126 1200h108l-124 -1200q-12 -108 -59.5 -206.5t-125 -173.5t-180.5 -122t-223 -54q-153 -117 -153 -240q0 -63 47 -111t140 -48 q50 0 105 12t92 24l-13 -86q-40 -12 -96 -24.5t-118 -12.5q-135 0 -198.5 63.5t-63.5 155.5q0 79 46.5 142.5t137.5 127.5q-117 7 -208.5 53.5t-150.5 121.5t-86 172.5t-14 205.5z" />
<glyph unicode="&#x173;" horiz-adv-x="1365" d="M234 443l64 617h108l-62 -591q-19 -176 56.5 -287t246.5 -111q103 0 184 42t137.5 106t90.5 144t43 158l56 539h106l-114 -1060h-17q-133 -56 -207.5 -125t-74.5 -161q0 -63 41.5 -105.5t125.5 -42.5q42 0 87 8t79 20l-12 -88q-34 -10 -83.5 -18.5t-100.5 -8.5 q-125 0 -187 59t-62 148q0 98 74 172t233 144l28 273q-28 -59 -71.5 -114t-103 -96t-132.5 -65t-162 -24q-199 0 -298 127q-47 59 -66.5 142.5t-6.5 197.5z" />
<glyph unicode="&#x174;" horiz-adv-x="2275" d="M197 1721h115l344 -1547l620 1547h91l294 -1547l666 1547h116l-759 -1721h-89l-295 1543l-617 -1543h-90zM919 1916l462 365l387 -365l-70 -73l-326 317l-396 -314z" />
<glyph unicode="&#x175;" horiz-adv-x="1707" d="M140 1060h111l241 -910l420 910h106l225 -910l433 910h113l-518 -1060h-84l-235 938l-434 -938h-80zM577 1400l462 364l387 -364l-70 -73l-329 315l-396 -315z" />
<glyph unicode="&#x176;" horiz-adv-x="1346" d="M199 1721h127l495 -935l582 935h119l-1072 -1721h-121l423 676zM499 1916l462 365l385 -365l-68 -73l-329 317l-396 -314z" />
<glyph unicode="&#x177;" horiz-adv-x="1380" d="M180 -176h103q-12 -204 65 -310.5t281 -106.5q98 0 173 26t126.5 81.5t83.5 140.5t45 205l45 415q-30 -59 -72 -113t-100 -96t-134 -66t-172 -24q-101 0 -174.5 28t-125.5 92q-49 61 -62.5 143.5t1.5 222.5l63 598h101l-59 -573q-9 -89 -0.5 -165t40.5 -131t93.5 -87.5 t157.5 -32.5q113 0 196 42t141.5 106t90 144t39.5 158l56 539h103l-125 -1200q-32 -296 -166 -420.5t-375 -124.5q-258 0 -358.5 129t-80.5 380zM415 1400l460 364l389 -364l-70 -73l-329 315l-393 -315z" />
<glyph unicode="&#x178;" horiz-adv-x="1346" d="M199 1721h127l495 -935l582 935h119l-1072 -1721h-121l423 676zM516 2003q0 54 39.5 92.5t91.5 38.5q49 0 78.5 -32.5t29.5 -78.5q0 -54 -38.5 -90t-92.5 -36q-47 0 -77.5 29.5t-30.5 76.5zM1084 2000q0 57 38 95.5t92 38.5q50 0 79 -32.5t29 -78.5q0 -54 -39.5 -90 t-93.5 -36q-49 0 -77 29.5t-28 73.5z" />
<glyph unicode="&#x179;" horiz-adv-x="1326" d="M42 0l1250 1620h-1029l12 101h1217l-1253 -1620h1117l-10 -101h-1304zM582 1944l649 337l40 -86l-649 -337z" />
<glyph unicode="&#x17a;" horiz-adv-x="1048" d="M68 0l809 961h-675l9 99h865l-808 -964h715l-10 -96h-905zM337 1356l646 337l42 -86l-649 -336z" />
<glyph unicode="&#x17b;" horiz-adv-x="1326" d="M42 0l1250 1620h-1029l12 101h1217l-1253 -1620h1117l-10 -101h-1304zM762 2008q0 56 39 94.5t97 38.5q49 0 79.5 -32t30.5 -79q0 -56 -41 -93t-97 -37q-49 0 -78.5 30.5t-29.5 77.5z" />
<glyph unicode="&#x17c;" horiz-adv-x="1048" d="M68 0l809 961h-675l9 99h865l-808 -964h715l-10 -96h-905zM558 1463q0 56 38 94t94 38q49 0 80.5 -32t31.5 -79q0 -56 -40 -93t-96 -37q-49 0 -78.5 31t-29.5 78z" />
<glyph unicode="&#x17d;" horiz-adv-x="1326" d="M42 0l1250 1620h-1029l12 101h1217l-1253 -1620h1117l-10 -101h-1304zM563 2209l73 72l307 -313l379 313l54 -72l-447 -363z" />
<glyph unicode="&#x17e;" horiz-adv-x="1048" d="M68 0l809 961h-675l9 99h865l-808 -964h715l-10 -96h-905zM307 1651l71 70l305 -310l379 312l56 -72l-447 -363z" />
<glyph unicode="&#x17f;" horiz-adv-x="790" d="M160 966l9 94h253l33 294q14 127 52.5 203.5t89 115.5t107 50.5t105.5 11.5q54 0 85.5 -7t61.5 -20l-10 -93q-33 12 -60.5 18t-69.5 6t-84 -8.5t-77.5 -37.5t-61 -85t-35.5 -146l-143 -1362h-103l101 966h-253z" />
<glyph unicode="&#x192;" horiz-adv-x="973" d="M-228 -619l24 93q28 -12 56 -18.5t69 -6.5q42 0 84 9t82 37.5t76 83.5t65 149l347 1238h-253l27 94h253l81 294q35 127 86.5 203.5t110 115.5t118 50.5t108.5 11.5q57 0 87.5 -7t56.5 -20l-26 -93q-30 12 -57 18t-69 6q-40 0 -82.5 -7t-83 -35.5t-77.5 -84t-64 -150.5 l-85 -302h363l-27 -94h-364l-343 -1231q-37 -127 -89 -204t-108 -116t-115.5 -50.5t-108.5 -11.5q-54 0 -86 8t-56 20z" />
<glyph unicode="&#x218;" horiz-adv-x="1407" d="M174 518h109q-9 -98 15 -181.5t83 -143.5t150 -93.5t211 -33.5q108 0 198 27t155 78.5t100.5 125.5t35.5 167q0 92 -34 152t-89.5 99.5t-126.5 61.5t-148 41q-99 24 -190.5 54t-162 77.5t-113.5 120t-43 189.5q0 108 39.5 198.5t114.5 157t182 103t242 36.5 q261 0 384 -136t102 -370h-108q12 187 -81 296.5t-310 109.5q-108 0 -192.5 -28.5t-143.5 -79t-90 -120.5t-31 -150q0 -89 35 -146.5t91 -95t132.5 -60t157.5 -43.5q99 -24 187 -54.5t157 -81t109.5 -126.5t40.5 -190q0 -123 -47 -217.5t-129 -160.5t-195 -101t-244 -35 q-145 0 -254 41t-179.5 114.5t-101 174.5t-18.5 223zM605 -484l7 62q79 0 120.5 35t41.5 92q0 21 -5 32.5t-9 16.5q-24 -19 -57 -19q-37 0 -60.5 24t-23.5 61q0 44 32 76.5t83 32.5q57 0 89.5 -46.5t32.5 -128.5q0 -122 -69 -180t-182 -58z" />
<glyph unicode="&#x219;" horiz-adv-x="1100" d="M157 359h103q-7 -82 14 -138.5t65 -90.5t105.5 -49t132.5 -15q155 0 239 60.5t84 163.5q0 54 -23.5 87t-66.5 55.5t-105.5 37t-144.5 32.5q-66 14 -126.5 30t-104 43t-69.5 71t-26 114q0 75 32 135.5t87 102t131 64t165 22.5q87 0 160 -21t124.5 -65t77.5 -110.5 t19 -155.5h-104q12 131 -65 195.5t-214 64.5q-138 0 -225 -60t-87 -165q0 -49 20.5 -80t61 -52t99.5 -36t136 -29q73 -14 137 -31.5t110.5 -46t74 -72.5t27.5 -118q0 -150 -114.5 -238t-318.5 -88q-94 0 -174 21.5t-136 67t-84.5 118.5t-16.5 176zM438 -448l7 65 q69 0 102 26t46 67q5 19 6 44t-6 37q-10 -9 -25 -13t-29 -4q-40 0 -63.5 23t-23.5 60q0 45 33 76.5t85 31.5q56 0 87 -46t31 -125q0 -128 -72 -185t-178 -57z" />
<glyph unicode="&#x2b0;" horiz-adv-x="913" d="M268 774l98 947h86l-51 -492q35 71 101 113t152 42q110 0 164 -66q24 -30 35.5 -77t4.5 -118l-37 -349h-89l35 328q9 86 -25 144t-125 58q-54 0 -96 -21.5t-70.5 -55t-45 -73.5t-19.5 -78l-32 -302h-86z" />
<glyph unicode="&#x2b2;" horiz-adv-x="486" d="M89 432l7 72q40 -14 66 -14q89 0 101 110l81 772h88l-80 -777q-10 -93 -55.5 -136.5t-116.5 -43.5q-22 0 -47 3.5t-44 13.5zM335 1595q0 35 25.5 62t59.5 27q32 0 53 -22.5t21 -52.5q0 -35 -27 -60t-61 -25q-33 0 -52 21.5t-19 49.5z" />
<glyph unicode="&#x2b7;" horiz-adv-x="1114" d="M232 1372h90l126 -480l213 480h87l112 -480l224 480h91l-293 -598h-68l-120 494l-227 -494h-71z" />
<glyph unicode="&#x2b8;" horiz-adv-x="924" d="M248 688h87q-5 -99 31.5 -151.5t144.5 -52.5q99 0 151.5 51.5t64.5 182.5l21 199q-28 -64 -90.5 -108.5t-163.5 -44.5q-110 0 -165 66q-28 35 -35.5 82t-0.5 120l36 340h89l-35 -320q-5 -42 -1 -81.5t20 -69t46.5 -46.5t81.5 -17q57 0 99 21t70 54t44.5 73.5t20.5 82.5 l33 303h90l-69 -652q-19 -169 -96.5 -239.5t-217.5 -70.5q-148 0 -208 69t-48 209z" />
<glyph unicode="&#x2c6;" horiz-adv-x="1036" d="M256 1712l478 357l406 -357l-71 -75l-347 305l-408 -305z" />
<glyph unicode="&#x2da;" horiz-adv-x="962" d="M361 1726q0 66 28.5 124.5t74 104t106 71.5t126.5 26q59 0 109.5 -22t87 -59t56 -87t19.5 -107q0 -66 -27 -126.5t-73.5 -105t-105.5 -71.5t-126 -27q-59 0 -109.5 22.5t-87 60.5t-57.5 88.5t-21 107.5zM448 1730q0 -81 55 -138.5t141 -57.5q47 0 89.5 18.5t75.5 51.5 t53 75t20 91q0 82 -55 139t-142 57q-47 0 -89.5 -18t-75.5 -50.5t-52.5 -75t-19.5 -92.5z" />
<glyph unicode="&#x2dc;" horiz-adv-x="1078" d="M322 1627q58 35 100 54t73 28t52 10.5t37 1.5q28 0 75 -10.5t97 -23.5t99.5 -23t82.5 -10q12 0 27 2t36 10t52 20t75 35l35 -77q-99 -54 -148 -67t-86 -13q-47 0 -91 9.5t-88 22.5t-86 23.5t-87 10.5q-30 0 -76 -13t-137 -67z" />
<glyph unicode="&#x2e3;" horiz-adv-x="751" d="M190 774l248 300l-185 298h103l138 -237l191 237h103l-247 -298l184 -300h-101l-143 236l-188 -236h-103z" />
<glyph unicode="&#x2000;" horiz-adv-x="1199" />
<glyph unicode="&#x2001;" horiz-adv-x="2399" />
<glyph unicode="&#x2002;" horiz-adv-x="1199" />
<glyph unicode="&#x2003;" horiz-adv-x="2399" />
<glyph unicode="&#x2004;" horiz-adv-x="799" />
<glyph unicode="&#x2005;" horiz-adv-x="599" />
<glyph unicode="&#x2006;" horiz-adv-x="399" />
<glyph unicode="&#x2007;" horiz-adv-x="399" />
<glyph unicode="&#x2008;" horiz-adv-x="299" />
<glyph unicode="&#x2009;" horiz-adv-x="505" />
<glyph unicode="&#x200a;" horiz-adv-x="133" />
<glyph unicode="&#x2010;" horiz-adv-x="722" d="M143 652l9 98h575l-9 -98h-575z" />
<glyph unicode="&#x2011;" horiz-adv-x="722" d="M143 652l9 98h575l-9 -98h-575z" />
<glyph unicode="&#x2012;" horiz-adv-x="722" d="M143 652l9 98h575l-9 -98h-575z" />
<glyph unicode="&#x2013;" horiz-adv-x="1236" d="M192 652l10 98h990l-10 -98h-990z" />
<glyph unicode="&#x2014;" horiz-adv-x="2472" d="M192 652l10 98h2226l-10 -98h-2226z" />
<glyph unicode="&#x2018;" horiz-adv-x="594" d="M307 1526q0 153 86 223t224 70l-7 -67q-69 0 -118 -32t-67 -95q-7 -30 -6 -57t6 -44q27 24 69 24q47 0 75.5 -30.5t28.5 -75.5q0 -54 -38.5 -93t-102.5 -39q-71 0 -110.5 58t-39.5 158z" />
<glyph unicode="&#x2019;" horiz-adv-x="594" d="M305 1310l7 69q73 0 121 33t61 94q12 42 11 64t-6 34q-30 -21 -69 -21q-47 0 -76.5 29.5t-29.5 75.5q0 52 39.5 91.5t103.5 39.5q71 0 110.5 -57t39.5 -155q0 -79 -24.5 -135t-66.5 -92t-98.5 -53t-122.5 -17z" />
<glyph unicode="&#x201a;" horiz-adv-x="594" d="M138 -290l7 67q73 0 121 34t60 93q12 42 11.5 65.5t-6.5 35.5q-27 -24 -68 -24q-47 0 -76.5 30.5t-29.5 74.5q0 54 39.5 93t103.5 39q71 0 110.5 -56t39.5 -157q0 -155 -87.5 -225t-224.5 -70z" />
<glyph unicode="&#x201c;" horiz-adv-x="960" d="M307 1526q0 153 86 223t224 70l-7 -67q-69 0 -118 -32t-67 -95q-7 -30 -6 -57t6 -44q27 24 69 24q47 0 75.5 -30.5t28.5 -75.5q0 -54 -38.5 -93t-102.5 -39q-71 0 -110.5 58t-39.5 158zM676 1524q0 155 86 225t223 70l-7 -67q-73 0 -122.5 -34t-61.5 -93 q-12 -42 -9 -65.5t9 -35.5q12 12 30 18t39 6q47 0 74 -30.5t27 -75.5q0 -51 -38.5 -91.5t-102.5 -40.5q-71 0 -109 58t-38 156z" />
<glyph unicode="&#x201d;" horiz-adv-x="960" d="M305 1310l7 69q73 0 121 33t61 94q12 42 11 64t-6 34q-30 -21 -69 -21q-47 0 -76.5 29.5t-29.5 75.5q0 52 39.5 91.5t103.5 39.5q71 0 110.5 -57t39.5 -155q0 -79 -24.5 -135t-66.5 -92t-98.5 -53t-122.5 -17zM673 1310l7 69q74 0 122.5 33t60.5 94q12 42 9.5 64t-7.5 34 q-27 -21 -68 -21q-47 0 -75 29.5t-28 75.5q0 52 37.5 91.5t101.5 39.5q71 0 110.5 -55.5t39.5 -154.5q0 -155 -88.5 -227t-221.5 -72z" />
<glyph unicode="&#x201e;" horiz-adv-x="960" d="M138 -290l7 67q73 0 121 34t60 93q12 42 11.5 65.5t-6.5 35.5q-27 -24 -68 -24q-47 0 -76.5 30.5t-29.5 74.5q0 54 39.5 93t103.5 39q71 0 110.5 -56t39.5 -157q0 -155 -87.5 -225t-224.5 -70zM506 -290l8 67q73 0 121 34t61 93q12 42 9.5 65.5t-7.5 35.5 q-12 -12 -30.5 -18t-38.5 -6q-47 0 -75 30.5t-28 74.5q0 52 38 92t102 40q71 0 110.5 -56t39.5 -157q0 -153 -84.5 -224t-225.5 -71z" />
<glyph unicode="&#x2020;" horiz-adv-x="884" d="M148 976l9 98h345l73 688h105l-73 -688h347l-11 -98h-345l-150 -1424h-106l150 1424h-344z" />
<glyph unicode="&#x2021;" horiz-adv-x="884" d="M52 68l9 94h345l86 816h-344l9 96h345l70 688h106l-71 -688h347l-11 -96h-345l-87 -816h347l-10 -94h-346l-54 -516h-106l54 516h-344z" />
<glyph unicode="&#x2022;" horiz-adv-x="830" d="M209 742q0 63 25.5 120t70 100.5t101 68t120.5 24.5q112 0 185 -76.5t73 -187.5q0 -64 -26 -120.5t-68.5 -98.5t-101 -66.5t-119.5 -24.5q-115 0 -187.5 75t-72.5 186z" />
<glyph unicode="&#x2026;" horiz-adv-x="2179" d="M140 98q0 57 39 95.5t93 38.5q50 0 80.5 -31.5t30.5 -80.5q0 -56 -40.5 -93t-94.5 -37q-49 0 -78.5 31t-29.5 77zM980 98q0 57 40 95.5t94 38.5q49 0 79.5 -32.5t30.5 -79.5q0 -56 -41 -93t-95 -37q-49 0 -78.5 31t-29.5 77zM1822 98q0 57 39 95.5t93 38.5 q49 0 79.5 -32.5t30.5 -79.5q0 -56 -40 -93t-94 -37q-50 0 -79 31t-29 77z" />
<glyph unicode="&#x202f;" horiz-adv-x="479" />
<glyph unicode="&#x2030;" horiz-adv-x="2953" d="M253 1064l40 374q7 61 35 115t74 94.5t107 64t133 23.5q71 0 127.5 -24.5t93.5 -67.5t54 -99.5t9 -120.5l-39 -374q-7 -61 -35.5 -115t-75 -94.5t-108 -64t-129.5 -23.5q-73 0 -129 25t-93 67.5t-54 99.5t-10 120zM347 1064q-10 -93 43 -162t156 -69q101 0 169.5 65.5 t81.5 165.5l38 359q10 94 -45.5 162.5t-158.5 68.5q-101 0 -167 -65t-78 -166zM479 -5l1268 1851l82 -50l-1271 -1850zM1334 293l40 375q7 59 35.5 113t74 95t107 64.5t132.5 23.5t127.5 -25t93.5 -68t54 -99.5t10 -117.5l-40 -377q-7 -59 -35.5 -113t-75 -94t-108 -63.5 t-129.5 -23.5q-73 0 -129 24.5t-92.5 67.5t-54 98t-10.5 120zM1428 293q-10 -94 43 -161.5t156 -67.5q52 0 96.5 18.5t77.5 49t52.5 72.5t24.5 89l38 361q10 94 -45 161t-159 67q-103 0 -169 -67t-75 -161zM2204 293l40 375q7 59 35.5 113t74 95t106.5 64.5t133 23.5 q73 0 129.5 -25t94 -68t54 -99.5t9.5 -117.5l-40 -377q-7 -59 -36.5 -113t-76 -94t-108 -63.5t-129.5 -23.5q-73 0 -129 24.5t-92.5 67.5t-54 98t-10.5 120zM2298 293q-10 -94 43 -161.5t156 -67.5q52 0 96.5 18.5t77.5 49t52.5 72.5t24.5 89l38 361q10 94 -45 161t-159 67 q-103 0 -169 -67t-75 -161z" />
<glyph unicode="&#x2039;" horiz-adv-x="678" d="M169 676l7 79l530 425l-12 -116l-429 -349l354 -349l-12 -115z" />
<glyph unicode="&#x203a;" horiz-adv-x="678" d="M125 251l13 115l427 349l-354 349l12 116l438 -425l-9 -79z" />
<glyph unicode="&#x2044;" horiz-adv-x="495" d="M-331 -5l1267 1851l82 -50l-1269 -1850z" />
<glyph unicode="&#x205f;" horiz-adv-x="599" />
<glyph unicode="&#x2070;" horiz-adv-x="940" d="M265 1067q7 91 18 167q7 63 13 125t11 83q10 59 38 113t72.5 95t103.5 64.5t131 23.5q73 0 129.5 -25t93.5 -68t54 -99.5t9 -117.5q-12 -103 -21 -185q-7 -71 -13 -129.5t-6 -61.5q-8 -61 -38 -115.5t-76.5 -93.5t-108 -62.5t-129.5 -23.5q-71 0 -126.5 24.5t-92.5 67.5 t-53 98.5t-9 119.5zM359 1067q-10 -94 43 -161.5t156 -67.5q52 0 96 18.5t77 49t53 72.5t25 89l37 361q10 94 -44 161t-158 67q-103 0 -170.5 -67t-77.5 -161z" />
<glyph unicode="&#x2074;" horiz-adv-x="896" d="M283 1102l64 619h93l-54 -537h278l30 298h92l-29 -298h155l-10 -82h-154l-35 -328h-94l35 328h-371z" />
<glyph unicode="&#x2075;" horiz-adv-x="948" d="M277 1072h94q-10 -92 41.5 -162t159.5 -70q57 0 103.5 21t79.5 56t52 80t19 96q0 87 -54 147t-155 60q-141 0 -209 -125h-94l57 546h548l-7 -79h-462l-42 -381q35 57 99.5 86t141.5 29q131 0 199.5 -81t68.5 -191q0 -68 -26 -130t-71.5 -110t-110.5 -76t-144 -28 q-75 0 -132 25.5t-94 69t-53 99.5t-9 118z" />
<glyph unicode="&#x2076;" horiz-adv-x="882" d="M232 1042q0 110 68 206l347 473h108l-279 -377q24 19 59 27t70 8q125 -5 196 -85t71 -192q0 -69 -27 -130.5t-73.5 -108.5t-112 -75t-141.5 -28q-68 0 -121 22t-90 61t-56 89.5t-19 109.5zM324 1049q0 -87 51.5 -148t152.5 -61q54 0 101 21t80 56t51.5 81t18.5 95 q0 87 -54 148t-153 61q-54 0 -99.5 -20.5t-78.5 -55t-51.5 -79.5t-18.5 -98z" />
<glyph unicode="&#x2077;" horiz-adv-x="771" d="M241 774l501 865h-447l7 82h582l-542 -947h-101z" />
<glyph unicode="&#x2078;" horiz-adv-x="921" d="M251 1006q0 93 56.5 166.5t159.5 93.5q-73 17 -113 68.5t-40 125.5q0 116 89 195.5t235 79.5q134 0 205 -66.5t71 -167.5q0 -84 -50 -150t-144 -85q82 -17 123 -77.5t41 -136.5q0 -61 -24.5 -114.5t-71 -92.5t-110.5 -62t-139 -23q-138 0 -213 69t-75 177zM342 1015 q0 -79 53 -129.5t153 -50.5q111 0 178.5 62t67.5 152q0 75 -53 125t-154 50q-113 0 -179 -60t-66 -149zM406 1460q0 -70 49 -116.5t143 -46.5q103 0 164 57t61 138q0 70 -49 118t-140 48q-104 0 -166 -56t-62 -142z" />
<glyph unicode="&#x2079;" horiz-adv-x="882" d="M272 1393q0 69 26 130.5t73 108.5t111 75t140 28q68 0 122.5 -22t92.5 -60t57.5 -89.5t19.5 -109.5q0 -61 -19.5 -111.5t-54.5 -96.5l-346 -472h-105l279 373q-19 -19 -50 -27.5t-67 -8.5q-120 0 -199.5 80t-79.5 202zM366 1398q0 -86 54 -146t152 -60q54 0 100 21t79 55 t51.5 79.5t18.5 97.5q0 86 -53 147.5t-151 61.5q-54 0 -101 -21t-80 -56.5t-51.5 -81t-18.5 -97.5z" />
<glyph unicode="&#x207a;" horiz-adv-x="924" d="M312 1121l7 75h229l24 232h82l-25 -232h227l-8 -75h-226l-24 -232h-82l25 232h-229z" />
<glyph unicode="&#x207c;" horiz-adv-x="926" d="M293 1001l7 75h553l-7 -75h-553zM317 1238l7 77h553l-7 -77h-553z" />
<glyph unicode="&#x207d;" horiz-adv-x="603" d="M275 776l79 746q7 66 35.5 123.5t76.5 100.5t110 69t137 26l-10 -82q-105 0 -174 -69.5t-81 -167.5l-80 -746q-9 -96 46 -165.5t161 -69.5l-7 -84q-74 0 -132 26t-96 70.5t-55 102t-10 120.5z" />
<glyph unicode="&#x207e;" horiz-adv-x="603" d="M136 457l9 84q108 0 176 69.5t80 165.5l78 746q12 98 -43.5 167.5t-163.5 69.5l8 82q73 0 130 -26t95.5 -69t55 -100.5t9.5 -123.5l-76 -746q-7 -63 -35.5 -120.5t-76 -102t-110.5 -70.5t-136 -26z" />
<glyph unicode="&#x207f;" horiz-adv-x="915" d="M268 774l63 598h89l-17 -143q30 63 95 109t158 46q111 0 165 -66q24 -30 35.5 -77t3.5 -118l-37 -349h-89l35 328q10 86 -25.5 144t-126.5 58q-54 0 -96 -21.5t-70.5 -55t-44 -73.5t-17.5 -78l-33 -302h-88z" />
<glyph unicode="&#x2080;" horiz-adv-x="940" d="M131 -199q7 91 17 167q7 63 13 125t11 83q9 59 38 113.5t74 95t104.5 64t129.5 23.5q74 0 131 -25t93.5 -67.5t54 -99.5t9.5 -118q-12 -103 -22 -184q-10 -70 -16 -129.5t-6 -62.5q-7 -61 -36.5 -113.5t-75 -93.5t-106 -64.5t-129.5 -23.5q-73 0 -128 24.5t-92.5 68 t-54 98.5t-9.5 119zM223 -199q-9 -94 45 -161t157 -67t171 67t77 161l40 361q9 94 -46 161.5t-158 67.5t-170 -67.5t-76 -161.5z" />
<glyph unicode="&#x2081;" horiz-adv-x="586" d="M143 223l7 72q61 0 102 8.5t64.5 28.5t33 50.5t14.5 72.5h86l-101 -947h-96l76 715h-186z" />
<glyph unicode="&#x2082;" horiz-adv-x="874" d="M86 -492q12 118 39 194.5t69 127t98.5 82.5t127.5 60q49 20 94.5 41.5t80 48.5t55.5 64.5t21 94.5q0 79 -47 126t-132 47q-103 0 -167.5 -62t-76.5 -160h-93q14 127 105.5 212t238.5 85q123 0 194 -62.5t71 -180.5q0 -74 -28 -124t-70 -85.5t-95 -60t-99 -45.5 q-74 -30 -123 -57.5t-79.5 -63.5t-47 -84t-25.5 -119h504l-7 -79h-608z" />
<glyph unicode="&#x2083;" horiz-adv-x="894" d="M94 -218h93q-9 -94 46 -151.5t158 -57.5q108 0 173 61t65 152q0 76 -49.5 124t-147.5 48h-78l7 79h79q106 0 163.5 55.5t57.5 139.5q0 75 -48 118.5t-137 43.5q-100 0 -159 -53t-69 -139h-93q12 117 99.5 192t226.5 75q120 0 197 -60t77 -170q0 -94 -56.5 -159.5 t-142.5 -81.5q79 -17 122.5 -74t43.5 -138q0 -63 -27 -117.5t-72.5 -93.5t-108 -60t-136.5 -21q-143 0 -219.5 78.5t-64.5 209.5z" />
<glyph unicode="&#x2084;" horiz-adv-x="896" d="M150 -164l64 619h93l-54 -537h277l30 298h94l-30 -298h155l-10 -82h-155l-34 -328h-93l34 328h-371z" />
<glyph unicode="&#x2085;" horiz-adv-x="948" d="M143 -194h93q-9 -94 43 -162.5t159 -68.5q54 0 100 21t81 55.5t53 80t18 96.5q0 87 -54 147t-155 60q-140 0 -209 -126h-92l56 546h548l-8 -79h-462l-42 -381q35 57 100.5 86t141.5 29q130 0 198.5 -81t68.5 -191q0 -68 -25.5 -130t-71.5 -110t-110.5 -76t-143.5 -28 q-76 0 -132.5 25.5t-93.5 69t-52.5 99.5t-8.5 118z" />
<glyph unicode="&#x2086;" horiz-adv-x="882" d="M98 -223q0 110 69 206l347 472h108l-278 -376q24 19 59 26.5t69 7.5q124 -5 195.5 -85t71.5 -192q0 -69 -27 -130.5t-73 -108.5t-111.5 -75t-141.5 -28q-68 0 -121.5 22t-90 61.5t-56.5 89.5t-20 110zM192 -216q0 -86 51.5 -147.5t152.5 -61.5q54 0 101 21t80 55.5 t51.5 81t18.5 95.5q0 87 -54 148t-153 61q-54 0 -99.5 -21t-79 -55t-51.5 -79.5t-18 -97.5z" />
<glyph unicode="&#x2087;" horiz-adv-x="771" d="M108 -492l502 865h-448l7 82h583l-543 -947h-101z" />
<glyph unicode="&#x2088;" horiz-adv-x="921" d="M118 -260q0 93 57 167t160 93q-73 17 -113 68.5t-40 125.5q0 116 88.5 195.5t235.5 79.5q134 0 204.5 -66t70.5 -167q0 -84 -50.5 -150.5t-143.5 -85.5q81 -17 123 -77.5t42 -136.5q0 -61 -24.5 -113.5t-71 -92.5t-111 -63t-139.5 -23q-138 0 -213 69t-75 177zM209 -251 q0 -79 52.5 -129t153.5 -50q111 0 178.5 61.5t67.5 152.5q0 76 -52.5 125t-153.5 49q-113 0 -179.5 -60t-66.5 -149zM272 194q0 -70 49.5 -116t142.5 -46q104 0 165 56.5t61 137.5q0 70 -48.5 119t-139.5 49q-104 0 -167 -57t-63 -143z" />
<glyph unicode="&#x2089;" horiz-adv-x="882" d="M140 127q0 69 26 130.5t73 108.5t111 75t140 28q68 0 122 -22t92 -60t57.5 -89.5t19.5 -107.5q0 -62 -19.5 -112t-53.5 -97l-347 -473h-105l279 374q-19 -19 -49.5 -28t-67.5 -9q-120 0 -199 80t-79 202zM234 133q0 -86 54 -146t152 -60q54 0 99 20.5t79 55t52 79.5 t18 98q0 86 -53 147.5t-151 61.5q-54 0 -100.5 -21t-80 -57t-51.5 -81t-18 -97z" />
<glyph unicode="&#x208d;" horiz-adv-x="603" d="M143 -490l78 746q7 66 36 124t76 100.5t110 68.5t137 26l-10 -81q-106 0 -175 -70t-81 -168l-78 -746q-9 -96 46 -165.5t161 -69.5l-9 -84q-73 0 -130.5 26t-96 70.5t-55 102t-9.5 120.5z" />
<glyph unicode="&#x208e;" horiz-adv-x="603" d="M0 -809l10 84q108 0 175.5 70.5t79.5 164.5l79 746q12 98 -43 168t-163 70l7 81q73 0 129.5 -26t95 -68.5t56 -100.5t8.5 -124l-75 -746q-7 -63 -35.5 -120.5t-76.5 -102t-111 -70.5t-136 -26z" />
<glyph unicode="&#x20ac;" horiz-adv-x="1518" d="M152 607l33 87h137l32 319h-150l30 89h130l9 82q12 113 63 214t131 177t186.5 120.5t231.5 44.5q120 0 217.5 -42t162.5 -114t97 -170.5t22 -212.5h-108q8 91 -17 171t-77.5 139.5t-130 93.5t-175.5 34q-104 0 -188.5 -36.5t-150 -98.5t-105.5 -145t-51 -175l-9 -82h658 l-28 -89h-640l-32 -319h651l-32 -87h-629l-7 -79q-7 -91 15 -173.5t73.5 -143.5t129 -98t180.5 -37t189 37t151.5 98t105.5 144t51 173h108q-12 -110 -63 -211t-132 -177t-188 -120t-234 -44q-125 0 -222.5 44t-161 119t-92 175.5t-18.5 213.5l7 79h-160z" />
<glyph unicode="&#x2122;" horiz-adv-x="1963" d="M270 1639l7 82h628l-7 -82h-272l-96 -919h-87l96 919h-269zM1020 720l103 1001h123l255 -863l436 863h120l-103 -1001h-87l89 856l-430 -856h-81l-249 856l-87 -856h-89z" />
<glyph unicode="&#x2190;" horiz-adv-x="1756" d="M108 860l652 531l56 -69l-516 -415h1534l-10 -93h-1531l425 -416l-71 -69z" />
<glyph unicode="&#x2192;" horiz-adv-x="1756" d="M103 814l10 91h1533l-424 417l70 66l537 -530l-649 -532l-57 70l516 418h-1536z" />
<glyph unicode="&#x25ca;" horiz-adv-x="1117" d="M115 973l603 978h98l394 -978l-600 -973h-99zM226 973l346 -858l526 858q-37 87 -82 199.5t-90.5 232t-90 232.5t-80.5 199z" />
<glyph unicode="&#x25fc;" horiz-adv-x="1056" d="M0 0v1057h1057v-1057h-1057z" />
<glyph unicode="&#xf6e9;" horiz-adv-x="952" d="M241 1042q0 68 26 131t71 110t106.5 74t132.5 27q91 0 150 -43.5t82 -109.5l14 141h89l-64 -598h-88l14 138q-35 -66 -104.5 -109t-155.5 -43q-64 0 -114.5 22t-85 61t-54 89.5t-19.5 109.5zM329 1049q0 -87 55.5 -148t154.5 -61q54 0 100 21t81 56t53 81t18 98 q0 86 -54 147t-153 61q-54 0 -100 -20t-81 -55t-54.5 -81t-19.5 -99z" />
<glyph unicode="&#xf6ea;" horiz-adv-x="955" d="M268 774l98 947h89l-49 -490q34 66 102.5 109.5t157.5 43.5q61 0 111.5 -22.5t86.5 -60t55 -89.5t19 -110q0 -69 -25.5 -130.5t-70.5 -108.5t-108 -75t-134 -28q-86 0 -146 40t-83 112l-15 -138h-88zM386 1049q0 -87 54 -148t155 -61q54 0 100.5 20t80 56t52 82t18.5 98 q0 86 -53.5 147t-154.5 61q-56 0 -101 -20t-80 -55t-53 -81t-18 -99z" />
<glyph unicode="&#xf6eb;" horiz-adv-x="952" d="M241 1042q0 68 26 131t71 110t106.5 74t132.5 27q91 0 150 -43.5t82 -109.5l51 490h89l-101 -947h-88l14 138q-35 -66 -104.5 -109t-155.5 -43q-64 0 -114.5 22t-85 61t-54 89.5t-19.5 109.5zM329 1049q0 -87 55.5 -148t154.5 -61q54 0 100 21t81 56t53 81t18 98 q0 86 -54 147t-153 61q-54 0 -100 -20t-81 -55t-54.5 -81t-19.5 -99z" />
<glyph unicode="&#xf6ec;" horiz-adv-x="861" d="M248 1044q0 68 23.5 131t65 109t103.5 73t135 27q125 0 194 -70.5t69 -178.5q0 -24 -2.5 -40t-7.5 -35h-491q-9 -92 36 -161t153 -69q79 0 127 35t69 81h87q-24 -74 -101 -130t-190 -56q-68 0 -119.5 23t-85 61t-49.5 89.5t-16 110.5zM347 1121h403q10 86 -42 140 t-138 54t-147.5 -52.5t-75.5 -141.5z" />
<glyph unicode="&#xf6ed;" horiz-adv-x="481" d="M277 774l65 598h88l-64 -598h-89zM326 1597q0 35 28.5 61t63.5 26q34 0 54 -22.5t20 -52.5q0 -35 -27 -60t-62 -25t-56 21.5t-21 51.5z" />
<glyph unicode="&#xf6ee;" horiz-adv-x="458" d="M268 774l98 947h89l-99 -947h-88z" />
<glyph unicode="&#xf6ef;" horiz-adv-x="1250" d="M268 774l63 598h87l-17 -143q21 56 74 105.5t144 49.5q69 0 117 -37t52 -121q22 59 79 108.5t151 49.5q88 0 138.5 -56.5t37.5 -180.5l-38 -373h-87l37 352q10 100 -28.5 139t-94.5 39q-87 0 -136.5 -67t-60.5 -161l-31 -302h-87l35 332q7 59 -1 98t-25.5 61.5t-42 30.5 t-52.5 8q-86 0 -136 -67t-60 -163l-32 -300h-86z" />
<glyph unicode="&#xf6f0;" horiz-adv-x="896" d="M241 1042q0 68 26 130t72.5 108.5t110.5 75t140 28.5q69 0 123 -22.5t91.5 -61.5t57.5 -89.5t20 -108.5q0 -69 -27 -130.5t-74 -108.5t-112 -75t-141 -28q-68 0 -122 22t-91.5 61t-55.5 90.5t-18 108.5zM329 1049q0 -87 54 -148t152 -61q57 0 103.5 21t81.5 56t53 81 t18 98q0 86 -54 147t-155 61q-56 0 -102 -20t-80 -55t-52.5 -81t-18.5 -99z" />
<glyph unicode="&#xf6f1;" horiz-adv-x="628" d="M268 774l63 598h89l-17 -153q37 82 101 122t134 40q38 0 60 -9l-10 -84q-20 4 -32 6.5t-30 2.5q-56 0 -99 -22t-72.5 -58.5t-47.5 -83.5t-24 -99l-27 -260h-88z" />
<glyph unicode="&#xf6f2;" horiz-adv-x="771" d="M236 976h86q-8 -82 40 -116t119 -34q79 0 120 31.5t41 80.5q0 54 -47 74t-133 40q-37 8 -70 16t-59 24.5t-41 41t-15 62.5q0 89 69 138.5t177 49.5q106 0 170 -49.5t52 -147.5h-89q8 66 -30.5 98.5t-107.5 32.5q-63 0 -108.5 -28.5t-45.5 -82.5q0 -49 42.5 -66.5 t128.5 -36.5q42 -10 78 -20t62 -27.5t40.5 -43t14.5 -64.5q0 -91 -68.5 -140t-187.5 -49q-54 0 -99.5 10.5t-78.5 36.5t-48.5 68t-11.5 101z" />
<glyph unicode="&#xf6f3;" horiz-adv-x="594" d="M234 1297l7 75h125l25 228h88l-24 -228h179l-8 -75h-178l-33 -309q-5 -50 1 -78t20 -42.5t35 -20t43 -5.5q19 0 43.5 2t42.5 4l-7 -74q-19 -5 -49 -6t-57 -1q-35 0 -66.5 6t-55 27t-36 61.5t-5.5 111.5l35 324h-125z" />
<glyph unicode="&#xf8ff;" horiz-adv-x="1965" d="M180 772q0 189 71 367.5t201 317t311 222t400 83.5q197 0 346 -67.5t251 -179.5t155 -259t53 -307q0 -189 -71 -368.5t-200 -317.5t-309.5 -221.5t-399.5 -83.5q-197 0 -347.5 68t-252.5 179.5t-155 259t-53 307.5zM239 860q-17 -162 26 -316q19 -80 54 -147.5t82 -124.5 q49 -58 106.5 -105t134.5 -81q157 -70 343 -72q187 0 357 72q84 35 150 80t130 106q120 118 194 272q37 75 66.5 165t29.5 227q0 64 -7.5 125.5t-21.5 118.5q-19 70 -54 139t-84 131q-99 117 -241 187q-154 71 -341 71q-103 0 -194.5 -19.5t-164.5 -51.5q-73 -33 -145 -79 t-136 -108q-61 -59 -109 -129.5t-83 -140.5q-42 -87 -62.5 -164.5t-29.5 -155.5zM378 509q2 12 3.5 24.5t7.5 24.5q9 32 26 49q10 10 14.5 12.5t13.5 6.5l26 18q10 5 28.5 12.5t32.5 11.5l3 3q12 5 25 19q12 12 12 40v30l-2 49l42 5q-3 -12 -1.5 -25t1.5 -25v-30 q0 -19 -6 -38.5t-17 -31.5q-5 -12 -36 -28q-10 -5 -12 -5q-12 -5 -27 -11t-28 -13q-10 -2 -24 -12q-5 -2 -7.5 -5t-9.5 -8q-10 -17 -16 -31l-9 -42h-40zM472 560q30 -19 76.5 -49t104 -58t125.5 -47.5t139 -19.5q103 10 201 20q84 9 172.5 18.5t151.5 18.5 q-44 -57 -101.5 -110t-151.5 -97q-73 -34 -147 -54t-130 -20q-115 0 -225 92.5t-215 305.5zM607 636l509 659l-335 -597h438l-5 -62h-607zM610 415q30 -51 71 -88t88 -59t90 -32t77 -10q54 0 120.5 22t125.5 49t102 51.5t53 31.5q-87 -16 -193.5 -36t-214.5 -20 q-37 0 -82 3.5t-88.5 14t-82.5 28.5t-66 45zM624 1219q0 49 35 82t78 33q42 0 69 -27t27 -69q0 -46 -34.5 -80.5t-80.5 -34.5q-42 0 -68 28.5t-26 67.5zM1335.5 701.5q-1.5 18.5 1.5 37.5q5 12 6 24.5t6 22.5l35 -12q0 -5 -2.5 -11t-2.5 -13l-3 -32q0 -17 -1 -34.5t4 -31.5 q2 -5 3.5 -15.5t5.5 -14.5q5 -15 19 -30t23 -20q20 -12 38.5 -19t23.5 -12l34 -15q5 -3 7.5 -5.5t7.5 -6.5q14 -12 13 -13.5t4 -8.5q7 -22 8 -47q0 -32 -11 -59l-38 10q9 22 9 44q0 17 -4 32q-5 12 -8 12q-4 4 -3 3.5t-5 2.5q-7 2 -6 2t-4 2l-31 12q-17 10 -36.5 19.5 t-40.5 27.5q-27 22 -39 49l-5 27q-5 17 -6 20t1 15q-2 19 -3.5 37.5zM1354 1219q0 49 34.5 82t79.5 33q42 0 69 -27t27 -69q0 -46 -35 -80.5t-82 -34.5q-42 0 -67.5 28.5t-25.5 67.5zM1442 443q18 17 33 38q2 3 -1.5 -16.5t-5.5 -19.5q-8 -2 -26 -2z" />
<glyph d="M194 521l71 675q12 113 61.5 214.5t129 177t187 120t234.5 44.5t225.5 -45.5t164 -122t93.5 -176.5t16 -212l-72 -675q-12 -111 -61 -211.5t-130 -177t-188.5 -120.5t-234.5 -44t-225.5 45.5t-162 121.5t-92 175.5t-16.5 210.5zM302 521q-19 -180 84 -298l723 1355 q-101 73 -244 73q-101 0 -186.5 -36.5t-150 -98.5t-105 -145t-50.5 -175zM452 148q50 -38 110 -59t136 -21q104 0 191 37.5t152 98.5t105.5 143.5t49.5 173.5l72 675q10 92 -14.5 169t-76.5 134z" />
<glyph d="M194 521l71 675q12 113 61.5 214.5t129 177t187 120t234.5 44.5t225.5 -45.5t164 -122t93.5 -176.5t16 -212l-72 -675q-12 -111 -61 -211.5t-130 -177t-188 -120.5t-235 -44q-127 0 -225.5 45.5t-162 121.5t-92 175.5t-16.5 210.5zM302 521q-9 -89 13 -171t72.5 -144.5 t129 -100t181.5 -37.5q104 0 191 37.5t152 98.5t105.5 143.5t49.5 173.5l72 675q10 92 -13.5 175t-75 145t-130 98.5t-181.5 36.5q-104 0 -189.5 -36.5t-151 -98.5t-105 -145t-49.5 -175z" />
<glyph d="M438 1342l10 93h127q89 0 151 18.5t104 54t68 88.5t38 125h106l-179 -1721h-111l140 1342h-454z" />
<glyph d="M187 0q24 216 71 354t122 226t180.5 144.5t248.5 110.5q84 33 167.5 67t149.5 85.5t106.5 126.5t40.5 183q0 162 -94.5 254.5t-273.5 92.5q-103 0 -188.5 -32t-148 -89.5t-100.5 -139t-48 -176.5h-108q12 118 62.5 217.5t129 171t186 110.5t232.5 39q220 0 339.5 -116.5 t119.5 -315.5q0 -131 -48 -223.5t-123 -157t-169.5 -108t-189.5 -74.5q-141 -49 -235.5 -106t-157 -131.5t-96 -175.5t-48.5 -236h957l-10 -101h-1074z" />
<glyph d="M176 479h110q-10 -91 14 -164.5t78 -126t134.5 -82.5t181.5 -30q105 0 194.5 32t152.5 88.5t98.5 133t35.5 167.5q0 152 -101 246.5t-293 94.5h-137l12 100h135q103 0 186 29.5t140.5 80t87 120.5t29.5 152q0 152 -102 238t-279 86q-197 0 -316 -102t-136 -269h-108 q9 106 56 191.5t122 148.5t173 97.5t216 34.5q111 0 199 -29.5t151 -83.5t97.5 -131.5t34.5 -170.5q0 -82 -26 -154t-74 -131.5t-117.5 -99.5t-158.5 -56q150 -30 233.5 -132.5t83.5 -257.5q0 -113 -45.5 -209t-126.5 -166t-191.5 -109t-241.5 -39q-122 0 -220.5 35.5 t-165 102t-97.5 158.5t-19 207z" />
<glyph d="M253 626l115 1095h108l-105 -994h558l59 558h108l-59 -558h302l-9 -101h-303l-66 -626h-108l66 626h-666z" />
<glyph d="M199 528h108q-9 -91 13 -173.5t73.5 -143.5t130 -98t182.5 -37q110 0 202.5 40.5t158.5 109.5t103 158.5t37 187.5q0 84 -28.5 158t-81.5 128t-129 84.5t-171 30.5q-133 0 -240 -60t-174 -181h-120l105 989h952l-12 -101h-851l-81 -772q68 111 191 168.5t263 57.5 q113 0 203 -38.5t152.5 -104.5t96 -156t33.5 -193q0 -120 -45.5 -230.5t-127.5 -194.5t-195.5 -132.5t-248.5 -48.5q-127 0 -226 44t-163.5 120t-93 177t-16.5 211z" />
<glyph d="M190 474q0 108 34 199t88 165l642 883h125l-528 -720q49 44 118.5 63.5t144.5 19.5q112 0 203.5 -40.5t156 -108t99.5 -160t35 -195.5q0 -120 -45.5 -229.5t-128 -193.5t-195 -132.5t-245.5 -48.5q-118 0 -213 39t-159 108t-98 159.5t-34 191.5zM298 487q0 -84 27 -159 t78.5 -130t127.5 -88.5t172 -33.5q108 0 198.5 40.5t156 109.5t102 158.5t36.5 187.5q0 84 -27 159t-78.5 130.5t-127.5 88.5t-172 33q-108 0 -198.5 -40.5t-156 -109.5t-102 -159t-36.5 -187z" />
<glyph d="M300 0l953 1620h-843l12 101h1004l-1011 -1721h-115z" />
<glyph d="M174 415q0 84 26 161.5t77.5 141t126.5 108t173 63.5q-152 33 -220.5 133.5t-68.5 227.5q0 104 41.5 194t117.5 157.5t183 105.5t235 38q113 0 203 -30.5t152.5 -86t94 -131.5t31.5 -167q0 -80 -23 -150.5t-69.5 -129t-116.5 -101t-161 -60.5q162 -32 237 -141.5 t75 -248.5q0 -110 -44.5 -205t-123 -166.5t-190.5 -111.5t-247 -40q-120 0 -215 33t-159.5 90.5t-99.5 138.5t-35 177zM283 425q0 -155 108 -252t303 -97q108 0 197 32t153.5 87.5t100 131.5t35.5 165q0 152 -106 249t-305 97q-113 0 -203 -32t-152 -87t-96.5 -131.5 t-34.5 -162.5zM403 1253q0 -145 98 -233.5t283 -88.5q103 0 187 29.5t142.5 81t90.5 122t32 151.5q0 148 -99.5 238.5t-280.5 90.5q-101 0 -185 -29.5t-143 -82t-92 -124t-33 -155.5z" />
<glyph d="M260 1140q0 120 47 230t129 193t195 132.5t246 49.5q118 0 211.5 -41t159 -108t98.5 -158.5t33 -194.5t-33 -191t-93 -170l-641 -882h-125l531 720q-42 -42 -112.5 -63t-150.5 -21q-113 0 -204 41t-156.5 108.5t-100 159.5t-34.5 195zM368 1147q0 -84 27 -158.5 t80 -129.5t129 -88.5t172 -33.5q108 0 198 40.5t155 109.5t102 158.5t37 190.5q0 84 -25.5 158t-77 129t-126.5 88t-171 33q-111 0 -202 -40t-157 -109t-103.5 -159t-37.5 -189z" />
<glyph horiz-adv-x="866" d="M246 1042q0 66 22 127.5t66 109.5t108 77.5t148 29.5q69 0 118 -21t79.5 -54t44.5 -76t14 -88h-89q0 64 -40.5 112.5t-134.5 48.5q-59 0 -105.5 -22t-78.5 -59.5t-47.5 -84t-15.5 -96.5q0 -84 47.5 -145t152.5 -61q84 0 134.5 41t69.5 104h91q-24 -98 -101 -161.5 t-203 -63.5q-74 0 -126.5 23t-87.5 62t-50.5 89.5t-15.5 107.5z" />
<glyph horiz-adv-x="598" d="M239 1297l7 75h134l16 140q7 73 29.5 116.5t53 66.5t63.5 29t63 6q35 0 53 -4.5l38 -9.5l-8 -72q-17 5 -33.5 8.5t-40.5 3.5q-42 0 -81 -23.5t-49 -113.5l-15 -147h190l-7 -75h-190l-54 -523h-89l54 523h-134z" />
<glyph horiz-adv-x="952" d="M209 690h89q-3 -82 39.5 -144t166.5 -62q103 0 169 55.5t82 190.5l19 184q-35 -63 -99.5 -106.5t-158.5 -43.5q-125 0 -200 81t-75 199q0 68 26 130t69.5 109t105.5 74t135 27q96 0 152.5 -44.5t79.5 -105.5l14 138h87l-68 -640q-19 -176 -109.5 -249t-235.5 -73 q-91 0 -149 25t-90 64.5t-42 89t-7 101.5zM329 1049q0 -87 55.5 -148t154.5 -61q54 0 100 21t81 56t53 81t18 98q0 88 -54 148t-153 60q-56 0 -103 -20t-80 -55t-52.5 -81t-19.5 -99z" />
<glyph horiz-adv-x="765" d="M268 774l98 947h89l-66 -633l317 284h112l-334 -300l271 -298h-113l-256 281l-30 -281h-88z" />
<glyph horiz-adv-x="955" d="M232 425l97 947h89l-12 -138q34 63 102.5 106.5t157.5 43.5q61 0 112.5 -22.5t86.5 -60t54 -88t19 -109.5q0 -68 -25.5 -131t-70.5 -110t-108 -75t-134 -28q-86 0 -146 41t-83 113l-52 -489h-87zM386 1052q0 -86 54 -149t155 -63q54 0 100.5 21t80 56t52 81t18.5 98 q0 86 -53 147t-151 61q-56 0 -103 -20t-80.5 -55t-53 -80t-19.5 -97z" />
<glyph horiz-adv-x="955" d="M244 1044q0 68 25.5 130t71 109t107 74t132.5 27q96 0 153.5 -46t77.5 -104l15 138h88l-100 -947h-89l51 489q-34 -68 -104 -111t-156 -43q-125 0 -198.5 83t-73.5 201zM331 1049q0 -87 56 -148t154 -61q54 0 100.5 21t81 56t53 81t18.5 98q0 88 -54.5 148t-152.5 60 q-57 0 -103 -20t-79.5 -55t-53.5 -81t-20 -99z" />
<glyph horiz-adv-x="910" d="M277 1022l37 350h89l-35 -328q-9 -86 26.5 -146t126.5 -60q54 0 96 22t70 55.5t44.5 75t20.5 78.5l32 303h88l-63 -598h-89l14 140q-32 -63 -97 -108.5t-158 -45.5q-111 0 -165 68q-30 40 -36 89t-1 105z" />
<glyph horiz-adv-x="790" d="M228 1372h96l166 -488l270 488h93l-342 -598h-71z" />
<glyph horiz-adv-x="741" d="M190 774l424 516h-354l10 82h502l-425 -519h368l-7 -79h-518z" />
<glyph d="M347 386l351 317l-280 315l74 68l282 -314l349 316l66 -73l-354 -317l286 -315l-77 -69l-282 315l-349 -317z" />
<glyph horiz-adv-x="830" d="M270 -10l119 1114q9 96 50.5 178t108 143.5t153.5 97t191 35.5l-10 -98q-82 0 -149 -28.5t-117.5 -78t-82 -113t-39.5 -136.5l-118 -1114q-8 -70 11 -135.5t59.5 -115t102 -77.5t141.5 -28l-10 -98q-103 0 -184 36.5t-133.5 99.5t-77.5 145t-15 173z" />
<glyph horiz-adv-x="633" d="M98 1726h92q12 -96 94 -145.5t195 -49.5q56 0 109.5 12t97.5 36.5t76 60.5t47 86h93q-14 -66 -55 -119.5t-100 -90t-130 -55.5t-145 -19q-76 0 -142.5 20t-117 55.5t-81 88t-33.5 120.5zM263 0l145 1376h110l-145 -1376h-110z" />
<glyph horiz-adv-x="1548" d="M35 652l9 87h298l66 637h394q157 0 277 -52.5t201.5 -140t123 -200.5t41.5 -233q0 -140 -55.5 -275t-157.5 -239.5t-248 -170t-328 -65.5h-393l68 652h-296zM378 98h286q154 0 278.5 55.5t212.5 146.5t135 206.5t47 235.5q0 103 -35.5 200t-104.5 171t-171 119.5 t-238 45.5h-284l-56 -539h302l-11 -87h-301z" />
<glyph horiz-adv-x="1318" d="M232 418h108q-15 -155 74.5 -253.5t279.5 -98.5q166 0 270.5 81t104.5 226q0 69 -24.5 114.5t-67.5 76.5t-99.5 50.5t-120.5 34.5q-79 19 -151.5 42.5t-130 63t-92 98.5t-34.5 150q0 89 33 162t95 126t150 83.5t196 30.5q111 0 188 -30.5t125 -84.5t68 -129t13 -164h-108 q12 143 -58.5 229.5t-236.5 86.5q-170 0 -263.5 -84t-93.5 -211q0 -66 26 -110.5t70.5 -73t103 -47t124.5 -35.5q76 -19 149 -43t128.5 -64t88.5 -102t33 -154q0 -99 -38 -176t-106 -131t-160 -83t-198 -29q-234 0 -350.5 124t-95.5 324zM553 1787l64 68l239 -240l289 240 l49 -68l-352 -288z" />
<glyph horiz-adv-x="1498" d="M263 0l145 1376h118l621 -1207l129 1207h105l-145 -1376h-115l-624 1205l-129 -1205h-105zM656 1550l526 269l32 -79l-524 -268z" />
<glyph horiz-adv-x="1773" d="M248 619q0 150 56.5 291.5t160 252t247.5 176.5t318 66q157 0 276.5 -54t200.5 -143.5t123 -208t42 -249.5q0 -152 -53 -283.5t-144 -231t-213 -164t-261 -81.5l108 -180l-101 -49l-124 209q-154 0 -272 54.5t-199.5 144t-123 206.5t-41.5 244zM359 626 q0 -108 35.5 -208.5t103 -178t168.5 -123t234 -45.5q148 0 269 58t210 151t137 215t48 253q0 108 -36 208.5t-104 178t-169.5 123.5t-234.5 46q-148 0 -269.5 -57.5t-208.5 -151.5t-135 -217t-48 -252z" />
<glyph horiz-adv-x="1114" d="M258 1278l10 98h870l-10 -98h-383l-32 -302h307l-10 -89h-307l-93 -887h-106l94 887h-293l9 89h293l31 302h-380z" />
<glyph horiz-adv-x="1014" d="M263 0l145 1376h106l-136 -1278h492l-10 -98h-597zM440 -383l5 54q115 0 135 93q2 21 -0.5 32.5t-7.5 16.5q-19 -17 -46 -17q-35 0 -53 22t-18 55q0 37 27 63.5t69 26.5q49 0 76 -39t27 -106q0 -104 -60.5 -152.5t-153.5 -48.5z" />
<glyph horiz-adv-x="1274" d="M251 1376h125l381 -729l453 729h117l-855 -1376h-120l333 535z" />
<glyph horiz-adv-x="1498" d="M263 0l145 1376h118l621 -1207l129 1207h105l-145 -1376h-115l-624 1205l-129 -1205h-105zM634 1762l64 69l236 -241l292 241l50 -69l-354 -287z" />
<glyph horiz-adv-x="1383" d="M280 420l100 956h110l-101 -956q-7 -73 11 -137.5t60 -112.5t102 -75t139 -27t146 28.5t117.5 76.5t82.5 112t39 135l101 956h105l-100 -956q-10 -89 -48 -167.5t-99.5 -138.5t-145 -98t-181.5 -44q-118 -91 -118 -188q0 -52 35.5 -89t109.5 -37q40 0 82.5 9t74.5 21 l-15 -77q-33 -9 -76.5 -19t-95.5 -10q-110 0 -160.5 52t-50.5 122q0 62 34 112t111 108q-96 5 -168.5 42.5t-120.5 97.5t-69 139.5t-11 164.5z" />
<glyph horiz-adv-x="1375" d="M263 0l145 1376h476q96 0 172.5 -31.5t128 -87.5t79.5 -130.5t28 -158.5q0 -81 -25.5 -156t-76 -137.5t-120 -108t-158.5 -67.5l270 -499h-127l-258 481h-377l-52 -481h-105zM430 577h364q87 0 157.5 30.5t122.5 85.5t81 123t29 148q0 66 -22 123.5t-62 100.5t-99.5 67.5 t-132.5 24.5h-364zM541 1764l64 70l237 -242l291 242l51 -70l-354 -289z" />
<glyph horiz-adv-x="894" d="M145 272h94q-10 -93 45.5 -150.5t158.5 -57.5q108 0 172.5 61.5t64.5 151.5q0 76 -49 124.5t-147 48.5h-78l7 78h79q106 0 163.5 55t57.5 139q0 76 -48 119t-137 43q-101 0 -159.5 -52.5t-68.5 -137.5h-94q12 117 98.5 192t225.5 75q123 0 199.5 -60.5t76.5 -170.5 q0 -94 -56 -159t-143 -81q79 -17 123 -74t44 -139q0 -63 -27 -117t-72.5 -93t-108 -60t-136.5 -21q-143 0 -220 78.5t-65 207.5z" />
<glyph horiz-adv-x="1773" d="M248 619q0 150 56.5 291.5t160 252t247.5 176.5t318 66q157 0 276.5 -54t200.5 -143.5t123 -206.5t42 -244q0 -150 -57 -291.5t-160.5 -252t-247.5 -177t-318 -66.5q-157 0 -276 54.5t-200.5 144t-123 206.5t-41.5 244zM359 626q0 -108 35.5 -208.5t103 -178t168.5 -123 t234 -45.5q148 0 269 58t210 151t137 215t48 253q0 108 -36 208.5t-104 178t-169.5 123.5t-234.5 46q-148 0 -269.5 -57.5t-208.5 -151.5t-135 -217t-48 -252zM666 1726h94q12 -94 91.5 -145.5t197.5 -51.5q117 0 209.5 51.5t120.5 145.5h93q-14 -66 -56 -119.5t-99.5 -90 t-129 -55.5t-148.5 -19q-152 0 -256.5 75t-116.5 209z" />
<glyph horiz-adv-x="1014" d="M260 0l146 1376h105l-135 -1278h492l-10 -98h-598zM352 1550l525 269l35 -79l-523 -268z" />
<glyph horiz-adv-x="1245" d="M192 0q17 162 52.5 272.5t96 185.5t146 124t201.5 91q79 28 146.5 59.5t118 73.5t79 98.5t28.5 132.5q0 122 -73 194.5t-211 72.5q-162 0 -260 -95t-115 -243h-108q9 89 47 167.5t101 137.5t150 92t195 33q176 0 277.5 -92t101.5 -255q0 -103 -38.5 -176.5t-99.5 -126 t-136 -88.5t-149 -60q-108 -40 -183 -83t-124 -102t-76.5 -136.5t-36.5 -182.5h754l-9 -94h-875z" />
<glyph horiz-adv-x="1710" d="M248 622q0 150 55.5 291.5t156 250.5t246 175t326.5 66q131 0 236.5 -35.5t181.5 -99t123 -152t61 -194.5h-112q-28 169 -154.5 274.5t-340.5 105.5q-155 0 -279 -56t-211 -150.5t-134 -216t-47 -252.5q0 -115 37 -216t107 -177t173 -120.5t234 -44.5q190 0 335.5 90 t220.5 235h115q-40 -91 -104.5 -168.5t-153.5 -135t-197 -90t-229 -32.5q-155 0 -273.5 51.5t-202 141.5t-127 208.5t-43.5 250.5z" />
<glyph horiz-adv-x="1368" d="M232 337q0 136 82 237.5t239 135.5q-110 28 -172 102.5t-62 190.5q0 89 36 161t99.5 123.5t148.5 80t185 28.5q200 0 302 -107t85 -274h-106q12 131 -63 210t-227 79q-155 0 -253.5 -83t-98.5 -215q0 -111 74 -180t217 -69h81l-11 -93h-82q-89 0 -157 -25t-115.5 -68 t-72 -99.5t-24.5 -122.5q0 -122 83.5 -199t235.5 -77q94 0 162.5 31.5t115 83t72.5 121t33 151.5h-193l10 96h439l-10 -96h-140q-10 -96 -44 -183t-96 -154t-150 -104.5t-206 -37.5q-187 0 -302 94t-115 262z" />
<glyph horiz-adv-x="1250" d="M172 420h105q-9 -82 12 -146.5t64 -110t103 -70.5t131 -25q145 0 246 94t119 258l100 956h106l-101 -956q-12 -103 -51.5 -186.5t-103.5 -142.5t-146.5 -90t-178.5 -31q-101 0 -180.5 33.5t-132.5 92.5t-78.5 141t-13.5 183z" />
<glyph horiz-adv-x="1262" d="M108 0l619 1376h96l333 -1376h-117l-63 275h-632l-123 -275h-113zM386 368h568l-194 861zM443 1568l9 88h708l-10 -88h-707z" />
<glyph horiz-adv-x="882" d="M192 619q0 69 26 130.5t72.5 108.5t111 75t139.5 28q69 0 123 -22t92 -60.5t57.5 -90t19.5 -108.5q0 -61 -19.5 -111.5t-53.5 -96.5l-347 -472h-106l280 373q-19 -19 -50 -27.5t-68 -8.5q-120 0 -198.5 80t-78.5 202zM286 624q0 -86 54 -146t152 -60q54 0 99 21t78.5 55 t51.5 79.5t18 97.5q0 86 -52.5 147.5t-151.5 61.5q-54 0 -100 -21t-79.5 -56.5t-51.5 -81t-18 -97.5z" />
<glyph horiz-adv-x="633" d="M263 0l145 1376h108l-145 -1376h-108zM380 1609q0 49 35 81.5t82 32.5q42 0 69 -25.5t27 -67.5q0 -47 -36 -80t-83 -33q-42 0 -68 26.5t-26 65.5z" />
<glyph horiz-adv-x="1496" d="M263 0l145 1376h106l-69 -644h756l70 644h108l-145 -1376h-108l66 636h-758l-66 -636h-105zM553 1543l388 288l330 -288l-70 -68l-272 241l-322 -241z" />
<glyph horiz-adv-x="894" d="M226 1046h93q-9 -93 46 -150.5t158 -57.5q108 0 173.5 61.5t65.5 152.5q0 76 -49 124t-148 48h-78l7 78h78q106 0 164 56t58 138q0 76 -48 119t-136 43q-101 0 -160 -52.5t-70 -137.5h-92q12 117 99 192t227 75q120 0 196.5 -60t76.5 -171q0 -94 -56.5 -159t-142.5 -81 q79 -17 123.5 -74t44.5 -138q0 -63 -27 -117.5t-73 -93.5t-109 -60t-136 -21q-143 0 -220 78.5t-65 207.5z" />
<glyph horiz-adv-x="1375" d="M263 0l145 1376h476q96 0 172.5 -31.5t128 -87.5t79.5 -130.5t28 -158.5q0 -81 -25.5 -156t-76 -137.5t-120 -108t-158.5 -67.5l270 -499h-127l-258 481h-377l-52 -481h-105zM430 577h364q87 0 157.5 30.5t122.5 85.5t81 123t29 148q0 66 -22 123.5t-62 100.5t-99.5 67.5 t-132.5 24.5h-364zM580 1550l526 269l34 -79l-523 -268z" />
<glyph horiz-adv-x="633" d="M120 1543l389 288l329 -288l-66 -68l-275 241l-323 -241zM263 0l145 1376h108l-145 -1376h-108z" />
<glyph horiz-adv-x="1262" d="M108 0l619 1376h96l333 -1376h-117l-63 275h-632l-123 -275h-113zM386 368h568l-194 861z" />
<glyph horiz-adv-x="1252" d="M263 0l145 1376h737l-10 -96h-631l-59 -550h631l-9 -92h-633l-56 -542h632l-9 -96h-738z" />
<glyph horiz-adv-x="1262" d="M108 0l619 1376h96l333 -1376h-117l-63 275h-632l-123 -275h-113zM386 368h568l-194 861zM410 1726h94q12 -94 89.5 -144.5t194.5 -50.5q118 0 213 50.5t120 144.5h96q-15 -66 -57 -119.5t-100.5 -90t-130 -55.5t-145.5 -19q-76 0 -142.5 20t-117 55.5t-81 88 t-33.5 120.5z" />
<glyph horiz-adv-x="1383" d="M280 420l100 956h110l-101 -956q-7 -73 11 -137.5t60 -112.5t102 -75t139 -27t146 28.5t117.5 76.5t82.5 112t39 135l101 956h105l-100 -956q-10 -91 -50 -173.5t-105.5 -143.5t-154 -97t-192.5 -36q-106 0 -185.5 36t-133.5 97t-77.5 143.5t-13.5 173.5zM528 1604 q0 47 33.5 80.5t82.5 33.5q42 0 68.5 -27.5t26.5 -65.5q0 -47 -34 -82t-83 -35q-42 0 -68 27t-26 69zM983 1604q0 47 34.5 80.5t80.5 33.5q42 0 69 -27.5t27 -65.5q0 -49 -35.5 -83t-79.5 -34q-42 0 -69 27t-27 69z" />
<glyph horiz-adv-x="882" d="M232 1042q0 110 68 206l347 473h108l-279 -377q24 19 59 27t70 8q125 -5 196 -85t71 -192q0 -69 -27 -130.5t-73.5 -108.5t-112 -75t-141.5 -28q-68 0 -121 22t-90 61t-56 89.5t-19 109.5zM324 1049q0 -87 51.5 -148t152.5 -61q54 0 101 21t80 56t51.5 81t18.5 95 q0 87 -54 148t-153 61q-54 0 -99.5 -20.5t-78.5 -55t-51.5 -79.5t-18.5 -98z" />
<glyph horiz-adv-x="1710" d="M248 622q0 150 55.5 291.5t156 250.5t246 175t326.5 66q131 0 236.5 -35.5t181.5 -99t123 -152t61 -194.5h-112q-28 169 -154.5 274.5t-340.5 105.5q-155 0 -279 -56t-211 -150.5t-134 -216t-47 -252.5q0 -115 37 -216t107 -177t173 -120.5t234 -44.5q190 0 335.5 90 t220.5 235h115q-40 -91 -104.5 -168.5t-153.5 -135t-197 -90t-229 -32.5q-155 0 -273.5 51.5t-202 141.5t-127 208.5t-43.5 250.5zM776 1550l524 269l37 -79l-526 -268z" />
<glyph horiz-adv-x="633" d="M127 1568l11 88h708l-11 -88h-708zM263 0l145 1376h108l-145 -1376h-108z" />
<glyph horiz-adv-x="926" d="M211 226l7 76h554l-8 -76h-553zM236 464l8 77h553l-9 -77h-552z" />
<glyph horiz-adv-x="1245" d="M263 0l145 1376h737l-10 -96h-631l-61 -582h631l-10 -96h-632l-64 -602h-105z" />
<glyph horiz-adv-x="586" d="M275 1489l8 71q61 0 101.5 9t64 29t33.5 50.5t15 72.5h85l-101 -947h-95l76 715h-187z" />
<glyph horiz-adv-x="603" d="M194 2l78 746q8 66 36.5 123.5t76 100.5t110.5 69t136 26l-9 -82q-106 0 -175 -69.5t-81 -167.5l-78 -746q-10 -96 45.5 -166t160.5 -70l-7 -83q-73 0 -131 26t-96.5 70.5t-55.5 102t-10 120.5z" />
<glyph horiz-adv-x="1548" d="M263 0l145 1376h394q157 0 277 -52.5t201.5 -140t123 -200.5t41.5 -233q0 -140 -55.5 -275t-157.5 -239.5t-248 -170t-328 -65.5h-393zM378 98h286q154 0 278.5 55.5t212.5 146.5t135 206.5t47 235.5q0 103 -35.5 200t-104.5 171t-172 119.5t-237 45.5h-284z" />
<glyph horiz-adv-x="1815" d="M248 612q0 152 56.5 296t158.5 254.5t246 176.5t318 66q111 0 204.5 -28t162.5 -77.5t111.5 -116.5t54.5 -144h-113q-27 113 -141 191t-291 78q-147 0 -269 -58t-209 -153.5t-134 -218.5t-47 -256q0 -111 33 -210.5t102 -175.5t172.5 -122t241.5 -46q117 0 212 34t166 95 t117.5 145.5t69.5 185.5h-436l10 91h686l-9 -91h-141q-27 -125 -84.5 -228t-146 -175.5t-204 -113.5t-256.5 -41q-162 0 -282 53t-200.5 143t-119.5 205.5t-39 240.5zM949 1612q0 46 33 78.5t82 32.5q42 0 68 -25.5t26 -67.5q0 -47 -33.5 -80t-82.5 -33q-42 0 -67.5 26.5 t-25.5 68.5z" />
<glyph horiz-adv-x="1267" d="M202 389h108q-15 -143 71 -229.5t243 -86.5q82 0 150 24.5t116 69t75 103.5t27 131q0 117 -77 191t-225 74h-115l9 94h114q165 0 255.5 83t90.5 209q0 118 -78.5 185t-213.5 67q-157 0 -248 -83t-103 -206h-108q9 84 46 153.5t97.5 120t141.5 79t179 28.5 q177 0 285 -89.5t108 -244.5q0 -133 -80 -229t-219 -123q117 -21 184 -102.5t67 -206.5q0 -94 -37.5 -171.5t-102 -132.5t-154.5 -85.5t-196 -30.5q-103 0 -183 29.5t-134 83.5t-78.5 129t-14.5 166z" />
<glyph horiz-adv-x="1328" d="M216 0l182 1721h910l-13 -101h-801l-74 -715h802l-12 -101h-802l-73 -703h800l-9 -101h-910zM685 1819l246 319h89l-246 -319h-89zM946 1819l246 319h88l-246 -319h-88z" />
<glyph horiz-adv-x="1815" d="M248 612q0 152 56.5 296t158.5 254.5t246 176.5t318 66q111 0 204.5 -28t162.5 -77.5t111.5 -116.5t54.5 -144h-113q-27 113 -141 191t-291 78q-147 0 -269 -58t-209 -153.5t-134 -218.5t-47 -256q0 -111 33 -210.5t102 -175.5t172.5 -122t241.5 -46q117 0 212 34t166 95 t117.5 145.5t69.5 185.5h-436l10 91h686l-9 -91h-141q-27 -125 -84.5 -228t-146 -175.5t-204 -113.5t-256.5 -41q-162 0 -282 53t-200.5 143t-119.5 205.5t-39 240.5zM690 1546l386 288l329 -288l-66 -69l-275 241l-319 -241z" />
<glyph horiz-adv-x="1252" d="M263 0l145 1376h737l-10 -96h-631l-59 -550h631l-9 -92h-633l-56 -542h632l-9 -96h-738zM563 1728l49 78l469 -265l-51 -81z" />
<glyph horiz-adv-x="1252" d="M263 0l145 1376h737l-10 -96h-631l-59 -550h631l-9 -92h-633l-56 -542h632l-9 -96h-738zM694 1612q0 46 31.5 78.5t80.5 32.5q42 0 69 -25.5t27 -67.5q0 -47 -36 -80t-82 -33q-42 0 -66 26.5t-24 68.5z" />
<glyph horiz-adv-x="1375" d="M263 0l145 1376h476q96 0 172.5 -31.5t128 -87.5t79.5 -130.5t28 -158.5q0 -81 -25.5 -156t-76 -137.5t-120 -108t-158.5 -67.5l270 -499h-127l-258 481h-377l-52 -481h-105zM430 577h364q87 0 157.5 30.5t122.5 85.5t81 123t29 148q0 66 -22 123.5t-62 100.5t-99.5 67.5 t-132.5 24.5h-364z" />
<glyph horiz-adv-x="1365" d="M263 0l145 1376h476q96 0 172.5 -31.5t128 -87.5t79.5 -129t28 -157q0 -99 -36.5 -187t-103 -156t-158.5 -107.5t-203 -39.5h-371l-52 -481h-105zM430 577h364q87 0 157.5 30.5t122.5 85.5t81 123t29 148q0 66 -22 123.5t-62 100.5t-99.5 67.5t-132.5 24.5h-364z" />
<glyph horiz-adv-x="1252" d="M263 0l145 1376h737l-10 -96h-631l-59 -550h631l-9 -92h-633l-56 -542h632l-9 -96h-738zM492 1762l61 69l238 -241l293 241l49 -69l-354 -287z" />
<glyph horiz-adv-x="1383" d="M280 420l100 956h110l-101 -956q-7 -73 11 -137.5t60 -112.5t102 -75t139 -27t146 28.5t117.5 76.5t82.5 112t39 135l101 956h105l-100 -956q-10 -91 -50 -173.5t-105.5 -143.5t-154 -97t-192.5 -36q-106 0 -185.5 36t-133.5 97t-77.5 143.5t-13.5 173.5zM624 1658 q0 54 22 102t59 85.5t86 58.5t103 21q96 0 159 -65.5t63 -159.5q0 -54 -22 -102t-59.5 -84.5t-86 -58.5t-102.5 -22q-98 0 -160 66.5t-62 158.5zM701 1663q0 -63 42.5 -107t109.5 -44q37 0 70 14.5t59 39t41.5 57.5t15.5 70q0 64 -44.5 109.5t-107.5 45.5q-73 0 -129.5 -54 t-56.5 -131z" />
<glyph horiz-adv-x="1794" d="M263 0l145 1376h113l391 -1231l652 1231h112l-145 -1376h-105l122 1158l-607 -1158h-85l-364 1158l-124 -1158h-105z" />
<glyph horiz-adv-x="2026" d="M248 1376h113l268 -1212l485 1212h91l228 -1212l523 1212h113l-609 -1376h-91l-227 1205l-483 -1205h-91zM818 1543l387 288l329 -288l-69 -68l-271 241l-324 -241z" />
<glyph horiz-adv-x="1548" d="M263 0l145 1376h394q157 0 277 -52.5t201.5 -140t123 -200.5t41.5 -233q0 -140 -55.5 -275t-157.5 -239.5t-248 -170t-328 -65.5h-393zM378 98h286q154 0 278.5 55.5t212.5 146.5t135 206.5t47 235.5q0 103 -35.5 200t-104.5 171t-172 119.5t-237 45.5h-284zM626 1762 l64 69l241 -241l291 241l46 -69l-349 -287z" />
<glyph horiz-adv-x="874" d="M138 0q12 118 39 194t69 126.5t98.5 82t127.5 61.5q49 20 94.5 41t79.5 48t55 65t21 95q0 79 -46.5 125t-131.5 46q-104 0 -168 -61t-76 -159h-94q15 127 106 212t239 85q122 0 193.5 -63t71.5 -180q0 -74 -28 -124t-70 -86t-95 -61t-100 -44q-73 -30 -122 -58t-80 -63.5 t-47 -83.5t-26 -119h504l-7 -79h-607z" />
<glyph horiz-adv-x="1297" d="M263 0l145 1376h106l-69 -661l756 661h141l-786 -688l640 -688h-139l-619 661l-70 -661h-105zM551 -380l5 51q63 0 98.5 29.5t35.5 78.5q0 15 -2.5 22t-4.5 12q-19 -15 -47 -15q-32 0 -51.5 21t-19.5 54q0 37 27 64.5t72 27.5q49 0 73.5 -37.5t24.5 -103.5 q0 -104 -57.5 -154t-153.5 -50z" />
<glyph horiz-adv-x="1496" d="M263 0l145 1376h106l-69 -644h756l70 644h108l-145 -1376h-108l66 636h-758l-66 -636h-105z" />
<glyph horiz-adv-x="868" d="M226 481l10 94q24 0 56 10t63 31.5t53 56.5t26 82l56 521q7 70 36.5 123t72.5 88t93 51.5t102 16.5h120l-9 -85h-96q-79 0 -143 -55t-76 -156l-55 -520q-5 -49 -24 -85.5t-48 -61t-59.5 -41t-56.5 -23.5q24 -7 52 -24t50.5 -43.5t33.5 -65.5t7 -90l-47 -465 q-12 -100 42 -155.5t132 -55.5h96l-10 -86h-121q-52 0 -98 17.5t-82 51.5t-54.5 87t-10.5 125l49 466q5 50 -10 86.5t-40.5 60t-55 34t-54.5 10.5z" />
<glyph horiz-adv-x="1815" d="M248 612q0 152 56.5 296t158.5 254.5t246 176.5t318 66q111 0 204.5 -28t162.5 -77.5t111.5 -116.5t54.5 -144h-113q-27 113 -141 191t-291 78q-147 0 -269 -58t-209 -153.5t-134 -218.5t-47 -256q0 -111 33 -210.5t102 -175.5t172.5 -122t241.5 -46q117 0 212 34t166 95 t117.5 145.5t69.5 185.5h-436l10 91h686l-9 -91h-141q-27 -125 -84.5 -228t-146 -175.5t-204 -113.5t-256.5 -41q-162 0 -282 53t-200.5 143t-119.5 205.5t-39 240.5z" />
<glyph horiz-adv-x="1773" d="M248 619q0 150 56.5 291.5t160 252t247.5 176.5t318 66q157 0 276.5 -54t200.5 -143.5t123 -206.5t42 -244q0 -150 -57 -291.5t-160.5 -252t-247.5 -177t-318 -66.5q-157 0 -276 54.5t-200.5 144t-123 206.5t-41.5 244zM359 626q0 -108 35.5 -208.5t103 -178t168.5 -123 t234 -45.5q148 0 269 58t210 151t137 215t48 253q0 108 -36 208.5t-104 178t-169.5 123.5t-234.5 46q-148 0 -269.5 -57.5t-208.5 -151.5t-135 -217t-48 -252zM694 1543l387 288l328 -288l-65 -68l-272 241l-324 -241z" />
<glyph horiz-adv-x="1262" d="M108 0l619 1376h96l333 -1376h-117l-63 275h-632l-123 -275h-113zM386 368h568l-194 861zM467 1604q0 47 34 80.5t81 33.5q42 0 68 -27.5t26 -68.5q0 -46 -33 -80t-80 -34q-42 0 -69 27t-27 69zM924 1604q0 47 34 80.5t81 33.5q42 0 68 -27.5t26 -65.5q0 -49 -34.5 -83 t-80.5 -34q-42 0 -68 27t-26 69z" />
<glyph horiz-adv-x="1262" d="M125 0l986 1280h-806l9 96h988l-988 -1280h878l-10 -96h-1057zM553 1752l64 70l239 -242l289 242l49 -70l-352 -287z" />
<glyph horiz-adv-x="940" d="M185 293q7 91 17 167q7 63 11.5 125t9.5 83q7 59 36 112t74 93.5t105.5 65.5t131.5 25q73 0 130 -25t93.5 -68t54 -99.5t10.5 -117.5q-12 -103 -23 -185q-7 -71 -13 -130t-6 -62q-7 -61 -36.5 -115t-76.5 -93t-108.5 -62.5t-130.5 -23.5q-70 0 -125.5 24.5t-92.5 67.5 t-52.5 98.5t-8.5 119.5zM277 293q-9 -94 43.5 -161.5t155.5 -67.5q52 0 96.5 18.5t77.5 49t52.5 72.5t24.5 89l37 361q10 94 -44 161t-157 67t-171 -67t-78 -161z" />
<glyph horiz-adv-x="1262" d="M108 0l619 1376h96l333 -1376h-47q-71 -49 -114 -103t-43 -113q0 -52 35 -89t111 -37q40 0 82 9t73 21l-12 -77q-33 -9 -76.5 -19t-95.5 -10q-110 0 -160.5 52t-50.5 125q0 66 42.5 123t138.5 118l-63 275h-632l-123 -275h-113zM386 368h568l-194 861z" />
<glyph horiz-adv-x="1274" d="M251 1376h125l381 -729l453 729h117l-855 -1376h-120l333 535zM506 1604q0 47 33 80.5t78 33.5q42 0 66.5 -27.5t24.5 -68.5q0 -46 -33 -77t-77 -31q-42 0 -67 24t-25 66zM961 1604q0 47 33 80.5t80 33.5q40 0 65.5 -27.5t25.5 -65.5q0 -49 -34.5 -80t-78.5 -31 q-42 0 -66.5 24t-24.5 66z" />
<glyph horiz-adv-x="778" d="M84 -457l10 93h282l192 1827h-282l9 95h383l-211 -2015h-383z" />
<glyph horiz-adv-x="1375" d="M263 0l145 1376h476q96 0 172.5 -31.5t128 -87.5t79.5 -130.5t28 -158.5q0 -81 -25.5 -156t-76 -137.5t-120 -108t-158.5 -67.5l270 -499h-127l-258 481h-377l-52 -481h-105zM430 577h364q87 0 157.5 30.5t122.5 85.5t81 123t29 148q0 66 -22 123.5t-62 100.5t-99.5 67.5 t-132.5 24.5h-364zM570 -383l5 54q115 0 135 93q3 21 0.5 32.5t-7.5 16.5q-19 -17 -47 -17q-32 0 -52 20.5t-20 52.5q0 37 27 65.5t69 28.5q50 0 77 -39t27 -106q0 -104 -58 -152.5t-156 -48.5z" />
<glyph horiz-adv-x="1710" d="M248 622q0 150 55.5 291.5t156 250.5t246 175t326.5 66q131 0 236.5 -35.5t181.5 -99t123 -152t61 -194.5h-112q-28 169 -154.5 274.5t-340.5 105.5q-155 0 -279 -56t-211 -150.5t-134 -216t-47 -252.5q0 -115 37 -216t107 -177t173 -120.5t234 -44.5q190 0 335.5 90 t220.5 235h115q-40 -91 -104.5 -168.5t-153.5 -135t-197 -90t-229 -32.5q-155 0 -273.5 51.5t-202 141.5t-127 208.5t-43.5 250.5zM737 1764l65 70l235 -242l293 242l49 -70l-354 -287z" />
<glyph horiz-adv-x="633" d="M160 1604q0 47 34 80.5t78 33.5q42 0 68 -27.5t26 -68.5q0 -46 -33 -80t-80 -34q-42 0 -67.5 27t-25.5 69zM260 0l146 1376h110l-145 -1376h-111zM617 1604q0 47 31.5 80.5t81.5 33.5q42 0 67.5 -25.5t25.5 -67.5q0 -49 -33 -83t-80 -34q-42 0 -67.5 27t-25.5 69z" />
<glyph horiz-adv-x="1252" d="M263 0l145 1376h737l-10 -96h-631l-59 -550h631l-9 -92h-633l-56 -542h632l-9 -96h-738zM548 1550l526 269l35 -79l-527 -268z" />
<glyph horiz-adv-x="921" d="M251 1006q0 93 56.5 166.5t159.5 93.5q-73 17 -113 68.5t-40 125.5q0 116 89 195.5t235 79.5q134 0 205 -66.5t71 -167.5q0 -84 -50 -150t-144 -85q82 -17 123 -77.5t41 -136.5q0 -61 -24.5 -114.5t-71 -92.5t-110.5 -62t-139 -23q-138 0 -213 69t-75 177zM342 1015 q0 -79 53 -129.5t153 -50.5q111 0 178.5 62t67.5 152q0 75 -53 125t-154 50q-113 0 -179 -60t-66 -149zM406 1460q0 -70 49 -116.5t143 -46.5q103 0 164 57t61 138q0 70 -49 118t-140 48q-104 0 -166 -56t-62 -142z" />
<glyph horiz-adv-x="1489" d="M239 521l125 1200h108l-125 -1200q-10 -94 13 -176t75 -143.5t132 -98.5t183 -37t190 37t153.5 98.5t107 143.5t49.5 176l126 1200h108l-124 -1200q-12 -113 -63 -214t-132 -177t-189 -120.5t-237 -44.5q-131 0 -228.5 45.5t-162.5 122t-93.5 177t-15.5 211.5zM720 1819 l248 319h89l-248 -319h-89zM980 1819l249 319h89l-249 -319h-89z" />
<glyph horiz-adv-x="1114" d="M258 1278l10 98h870l-10 -98h-383l-135 -1278h-106l134 1278h-380zM443 -383l5 54q66 0 100 28.5t34 77.5q0 27 -10 36q-7 -10 -19 -13.5t-25 -3.5q-32 0 -52.5 20.5t-20.5 52.5q0 37 28 65.5t73 28.5q49 0 74.5 -38t25.5 -105q0 -103 -58.5 -153t-154.5 -50z" />
<glyph horiz-adv-x="924" d="M232 347l7 75h228l25 232h80l-24 -232h226l-7 -75h-226l-25 -232h-82l26 232h-228z" />
<glyph horiz-adv-x="1262" d="M125 0l986 1280h-806l9 96h988l-988 -1280h878l-10 -96h-1057z" />
<glyph horiz-adv-x="896" d="M202 326l63 620h94l-54 -536h277l30 298h94l-30 -298h154l-9 -84h-155l-35 -326h-92l33 326h-370z" />
<glyph horiz-adv-x="1353" d="M280 425h109q-7 -69 9.5 -133t56 -111.5t101 -76t142.5 -28.5q84 0 155 32t122.5 85t80 123t28.5 146q0 64 -21 120t-61.5 98t-100 67t-134.5 25q-103 0 -185.5 -47t-133.5 -141h-113l83 792h778l-9 -93h-678l-61 -595q54 86 150 131.5t206 45.5q91 0 163 -30.5 t122.5 -84.5t76.5 -125.5t26 -152.5q0 -99 -37 -188.5t-103.5 -157t-159.5 -106.5t-204 -39q-106 0 -186 35.5t-132.5 95.5t-76 141.5t-13.5 171.5z" />
<glyph horiz-adv-x="1383" d="M280 420l100 956h110l-101 -956q-7 -73 11 -137.5t60 -112.5t102 -75t139 -27t146 28.5t117.5 76.5t82.5 112t39 135l101 956h105l-100 -956q-10 -91 -50 -173.5t-105.5 -143.5t-154 -97t-192.5 -36q-106 0 -185.5 36t-133.5 97t-77.5 143.5t-13.5 173.5zM472 1726h93 q12 -94 90.5 -144.5t197.5 -50.5q115 0 210 50.5t121 144.5h92q-15 -66 -55.5 -118.5t-99.5 -89t-130.5 -55t-144.5 -18.5q-152 0 -258.5 73.5t-115.5 207.5z" />
<glyph horiz-adv-x="1710" d="M248 622q0 150 55.5 291.5t156 250.5t246 175t326.5 66q131 0 236.5 -35.5t181.5 -99t123 -152t61 -194.5h-112q-28 169 -154.5 274.5t-340.5 105.5q-155 0 -279 -56t-211 -150.5t-134 -216t-47 -252.5q0 -115 37 -216t107 -177t173 -120.5t234 -44.5q190 0 335.5 90 t220.5 235h115q-40 -91 -104.5 -168.5t-153.5 -135t-197 -90t-229 -32.5q-155 0 -273.5 51.5t-202 141.5t-127 208.5t-43.5 250.5zM680 1548l389 288l327 -288l-64 -68l-275 238l-323 -238z" />
<glyph horiz-adv-x="1014" d="M180 1762l61 69l238 -241l293 241l49 -69l-354 -287zM263 0l143 1376h105l-133 -1278h492l-10 -98h-597z" />
<glyph horiz-adv-x="1252" d="M263 0l145 1376h737l-10 -96h-631l-59 -550h631l-9 -92h-633l-56 -542h632l-9 -96h-738zM438 1568l10 88h705l-11 -88h-704z" />
<glyph horiz-adv-x="1698" d="M263 0l145 1376h108l-145 -1376h-108zM622 420h105q-7 -79 13 -144t61 -111.5t102 -71.5t134 -25q143 0 243.5 94t117.5 258l101 956h108l-101 -956q-12 -103 -52 -186.5t-103 -142.5t-145.5 -90t-178.5 -31q-98 0 -178 33.5t-134 92.5t-79.5 141t-13.5 183z" />
<glyph horiz-adv-x="1710" d="M248 622q0 150 55.5 291.5t156 250.5t246 175t326.5 66q131 0 236.5 -35.5t181.5 -99t123 -152t61 -194.5h-112q-28 169 -154.5 274.5t-340.5 105.5q-155 0 -279 -56t-211 -150.5t-134 -216t-47 -252.5q0 -115 37 -216t107 -177t173 -120.5t234 -44.5q190 0 335.5 90 t220.5 235h115q-40 -91 -104.5 -168.5t-153.5 -135t-197 -90t-229 -32.5q-155 0 -273.5 51.5t-202 141.5t-127 208.5t-43.5 250.5zM941 1609q0 47 33.5 80.5t80.5 33.5q42 0 68.5 -27t26.5 -69q0 -47 -33 -80t-83 -33q-42 0 -67.5 26.5t-25.5 68.5z" />
<glyph horiz-adv-x="1250" d="M172 420h105q-9 -82 12 -146.5t64 -110t103 -70.5t131 -25q145 0 246 94t119 258l100 956h106l-101 -956q-12 -103 -51.5 -186.5t-103.5 -142.5t-146.5 -90t-178.5 -31q-101 0 -180.5 33.5t-132.5 92.5t-78.5 141t-13.5 183zM764 1543l389 288l329 -288l-66 -68l-276 241 l-322 -241z" />
<glyph horiz-adv-x="771" d="M241 774l501 865h-447l7 82h582l-542 -947h-101z" />
<glyph horiz-adv-x="1383" d="M280 420l100 956h110l-101 -956q-7 -73 11 -137.5t60 -112.5t102 -75t139 -27t146 28.5t117.5 76.5t82.5 112t39 135l101 956h105l-100 -956q-10 -91 -50 -173.5t-105.5 -143.5t-154 -97t-192.5 -36q-106 0 -185.5 36t-133.5 97t-77.5 143.5t-13.5 173.5zM553 1489 l280 330l81 -44l-304 -315zM936 1489l281 330l80 -44l-305 -318z" />
<glyph horiz-adv-x="633" d="M145 1607q47 30 81 45t59 22t42 8.5t29 1.5q22 0 60.5 -8.5t78.5 -19t81 -18.5t68 -8q20 0 49 9.5t104 44.5l31 -72q-79 -45 -121.5 -55.5t-70.5 -10.5q-73 0 -142 25.5t-140 25.5q-22 0 -61.5 -8.5t-110.5 -50.5zM260 0l146 1376h110l-145 -1376h-111z" />
<glyph horiz-adv-x="633" d="M263 0l145 1376h108l-145 -1376h-108z" />
<glyph horiz-adv-x="1311" d="M241 331q0 138 84.5 245t237.5 134q-115 28 -173.5 105t-58.5 186q0 81 33.5 153t95 126t148 85t191.5 31q192 0 293.5 -94.5t101.5 -239.5q0 -125 -75 -224t-219 -128q122 -21 186 -106.5t64 -202.5q0 -89 -35.5 -165t-100.5 -132.5t-156 -89.5t-202 -33 q-199 0 -307 97.5t-108 252.5zM347 342q0 -120 83.5 -195.5t233.5 -75.5q84 0 153.5 24.5t120 69t77.5 103t27 128.5q0 118 -81 191.5t-236 73.5q-89 0 -158.5 -24.5t-119 -67.5t-75 -102t-25.5 -125zM443 1001q0 -111 75.5 -180t218.5 -69q159 0 255 85t96 212 q0 113 -77 184t-217 71q-159 0 -255 -87t-96 -216z" />
<glyph horiz-adv-x="948" d="M277 1072h94q-10 -92 41.5 -162t159.5 -70q57 0 103.5 21t79.5 56t52 80t19 96q0 87 -54 147t-155 60q-141 0 -209 -125h-94l57 546h548l-7 -79h-462l-42 -381q35 57 99.5 86t141.5 29q131 0 199.5 -81t68.5 -191q0 -68 -26 -130t-71.5 -110t-110.5 -76t-144 -28 q-75 0 -132 25.5t-94 69t-53 99.5t-9 118z" />
<glyph horiz-adv-x="1297" d="M263 0l145 1376h106l-69 -661l756 661h141l-786 -688l640 -688h-139l-619 661l-70 -661h-105z" />
<glyph horiz-adv-x="1710" d="M248 622q0 150 55.5 291.5t156 250.5t246 175t326.5 66q131 0 236.5 -35.5t181.5 -99t123 -152t61 -194.5h-112q-28 169 -154.5 274.5t-340.5 105.5q-155 0 -279 -56t-211 -150.5t-134 -216t-47 -252.5q0 -115 37 -216t107 -177t173 -120.5t234 -44.5q190 0 335.5 90 t220.5 235h115q-40 -86 -101 -160t-145 -129t-189.5 -89.5t-230.5 -41.5l-44 -4l-10 -108q37 57 115 57q69 0 111 -44t42 -111q0 -79 -55.5 -138.5t-146.5 -59.5q-66 0 -116.5 40t-50.5 120h69q0 -42 25.5 -70.5t74.5 -28.5q57 0 94 39t37 91q0 42 -27 72.5t-81 30.5 q-27 0 -55.5 -12t-51.5 -54h-61l18 182q-133 15 -236 72.5t-173.5 143.5t-106 195.5t-35.5 232.5z" />
<glyph horiz-adv-x="1383" d="M280 420l100 956h110l-101 -956q-7 -73 11 -137.5t60 -112.5t102 -75t139 -27t146 28.5t117.5 76.5t82.5 112t39 135l101 956h105l-100 -956q-10 -91 -50 -173.5t-105.5 -143.5t-154 -97t-192.5 -36q-106 0 -185.5 36t-133.5 97t-77.5 143.5t-13.5 173.5zM504 1573l7 88 h708l-7 -88h-708z" />
<glyph horiz-adv-x="1083" d="M221 0l752 1280h-666l10 96h823l-803 -1376h-116z" />
<glyph horiz-adv-x="1987" d="M197 774q0 187 71.5 364t199 314.5t307 219.5t397.5 82q195 0 343 -66t250 -178t153.5 -258t51.5 -306q0 -190 -69.5 -365t-198.5 -312.5t-309 -220.5t-396 -83q-194 0 -343.5 66.5t-250.5 178.5t-153.5 258t-52.5 306zM310 781q0 -140 45.5 -269t133.5 -228t219 -158.5 t300 -59.5q190 0 347 74t268.5 195.5t174 279t62.5 323.5q0 141 -45 270t-134 228.5t-220 158.5t-301 59q-189 0 -346.5 -74t-269.5 -195t-173 -278.5t-61 -325.5zM954 1819l247 319h89l-248 -319h-88zM1214 1819l249 319h87l-248 -319h-88z" />
<glyph horiz-adv-x="1250" d="M263 0l145 1376h737l-10 -96h-631l-59 -550h631l-9 -92h-633l-56 -542h632l-9 -96h-738zM406 1726h93q12 -94 90.5 -145.5t194.5 -51.5q117 0 212 51.5t122 145.5h94q-14 -66 -56 -119.5t-101.5 -90t-130.5 -55.5t-145 -19q-153 0 -258.5 75t-114.5 209z" />
<glyph horiz-adv-x="882" d="M150 268q0 110 68 206l347 472h108l-277 -376q24 19 59 27t68 8q125 -5 196.5 -85t71.5 -194q0 -68 -27 -129t-73.5 -108t-111.5 -75t-141 -28q-68 0 -121.5 22t-90 61t-56.5 89.5t-20 109.5zM244 275q0 -87 51.5 -148t152.5 -61q54 0 100.5 21t79.5 55t51.5 81t18.5 96 q0 87 -54 148t-152 61q-54 0 -99.5 -20.5t-79 -55t-51.5 -80.5t-18 -97z" />
<glyph horiz-adv-x="1318" d="M232 418h108q-17 -155 72.5 -253.5t277.5 -98.5q167 0 272 81t105 229q0 75 -29.5 123.5t-76.5 78t-105.5 47t-121.5 31.5q-73 20 -143 43t-124 63t-87 97.5t-33 146.5q0 86 33 159t94 126t150 83.5t197 30.5q216 0 312 -112.5t81 -295.5h-108q12 143 -58 229.5 t-237 86.5q-169 0 -262.5 -83t-93.5 -208q0 -73 30.5 -118.5t79.5 -75t107 -47t114 -31.5q79 -22 150.5 -47t124.5 -65t84.5 -101t31.5 -151q0 -100 -36.5 -176.5t-104.5 -128t-160 -78.5t-203 -31l-12 -132q19 30 53 46t70 16q63 0 107.5 -46t44.5 -114q0 -79 -56.5 -140.5 t-147.5 -61.5q-73 0 -124.5 47t-47.5 133h69q-5 -42 22 -80t83 -38q57 0 95.5 39.5t38.5 95.5q0 45 -28.5 75.5t-84.5 30.5q-24 0 -53 -12.5t-55 -62.5h-63l21 204q-195 20 -294.5 141t-78.5 305z" />
<glyph horiz-adv-x="633" d="M228 1728l49 78l471 -265l-50 -81zM260 0l146 1376h108l-146 -1376h-108z" />
<glyph horiz-adv-x="1383" d="M280 420l100 956h110l-101 -956q-7 -73 11 -137.5t60 -112.5t102 -75t139 -27t146 28.5t117.5 76.5t82.5 112t39 135l101 956h105l-100 -956q-10 -91 -50 -173.5t-105.5 -143.5t-154 -97t-192.5 -36q-106 0 -185.5 36t-133.5 97t-77.5 143.5t-13.5 173.5zM612 1740l52 79 l469 -269l-52 -78z" />
<glyph horiz-adv-x="2476" d="M248 617q0 150 56.5 291t160 252t247.5 177t318 66q120 0 214.5 -32t166 -84.5t117 -121.5t67.5 -145l37 356h737l-10 -96h-629l-56 -550h629l-10 -92h-630l-59 -542h630l-10 -96h-737l39 361q-39 -79 -99 -150t-141 -125t-180.5 -85t-218.5 -31q-155 0 -274 53 t-200.5 143t-123 207t-41.5 244zM359 626q0 -110 35.5 -211t104.5 -178t169.5 -123t233.5 -46q148 0 269 58.5t209 152.5t136 216t48 253q0 108 -36 208.5t-104 178t-169.5 123.5t-234.5 46q-148 0 -269.5 -57.5t-208.5 -151.5t-135 -217t-48 -252z" />
<glyph horiz-adv-x="1815" d="M248 612q0 152 56.5 296t158.5 254.5t246 176.5t318 66q111 0 204.5 -28t162.5 -77.5t111.5 -116.5t54.5 -144h-113q-27 113 -141 191t-291 78q-147 0 -269 -58t-209 -153.5t-134 -218.5t-47 -256q0 -111 33 -210.5t102 -175.5t172.5 -122t241.5 -46q117 0 212 34t166 95 t117.5 145.5t69.5 185.5h-436l10 91h686l-9 -91h-141q-27 -125 -84.5 -228t-146 -175.5t-204 -113.5t-256.5 -41q-162 0 -282 53t-200.5 143t-119.5 205.5t-39 240.5zM661 1726h96q12 -94 92 -144.5t195 -50.5t210 50.5t122 144.5h94q-14 -66 -56 -118.5t-101.5 -89 t-131.5 -55t-147 -18.5q-152 0 -256.5 73.5t-116.5 207.5z" />
<glyph horiz-adv-x="1827" d="M96 0l840 1376h782l-10 -96h-632l-58 -550h631l-10 -92h-631l-56 -542h631l-10 -96h-738l30 275h-485l-166 -275h-118zM434 368h441l91 875z" />
<glyph horiz-adv-x="1014" d="M263 0l145 1376h106l-136 -1278h492l-10 -98h-597z" />
<glyph horiz-adv-x="830" d="M52 -464l9 98q79 0 146.5 28t118 77.5t82.5 114t40 136.5l117 1114q7 73 -11.5 136.5t-58.5 113t-102 78t-140 28.5l12 98q103 0 183 -37t133 -98t76 -145t14 -174l-118 -1114q-9 -91 -50 -173t-107.5 -145t-153.5 -99.5t-190 -36.5z" />
<glyph horiz-adv-x="1250" d="M260 0l146 1376h739l-10 -96h-631l-59 -550h631l-9 -92h-633l-56 -542h632l-9 -96h-741zM432 1543l389 288l329 -288l-66 -68l-275 241l-322 -241z" />
<glyph horiz-adv-x="1262" d="M108 0l619 1376h96l333 -1376h-117l-63 275h-632l-123 -275h-113zM386 368h568l-194 861zM553 1738l54 81l467 -269l-49 -80z" />
<glyph horiz-adv-x="1815" d="M248 612q0 152 56.5 296t158.5 254.5t246 176.5t318 66q111 0 204.5 -28t162.5 -77.5t111.5 -116.5t54.5 -144h-113q-27 113 -141 191t-291 78q-147 0 -269 -58t-209 -153.5t-134 -218.5t-47 -256q0 -111 33 -210.5t102 -175.5t172.5 -122t241.5 -46q117 0 212 34t166 95 t117.5 145.5t69.5 185.5h-436l10 91h686l-9 -91h-141q-27 -125 -84.5 -228t-146 -175.5t-204 -113.5t-256.5 -41q-162 0 -282 53t-200.5 143t-119.5 205.5t-39 240.5zM767 -403l5 51q63 0 99 29.5t36 74.5q0 14 -5 30q-2 7 -4 9q-15 -14 -45 -14q-35 0 -53.5 21.5 t-18.5 51.5q0 37 28.5 65.5t70.5 28.5q46 0 73 -37.5t27 -108.5q0 -103 -58.5 -152t-154.5 -49z" />
<glyph horiz-adv-x="1287" d="M248 1376h113l300 -1226l556 1226h115l-642 -1376h-92z" />
<glyph horiz-adv-x="990" d="M110 -106l887 1654l89 -40l-884 -1653z" />
<glyph horiz-adv-x="1773" d="M248 619q0 150 56.5 291.5t160 252t247.5 176.5t318 66q157 0 276.5 -54t200.5 -143.5t123 -206.5t42 -244q0 -150 -57 -291.5t-160.5 -252t-247.5 -177t-318 -66.5q-157 0 -276 54.5t-200.5 144t-123 206.5t-41.5 244zM359 626q0 -108 35.5 -208.5t103 -178t168.5 -123 t234 -45.5q148 0 269 58t210 151t137 215t48 253q0 108 -36 208.5t-104 178t-169.5 123.5t-234.5 46q-148 0 -269.5 -57.5t-208.5 -151.5t-135 -217t-48 -252zM698 1568l10 88h708l-11 -88h-707z" />
<glyph horiz-adv-x="603" d="M52 -317l9 83q108 0 176 70t80 166l79 746q12 98 -43 167.5t-163 69.5l7 82q73 0 131 -26t96 -69t55.5 -100.5t10.5 -123.5l-80 -746q-7 -63 -35 -120.5t-76 -102t-111 -70.5t-136 -26z" />
<glyph horiz-adv-x="1262" d="M125 0l986 1280h-806l9 96h988l-988 -1280h878l-10 -96h-1057zM706 1609q0 49 33 81.5t82 32.5q42 0 67.5 -25.5t25.5 -67.5q0 -47 -34 -80t-81 -33q-42 0 -67.5 26.5t-25.5 65.5z" />
<glyph horiz-adv-x="1274" d="M251 1376h125l381 -729l453 729h117l-855 -1376h-120l333 535zM440 1543l388 288l330 -288l-67 -68l-273 241l-324 -241z" />
<glyph horiz-adv-x="1114" d="M258 1278l10 98h870l-10 -98h-383l-135 -1278h-106l134 1278h-380zM422 1764l62 70l238 -242l293 242l49 -70l-354 -289z" />
<glyph horiz-adv-x="1156" d="M236 971q10 96 49 174.5t103 135t151 88t193 31.5q176 0 275 -85.5t99 -242.5q0 -92 -30 -156.5t-72.5 -109t-87 -72.5t-74.5 -46q-49 -28 -85.5 -54.5t-63.5 -60.5t-43 -81t-24 -114h-105q9 79 29 135.5t50.5 98.5t72.5 72.5t94 60.5q32 17 72.5 43t76.5 62.5t60.5 89 t24.5 124.5q0 118 -71.5 182t-204.5 64q-162 0 -263 -92t-120 -247h-106zM434 82q0 49 36 83t86 34q42 0 70 -27t28 -69q0 -49 -36 -83t-85 -34q-42 0 -70.5 27t-28.5 69z" />
<glyph horiz-adv-x="882" d="M272 1393q0 69 26 130.5t73 108.5t111 75t140 28q68 0 122.5 -22t92.5 -60t57.5 -89.5t19.5 -109.5q0 -61 -19.5 -111.5t-54.5 -96.5l-346 -472h-105l279 373q-19 -19 -50 -27.5t-67 -8.5q-120 0 -199.5 80t-79.5 202zM366 1398q0 -86 54 -146t152 -60q54 0 100 21t79 55 t51.5 79.5t18.5 97.5q0 86 -53 147.5t-151 61.5q-54 0 -101 -21t-80 -56.5t-51.5 -81t-18.5 -97.5z" />
<glyph horiz-adv-x="1021" d="M263 0l145 1376h106l-136 -1278h492l-10 -98h-597zM642 521q0 49 35.5 82t82.5 33q42 0 70 -27t28 -68q0 -49 -36 -81.5t-83 -32.5q-42 0 -69.5 26t-27.5 68z" />
<glyph horiz-adv-x="586" d="M194 715l8 71q61 0 101.5 9t64 28t33 50.5t14.5 72.5h87l-101 -946h-96l75 715h-186z" />
<glyph horiz-adv-x="1383" d="M280 420l100 956h110l-101 -956q-7 -73 11 -137.5t60 -112.5t102 -75t139 -27t146 28.5t117.5 76.5t82.5 112t39 135l101 956h105l-100 -956q-10 -91 -50 -173.5t-105.5 -143.5t-154 -97t-192.5 -36q-106 0 -185.5 36t-133.5 97t-77.5 143.5t-13.5 173.5zM494 1546 l388 288l330 -288l-70 -71l-272 241l-324 -241z" />
<glyph horiz-adv-x="896" d="M283 1102l64 619h93l-54 -537h278l30 298h92l-29 -298h155l-10 -82h-154l-35 -328h-94l35 328h-371z" />
<glyph horiz-adv-x="1016" d="M202 518l9 101l120 57l75 700h108l-69 -654l317 155l-10 -98l-318 -155l-56 -526h490l-10 -98h-598l62 580z" />
<glyph horiz-adv-x="1114" d="M258 1278l10 98h870l-10 -98h-383l-135 -1278h-106l134 1278h-380z" />
<glyph horiz-adv-x="1262" d="M125 0l986 1280h-806l9 96h988l-988 -1280h878l-10 -96h-1057zM563 1560l523 269l35 -79l-526 -268z" />
<glyph horiz-adv-x="1339" d="M260 420l57 541q9 89 50 169t106.5 140t152.5 95t190 35t184 -35t134 -96.5t76.5 -143t13.5 -171.5l-56 -539q-10 -91 -51 -171t-106 -140t-152 -94t-191 -34q-103 0 -184 35.5t-133.5 95.5t-76 141t-14.5 172zM368 420q-7 -71 10.5 -134t57.5 -111t101 -76t139 -28 q79 0 146 28t117.5 76t81.5 111t39 134l56 534q7 71 -10.5 135t-57.5 111.5t-102 75.5t-140 28q-79 0 -145 -28t-116.5 -75.5t-81.5 -111.5t-38 -135z" />
<glyph horiz-adv-x="1494" d="M263 0l145 1376h106l-30 -288h757l30 288h108l-145 -1376h-108l66 636h-758l-66 -636h-105zM445 732h756l30 274h-757z" />
<glyph horiz-adv-x="1773" d="M248 619q0 150 56.5 291.5t160 252t247.5 176.5t318 66q157 0 276.5 -54t200.5 -143.5t123 -206.5t42 -244q0 -150 -57 -291.5t-160.5 -252t-247.5 -177t-318 -66.5q-157 0 -276 54.5t-200.5 144t-123 206.5t-41.5 244zM359 626q0 -108 35.5 -208.5t103 -178t168.5 -123 t234 -45.5q148 0 269 58t210 151t137 215t48 253q0 108 -36 208.5t-104 178t-169.5 123.5t-234.5 46q-148 0 -269.5 -57.5t-208.5 -151.5t-135 -217t-48 -252zM788 1642l281 328l76 -43l-303 -315zM1172 1642l280 328l77 -43l-303 -318z" />
<glyph horiz-adv-x="1252" d="M263 0l145 1376h737l-10 -96h-631l-59 -550h631l-9 -92h-633l-56 -542h632l-9 -96h-738zM472 1604q0 47 33.5 80.5t78.5 33.5q42 0 70.5 -27.5t28.5 -68.5q0 -46 -35.5 -80t-79.5 -34q-42 0 -69 27t-27 69zM929 1604q0 47 34 80.5t81 33.5q42 0 68 -27.5t26 -65.5 q0 -49 -34.5 -83t-81.5 -34q-42 0 -67.5 27t-25.5 69z" />
<glyph horiz-adv-x="1222" d="M115 0l507 688l-362 688h120l314 -602l439 602h120l-508 -688l364 -688h-121l-312 600l-440 -600h-121z" />
<glyph horiz-adv-x="1773" d="M248 619q0 150 56.5 291.5t160 252t247.5 176.5t318 66q157 0 276.5 -54t200.5 -143.5t123 -206.5t42 -244q0 -150 -57 -291.5t-160.5 -252t-247.5 -177t-318 -66.5q-157 0 -276 54.5t-200.5 144t-123 206.5t-41.5 244zM359 626q0 -108 35.5 -208.5t103 -178t168.5 -123 t234 -45.5q148 0 269 58t210 151t137 215t48 253q0 108 -36 208.5t-104 178t-169.5 123.5t-234.5 46q-148 0 -269.5 -57.5t-208.5 -151.5t-135 -217t-48 -252zM725 1604q0 47 33 80.5t82 33.5q42 0 69 -27.5t27 -65.5q0 -49 -35.5 -81t-82.5 -32q-42 0 -67.5 25t-25.5 67z M1180 1604q0 47 34 80.5t81 33.5q42 0 69 -27.5t27 -65.5q0 -49 -35.5 -81t-79.5 -32q-42 0 -69 25t-27 67z" />
<glyph horiz-adv-x="874" d="M218 774q12 118 40 194t69 126.5t97.5 83t128.5 60.5q49 20 95 41t80 48t55 65t21 95q0 79 -47 125t-133 46q-103 0 -166.5 -61t-77.5 -159h-92q14 127 105 212t238 85q123 0 195 -63t72 -180q0 -74 -29 -124t-70.5 -86t-94 -61t-99.5 -44q-73 -30 -123 -58t-80.5 -63.5 t-46 -83.5t-26.5 -119h504l-7 -79h-608z" />
<glyph horiz-adv-x="1773" d="M248 619q0 150 56.5 291.5t160 252t247.5 176.5t318 66q157 0 276.5 -54t200.5 -143.5t123 -206.5t42 -244q0 -150 -57 -291.5t-160.5 -252t-247.5 -177t-318 -66.5q-157 0 -276 54.5t-200.5 144t-123 206.5t-41.5 244zM359 626q0 -108 35.5 -208.5t103 -178t168.5 -123 t234 -45.5q148 0 269 58t210 151t137 215t48 253q0 108 -36 208.5t-104 178t-169.5 123.5t-234.5 46q-148 0 -269.5 -57.5t-208.5 -151.5t-135 -217t-48 -252z" />
<glyph horiz-adv-x="771" d="M160 0l501 865h-447l7 81h583l-544 -946h-100z" />
<glyph horiz-adv-x="1311" d="M19 0l775 1721h88l408 -1721h-113l-84 354h-803l-157 -354h-114zM335 455h734l-248 1103zM664 1819l246 319h87l-245 -319h-88zM924 1819l246 319h89l-246 -319h-89z" />
<glyph horiz-adv-x="1318" d="M232 418h108q-15 -155 74.5 -253.5t279.5 -98.5q166 0 270.5 81t104.5 226q0 69 -24.5 114.5t-67.5 76.5t-99.5 50.5t-120.5 34.5q-79 19 -151.5 42.5t-130 63t-92 98.5t-34.5 150q0 89 33 162t95 126t150 83.5t196 30.5q216 0 312 -112.5t82 -295.5h-108 q12 143 -58.5 229.5t-236.5 86.5q-170 0 -263.5 -84t-93.5 -211q0 -66 26 -110.5t70.5 -73t103 -47t124.5 -35.5q76 -19 149 -43t128.5 -64t88.5 -102t33 -154q0 -99 -38 -176t-106 -131t-160 -83t-198 -29q-234 0 -350.5 124t-95.5 324zM487 1543l388 288l326 -288l-63 -68 l-275 241l-319 -241z" />
<glyph horiz-adv-x="1272" d="M290 492l93 884h109l-84 -786h432l47 437h108l-46 -437h233l-10 -98h-234l-51 -492h-108l51 492h-540z" />
<glyph horiz-adv-x="1773" d="M248 619q0 150 56.5 291.5t160 252t247.5 176.5t318 66q157 0 276.5 -54t200.5 -143.5t123 -206.5t42 -244q0 -150 -57 -291.5t-160.5 -252t-247.5 -177t-318 -66.5q-157 0 -276 54.5t-200.5 144t-123 206.5t-41.5 244zM359 626q0 -108 35.5 -208.5t103 -178t168.5 -123 t234 -45.5q148 0 269 58t210 151t137 215t48 253q0 108 -36 208.5t-104 178t-169.5 123.5t-234.5 46q-148 0 -269.5 -57.5t-208.5 -151.5t-135 -217t-48 -252zM772 1550l523 269l37 -79l-526 -268z" />
<glyph horiz-adv-x="1383" d="M280 420l100 956h110l-101 -956q-7 -73 11 -137.5t60 -112.5t102 -75t139 -27t146 28.5t117.5 76.5t82.5 112t39 135l101 956h105l-100 -956q-10 -91 -50 -173.5t-105.5 -143.5t-154 -97t-192.5 -36q-106 0 -185.5 36t-133.5 97t-77.5 143.5t-13.5 173.5zM521 1607 q93 56 139 66.5t72 10.5q22 0 60 -8.5t79 -19t81 -18.5t68 -8q19 0 48.5 9.5t103.5 44.5l29 -72q-79 -45 -119 -55.5t-67 -10.5q-73 0 -144.5 25.5t-143.5 25.5q-21 0 -59.5 -8.5t-111.5 -50.5z" />
<glyph horiz-adv-x="1318" d="M232 418h108q-15 -155 74.5 -253.5t279.5 -98.5q166 0 270.5 81t104.5 226q0 69 -24.5 114.5t-67.5 76.5t-99.5 50.5t-120.5 34.5q-79 19 -151.5 42.5t-130 63t-92 98.5t-34.5 150q0 89 33 162t95 126t150 83.5t196 30.5q216 0 312 -112.5t82 -295.5h-108 q12 143 -58.5 229.5t-236.5 86.5q-170 0 -263.5 -84t-93.5 -211q0 -66 26 -110.5t70.5 -73t103 -47t124.5 -35.5q76 -19 149 -43t128.5 -64t88.5 -102t33 -154q0 -99 -38 -176t-106 -131t-160 -83t-198 -29q-234 0 -350.5 124t-95.5 324zM570 1550l523 269l35 -79l-526 -268 z" />
<glyph horiz-adv-x="1318" d="M232 418h108q-15 -155 74.5 -253.5t279.5 -98.5q166 0 270.5 81t104.5 226q0 69 -24.5 114.5t-67.5 76.5t-99.5 50.5t-120.5 34.5q-79 19 -151.5 42.5t-130 63t-92 98.5t-34.5 150q0 89 33 162t95 126t150 83.5t196 30.5q216 0 312 -112.5t82 -295.5h-108 q12 143 -58.5 229.5t-236.5 86.5q-170 0 -263.5 -84t-93.5 -211q0 -66 26 -110.5t70.5 -73t103 -47t124.5 -35.5q76 -19 149 -43t128.5 -64t88.5 -102t33 -154q0 -99 -38 -176t-106 -131t-160 -83t-198 -29q-234 0 -350.5 124t-95.5 324z" />
<glyph horiz-adv-x="1498" d="M263 0l145 1376h113l629 -1194l126 1194h105l-155 -1470q-12 -103 -51.5 -186.5t-102 -141t-144.5 -88.5t-176 -31q-117 0 -206 46.5t-140 130.5l70 69q45 -71 117.5 -109.5t166.5 -38.5q140 0 241 90t117 252l10 101l-631 1205l-129 -1205h-105z" />
<glyph horiz-adv-x="2026" d="M248 1376h113l268 -1212l485 1212h91l228 -1212l523 1212h113l-609 -1376h-91l-227 1205l-483 -1205h-91z" />
<glyph horiz-adv-x="921" d="M169 232q0 93 57 166.5t160 93.5q-73 17 -112.5 68.5t-39.5 124.5q0 115 88 195.5t236 80.5q133 0 204 -66.5t71 -167.5q0 -84 -50.5 -150t-144.5 -85q82 -17 124 -77.5t42 -137.5q0 -61 -24.5 -114t-71.5 -92t-111 -62t-140 -23q-138 0 -213 68t-75 178zM260 241 q0 -79 53 -129.5t154 -50.5q110 0 178 62t68 152q0 75 -53 125t-154 50q-112 0 -179 -60.5t-67 -148.5zM324 685q0 -71 49 -116.5t143 -45.5q103 0 164.5 56.5t61.5 138.5q0 70 -49 118t-140 48q-103 0 -166 -56t-63 -143z" />
<glyph horiz-adv-x="1773" d="M248 619q0 150 56.5 291.5t160 252t247.5 176.5t318 66q157 0 276.5 -54t200.5 -143.5t123 -206.5t42 -244q0 -150 -57 -291.5t-160.5 -252t-247.5 -177t-318 -66.5q-157 0 -276 54.5t-200.5 144t-123 206.5t-41.5 244zM359 626q0 -108 35.5 -208.5t103 -178t168.5 -123 t234 -45.5q148 0 269 58t210 151t137 215t48 253q0 108 -36 208.5t-104 178t-169.5 123.5t-234.5 46q-148 0 -269.5 -57.5t-208.5 -151.5t-135 -217t-48 -252zM809 1740l51 79l472 -269l-54 -78z" />
<glyph horiz-adv-x="778" d="M214 -457l211 2015h384l-10 -95h-281l-192 -1827h281l-9 -93h-384z" />
<glyph horiz-adv-x="868" d="M71 -457l11 86h94q82 0 144.5 55.5t75.5 155.5l49 465q5 51 26 90t48 65.5t57.5 43.5t57.5 24q-24 7 -52.5 23.5t-50.5 41t-34.5 61t-6.5 85.5l54 520q12 101 -41 156t-135 55h-96l11 85h120q52 0 98.5 -16.5t82 -51.5t54 -88t11.5 -123l-54 -521q-5 -47 11 -82 t40.5 -56.5t54 -31.5t54.5 -10l-10 -94q-24 0 -56.5 -10.5t-61.5 -34t-52.5 -60t-28.5 -86.5l-49 -466q-7 -71 -37 -124.5t-73 -87.5t-93 -51.5t-102 -17.5h-121z" />
<glyph horiz-adv-x="1498" d="M263 0l145 1376h118l621 -1207l129 1207h105l-145 -1376h-115l-624 1205l-129 -1205h-105zM649 -383l5 54q64 0 98 28.5t34 77.5q0 14 -2.5 22.5t-4.5 13.5q-10 -10 -22 -13.5t-25 -3.5q-32 0 -51.5 20.5t-19.5 52.5q0 37 27 65.5t69 28.5q49 0 76 -38t27 -105 q0 -106 -59 -154.5t-152 -48.5z" />
<glyph horiz-adv-x="1383" d="M280 420l100 956h110l-101 -956q-7 -73 11 -137.5t60 -112.5t102 -75t139 -27t146 28.5t117.5 76.5t82.5 112t39 135l101 956h105l-100 -956q-10 -91 -50 -173.5t-105.5 -143.5t-154 -97t-192.5 -36q-106 0 -185.5 36t-133.5 97t-77.5 143.5t-13.5 173.5z" />
<glyph horiz-adv-x="1250" d="M211 383q0 86 27 157.5t74 135.5l514 700h120l-413 -562q30 30 88.5 44t110.5 14q91 -2 165 -35t123 -87t76 -126.5t27 -154.5q0 -98 -37 -186.5t-103 -156t-158.5 -106.5t-202.5 -39q-99 0 -175 31.5t-129 87t-80 128t-27 155.5zM319 394q0 -64 21 -122t60.5 -101.5 t98.5 -69t132 -25.5q84 0 154.5 32t122 85t79.5 123t28 146q0 64 -21 122t-61.5 100.5t-98.5 68.5t-131 26q-84 0 -154 -32t-121.5 -84.5t-80 -123t-28.5 -145.5z" />
<glyph horiz-adv-x="1262" d="M108 0l619 1376h96l333 -1376h-117l-63 275h-632l-123 -275h-113zM386 368h568l-194 861zM434 1546l389 290l327 -290l-66 -69l-273 241l-321 -238z" />
<glyph horiz-adv-x="812" d="M275 1060l11 85q88 0 144.5 13.5t89.5 40.5t46.5 71.5t20.5 105.5h101l-144 -1376h-110l112 1060h-271z" />
<glyph horiz-adv-x="1250" d="M270 910q0 98 38.5 186t104.5 155t158.5 106t200.5 39q98 0 174 -32t129 -87t80 -128t27 -157q0 -86 -27 -158t-71 -133l-514 -701h-120l415 560q-35 -30 -86.5 -44t-107.5 -14q-91 0 -165 31.5t-127 87t-81 129t-28 160.5zM378 914q0 -63 21 -121.5t62 -101t99.5 -68 t133.5 -25.5q84 0 153.5 31.5t120 84.5t78.5 123t28 146q0 63 -21 121.5t-60 101t-98.5 68.5t-132.5 26q-84 0 -153.5 -32t-122 -85t-80.5 -123t-28 -146z" />
<glyph horiz-adv-x="990" d="M226 1508l98 40l539 -1654l-101 -39z" />
<glyph horiz-adv-x="1252" d="M263 0l145 1376h737l-10 -96h-631l-59 -550h631l-9 -92h-633l-56 -542h632l-9 -96q-71 -49 -113 -103t-42 -113q0 -52 35.5 -89t108.5 -37q40 0 83 9t74 21l-14 -77q-33 -9 -76.5 -19t-95.5 -10q-108 0 -159.5 52t-51.5 122q0 69 45 126t139 118h-671z" />
<glyph horiz-adv-x="1282" d="M236 0l108 1022q20 174 139 276t311 102q177 0 276.5 -88t99.5 -238q0 -138 -83.5 -240t-230.5 -124q133 -21 203.5 -110t70.5 -214q0 -91 -36.5 -167t-102 -130t-152.5 -83.5t-190 -29.5q-98 0 -168 24l11 91q35 -12 76.5 -18.5t80.5 -6.5q84 0 152.5 23.5t117.5 66.5 t77.5 100.5t28.5 126.5q0 120 -81 201.5t-231 81.5h-96l9 91h96q160 0 252.5 88.5t92.5 216.5q0 113 -74 182t-209 69q-148 0 -236 -80t-100 -211l-108 -1022h-104z" />
<glyph horiz-adv-x="948" d="M194 298h94q-10 -94 42.5 -163t159.5 -69q54 0 100 21t81 55t53 80t18 97q0 87 -54 147t-155 60q-141 0 -209 -125h-92l56 545h547l-7 -78h-462l-42 -381q35 57 100.5 86t140.5 29q131 0 199.5 -81t68.5 -192q0 -69 -26 -130t-71.5 -109t-110.5 -76t-144 -28 q-75 0 -131.5 25.5t-94 68t-53 99.5t-8.5 119z" />
<glyph horiz-adv-x="1328" d="M260 0l146 1376h483q87 0 151 -28t106.5 -75t63.5 -105.5t21 -121.5q0 -66 -22 -126t-61 -108t-89.5 -79.5t-106.5 -42.5q91 -19 153.5 -97.5t62.5 -194.5q0 -70 -28.5 -141.5t-81 -128.5t-131.5 -92.5t-179 -35.5h-488zM378 94h372q68 0 126 25.5t98.5 67t64 96 t23.5 111.5q0 49 -17.5 94t-48 79.5t-76 55.5t-104.5 21h-378zM448 737h375q66 0 122 25.5t95 67.5t61 96t22 111q0 98 -65.5 173t-185.5 75h-368z" />
<glyph horiz-adv-x="1498" d="M263 0l145 1376h118l621 -1207l129 1207h105l-145 -1376h-115l-624 1205l-129 -1205h-105z" />
<glyph horiz-adv-x="727" d="M265 82q0 49 35 83t83 34q42 0 70 -28t28 -70q0 -49 -36.5 -82t-83.5 -33q-42 0 -69 27t-27 69zM349 389l106 1011h110l-105 -1011h-111z" />
<glyph horiz-adv-x="940" d="M265 1067q7 91 18 167q7 63 13 125t11 83q10 59 38 113t72.5 95t103.5 64.5t131 23.5q73 0 129.5 -25t93.5 -68t54 -99.5t9 -117.5q-12 -103 -21 -185q-7 -71 -13 -129.5t-6 -61.5q-8 -61 -38 -115.5t-76.5 -93.5t-108 -62.5t-129.5 -23.5q-71 0 -126.5 24.5t-92.5 67.5 t-53 98.5t-9 119.5zM359 1067q-10 -94 43 -161.5t156 -67.5q52 0 96 18.5t77 49t53 72.5t25 89l37 361q10 94 -44 161t-158 67q-103 0 -170.5 -67t-77.5 -161z" />
<glyph horiz-adv-x="633" d="M68 -244q0 69 44.5 126t138.5 118l145 1376h108l-145 -1376h-40q-71 -49 -113 -103t-42 -113q0 -52 37.5 -89t110.5 -37q40 0 81 9t74 21l-12 -77q-35 -9 -79.5 -19t-95.5 -10q-111 0 -161.5 52t-50.5 122z" />
<glyph horiz-adv-x="628" d="M216 -440l209 1995h103l-209 -1995h-103z" />
<glyph horiz-adv-x="1965" d="M180 772q0 189 71 367.5t201 317t310.5 222t400.5 83.5q197 0 346 -67.5t251 -179.5t155 -259t53 -307q0 -189 -71 -368.5t-200 -317.5t-310 -221.5t-399 -83.5q-197 0 -347.5 68t-252.5 179.5t-155 259t-53 307.5zM270 779q0 -145 47 -278t139 -235t227 -163t312 -61 q197 0 359.5 76t279 201.5t180.5 287.5t64 334q0 145 -47 277.5t-139 234.5t-227 164t-312 62q-197 0 -359.5 -76.5t-279 -201.5t-180.5 -287t-64 -335zM826 386l501 864h-447l7 82h583l-544 -946h-100z" />
<glyph horiz-adv-x="1965" d="M180 772q0 189 71 367.5t201 317t310.5 222t400.5 83.5q197 0 346 -67.5t251 -179.5t155 -259t53 -307q0 -189 -71 -368.5t-200 -317.5t-310 -221.5t-399 -83.5q-197 0 -347.5 68t-252.5 179.5t-155 259t-53 307.5zM270 779q0 -145 47 -278t139 -235t227 -163t312 -61 q197 0 359.5 76t279 201.5t180.5 287.5t64 334q0 145 -47 277.5t-139 234.5t-227 164t-312 62q-197 0 -359.5 -76.5t-279 -201.5t-180.5 -287t-64 -335zM739 713l65 617h94l-58 -536h278l32 297h93l-31 -297h155l-7 -81h-155l-35 -330h-94l35 330h-372z" />
<glyph horiz-adv-x="1965" d="M180 772q0 189 71 367.5t201 317t310.5 222t400.5 83.5q197 0 346 -67.5t251 -179.5t155 -259t53 -307q0 -189 -71 -368.5t-200 -317.5t-310 -221.5t-399 -83.5q-197 0 -347.5 68t-252.5 179.5t-155 259t-53 307.5zM270 779q0 -145 47 -278t139 -235t227 -163t312 -61 q197 0 359.5 76t279 201.5t180.5 287.5t64 334q0 145 -47 277.5t-139 234.5t-227 164t-312 62q-197 0 -359.5 -76.5t-279 -201.5t-180.5 -287t-64 -335zM732 617q0 93 58 167t159 93q-71 17 -110.5 70.5t-39.5 126.5q0 56 23.5 105.5t65 86t101.5 58.5t134 22 q133 0 205 -64.5t72 -167.5q0 -84 -51.5 -150t-143.5 -87q84 -17 124 -76t40 -135q0 -61 -24.5 -115t-70 -93.5t-110 -63t-139.5 -23.5q-141 0 -217 70t-76 176zM826 626q0 -79 54 -127.5t152 -48.5q113 0 179.5 62.5t66.5 148.5q0 76 -54 125t-155 49q-110 0 -176.5 -60 t-66.5 -149zM889 1072q0 -71 49.5 -116.5t142.5 -45.5q103 0 165 56t62 138q0 73 -50.5 120t-139.5 47q-103 0 -166 -57.5t-63 -141.5z" />
<glyph horiz-adv-x="1965" d="M180 772q0 189 71 367.5t201 317t310.5 222t400.5 83.5q197 0 346 -67.5t251 -179.5t155 -259t53 -307q0 -189 -71 -368.5t-200 -317.5t-310 -221.5t-399 -83.5q-197 0 -347.5 68t-252.5 179.5t-155 259t-53 307.5zM270 779q0 -145 47 -278t139 -235t227 -163t312 -61 q197 0 359.5 76t279 201.5t180.5 287.5t64 334q0 145 -47 277.5t-139 234.5t-227 164t-312 62q-197 0 -359.5 -76.5t-279 -201.5t-180.5 -287t-64 -335zM872 1102l10 70q61 0 100.5 8.5t62 28.5t32 50.5t14.5 72.5h86l-98 -946h-94l75 716h-188z" />
<glyph horiz-adv-x="1965" d="M180 772q0 189 71 367.5t201 317t310.5 222t400.5 83.5q197 0 346 -67.5t251 -179.5t155 -259t53 -307q0 -189 -71 -368.5t-200 -317.5t-310 -221.5t-399 -83.5q-197 0 -347.5 68t-252.5 179.5t-155 259t-53 307.5zM270 779q0 -145 47 -278t139 -235t227 -163t312 -61 q197 0 359.5 76t279 201.5t180.5 287.5t64 334q0 145 -47 277.5t-139 234.5t-227 164t-312 62q-197 0 -359.5 -76.5t-279 -201.5t-180.5 -287t-64 -335zM739 661h94q-12 -93 43 -151t158 -58q111 0 176.5 61.5t65.5 152.5q0 76 -52 124t-150 48h-77l11 79h76q110 0 167 56.5 t57 137.5q0 79 -50.5 120.5t-136.5 41.5q-101 0 -160 -52.5t-67 -139.5h-92q12 118 96.5 193t224.5 75q123 0 199 -60t76 -171q0 -91 -54 -155.5t-145 -85.5q79 -17 124.5 -73t45.5 -140q0 -64 -27 -117t-72.5 -92.5t-109.5 -60.5t-138 -21q-145 0 -221 78.5t-62 209.5z" />
<glyph horiz-adv-x="1965" d="M180 772q0 189 71 367.5t201 317t310.5 222t400.5 83.5q197 0 346 -67.5t251 -179.5t155 -259t53 -307q0 -189 -71 -368.5t-200 -317.5t-310 -221.5t-399 -83.5q-197 0 -347.5 68t-252.5 179.5t-155 259t-53 307.5zM270 779q0 -145 47 -278t139 -235t227 -163t312 -61 q197 0 359.5 76t279 201.5t180.5 287.5t64 334q0 145 -47 277.5t-139 234.5t-227 164t-312 62q-197 0 -359.5 -76.5t-279 -201.5t-180.5 -287t-64 -335zM720 654q0 110 68 206l345 472h108l-277 -376q21 20 57 27t70 7q125 -5 197 -84.5t72 -192.5q0 -69 -26 -132 t-73 -109.5t-112 -73.5t-141 -27q-68 0 -123 22t-91.5 61.5t-55 90t-18.5 109.5zM811 661q0 -86 54 -147.5t153 -61.5q54 0 99.5 21t78.5 55.5t51.5 81t18.5 96.5q0 86 -54 147t-150 61q-56 0 -102 -21t-79 -55t-51.5 -79.5t-18.5 -97.5z" />
<glyph horiz-adv-x="1965" d="M180 772q0 189 71 367.5t201 317t310.5 222t400.5 83.5q197 0 346 -67.5t251 -179.5t155 -259t53 -307q0 -189 -71 -368.5t-200 -317.5t-310 -221.5t-399 -83.5q-197 0 -347.5 68t-252.5 179.5t-155 259t-53 307.5zM270 779q0 -145 47 -278t139 -235t227 -163t312 -61 q197 0 359.5 76t279 201.5t180.5 287.5t64 334q0 145 -47 277.5t-139 234.5t-227 164t-312 62q-197 0 -359.5 -76.5t-279 -201.5t-180.5 -287t-64 -335zM720 386q12 118 38 194t66.5 126.5t98 83.5t132.5 63q51 19 95 40t79 49.5t54 65t19 90.5q0 79 -45 126t-134 47 q-103 0 -166 -60.5t-75 -161.5h-94q15 131 105 214t237 83q125 0 195.5 -62t70.5 -180q0 -73 -27 -124t-70 -86.5t-94.5 -60t-98.5 -45.5q-73 -30 -122.5 -57.5t-80.5 -62t-47 -82t-26 -119.5h504l-7 -81h-607z" />
<glyph horiz-adv-x="1965" d="M180 772q0 189 71 367.5t201 317t310.5 222t400.5 83.5q197 0 346 -67.5t251 -179.5t155 -259t53 -307q0 -189 -71 -368.5t-200 -317.5t-310 -221.5t-399 -83.5q-197 0 -347.5 68t-252.5 179.5t-155 259t-53 307.5zM270 779q0 -145 47 -278t139 -235t227 -163t312 -61 q197 0 359.5 76t279 201.5t180.5 287.5t64 334q0 145 -47 277.5t-139 234.5t-227 164t-312 62q-197 0 -359.5 -76.5t-279 -201.5t-180.5 -287t-64 -335zM737 683h91q-12 -94 43 -162.5t159 -68.5q54 0 100.5 21t79.5 55.5t51.5 81t18.5 96.5q0 86 -54 146t-152 60 q-64 0 -120 -29.5t-91 -94.5h-94l57 544h550l-7 -76h-462l-39 -384q34 57 99 86.5t139 29.5q128 0 198 -81t70 -194q0 -69 -26 -130.5t-72.5 -108.5t-112 -75t-143.5 -28q-73 0 -130 25.5t-92.5 67.5t-51.5 98.5t-9 120.5z" />
<glyph horiz-adv-x="1965" d="M180 772q0 189 71 367.5t201 317t310.5 222t400.5 83.5q197 0 346 -67.5t251 -179.5t155 -259t53 -307q0 -189 -71 -368.5t-200 -317.5t-310 -221.5t-399 -83.5q-197 0 -347.5 68t-252.5 179.5t-155 259t-53 307.5zM270 779q0 -145 47 -278t139 -235t227 -163t312 -61 q197 0 359.5 76t279 201.5t180.5 287.5t64 334q0 145 -47 277.5t-139 234.5t-227 164t-312 62q-197 0 -359.5 -76.5t-279 -201.5t-180.5 -287t-64 -335zM774 1008q0 66 26 127t72.5 108t111 75t139.5 28q69 0 123 -22t91 -61t57 -89.5t20 -109.5q0 -58 -19 -108.5t-53 -97.5 l-347 -472h-106l279 374q-15 -15 -43.5 -26.5t-72.5 -11.5q-122 0 -200 81t-78 205zM865 1010q0 -86 54 -146t153 -60q54 0 99.5 21t78.5 55t51.5 80t18.5 97q0 87 -51.5 148t-150.5 61q-56 0 -101.5 -21t-80 -56.5t-53 -81t-18.5 -97.5z" />
<glyph horiz-adv-x="793" d="M248 120l150 1428q12 113 62.5 213.5t130.5 177t186.5 121t232.5 44.5l-13 -101q-101 0 -186.5 -35.5t-149 -98.5t-104.5 -145t-51 -176l-150 -1428q-9 -91 14.5 -173.5t73.5 -143.5t129 -97.5t179 -36.5l-10 -101q-125 0 -222.5 44t-162 120t-93 177t-16.5 211z" />
<glyph horiz-adv-x="1236" d="M206 802l10 98h991l-11 -98h-990z" />
<glyph horiz-adv-x="724" d="M5 -425l9 96h357l246 2334h-357l10 99h460l-266 -2529h-459z" />
<glyph horiz-adv-x="1159" d="M185 828l7 77l526 425l-10 -116l-428 -349l354 -349l-12 -113zM666 828l7 77l526 425l-10 -116l-427 -349l354 -349l-12 -113z" />
<glyph horiz-adv-x="793" d="M-37 -432l9 101q101 0 186.5 36.5t150 97.5t105.5 144t50 173l150 1428q10 94 -13.5 176t-75 145t-129 98.5t-178.5 35.5l10 101q125 0 222.5 -44.5t162.5 -121t93 -177t16 -213.5l-150 -1428q-12 -110 -61 -211t-129 -177t-186.5 -120t-232.5 -44z" />
<glyph d="M110 340l10 103l1139 405l-1053 402l12 106l1198 -467l-11 -83z" />
<glyph d="M300 802l10 96h424l47 432h106l-47 -432h426l-10 -96h-426l-44 -429h-106l45 429h-425z" />
<glyph horiz-adv-x="2216" d="M160 577q0 214 77 409.5t227 345.5t367.5 238t495.5 88q199 0 357.5 -50t270 -157t171 -275t59.5 -402q0 -103 -16 -235.5t-61.5 -251t-130.5 -199.5t-223 -81q-133 0 -193 77.5t-55 210.5l13 127q-59 -117 -177 -193.5t-273 -76.5q-105 0 -188.5 37t-143 100t-90 145 t-30.5 176q0 110 42 209.5t115.5 176t175.5 122t222 45.5q155 0 257 -74t139 -200l27 253h91l-84 -800q-12 -125 35 -185.5t133 -60.5q98 0 160.5 74t98 180.5t49.5 226t14 209.5q0 204 -53 353t-154 245t-245 142.5t-325 46.5q-251 0 -449 -79.5t-334 -216.5t-207.5 -316.5 t-71.5 -376.5q0 -166 54 -317.5t164.5 -265.5t279 -181.5t396.5 -67.5q66 0 145.5 7t166.5 24.5t177 48t177 77.5l33 -76q-96 -51 -192 -83.5t-188 -52t-175.5 -27t-155.5 -7.5q-251 0 -434 75t-303.5 200.5t-179 291.5t-58.5 347zM710 619q0 -79 25 -147.5t73 -121 t117.5 -83.5t160.5 -31q98 0 183 38t146.5 102t96 147.5t34.5 174.5q0 76 -26 145t-74 120.5t-119 82t-159 30.5q-101 0 -184.5 -36.5t-144 -99.5t-95 -146.5t-34.5 -174.5z" />
<glyph d="M152 806l10 83l1295 467l-12 -106l-1135 -402l1050 -405l-11 -103z" />
<glyph horiz-adv-x="678" d="M185 828l7 77l526 425l-10 -116l-428 -349l354 -349l-12 -113z" />
<glyph horiz-adv-x="835" d="M187 764l10 94q30 0 70 13t78 41.5t66.5 70.5t36.5 101l70 675q10 87 47 151t89 106.5t114 63.5t121 21h138l-9 -86h-124q-49 0 -95.5 -18t-84.5 -51.5t-63 -84t-32 -111.5l-71 -676q-7 -59 -31.5 -104.5t-58 -77.5t-71.5 -51.5t-70 -29.5q32 -9 65 -30t60 -54t42 -81 t8 -116l-65 -601q-12 -125 54.5 -195.5t167.5 -70.5h123l-10 -88h-138q-59 0 -116.5 21t-102 62.5t-68 107t-13.5 150.5l65 605q7 63 -13 109t-51.5 75t-70 44t-67.5 15z" />
<glyph horiz-adv-x="2472" d="M206 802l10 98h2227l-9 -98h-2228z" />
<glyph horiz-adv-x="498" d="M157 248q0 57 38.5 94.5t92.5 37.5q49 0 79.5 -31.5t30.5 -78.5q0 -56 -40.5 -93t-92.5 -37q-49 0 -78.5 31t-29.5 77zM246 1096q0 56 39 94.5t93 38.5q49 0 80.5 -32t31.5 -79q0 -56 -42 -94.5t-94 -38.5q-49 0 -78.5 32t-29.5 79z" />
<glyph d="M260 584l10 99h994l-11 -99h-993zM305 1013l9 96h994l-11 -96h-992z" />
<glyph horiz-adv-x="724" d="M172 -425l266 2529h460l-11 -99h-357l-244 -2334h356l-11 -96h-459z" />
<glyph horiz-adv-x="1159" d="M140 403l12 113l428 349l-354 349l13 116l434 -425l-7 -77zM622 403l12 113l428 349l-354 349l12 116l436 -425l-9 -77z" />
<glyph horiz-adv-x="835" d="M-12 -425l10 88h120q49 0 95.5 18.5t85 51.5t63 82t32.5 114l63 601q7 64 30.5 112t56.5 81.5t71.5 54.5t74.5 33q-32 10 -64.5 29.5t-59.5 51.5t-43.5 77.5t-8.5 104.5l70 676q12 124 -54 194.5t-166 70.5h-120l9 86h138q59 0 116.5 -21t102 -63.5t68 -106.5t12.5 -151 l-68 -675q-8 -59 12 -101t52 -70.5t70 -41.5t67 -13l-9 -94q-30 0 -70.5 -15t-80 -44t-67.5 -75t-36 -109l-61 -605q-9 -86 -46.5 -151t-90 -106.5t-115 -62.5t-122.5 -21h-137z" />
<glyph horiz-adv-x="678" d="M140 403l12 113l428 349l-354 349l13 116l434 -425l-7 -77z" />
<glyph horiz-adv-x="722" d="M157 802l10 98h575l-10 -98h-575z" />
<glyph horiz-adv-x="535" d="M180 -403l265 2526h96l-266 -2526h-95z" />
</font>
</defs>
</svg>
