<?xml version="1.0" standalone="no"?>
<!DOCTYPE svg PUBLIC "-//W3C//DTD SVG 1.1//EN" "http://www.w3.org/Graphics/SVG/1.1/DTD/svg11.dtd" >
<svg xmlns="http://www.w3.org/2000/svg">
<metadata></metadata>
<defs>
<font id="gt_walsheimbold" horiz-adv-x="1355" >
<font-face units-per-em="2048" ascent="1536" descent="-512" />
<missing-glyph horiz-adv-x="536" />
<glyph unicode="IJ" horiz-adv-x="1948" d="M148 0v1549h363v-1549h-363zM686 536h358q0 -115 51 -190.5t155 -75.5q103 0 156.5 69.5t53.5 194.5v1015h358v-1015q0 -277 -150.5 -424.5t-417.5 -147.5q-140 0 -246.5 44.5t-177 121.5t-105.5 181.5t-35 226.5z" />
<glyph unicode="ij" horiz-adv-x="1239" d="M95 1420q0 91 62 152.5t155 61.5q47 0 86.5 -16t69.5 -45t46.5 -69t16.5 -84t-16.5 -83t-46.5 -68.5t-69.5 -46.5t-86.5 -17q-46 0 -85 17t-68.5 46.5t-46.5 68.5t-17 83zM144 0v1066h338v-1066h-338zM584 -230q32 -9 49 -11t38 -2q44 0 65.5 24.5t21.5 81.5v1203h339 v-1232q0 -104 -23 -171.5t-62 -105t-91 -52t-109 -14.5q-64 0 -130.5 7.5t-97.5 19.5v252zM710 1420q0 91 62 152.5t155 61.5q46 0 86 -16t69.5 -45t46.5 -69t17 -84t-17 -83t-46.5 -68.5t-69.5 -46.5t-86 -17q-47 0 -86 17t-68.5 46.5t-46 68.5t-16.5 83z" />
<glyph unicode="&#xfb00;" horiz-adv-x="1682" d="M36 814v252h192v93q0 146 39 228t98 124t130 51.5t136 9.5q59 0 105.5 -8.5t77.5 -19.5v-244q-27 7 -50 10.5t-54 3.5q-30 0 -55.5 -3.5t-45.5 -17.5t-32.5 -40.5t-12.5 -73.5v-113h250v-252h-248v-814h-338v814h-192zM878 814v252h190v93q0 146 39 228t98.5 124 t130.5 51.5t135 9.5q62 0 108 -8.5t76 -19.5v-244q-27 7 -50.5 10.5t-53.5 3.5q-27 0 -53.5 -3.5t-46.5 -17.5t-32 -40.5t-12 -73.5v-113h248v-252h-248v-814h-339v814h-190z" />
<glyph unicode="&#xfb01;" horiz-adv-x="1543" d="M36 814v252h190v93q0 146 38.5 228t98 124t130.5 51.5t136 9.5q61 0 107.5 -8.5t75.5 -19.5v-244q-27 7 -50 10.5t-55 3.5q-27 0 -52.5 -3.5t-45.5 -17.5t-32.5 -40.5t-12.5 -73.5v-113h248v-252h-248v-814h-338v814h-190zM980 1418q0 89 61 149.5t149 60.5 q91 0 151.5 -60.5t60.5 -149.5q0 -44 -16.5 -82t-45.5 -65.5t-67.5 -44t-82.5 -16.5t-83 16.5t-66.5 44t-44 65.5t-16.5 82zM1022 0v1066h339v-1066h-339z" />
<glyph unicode="&#xfb02;" horiz-adv-x="1463" d="M36 814v252h190v93q0 146 38.5 228t98 124t130.5 51.5t136 9.5q61 0 107.5 -8.5t75.5 -19.5v-244q-27 7 -50 10.5t-55 3.5q-27 0 -52.5 -3.5t-45.5 -17.5t-32.5 -40.5t-12.5 -73.5v-113h248v-252h-248v-814h-338v814h-190zM982 0v1549h339v-1549h-339z" />
<glyph unicode="&#xfb03;" horiz-adv-x="2387" d="M36 814v252h192v93q0 146 39 228t98 124t130 51.5t136 9.5q59 0 105.5 -8.5t77.5 -19.5v-244q-27 7 -50 10.5t-54 3.5q-30 0 -55.5 -3.5t-45.5 -17.5t-32.5 -40.5t-12.5 -73.5v-113h250v-252h-248v-814h-338v814h-192zM878 814v252h190v93q0 146 39 228t98.5 124 t130.5 51.5t135 9.5q62 0 108 -8.5t76 -19.5v-244q-27 7 -50.5 10.5t-53.5 3.5q-27 0 -53.5 -3.5t-46.5 -17.5t-32 -40.5t-12 -73.5v-113h248v-252h-248v-814h-339v814h-190zM1818 1420q0 91 62 152.5t155 61.5t155 -61.5t62 -152.5q0 -44 -17 -83t-46.5 -68.5t-68.5 -46.5 t-85 -17q-47 0 -85.5 17t-68.5 46.5t-46.5 68.5t-16.5 83zM1867 0v1066h338v-1066h-338z" />
<glyph unicode="&#xfb04;" horiz-adv-x="2301" d="M36 814v252h192v93q0 146 39 228t98 124t130 51.5t136 9.5q59 0 105.5 -8.5t77.5 -19.5v-244q-27 7 -50 10.5t-54 3.5q-30 0 -55.5 -3.5t-45.5 -17.5t-32.5 -40.5t-12.5 -73.5v-113h250v-252h-248v-814h-338v814h-192zM878 814v252h190v93q0 146 39 228t98.5 124 t130.5 51.5t135 9.5q62 0 108 -8.5t76 -19.5v-244q-27 7 -50.5 10.5t-53.5 3.5q-27 0 -53.5 -3.5t-46.5 -17.5t-32 -40.5t-12 -73.5v-113h248v-252h-248v-814h-339v814h-190zM1827 0v1549h338v-1549h-338z" />
<glyph horiz-adv-x="0" />
<glyph unicode="&#xd;" horiz-adv-x="552" />
<glyph unicode=" "  horiz-adv-x="536" />
<glyph unicode="&#x09;" horiz-adv-x="536" />
<glyph unicode="&#xa0;" horiz-adv-x="536" />
<glyph unicode="!" horiz-adv-x="747" d="M144 192q0 47 17.5 88t48.5 71.5t72 48.5t90 18q48 0 90 -18t74 -48.5t50 -71.5t18 -88q0 -46 -18 -87t-50 -73t-74 -50t-90 -18q-49 0 -90 18t-72 50t-48.5 73t-17.5 87zM192 536v1013h363v-1013h-363z" />
<glyph unicode="&#x22;" horiz-adv-x="924" d="M108 1296v276h283v-276l-70 -340h-142zM531 1296v276h285v-276l-73 -340h-139z" />
<glyph unicode="#" horiz-adv-x="1304" d="M57 399v238h224l38 275h-195v238h228l55 399h247l-55 -399h228l55 399h246l-56 -399h178v-238h-210l-38 -275h182v-238h-215l-55 -399h-247l54 399h-225l-58 -399h-246l55 399h-190zM528 637h228l38 275h-228z" />
<glyph unicode="$" horiz-adv-x="1340" d="M141 513h359q0 -126 68.5 -197t178.5 -71q87 0 145.5 50t58.5 132q0 46 -18.5 78.5t-51 56.5t-76.5 43t-95 39q-106 40 -202.5 80t-167 96t-112.5 135.5t-42 196.5q0 93 35.5 168t95 129.5t140.5 87.5t172 44v237h196v-237q115 -13 201 -58.5t143 -110.5t84.5 -146.5 t27.5 -170.5h-359q0 104 -49.5 164t-142.5 60q-78 0 -133 -40t-55 -120q0 -78 60.5 -123t161.5 -80q95 -34 192 -72.5t174 -95t127 -137.5t50 -195q0 -106 -35 -192.5t-98.5 -148.5t-152 -99.5t-196.5 -48.5v-237h-196v237q-106 12 -196.5 54.5t-154 112t-100.5 165 t-37 214.5z" />
<glyph unicode="%" horiz-adv-x="2111" d="M159 984v276q0 62 23 118.5t67.5 99t108.5 66.5t144 24t142.5 -24t107 -66.5t69 -98.5t24.5 -119v-276q0 -62 -24.5 -118t-69 -98t-107 -66.5t-142.5 -24.5t-144 24.5t-108.5 66.5t-67.5 98t-23 118zM396 984q0 -47 29 -81t77 -34q49 0 77.5 34t28.5 81v276 q0 47 -28.5 81.5t-77.5 34.5q-48 0 -77 -34.5t-29 -81.5v-276zM485 0l882 1668l235 -117l-885 -1669zM1265 287v277q0 61 23 118t67.5 99t108.5 66.5t144 24.5t142.5 -24.5t107 -66.5t68.5 -98.5t24 -118.5v-277q0 -61 -24 -118t-68.5 -98.5t-107 -65.5t-142.5 -24t-144 24 t-108.5 65.5t-67.5 98.5t-23 118zM1502 287q0 -46 29 -80t77 -34q49 0 77.5 34t28.5 80v277q0 46 -28.5 80.5t-77.5 34.5q-48 0 -77 -34.5t-29 -80.5v-277z" />
<glyph unicode="&#x26;" horiz-adv-x="1399" d="M89 445q0 68 20 124.5t55 101t80 77.5t98 57q-95 42 -162.5 124t-67.5 219q0 108 44.5 190t120 136t171.5 80.5t202 26.5q144 0 248 -40.5t170.5 -108t98.5 -157t32 -189.5h-359q0 102 -42 163.5t-152 61.5q-78 0 -128.5 -41.5t-50.5 -130.5q0 -40 11 -75.5t36.5 -61 t67.5 -39.5t106 -14v-276q-133 0 -187 -60t-54 -159q0 -38 15 -75t43.5 -64.5t70 -43.5t95.5 -16q90 0 157 66t69 190h-131v278h585v-278h-101q-3 -122 -43 -222.5t-116 -171.5t-184.5 -110.5t-247.5 -39.5q-106 0 -207.5 31t-182.5 90.5t-130.5 149t-49.5 207.5z" />
<glyph unicode="'" horiz-adv-x="494" d="M106 1296v276h283v-276l-70 -340h-142z" />
<glyph unicode="(" horiz-adv-x="882" d="M168 99v1005q0 124 44.5 235t126 194.5t198.5 132t263 48.5v-305q-66 0 -118.5 -24t-89.5 -66t-57 -98t-20 -117v-1005q0 -61 20 -116.5t57 -97.5t89.5 -66t118.5 -24v-306q-146 0 -263 48.5t-198.5 132t-126 194.5t-44.5 235z" />
<glyph unicode=")" horiz-adv-x="882" d="M80 -205q66 0 120.5 24t90.5 66t56 97.5t20 116.5v1005q0 61 -20 117t-56 98t-90.5 66t-120.5 24v305q146 0 264 -48.5t200 -132t126.5 -194.5t44.5 -235v-1005q0 -124 -44.5 -235t-126.5 -194.5t-200 -132t-264 -48.5v306z" />
<glyph unicode="*" horiz-adv-x="1030" d="M89 1205l61 184l291 -117l-25 313h201l-24 -313l287 117l62 -184l-296 -77l213 -261l-167 -117l-177 290l-177 -290l-165 117l211 261z" />
<glyph unicode="+" d="M205 494v272h329v336h289v-336h327v-272h-327v-337h-289v337h-329z" />
<glyph unicode="," horiz-adv-x="682" d="M102 199q0 46 17.5 87t47.5 71t69.5 47.5t86.5 17.5q112 0 180.5 -78t68.5 -205q0 -126 -30.5 -213.5t-90.5 -142.5t-145 -79.5t-194 -24.5v137q72 0 120.5 17t81.5 41q32 27 47 58.5t19 65.5q-4 -4 -22 -10.5t-35 -6.5q-102 0 -161.5 63.5t-59.5 154.5z" />
<glyph unicode="-" horiz-adv-x="700" d="M71 522v270h560v-270h-560z" />
<glyph unicode="." horiz-adv-x="667" d="M110 201q0 46 18 86t47.5 70t70.5 47.5t88 17.5q46 0 87 -17.5t71 -47.5t47.5 -70t17.5 -86q0 -47 -17.5 -86t-47.5 -69.5t-71 -47.5t-87 -17q-47 0 -88 17t-70.5 47.5t-47.5 69.5t-18 86z" />
<glyph unicode="/" horiz-adv-x="1085" d="M17 -42l777 1805l274 -117l-776 -1805z" />
<glyph unicode="0" horiz-adv-x="1361" d="M91 519v509q0 112 41 212t117 176.5t185.5 120.5t244.5 44t244 -44t187 -120.5t120 -175.5t42 -213v-509q0 -112 -42 -211.5t-120 -176t-187 -120.5t-244 -44t-244.5 44t-185.5 120.5t-117 176t-41 211.5zM449 519q0 -50 15.5 -95.5t45.5 -79.5t73 -54t96 -20t97.5 20 t74 54t46.5 79.5t17 95.5v509q0 51 -17 96.5t-46.5 80t-74 54.5t-97.5 20t-96 -20t-73 -54.5t-45.5 -80t-15.5 -96.5v-509z" />
<glyph unicode="1" horiz-adv-x="895" d="M64 1024v253q112 0 184.5 16t112.5 49.5t55 84t15 122.5h316v-1549h-365v1024h-318z" />
<glyph unicode="2" horiz-adv-x="1275" d="M99 0q0 188 30 316.5t85.5 216.5t129.5 150t165 117q68 40 126.5 77t103 74t70 82.5t25.5 103.5q0 93 -51 133.5t-126 40.5q-85 0 -141 -52t-56 -173h-356q0 106 36.5 197t107.5 157.5t172.5 103.5t233.5 37q106 0 203 -27.5t169.5 -83.5t116 -146t43.5 -212 q0 -97 -42 -176.5t-103 -141.5t-132 -109.5t-128 -80.5q-80 -53 -132 -92t-82.5 -72t-43 -68.5t-12.5 -82.5h663v-289h-1075z" />
<glyph unicode="3" horiz-adv-x="1328" d="M71 519h358q0 -126 64 -195t168 -69q99 0 152.5 61.5t53.5 141.5q0 97 -50.5 156t-177.5 59h-139v276h139q120 0 163 53t43 137q0 89 -50 130.5t-128 41.5q-114 0 -155 -61.5t-41 -163.5h-359q0 100 32.5 189.5t99 157t169 108t246.5 40.5q106 0 204.5 -26.5t172.5 -80.5 t118.5 -136t44.5 -190q0 -131 -67.5 -221.5t-160.5 -121.5q53 -20 98.5 -53t80 -79.5t54.5 -107.5t20 -134q0 -110 -45.5 -196.5t-123.5 -146t-178 -90.5t-212 -31q-143 0 -253.5 39.5t-187 112.5t-115 175t-38.5 225z" />
<glyph unicode="4" horiz-adv-x="1351" d="M126 427v1122h359v-819h260v427h357v-427h188v-303h-188v-427h-357v427h-619z" />
<glyph unicode="5" horiz-adv-x="1404" d="M118 526h346q0 -108 65.5 -185t177.5 -77q58 0 103.5 21t77.5 57t50 84.5t18 104.5q0 53 -17 100.5t-48.5 84t-77 57.5t-103.5 21q-80 0 -134 -35t-89 -107h-335v897h1047v-279h-717v-346q21 36 57 62.5t79 44.5t88.5 26.5t89.5 8.5q128 0 223.5 -45.5t158.5 -120.5 t93.5 -171t30.5 -198q0 -114 -41 -217t-117 -180t-186.5 -122t-250.5 -45q-137 0 -246 45t-185.5 122t-117 178.5t-40.5 213.5z" />
<glyph unicode="6" horiz-adv-x="1326" d="M68 531q0 89 26 169.5t70 150.5l446 698h403l-310 -465q47 -6 93 -25q106 -12 190 -58.5t144 -118.5t91 -161.5t31 -189.5q0 -114 -41 -216t-117.5 -179t-186 -122t-248.5 -45q-137 0 -246.5 45t-186 122t-117.5 178.5t-41 216.5zM416 531q0 -108 65 -185.5t178 -77.5 q55 0 102 21t79 56t49.5 83.5t17.5 102.5q0 55 -17.5 102.5t-49.5 83t-78.5 56.5t-102.5 21q-113 0 -178 -76t-65 -187z" />
<glyph unicode="7" horiz-adv-x="1173" d="M78 1247v302h1112l-659 -1549h-383l538 1247h-608z" />
<glyph unicode="8" horiz-adv-x="1361" d="M99 443q0 61 19 119.5t52 108.5t78.5 85.5t101.5 51.5q-99 38 -155 130t-56 199q0 91 37 171.5t106.5 141.5t170 96t231.5 35q128 0 228.5 -35t170 -96t106.5 -141.5t37 -171.5q0 -106 -55.5 -199t-155.5 -130q55 -17 100.5 -54t79 -86t51 -107.5t17.5 -119.5 q0 -95 -38.5 -180.5t-112.5 -151t-181.5 -104t-246.5 -38.5q-140 0 -248.5 37.5t-182.5 102t-114 151.5t-40 185zM447 449q0 -42 16.5 -81t46.5 -67.5t74.5 -46t99.5 -17.5t98 17.5t73 47.5t46.5 67.5t16.5 79.5t-15.5 80.5t-45.5 69t-74 47.5t-99 17q-115 0 -176 -63.5 t-61 -150.5zM477 1119q0 -78 53.5 -135t153.5 -57q95 0 148 57.5t53 134.5q0 78 -53 135t-148 57q-100 0 -153.5 -57t-53.5 -135z" />
<glyph unicode="9" horiz-adv-x="1326" d="M76 1017q0 115 39 217t116 178t187 121.5t249 45.5q138 0 247.5 -45.5t186 -121.5t117 -177.5t40.5 -217.5q0 -90 -25.5 -170.5t-69.5 -149.5l-446 -697h-403l310 462q-128 7 -230 52t-173 119t-108 173t-37 211zM420 1017q0 -55 18 -102.5t49.5 -83t77 -56.5t102.5 -21 q113 0 179 76.5t66 186.5q0 108 -66 186t-179 78q-57 0 -102.5 -21t-77 -57t-49.5 -84.5t-18 -101.5z" />
<glyph unicode=":" horiz-adv-x="669" d="M110 201q0 46 18 86t47.5 70t70.5 47.5t88 17.5q46 0 88 -17.5t72 -47.5t47.5 -70t17.5 -86q0 -47 -17.5 -86t-47.5 -69.5t-72 -47.5t-88 -17q-47 0 -88 17t-70.5 47.5t-47.5 69.5t-18 86zM110 912q0 46 18 86t47.5 69.5t70.5 47.5t88 18q46 0 87 -18t71 -47.5 t47.5 -69.5t17.5 -86q0 -47 -17.5 -87t-47.5 -69.5t-71 -47.5t-87 -18q-47 0 -88 18t-70.5 47.5t-47.5 69.5t-18 87z" />
<glyph unicode=";" horiz-adv-x="682" d="M110 199q0 46 17 87t46.5 71t69.5 47.5t86 17.5q113 0 183 -78t70 -205q0 -126 -31.5 -213.5t-90.5 -142.5t-144.5 -79.5t-193.5 -24.5v137q71 0 119 17t82 41q31 27 46 58.5t20 65.5q-5 -4 -22 -10.5t-38 -6.5q-101 0 -160 63.5t-59 154.5zM110 912q0 46 18 86 t47.5 69.5t70.5 47.5t88 18q46 0 87 -18t71 -47.5t47.5 -69.5t17.5 -86q0 -47 -17.5 -87t-47.5 -69.5t-71 -47.5t-87 -18q-47 0 -88 18t-70.5 47.5t-47.5 69.5t-18 87z" />
<glyph unicode="&#x3c;" d="M91 496v265l1161 391v-305l-716 -218l716 -220v-307z" />
<glyph unicode="=" d="M205 292v270h945v-270h-945zM205 692v270h945v-270h-945z" />
<glyph unicode="&#x3e;" d="M106 102v307l715 220l-715 218v305l1159 -391v-265z" />
<glyph unicode="?" horiz-adv-x="1198" d="M42 1086q0 106 35 197t105 157.5t172 103.5t232 37q106 0 203.5 -27.5t170 -82.5t117 -137t44.5 -190q0 -85 -25.5 -148t-62.5 -109.5t-78 -78t-70 -56.5q-43 -34 -69.5 -60.5t-43 -55t-23 -64.5t-6.5 -90h-354q0 71 9 128t30 106.5t58.5 91t97.5 81.5q32 21 64.5 46 t60.5 56t45.5 68.5t17.5 84.5q0 86 -53.5 126.5t-132.5 40.5q-77 0 -133.5 -52t-56.5 -173h-354zM336 192q0 47 18 88t48.5 71.5t72.5 48.5t91 18t91 -18t73 -48.5t48.5 -71.5t17.5 -88q0 -46 -17.5 -87t-48.5 -73t-73 -50t-91 -18t-91 18t-72.5 50t-48.5 73t-18 87z" />
<glyph unicode="@" horiz-adv-x="1925" d="M44 496q0 215 77.5 386t209 291.5t305.5 184.5t366 64q199 0 368 -55.5t291 -159t190.5 -253t68.5 -337.5q0 -177 -32.5 -301t-89.5 -201t-138 -112.5t-178 -35.5q-129 0 -211.5 65t-115.5 162q-16 -29 -43.5 -55.5t-63 -46t-76.5 -31.5t-83 -12q-95 0 -173.5 34.5 t-136 95t-89.5 142.5t-32 175q0 95 33 176.5t90.5 142.5t136 95t171.5 34q42 0 83 -11t76.5 -31t63 -46.5t43.5 -55.5v124h257v-521q0 -112 27.5 -161.5t86.5 -49.5q29 0 54.5 20t44.5 68.5t29.5 132t10.5 211.5q0 133 -48.5 238t-136 177.5t-210 112.5t-268.5 40 t-273 -46.5t-223.5 -136t-152 -219t-55.5 -294.5q0 -133 45.5 -258.5t137 -223.5t231 -156.5t328.5 -58.5q86 0 206.5 21t237.5 83l95 -197q-71 -40 -143.5 -66.5t-144 -41t-135 -21t-116.5 -6.5q-245 0 -431.5 77.5t-311 206t-189 295t-64.5 346.5zM728 496 q0 -93 57 -160.5t152 -67.5q49 0 90 17.5t69.5 49.5t44.5 73t16 88q0 95 -59.5 162.5t-160.5 67.5q-95 0 -152 -67.5t-57 -162.5z" />
<glyph unicode="A" horiz-adv-x="1459" d="M9 0l553 1549h329l559 -1549h-388l-60 188h-551l-60 -188h-382zM538 469h376l-186 637z" />
<glyph unicode="B" horiz-adv-x="1399" d="M139 0v1549h642q159 0 257.5 -43.5t152.5 -106.5t73 -136t19 -132q0 -74 -24.5 -132.5t-64 -103t-87.5 -72t-94 -38.5q38 0 86.5 -23t93 -66.5t74 -110t29.5 -152.5q0 -59 -20 -134t-75 -141.5t-154.5 -112t-259.5 -45.5h-648zM496 274h223q66 0 107 18t65.5 45.5 t33 60.5t8.5 66q0 27 -8.5 60t-32 62t-65.5 48.5t-106 19.5h-225v-380zM496 918h214q65 0 107 18t66 45.5t32.5 60.5t8.5 62q0 27 -7.5 57.5t-30.5 58t-65 46.5t-111 19h-214v-367z" />
<glyph unicode="C" horiz-adv-x="1742" d="M71 777q0 158 55 304.5t160 259.5t255.5 180t340.5 67q180 0 320 -51t238.5 -137t156.5 -203.5t75 -249.5h-374q-13 68 -45.5 126t-82 100.5t-117 67t-148.5 24.5q-112 0 -200 -40.5t-147.5 -108t-91 -156t-31.5 -183.5q0 -102 32.5 -191.5t95.5 -157t152.5 -106.5 t206.5 -39q66 0 126 21t109.5 58t85.5 86.5t51 106.5h380q-22 -124 -85 -232t-162.5 -189t-232 -127.5t-291.5 -46.5q-197 0 -350.5 66.5t-261 178t-164 259.5t-56.5 313z" />
<glyph unicode="D" horiz-adv-x="1591" d="M148 0v1549h569q192 0 341 -65.5t252.5 -174t157.5 -248t54 -287.5t-53 -287t-156 -247.5t-253.5 -174t-342.5 -65.5h-569zM507 310h192q108 0 193 38.5t144 103.5t90 148.5t31 173.5q0 89 -31 172.5t-90 149t-143.5 104.5t-193.5 39h-192v-929z" />
<glyph unicode="E" horiz-adv-x="1226" d="M148 0v1549h945v-289h-586v-351h586v-280h-586v-342h586v-287h-945z" />
<glyph unicode="F" horiz-adv-x="1216" d="M148 0v1549h945v-302h-586v-418h586v-293h-586v-536h-359z" />
<glyph unicode="G" horiz-adv-x="1846" d="M71 774q0 159 55 306.5t160 260.5t255.5 180t340.5 67q153 0 280.5 -43t220 -117.5t147.5 -172.5t67 -208h-383q-9 46 -35.5 88t-69.5 74t-100.5 51t-128.5 19q-110 0 -192 -42.5t-138 -113t-84 -162.5t-28 -189q0 -103 29 -195t87 -162t148 -110.5t210 -40.5 q82 0 145.5 23t110 62.5t75.5 92t38 109.5h-274v268h802v-268h-159q-25 -133 -84 -241.5t-157 -186t-229 -120.5t-298 -43q-194 0 -346 66.5t-254.5 178t-156.5 258.5t-54 311z" />
<glyph unicode="H" horiz-adv-x="1545" d="M148 0v1549h359v-627h535v627h356v-1549h-356v615h-535v-615h-359z" />
<glyph unicode="I" horiz-adv-x="658" d="M148 0v1549h363v-1549h-363z" />
<glyph unicode="J" horiz-adv-x="1288" d="M27 536h357q0 -115 51.5 -190.5t155.5 -75.5q103 0 156 69.5t53 194.5v1015h357v-1015q0 -277 -149 -424.5t-417 -147.5q-140 0 -246 44.5t-177 121.5t-106 181.5t-35 226.5z" />
<glyph unicode="K" horiz-adv-x="1456" d="M148 0v1549h359v-658l500 658h430l-612 -775l612 -774h-430l-500 654v-654h-359z" />
<glyph unicode="L" horiz-adv-x="1001" d="M148 0v1549h359v-1239h440v-310h-799z" />
<glyph unicode="M" horiz-adv-x="1939" d="M148 0v1549h414l413 -1078l410 1078h407v-1549h-350v960l-334 -960h-266l-344 960v-960h-350z" />
<glyph unicode="N" horiz-adv-x="1585" d="M148 0v1549h374l559 -1009v1009h356v-1549h-373l-557 996v-996h-359z" />
<glyph unicode="O" horiz-adv-x="1779" d="M71 774q0 159 55 306.5t161.5 260.5t259 180t344.5 67t344 -67t258 -180t161.5 -260.5t55.5 -306.5q0 -158 -55.5 -305.5t-161.5 -260.5t-258 -180.5t-344 -67.5t-344.5 67.5t-259 180.5t-161.5 260t-55 306zM438 774q0 -95 31 -183.5t89.5 -157t142.5 -109.5t190 -41 t190 41t143 109.5t90 157t31 183.5t-31 184t-90 157.5t-142.5 109t-190.5 40.5q-106 0 -190 -40.5t-142.5 -109t-89.5 -157.5t-31 -184z" />
<glyph unicode="P" horiz-adv-x="1404" d="M148 0v1549h648q128 0 232.5 -45.5t178.5 -122t114 -178t40 -215.5q0 -112 -40 -213.5t-114 -178.5t-178.5 -122t-232.5 -45h-289v-429h-359zM507 721h245q55 0 102 22.5t78.5 58.5t49.5 84.5t18 101.5t-18 102t-49.5 85.5t-78 58.5t-102.5 22h-245v-535z" />
<glyph unicode="Q" horiz-adv-x="1779" d="M71 774q0 159 55 306.5t161.5 260.5t259 180t344.5 67t344 -67t258 -180t161.5 -260.5t55.5 -306.5q0 -117 -31 -226.5t-88.5 -206t-141.5 -172.5t-193 -123l133 -179l-314 -159l-186 252q-192 0 -345 67.5t-258 180.5t-160 260t-55 306zM438 774q0 -95 31 -183.5 t89.5 -157t142.5 -109.5t190 -41t190 41t143 109.5t90 157t31 183.5t-31 184t-90 157.5t-142.5 109t-190.5 40.5q-106 0 -190 -40.5t-142.5 -109t-89.5 -157.5t-31 -184z" />
<glyph unicode="R" horiz-adv-x="1446" d="M148 0v1549h650q129 0 233 -45.5t178 -122t114 -178t40 -215.5q0 -164 -81 -297.5t-227 -201.5l310 -489h-416l-274 429h-168v-429h-359zM507 721h245q55 0 102 22.5t78.5 58.5t49.5 84.5t18 101.5t-18 102t-49.5 85.5t-78 58.5t-102.5 22h-245v-535z" />
<glyph unicode="S" horiz-adv-x="1340" d="M84 513h359q0 -126 68.5 -197t178.5 -71q87 0 145 50t58 132q0 46 -18.5 78.5t-50.5 56.5t-76.5 43t-95.5 39q-106 40 -202 80t-166.5 96t-112.5 135.5t-42 196.5q0 106 45 188t120 137.5t173.5 83t205.5 27.5q137 0 240.5 -39.5t172.5 -108t103.5 -157.5t34.5 -188h-359 q0 104 -49.5 164t-142.5 60q-78 0 -133 -40t-55 -120q0 -78 60.5 -123t159.5 -80q95 -34 193 -72.5t175 -95t127 -137.5t50 -195q0 -120 -43.5 -213t-120.5 -155.5t-183.5 -95t-235.5 -32.5q-124 0 -231 36.5t-185 107.5t-122.5 173.5t-44.5 235.5z" />
<glyph unicode="T" horiz-adv-x="1125" d="M33 1239v310h1060v-310h-352v-1239h-359v1239h-349z" />
<glyph unicode="U" horiz-adv-x="1452" d="M124 528v1021h358v-1018q0 -53 17.5 -101t50 -83t77 -56t99.5 -21t100.5 21t77 56t49.5 82.5t18 101.5v1018h358v-1021q0 -120 -42 -223.5t-120 -179.5t-190 -120.5t-251 -44.5q-140 0 -250.5 44.5t-189 120.5t-120.5 180t-42 223z" />
<glyph unicode="V" horiz-adv-x="1423" d="M-9 1549h383l336 -1093l334 1093h389l-559 -1549h-330z" />
<glyph unicode="W" horiz-adv-x="2288" d="M-2 1549h378l316 -1015l315 1015h276l316 -1015l315 1015h378l-547 -1549h-291l-308 973l-308 -973h-294z" />
<glyph unicode="X" horiz-adv-x="1346" d="M9 0l460 774l-460 775h394l270 -500l269 500h396l-460 -775l460 -774h-396l-269 498l-270 -498h-394z" />
<glyph unicode="Y" horiz-adv-x="1431" d="M9 1549h418l329 -609l284 609h395l-768 -1549h-395l285 582z" />
<glyph unicode="Z" horiz-adv-x="1397" d="M38 0l756 1247h-695v302h1266l-759 -1248h734v-301h-1302z" />
<glyph unicode="[" horiz-adv-x="851" d="M148 -494v2208h571v-294h-232v-1621h232v-293h-571z" />
<glyph unicode="\" horiz-adv-x="1085" d="M17 1646l275 117l776 -1805l-274 -117z" />
<glyph unicode="]" horiz-adv-x="851" d="M133 -201h232v1619h-232v296h570v-2208h-570v293z" />
<glyph unicode="^" horiz-adv-x="1406" d="M93 663l513 996h192l516 -996h-330l-281 600l-287 -600h-323z" />
<glyph unicode="_" horiz-adv-x="1288" d="M49 -89h1194v-203h-1194v203z" />
<glyph unicode="`" horiz-adv-x="1134" d="M184 1395l105 235l612 -283l-107 -235z" />
<glyph unicode="a" horiz-adv-x="1404" d="M78 534q0 119 37 222t105.5 177t165 117t211.5 43q51 0 102 -14.5t94 -39t76.5 -57.5t52.5 -68v152h338v-1066h-338v150q-19 -38 -52.5 -69.5t-76.5 -55t-94 -38t-102 -14.5q-114 0 -211 43t-165.5 117.5t-105.5 177.5t-37 223zM414 534q0 -56 18.5 -106t51.5 -86 t79.5 -58.5t103.5 -22.5q58 0 105 22.5t80 58.5t51.5 85.5t18.5 106.5q0 55 -18.5 103.5t-51.5 86t-79.5 59.5t-105.5 22q-57 0 -103.5 -22t-79.5 -59.5t-51.5 -86t-18.5 -103.5z" />
<glyph unicode="b" horiz-adv-x="1408" d="M144 0v1549h338v-635q19 35 52.5 68t78 57.5t94 39t103.5 14.5q114 0 210.5 -43t165 -117t106 -177.5t37.5 -221.5q0 -120 -37.5 -223t-106 -177.5t-165 -117.5t-210.5 -43q-53 0 -103 14.5t-94.5 38t-77.5 55t-53 69.5v-150h-338zM482 534q0 -56 18.5 -106t52 -86 t81 -58.5t105.5 -22.5q55 0 101.5 22.5t80 58.5t52 85.5t18.5 106.5q0 55 -18.5 103.5t-52 86t-80 59.5t-101.5 22q-58 0 -105.5 -22t-81 -59.5t-52 -86t-18.5 -103.5z" />
<glyph unicode="c" horiz-adv-x="1271" d="M73 534q0 110 36.5 211.5t109.5 179t180.5 124t246.5 46.5q135 0 234.5 -37.5t167 -100t104 -143t45.5 -166.5h-338q-11 71 -59 115.5t-152 44.5q-59 0 -104.5 -22t-74 -60t-43.5 -87.5t-15 -104.5q0 -56 15 -106t44.5 -87.5t77 -59.5t113.5 -22q89 0 133 36.5t67 105.5 h338q-13 -91 -53 -170t-108.5 -136t-167 -90.5t-224.5 -33.5q-139 0 -246.5 46.5t-180.5 124t-109.5 179t-36.5 213.5z" />
<glyph unicode="d" horiz-adv-x="1404" d="M78 534q0 119 37 222t105.5 177t165 117t211.5 43q51 0 102 -14.5t94 -39t76.5 -57.5t52.5 -68v635h338v-1549h-338v150q-19 -38 -52.5 -69.5t-76.5 -55t-94 -38t-102 -14.5q-114 0 -211 43t-165.5 117.5t-105.5 177.5t-37 223zM414 534q0 -56 18.5 -106t51.5 -86 t79.5 -58.5t103.5 -22.5q58 0 105 22.5t80 58.5t51.5 85.5t18.5 106.5q0 55 -18.5 103.5t-51.5 86t-79.5 59.5t-105.5 22q-57 0 -103.5 -22t-79.5 -59.5t-51.5 -86t-18.5 -103.5z" />
<glyph unicode="e" horiz-adv-x="1275" d="M76 534q0 117 36 218.5t108 178t177 120.5t245 44q126 0 226.5 -40t172 -106.5t110.5 -155t39 -185.5q0 -33 -1 -70.5t-10 -86.5h-768q3 -48 15 -91.5t40 -75.5t72 -50.5t110 -18.5q89 0 134 35t63 86h332q-11 -76 -52 -141.5t-108.5 -115.5t-159 -79t-207.5 -29 q-139 0 -246.5 41t-180.5 116t-110 178t-37 228zM411 646h448q0 104 -61 163.5t-159 59.5q-99 0 -163.5 -57.5t-64.5 -165.5z" />
<glyph unicode="f" horiz-adv-x="840" d="M36 814v252h192v93q0 146 39 228t98 124t130 51.5t136 9.5q59 0 105.5 -8.5t77.5 -19.5v-244q-27 7 -50 10.5t-54 3.5q-30 0 -55.5 -3.5t-45.5 -17.5t-32.5 -40.5t-12.5 -73.5v-113h250v-252h-248v-814h-338v814h-192z" />
<glyph unicode="g" horiz-adv-x="1399" d="M78 534q0 119 36 222t104.5 177t163.5 117t213 43q102 0 193.5 -47.5t135.5 -131.5v152h339v-1060q0 -145 -42 -241.5t-126 -160.5q-75 -58 -179 -86.5t-253 -28.5q-150 0 -250.5 33t-167.5 91q-71 60 -110.5 138t-43.5 167h338q6 -68 65 -123.5t169 -55.5 q120 0 190.5 57.5t70.5 184.5v178q-44 -74 -132.5 -119.5t-192.5 -45.5q-114 0 -210.5 39.5t-165.5 111.5t-107 170.5t-38 218.5zM416 534q0 -56 17.5 -106t50.5 -86t79.5 -58.5t103.5 -22.5q58 0 106 22.5t81 58.5t51.5 85.5t18.5 106.5q0 55 -18.5 103.5t-51.5 86 t-81 59.5t-106 22q-57 0 -103.5 -22t-79.5 -59.5t-50.5 -86t-17.5 -103.5z" />
<glyph unicode="h" horiz-adv-x="1319" d="M144 0v1549h327v-637q44 84 132.5 132.5t212.5 48.5q104 0 175 -32.5t115 -89.5q51 -62 68.5 -144t17.5 -196v-631h-327v546q0 115 -41 187t-147 72q-104 0 -155 -73t-51 -196v-536h-327z" />
<glyph unicode="i" horiz-adv-x="625" d="M95 1420q0 91 62 152.5t155 61.5q47 0 86.5 -16t69.5 -45t46.5 -69t16.5 -84t-16.5 -83t-46.5 -68.5t-69.5 -46.5t-86.5 -17q-46 0 -85 17t-68.5 46.5t-46.5 68.5t-17 83zM144 0v1066h338v-1066h-338z" />
<glyph unicode="j" horiz-adv-x="625" d="M-31 -224q31 -4 49 -5t37 -1q89 0 89 108v1188h338v-1232q0 -104 -24.5 -171.5t-65 -105t-95 -52t-116.5 -14.5q-59 0 -120 7.5t-92 19.5v258zM95 1420q0 91 62 152.5t155 61.5q47 0 86.5 -16t69.5 -45t46.5 -69t16.5 -84t-16.5 -83t-46.5 -68.5t-69.5 -46.5t-86.5 -17 q-46 0 -85 17t-68.5 46.5t-46.5 68.5t-17 83z" />
<glyph unicode="k" horiz-adv-x="1224" d="M144 0v1549h338v-934l330 451h402l-416 -532l414 -534h-402l-328 447v-447h-338z" />
<glyph unicode="l" horiz-adv-x="625" d="M144 0v1549h338v-1549h-338z" />
<glyph unicode="m" horiz-adv-x="1941" d="M144 0v1066h327v-154q36 75 115 128t193 53q139 0 214 -55.5t109 -136.5q42 84 128.5 138t204.5 54q115 0 188.5 -36.5t115.5 -98t56 -139.5t14 -162v-657h-325v575q0 108 -38.5 169t-124.5 61q-38 0 -71.5 -13t-58 -44t-37 -83.5t-12.5 -128.5v-536h-328v578 q0 108 -37.5 167.5t-122.5 59.5q-39 0 -72 -13t-57.5 -45t-39 -85.5t-14.5 -133.5v-528h-327z" />
<glyph unicode="n" horiz-adv-x="1342" d="M144 0v1066h338v-154q44 86 133.5 133.5t216.5 47.5q103 0 178.5 -32.5t120.5 -89.5q51 -62 67 -143t16 -195v-633h-338v546q0 115 -41 187t-147 72q-104 0 -155 -73t-51 -196v-536h-338z" />
<glyph unicode="o" horiz-adv-x="1324" d="M71 534q0 114 40.5 215.5t117.5 178t186 122t246 45.5q139 0 249 -45.5t186 -122t117 -178t41 -215.5q0 -115 -41 -217t-117 -178.5t-186 -122t-249 -45.5q-137 0 -246 45.5t-186 122t-117.5 178t-40.5 217.5zM409 534q0 -58 18 -107t51 -86.5t79.5 -58.5t103.5 -21 t105 21t81 58.5t52 86t19 107.5q0 55 -19 104.5t-52 86t-80.5 58.5t-105.5 22q-57 0 -103.5 -22t-79.5 -58.5t-51 -86t-18 -104.5z" />
<glyph unicode="p" horiz-adv-x="1408" d="M144 -482v1548h338v-152q19 35 52.5 68t78 57.5t94 39t103.5 14.5q114 0 210.5 -43t165 -117t106 -177.5t37.5 -221.5q0 -120 -37.5 -223t-106 -177.5t-165 -117.5t-210.5 -43q-53 0 -103 14.5t-94.5 39t-77.5 56t-53 69.5v-634h-338zM482 534q0 -56 18.5 -106t52 -86 t81 -58.5t105.5 -22.5q55 0 101.5 22.5t80 58.5t52 85.5t18.5 106.5q0 55 -18.5 104.5t-52 86t-80 58.5t-101.5 22q-58 0 -105.5 -22t-81 -58.5t-52 -86t-18.5 -104.5z" />
<glyph unicode="q" horiz-adv-x="1408" d="M80 534q0 119 37 222t106 177t165.5 117t210.5 43q51 0 102 -14.5t94 -39t77.5 -57.5t54.5 -68v152h336v-1548h-336v634q-20 -38 -54.5 -69.5t-77.5 -56t-94 -39t-102 -14.5q-114 0 -210.5 43t-165.5 117.5t-106 177.5t-37 223zM418 534q0 -56 18 -106t50.5 -86t79 -58.5 t105.5 -22.5q57 0 104.5 22.5t80.5 58.5t52 85.5t19 106.5q0 55 -19 104.5t-52 86t-80.5 58.5t-104.5 22q-58 0 -105 -22t-79.5 -58.5t-50.5 -86t-18 -104.5z" />
<glyph unicode="r" horiz-adv-x="922" d="M144 0v1066h338v-173q37 76 124.5 133.5t201.5 57.5q59 0 101 -18v-308q-35 9 -59.5 12.5t-60.5 3.5q-139 0 -223 -82t-84 -276v-416h-338z" />
<glyph unicode="s" horiz-adv-x="1127" d="M73 356h332q0 -84 47.5 -120.5t122.5 -36.5q61 0 100.5 23t39.5 76q0 31 -17 50t-51.5 36t-88.5 33t-129 41q-66 19 -126 42.5t-105.5 57t-72 84t-26.5 128.5q0 166 127.5 245.5t343.5 79.5q115 0 203 -27.5t144 -76.5t84.5 -115t28.5 -142h-333q0 66 -34 103t-106 37 q-50 0 -88 -23.5t-38 -71.5q0 -29 18 -48t52.5 -34.5t85 -31t116.5 -36.5q71 -20 132.5 -43.5t108.5 -57.5t75 -85.5t28 -128.5q0 -95 -38 -160t-104.5 -106.5t-154 -59t-186.5 -17.5q-228 0 -359.5 100t-131.5 285z" />
<glyph unicode="t" horiz-adv-x="846" d="M38 814v252h167v316h337v-316h243v-252h-243v-381q0 -59 11 -94.5t31 -54t46.5 -25.5t57.5 -7t64 1.5t58 5.5v-259q-38 -6 -94.5 -11.5t-131.5 -5.5q-59 0 -126 8.5t-123 45t-93 113t-37 209.5v455h-167z" />
<glyph unicode="u" horiz-adv-x="1342" d="M131 433v633h336v-547q0 -114 41 -186t146 -72q106 0 156.5 73t50.5 197v535h338v-1066h-338v152q-45 -84 -134.5 -131.5t-215.5 -47.5q-104 0 -179 32.5t-119 89.5q-51 62 -66.5 143t-15.5 195z" />
<glyph unicode="v" horiz-adv-x="1218" d="M-4 1066h354l258 -670l261 670h355l-483 -1066h-270z" />
<glyph unicode="w" horiz-adv-x="1775" d="M-2 1066h350l196 -635l188 635h312l188 -635l197 635h350l-399 -1066h-274l-217 679l-218 -679h-275z" />
<glyph unicode="x" horiz-adv-x="1136" d="M2 0l367 538l-360 528h392l167 -300l169 300h391l-358 -528l365 -538h-392l-175 310l-174 -310h-392z" />
<glyph unicode="y" horiz-adv-x="1359" d="M131 -82h338q4 -91 63 -138.5t143 -47.5q97 0 152 47.5t55 171.5v220q-44 -87 -131.5 -133.5t-208.5 -46.5q-106 0 -184.5 35.5t-123.5 93.5q-50 61 -66 137.5t-16 191.5v617h337v-547q0 -114 40.5 -186t147.5 -72q106 0 155.5 73t49.5 197v535h338v-1093 q0 -126 -39 -218.5t-109 -150.5q-71 -60 -166.5 -87.5t-234.5 -27.5q-131 0 -227 26.5t-168 83.5q-63 53 -104 132t-41 187z" />
<glyph unicode="z" horiz-adv-x="1061" d="M40 0l471 779h-443v287h964l-468 -779h453v-287h-977z" />
<glyph unicode="{" horiz-adv-x="1054" d="M133 443v298q31 0 65 8.5t61.5 29.5t46.5 55.5t19 83.5v443q0 86 27.5 152t76 110.5t114 67.5t141.5 23h223v-274h-93q-44 0 -73 -15.5t-46.5 -41t-24.5 -57.5t-7 -66v-415q0 -72 -25.5 -119t-59.5 -76t-71.5 -42t-61.5 -15q25 -4 62 -15.5t71 -41t59.5 -79.5t25.5 -130 v-369q0 -31 7 -63t24.5 -57.5t46.5 -42t73 -16.5h93v-273h-223q-76 0 -141.5 22.5t-114 67.5t-76 110.5t-27.5 152.5v396q0 53 -19 88t-46.5 57t-61.5 32.5t-65 10.5z" />
<glyph unicode="|" horiz-adv-x="633" d="M179 -494v2208h281v-2208h-281z" />
<glyph unicode="}" horiz-adv-x="1054" d="M148 -221h91q44 0 73.5 16.5t46.5 42t23.5 57.5t6.5 63v369q0 80 24.5 130t60 79.5t73 41t61.5 15.5q-25 2 -62 15t-72.5 42t-60 76.5t-24.5 118.5v415q0 34 -6.5 66t-23.5 57.5t-46.5 41t-73.5 15.5h-91v274h224q75 0 140.5 -23t114 -67.5t76 -111t27.5 -151.5v-443 q0 -49 18 -83.5t46.5 -55.5t62.5 -29.5t65 -8.5v-298q-31 0 -65 -10.5t-62.5 -32.5t-46.5 -57t-18 -88v-396q0 -87 -27.5 -152.5t-76 -110.5t-114 -67.5t-140.5 -22.5h-224v273z" />
<glyph unicode="~" horiz-adv-x="1242" d="M78 427v265q61 74 134 102.5t136 28.5q66 0 138.5 -21t148.5 -50q71 -27 141.5 -53t120.5 -26q83 0 150.5 38.5t115.5 82.5v-266q-59 -73 -132 -101t-138 -28q-71 0 -133.5 21t-126.5 51q-64 31 -137.5 54.5t-159.5 23.5q-76 0 -141.5 -39t-116.5 -83z" />
<glyph unicode="&#xa2;" horiz-adv-x="1340" d="M99 703q0 99 31.5 193.5t91 170t148 126t205.5 65.5v244h197v-244q108 -13 190 -54t137.5 -100.5t86 -134t38.5 -150.5h-339q-11 71 -58.5 114.5t-151.5 43.5q-59 0 -105 -22t-74.5 -59t-43 -87.5t-14.5 -105.5t14.5 -104.5t44 -87.5t77 -60t114.5 -22q89 0 133 37.5 t66 103.5h339q-11 -82 -45.5 -152t-91.5 -127t-136 -93t-181 -50v-241h-197v241q-118 15 -206 66.5t-147.5 126.5t-91 168t-31.5 194z" />
<glyph unicode="&#xa3;" horiz-adv-x="1388" d="M78 675v194h154v57.5t-1 70.5t-1 65.5v43.5q0 101 42 188.5t116 152t174.5 99.5t220.5 35q122 0 223.5 -38.5t174.5 -107t114 -163.5t41 -206h-359q0 93 -47.5 153t-152.5 60q-85 0 -136.5 -44.5t-51.5 -128.5v-39.5t1 -64t1 -72.5v-61h321v-194h-321q-2 -55 -4.5 -114 t-8.5 -103q-5 -59 -15 -103.5t-27 -65.5h696v-289h-1097v243q66 66 80 204q9 47 12 108.5t5 119.5h-154z" />
<glyph unicode="&#xa5;" horiz-adv-x="1393" d="M-51 1549h416l334 -609l329 609h416l-524 -872h257v-195h-305v-126h305v-194h-305v-162h-341v162h-301v194h301v126h-301v195h243z" />
<glyph unicode="&#xa7;" horiz-adv-x="1271" d="M84 580q0 128 59.5 213t185.5 129q-84 55 -128 133t-44 186q0 95 41 169t110.5 123.5t161.5 76.5t191 27q118 0 210.5 -34.5t158 -95.5t99.5 -142.5t34 -176.5h-302q0 99 -55.5 157.5t-146.5 58.5q-82 0 -140.5 -39.5t-58.5 -117.5q0 -77 62 -119t153 -73t183.5 -66 t169 -85t124 -122t47.5 -176q0 -66 -20 -124t-55 -103t-80.5 -75t-94.5 -40q85 -56 130.5 -134.5t45.5 -184.5q0 -95 -39 -171.5t-108 -129.5t-163 -82t-203 -29q-110 0 -204 33t-163.5 94t-108.5 147.5t-39 192.5h308q0 -104 59.5 -165t154.5 -61q84 0 143 42.5t59 119.5 q0 78 -64.5 120.5t-161.5 76.5q-93 31 -183.5 67.5t-163.5 87t-118.5 121.5t-45.5 171zM369 619q0 -55 29 -92.5t77 -66.5q49 -27 106.5 -46.5t115.5 -37.5q42 2 80.5 17.5t68.5 41t48 59.5t18 76q0 53 -23.5 86.5t-67.5 60.5q-44 25 -105.5 45.5t-135.5 45.5 q-40 -2 -79 -15.5t-67.5 -37t-46.5 -58t-18 -78.5z" />
<glyph unicode="&#xa8;" horiz-adv-x="1286" d="M179 1363q0 42 16 79.5t43.5 65t63.5 43t78 15.5t80 -15.5t66.5 -43t44 -65.5t15.5 -79q0 -40 -15.5 -76.5t-44 -64.5t-66.5 -43.5t-80 -15.5t-78 15.5t-63.5 43.5t-43.5 64.5t-16 76.5zM710 1363q0 42 15.5 79.5t43 65t64 43t81.5 15.5q42 0 79 -15.5t65 -43t43.5 -65.5 t15.5 -79q0 -82 -58.5 -141t-144.5 -59q-87 0 -145.5 59t-58.5 141z" />
<glyph unicode="&#xa9;" horiz-adv-x="1786" d="M73 774q0 159 55.5 306.5t161.5 260.5t258.5 180t344.5 67t345 -67t259.5 -180t161.5 -260.5t55 -306.5q0 -158 -55 -305.5t-161.5 -260.5t-259.5 -180.5t-345 -67.5t-344.5 67.5t-258.5 180.5t-161.5 260t-55.5 306zM292 774q0 -124 41 -237t118 -201.5t189 -140 t253 -51.5q142 0 253.5 51.5t189.5 140t118.5 201.5t40.5 237q0 122 -40.5 235.5t-118.5 202t-189.5 140.5t-253.5 52q-141 0 -253 -52t-189 -140.5t-118 -202.5t-41 -235zM458 777q0 86 29.5 164.5t86.5 138t137.5 96t183.5 36.5q98 0 172.5 -26.5t127 -73t83.5 -109.5 t41 -136h-209q-17 72 -69.5 118.5t-145.5 46.5q-55 0 -98 -20.5t-73 -57t-45.5 -83t-15.5 -94.5q0 -106 64.5 -183t179.5 -77q78 0 131 39t70 96h213q-13 -66 -47.5 -123.5t-87.5 -101t-124 -67.5t-155 -24q-106 0 -189 35.5t-142 96t-88.5 140.5t-29.5 169z" />
<glyph unicode="&#xab;" horiz-adv-x="1131" d="M82 555v177l471 383v-294l-228 -177l228 -177v-294zM568 555v177l472 383v-294l-228 -177l228 -177v-294z" />
<glyph unicode="&#xad;" horiz-adv-x="700" d="M71 522v270h560v-270h-560z" />
<glyph unicode="&#xae;" horiz-adv-x="1786" d="M73 774q0 159 55.5 306.5t161.5 260.5t258.5 180t344.5 67t345 -67t259.5 -180t161.5 -260.5t55 -306.5q0 -158 -55 -305.5t-161.5 -260.5t-259.5 -180.5t-345 -67.5t-344.5 67.5t-258.5 180.5t-161.5 260t-55.5 306zM292 774q0 -124 41 -237t118 -201.5t189 -140 t253 -51.5q142 0 253.5 51.5t189.5 140t118.5 201.5t40.5 237q0 122 -40.5 235.5t-118.5 202t-189.5 140.5t-253.5 52q-141 0 -253 -52t-189 -140.5t-118 -202.5t-41 -235zM575 363v867h392q71 0 129.5 -25.5t99.5 -68.5t63 -99.5t22 -120.5q0 -93 -45.5 -167t-127.5 -112 l173 -274h-241l-155 241h-98v-241h-212zM787 777h144q59 0 93.5 41t34.5 98t-34 100t-94 43h-144v-282z" />
<glyph unicode="&#xb0;" horiz-adv-x="760" d="M44 1270q0 71 26.5 131.5t72 106t106.5 72t131 26.5q71 0 131.5 -26.5t106 -72t72.5 -106t27 -131.5t-27 -132t-72.5 -106.5t-106 -72t-131.5 -26.5t-131.5 26.5t-106 72t-72 106.5t-26.5 132zM252 1270q0 -53 38.5 -90.5t89.5 -37.5t90 37.5t39 90.5q0 51 -39 90.5 t-90 39.5t-89.5 -39.5t-38.5 -90.5z" />
<glyph unicode="&#xb2;" horiz-adv-x="878" d="M120 697q0 105 16 177.5t45.5 122.5t70 84t90.5 65q91 51 138.5 86.5t47.5 90.5q0 44 -23 62.5t-56 18.5q-40 0 -64 -25.5t-24 -86.5h-237q0 53 19 102.5t57.5 88.5t100.5 62t148 23q60 0 116 -14.5t99 -45.5t70 -80.5t27 -118.5q0 -51 -18.5 -91.5t-50 -75t-70 -62 t-78.5 -50.5q-42 -25 -70.5 -43t-47.5 -35t-27 -33t-8 -39h363v-183h-634z" />
<glyph unicode="&#xb3;" horiz-adv-x="893" d="M104 984h236q0 -129 105 -128q46 0 69.5 31t23.5 69q0 48 -24.5 73.5t-82.5 25.5h-91v175h91q57 0 78.5 23.5t21.5 65.5q0 44 -22 64.5t-60 20.5q-53 0 -70.5 -31t-17.5 -81h-237q0 50 15 100t53 89t100 63t157 24q62 0 119.5 -13.5t100.5 -42t70 -75t27 -110.5 q0 -71 -41 -123t-92 -67q57 -17 99 -71.5t42 -134.5q0 -64 -26.5 -111.5t-71.5 -80t-103 -47.5t-119 -15q-93 0 -159.5 23.5t-108.5 65.5t-62 98t-20 120z" />
<glyph unicode="&#xb4;" horiz-adv-x="1134" d="M126 1347l611 283l105 -235l-610 -283z" />
<glyph unicode="&#xb6;" horiz-adv-x="1501" d="M31 1117q0 135 53 224.5t133.5 143.5t177 77t180.5 23h803v-236h-124v-1716h-266v1716h-194v-1716h-268v1026q-104 0 -194.5 31t-157 89.5t-105 144t-38.5 193.5z" />
<glyph unicode="&#xb7;" horiz-adv-x="654" d="M104 690q0 47 16.5 86.5t46.5 69.5t71 48t87 18q97 0 161.5 -64.5t64.5 -157.5t-64.5 -157t-161.5 -64q-46 0 -87 17.5t-71 47.5t-46.5 70t-16.5 86z" />
<glyph unicode="&#xb8;" horiz-adv-x="1045" d="M285 -303h164q7 -32 27 -49t50 -17q33 0 54.5 23t21.5 61q0 33 -21.5 53.5t-52.5 20.5q-46 0 -66 -34h-143v272h172v-149q30 33 93 33q36 0 70 -14.5t58.5 -41t40 -62.5t15.5 -78t-15.5 -82t-45.5 -72t-75.5 -51t-105.5 -19q-31 0 -70.5 10t-75 33t-62 63t-33.5 100z" />
<glyph unicode="&#xb9;" horiz-adv-x="658" d="M102 1234v159q63 0 104 10.5t64.5 30.5t32.5 48.5t9 66.5h203v-852h-239v537h-174z" />
<glyph unicode="&#xbb;" horiz-adv-x="1131" d="M93 173v294l226 177l-226 177v294l471 -383v-177zM580 173v294l225 177l-225 177v294l471 -383v-177z" />
<glyph unicode="&#xc0;" horiz-adv-x="1459" d="M9 0l553 1549h329l559 -1549h-388l-60 188h-551l-60 -188h-382zM401 1914l106 234l610 -284l-106 -234zM538 469h376l-186 637z" />
<glyph unicode="&#xc2;" horiz-adv-x="1459" d="M9 0l553 1549h329l559 -1549h-388l-60 188h-551l-60 -188h-382zM296 1834l432 363l435 -363l-167 -186l-266 237l-266 -235zM538 469h376l-186 637z" />
<glyph unicode="&#xc4;" horiz-adv-x="1459" d="M9 0l553 1549h329l559 -1549h-388l-60 188h-551l-60 -188h-382zM252 1885q0 42 16.5 80t44 66.5t65.5 44.5t82 16t83 -16t67.5 -44.5t45.5 -66.5t17 -80q0 -43 -17 -80.5t-45.5 -65t-67.5 -44.5t-83 -17t-82 17t-65.5 44.5t-44 65t-16.5 80.5zM538 469h376l-186 637z M785 1885q0 86 60 146.5t149 60.5q44 0 82.5 -16t66 -44.5t44 -66.5t16.5 -80q0 -43 -16.5 -80.5t-44 -65t-66 -44.5t-82.5 -17q-45 0 -82.5 17t-66.5 44.5t-44.5 65t-15.5 80.5z" />
<glyph unicode="&#xc6;" horiz-adv-x="2032" d="M2 0l743 1549h1144v-289h-587v-351h587v-280h-587v-342h587v-287h-945v190h-469l-84 -190h-389zM599 471h345v757z" />
<glyph unicode="&#xc7;" horiz-adv-x="1742" d="M71 777q0 158 55 304.5t160 259.5t255.5 180t340.5 67q180 0 320 -51t238.5 -137t156.5 -203.5t75 -249.5h-374q-13 68 -45.5 126t-82 100.5t-117 67t-148.5 24.5q-112 0 -200 -40.5t-147.5 -108t-91 -156t-31.5 -183.5q0 -102 32.5 -191.5t95.5 -157t152.5 -106.5 t206.5 -39q66 0 126 21t109.5 58t85.5 86.5t51 106.5h380q-22 -118 -80.5 -220.5t-149.5 -182t-210 -129.5t-265 -59v-88q29 33 99 33q76 0 126.5 -53t50.5 -135q0 -42 -15.5 -81t-45 -68.5t-75 -48.5t-105.5 -19q-31 0 -71 9.5t-75 31.5t-61.5 60.5t-32.5 96.5h163 q13 -57 77 -58q34 0 54.5 22t20.5 55q0 32 -20.5 54t-51.5 22q-45 0 -67 -38h-144v208q-173 17 -307.5 89.5t-227.5 182t-141.5 247.5t-48.5 291z" />
<glyph unicode="&#xc8;" horiz-adv-x="1226" d="M148 0v1549h945v-289h-586v-351h586v-280h-586v-342h586v-287h-945zM289 1893l107 235l611 -283l-106 -235z" />
<glyph unicode="&#xc9;" horiz-adv-x="1226" d="M148 0v1549h945v-289h-586v-351h586v-280h-586v-342h586v-287h-945zM261 1872l611 283l105 -235l-610 -283z" />
<glyph unicode="&#xca;" horiz-adv-x="1226" d="M148 0v1549h945v-289h-586v-351h586v-280h-586v-342h586v-287h-945zM194 1834l432 363l436 -363l-169 -186l-264 237l-264 -235z" />
<glyph unicode="&#xcb;" horiz-adv-x="1226" d="M148 0v1549h945v-289h-586v-351h586v-280h-586v-342h586v-287h-945zM168 1885q0 42 16.5 80t44.5 66.5t65.5 44.5t81.5 16t83 -16t67.5 -44.5t45.5 -66.5t17 -80q0 -43 -17 -80.5t-45.5 -65t-67.5 -44.5t-83 -17t-81.5 17t-65.5 44.5t-44.5 65t-16.5 80.5zM701 1885 q0 86 60 146.5t148 60.5q45 0 83 -16t66 -44.5t44.5 -66.5t16.5 -80q0 -43 -16.5 -80.5t-44.5 -65t-66 -44.5t-83 -17q-44 0 -82 17t-66.5 44.5t-44 65t-15.5 80.5z" />
<glyph unicode="&#xcc;" horiz-adv-x="658" d="M-29 1891l107 234l610 -283l-106 -234zM148 0v1549h363v-1549h-363z" />
<glyph unicode="&#xce;" horiz-adv-x="658" d="M-102 1834l431 363l437 -363l-169 -186l-265 237l-264 -235zM148 0v1549h363v-1549h-363z" />
<glyph unicode="&#xcf;" horiz-adv-x="658" d="M-133 1885q0 42 17 80t44.5 66.5t65 44.5t82.5 16q44 0 82.5 -16t67.5 -44.5t45 -66.5t16 -80q0 -43 -16 -80.5t-45 -65t-67.5 -44.5t-82.5 -17q-45 0 -82.5 17t-65 44.5t-44.5 65t-17 80.5zM148 0v1549h363v-1549h-363zM401 1885q0 86 59 146.5t148 60.5q44 0 83 -16 t66.5 -44.5t44.5 -66.5t17 -80q0 -43 -17 -80.5t-44.5 -65t-66.5 -44.5t-83 -17t-81.5 17t-66.5 44.5t-44 65t-15 80.5z" />
<glyph unicode="&#xd2;" horiz-adv-x="1779" d="M71 774q0 159 55 306.5t161.5 260.5t259 180t344.5 67t344 -67t258 -180t161.5 -260.5t55.5 -306.5q0 -158 -55.5 -305.5t-161.5 -260.5t-258 -180.5t-344 -67.5t-344.5 67.5t-259 180.5t-161.5 260t-55 306zM438 774q0 -95 31 -183.5t89.5 -157t142.5 -109.5t190 -41 t190 41t143 109.5t90 157t31 183.5t-31 184t-90 157.5t-142.5 109t-190.5 40.5q-106 0 -190 -40.5t-142.5 -109t-89.5 -157.5t-31 -184zM504 1920l106 235l610 -283l-105 -235z" />
<glyph unicode="&#xd3;" horiz-adv-x="1779" d="M71 774q0 159 55 306.5t161.5 260.5t259 180t344.5 67t344 -67t258 -180t161.5 -260.5t55.5 -306.5q0 -158 -55.5 -305.5t-161.5 -260.5t-258 -180.5t-344 -67.5t-344.5 67.5t-259 180.5t-161.5 260t-55 306zM438 774q0 -95 31 -183.5t89.5 -157t142.5 -109.5t190 -41 t190 41t143 109.5t90 157t31 183.5t-31 184t-90 157.5t-142.5 109t-190.5 40.5q-106 0 -190 -40.5t-142.5 -109t-89.5 -157.5t-31 -184zM553 1872l610 283l107 -235l-611 -283z" />
<glyph unicode="&#xd4;" horiz-adv-x="1779" d="M71 774q0 159 55 306.5t161.5 260.5t259 180t344.5 67t344 -67t258 -180t161.5 -260.5t55.5 -306.5q0 -158 -55.5 -305.5t-161.5 -260.5t-258 -180.5t-344 -67.5t-344.5 67.5t-259 180.5t-161.5 260t-55 306zM438 774q0 -95 31 -183.5t89.5 -157t142.5 -109.5t190 -41 t190 41t143 109.5t90 157t31 183.5t-31 184t-90 157.5t-142.5 109t-190.5 40.5q-106 0 -190 -40.5t-142.5 -109t-89.5 -157.5t-31 -184zM460 1834l431 363l436 -363l-168 -186l-266 237l-264 -235z" />
<glyph unicode="&#xd6;" horiz-adv-x="1779" d="M71 774q0 159 55 306.5t161.5 260.5t259 180t344.5 67t344 -67t258 -180t161.5 -260.5t55.5 -306.5q0 -158 -55.5 -305.5t-161.5 -260.5t-258 -180.5t-344 -67.5t-344.5 67.5t-259 180.5t-161.5 260t-55 306zM411 1889q0 42 17 81t44.5 66.5t65 44t81.5 16.5t83 -16.5 t66.5 -44t44 -66.5t16.5 -81t-16.5 -80t-44 -65.5t-66.5 -43.5t-83 -16t-81.5 16t-65 43.5t-44.5 65.5t-17 80zM438 774q0 -95 31 -183.5t89.5 -157t142.5 -109.5t190 -41t190 41t143 109.5t90 157t31 183.5t-31 184t-90 157.5t-142.5 109t-190.5 40.5q-106 0 -190 -40.5 t-142.5 -109t-89.5 -157.5t-31 -184zM944 1889q0 86 60 147t148 61q45 0 83.5 -16.5t66 -44t44.5 -66.5t17 -81t-17 -80t-44.5 -65.5t-66 -43.5t-83.5 -16q-44 0 -82 16t-66.5 43.5t-44 65.5t-15.5 80z" />
<glyph unicode="&#xd9;" horiz-adv-x="1452" d="M124 528v1021h358v-1018q0 -53 17.5 -101t50 -83t77 -56t99.5 -21t100.5 21t77 56t49.5 82.5t18 101.5v1018h358v-1021q0 -120 -42 -223.5t-120 -179.5t-190 -120.5t-251 -44.5q-140 0 -250.5 44.5t-189 120.5t-120.5 180t-42 223zM389 1920l107 235l610 -283l-106 -235z " />
<glyph unicode="&#xdb;" horiz-adv-x="1452" d="M124 528v1021h358v-1018q0 -53 17.5 -101t50 -83t77 -56t99.5 -21t100.5 21t77 56t49.5 82.5t18 101.5v1018h358v-1021q0 -120 -42 -223.5t-120 -179.5t-190 -120.5t-251 -44.5q-140 0 -250.5 44.5t-189 120.5t-120.5 180t-42 223zM285 1834l434 363l433 -363l-168 -186 l-265 237l-263 -235z" />
<glyph unicode="&#xdc;" horiz-adv-x="1452" d="M124 528v1021h358v-1018q0 -53 17.5 -101t50 -83t77 -56t99.5 -21t100.5 21t77 56t49.5 82.5t18 101.5v1018h358v-1021q0 -120 -42 -223.5t-120 -179.5t-190 -120.5t-251 -44.5q-140 0 -250.5 44.5t-189 120.5t-120.5 180t-42 223zM245 1885q0 42 17 80t44.5 66.5 t65 44.5t82.5 16q44 0 82.5 -16t66.5 -44.5t44 -66.5t16 -80q0 -43 -16 -80.5t-44 -65t-66.5 -44.5t-82.5 -17q-45 0 -82.5 17t-65 44.5t-44.5 65t-17 80.5zM779 1885q0 86 59 146.5t148 60.5q44 0 83 -16t66.5 -44.5t44.5 -66.5t17 -80q0 -43 -17 -80.5t-44.5 -65 t-66.5 -44.5t-83 -17t-81.5 17t-66 44.5t-44 65t-15.5 80.5z" />
<glyph unicode="&#xdf;" horiz-adv-x="1311" d="M120 0v1086q0 100 32 189.5t98 157t169 108t246 40.5q106 0 204 -26.5t172 -80.5t119 -136t45 -190q0 -137 -70.5 -222.5t-170.5 -120.5q53 -20 100.5 -54t84.5 -82t59 -107.5t22 -128.5q0 -114 -40 -200.5t-106.5 -145t-156 -87.5t-188.5 -29q-74 0 -123.5 9t-81.5 20 v264q33 -9 73.5 -14t59.5 -5q43 0 81.5 14.5t68.5 41t47.5 67.5t17.5 94q0 36 -13 73t-40 68.5t-68.5 51.5t-99.5 20h-64v269h60q110 0 157 57.5t47 137.5q0 87 -59 134.5t-139 47.5q-93 0 -143.5 -64.5t-50.5 -170.5v-1086h-349z" />
<glyph unicode="&#xe0;" horiz-adv-x="1404" d="M78 534q0 119 37 222t105.5 177t165 117t211.5 43q51 0 102 -14.5t94 -39t76.5 -57.5t52.5 -68v152h338v-1066h-338v150q-19 -38 -52.5 -69.5t-76.5 -55t-94 -38t-102 -14.5q-114 0 -211 43t-165.5 117.5t-105.5 177.5t-37 223zM266 1409l106 235l610 -283l-106 -236z M414 534q0 -56 18.5 -106t51.5 -86t79.5 -58.5t103.5 -22.5q58 0 105 22.5t80 58.5t51.5 85.5t18.5 106.5q0 55 -18.5 103.5t-51.5 86t-79.5 59.5t-105.5 22q-57 0 -103.5 -22t-79.5 -59.5t-51.5 -86t-18.5 -103.5z" />
<glyph unicode="&#xe2;" horiz-adv-x="1404" d="M78 534q0 119 37 222t105.5 177t165 117t211.5 43q51 0 102 -14.5t94 -39t76.5 -57.5t52.5 -68v152h338v-1066h-338v150q-19 -38 -52.5 -69.5t-76.5 -55t-94 -38t-102 -14.5q-114 0 -211 43t-165.5 117.5t-105.5 177.5t-37 223zM261 1365l431 362l436 -362l-168 -186 l-266 237l-263 -234zM414 534q0 -56 18.5 -106t51.5 -86t79.5 -58.5t103.5 -22.5q58 0 105 22.5t80 58.5t51.5 85.5t18.5 106.5q0 55 -18.5 103.5t-51.5 86t-79.5 59.5t-105.5 22q-57 0 -103.5 -22t-79.5 -59.5t-51.5 -86t-18.5 -103.5z" />
<glyph unicode="&#xe4;" horiz-adv-x="1404" d="M78 534q0 119 37 222t105.5 177t165 117t211.5 43q51 0 102 -14.5t94 -39t76.5 -57.5t52.5 -68v152h338v-1066h-338v150q-19 -38 -52.5 -69.5t-76.5 -55t-94 -38t-102 -14.5q-114 0 -211 43t-165.5 117.5t-105.5 177.5t-37 223zM188 1393q0 42 16.5 81t44 66.5t65.5 44.5 t82 17q45 0 83 -17t65.5 -44.5t44.5 -66.5t17 -81t-17 -79t-44.5 -65.5t-65.5 -44.5t-83 -16q-44 0 -82 16t-65.5 44.5t-44 65.5t-16.5 79zM414 534q0 -56 18.5 -106t51.5 -86t79.5 -58.5t103.5 -22.5q58 0 105 22.5t80 58.5t51.5 85.5t18.5 106.5q0 55 -18.5 103.5 t-51.5 86t-79.5 59.5t-105.5 22q-57 0 -103.5 -22t-79.5 -59.5t-51.5 -86t-18.5 -103.5zM721 1393q0 87 59.5 148t148.5 61q44 0 83 -17t66.5 -44.5t44 -66.5t16.5 -81t-16.5 -79t-44 -65.5t-66.5 -44.5t-83 -16t-81.5 16t-66.5 44.5t-44.5 65.5t-15.5 79z" />
<glyph unicode="&#xe6;" horiz-adv-x="2125" d="M78 534q0 119 37 222t105.5 177t165 117t211.5 43q51 0 102 -14.5t94 -39t76.5 -57.5t52.5 -68v152h306v-26q55 25 120.5 40t141.5 15q127 0 227.5 -40t172.5 -106.5t110.5 -155t38.5 -185.5q0 -33 -1 -70.5t-10 -86.5h-765q0 -48 13.5 -91.5t41 -75.5t71.5 -50.5 t108 -18.5q88 0 133.5 35t64.5 86h331q-13 -76 -54 -141.5t-108.5 -115.5t-159.5 -79t-204 -29q-80 0 -147.5 15.5t-124.5 42.5v-29h-306v150q-19 -38 -52.5 -69.5t-76.5 -55t-94 -38t-102 -14.5q-114 0 -211 43t-165.5 117.5t-105.5 177.5t-37 223zM414 534 q0 -56 18.5 -106t51.5 -86t79.5 -58.5t103.5 -22.5q58 0 105 22.5t80 58.5t51.5 85.5t18.5 106.5q0 55 -18.5 104.5t-51.5 87.5t-80.5 58.5t-104.5 20.5t-103.5 -22t-79.5 -59.5t-51.5 -86t-18.5 -103.5zM1265 646h440q0 95 -60 152.5t-159 57.5q-93 0 -155.5 -54.5 t-65.5 -155.5z" />
<glyph unicode="&#xe7;" horiz-adv-x="1271" d="M73 534q0 110 36.5 211.5t109.5 179t180.5 124t246.5 46.5q135 0 234.5 -37.5t167 -100t104 -143t45.5 -166.5h-338q-11 71 -59 115.5t-152 44.5q-59 0 -104.5 -22t-74 -60t-43.5 -87.5t-15 -104.5q0 -56 15 -106t44.5 -87.5t77 -59.5t113.5 -22q89 0 133 36.5t67 105.5 h338q-13 -87 -50 -162t-100 -131.5t-150 -91.5t-202 -43v-93q15 15 39.5 24.5t61.5 9.5q74 0 124.5 -53t50.5 -135q0 -42 -15.5 -81t-45.5 -69t-75 -48.5t-105 -18.5q-31 0 -69.5 9t-74 31t-62 60.5t-32.5 96.5h163q13 -57 75 -58q34 0 56 22t22 56q0 31 -21 53t-52 22 q-47 0 -70 -38h-143v220q-110 19 -195.5 70t-141.5 125t-85 164.5t-29 191.5z" />
<glyph unicode="&#xe8;" horiz-adv-x="1275" d="M76 534q0 117 36 218.5t108 178t177 120.5t245 44q126 0 226.5 -40t172 -106.5t110.5 -155t39 -185.5q0 -33 -1 -70.5t-10 -86.5h-768q3 -48 15 -91.5t40 -75.5t72 -50.5t110 -18.5q89 0 134 35t63 86h332q-11 -76 -52 -141.5t-108.5 -115.5t-159 -79t-207.5 -29 q-139 0 -246.5 41t-180.5 116t-110 178t-37 228zM329 1409l106 235l612 -283l-107 -236zM411 646h448q0 104 -61 163.5t-159 59.5q-99 0 -163.5 -57.5t-64.5 -165.5z" />
<glyph unicode="&#xe9;" horiz-adv-x="1275" d="M76 534q0 117 36 218.5t108 178t177 120.5t245 44q126 0 226.5 -40t172 -106.5t110.5 -155t39 -185.5q0 -33 -1 -70.5t-10 -86.5h-768q3 -48 15 -91.5t40 -75.5t72 -50.5t110 -18.5q89 0 134 35t63 86h332q-11 -76 -52 -141.5t-108.5 -115.5t-159 -79t-207.5 -29 q-139 0 -246.5 41t-180.5 116t-110 178t-37 228zM266 1361l610 283l106 -235l-610 -284zM411 646h448q0 104 -61 163.5t-159 59.5q-99 0 -163.5 -57.5t-64.5 -165.5z" />
<glyph unicode="&#xea;" horiz-adv-x="1275" d="M76 534q0 117 36 218.5t108 178t177 120.5t245 44q126 0 226.5 -40t172 -106.5t110.5 -155t39 -185.5q0 -33 -1 -70.5t-10 -86.5h-768q3 -48 15 -91.5t40 -75.5t72 -50.5t110 -18.5q89 0 134 35t63 86h332q-11 -76 -52 -141.5t-108.5 -115.5t-159 -79t-207.5 -29 q-139 0 -246.5 41t-180.5 116t-110 178t-37 228zM215 1365l431 362l435 -362l-167 -186l-266 237l-266 -234zM411 646h448q0 104 -61 163.5t-159 59.5q-99 0 -163.5 -57.5t-64.5 -165.5z" />
<glyph unicode="&#xeb;" horiz-adv-x="1275" d="M76 534q0 117 36 218.5t108 178t177 120.5t245 44q126 0 226.5 -40t172 -106.5t110.5 -155t39 -185.5q0 -33 -1 -70.5t-10 -86.5h-768q3 -48 15 -91.5t40 -75.5t72 -50.5t110 -18.5q89 0 134 35t63 86h332q-11 -76 -52 -141.5t-108.5 -115.5t-159 -79t-207.5 -29 q-139 0 -246.5 41t-180.5 116t-110 178t-37 228zM162 1393q0 87 59.5 148t147.5 61q45 0 83.5 -17t66 -44.5t44.5 -66.5t17 -81t-17 -79t-44.5 -65.5t-66 -44.5t-83.5 -16q-44 0 -82 16t-66.5 44.5t-43.5 65.5t-15 79zM411 646h448q0 104 -61 163.5t-159 59.5 q-99 0 -163.5 -57.5t-64.5 -165.5zM692 1393q0 42 17 81t44.5 66.5t65 44.5t82.5 17q44 0 82.5 -17t66 -44.5t44 -66.5t16.5 -81t-16.5 -79t-44 -65.5t-66.5 -44.5t-82 -16q-45 0 -82.5 16t-65 44.5t-44.5 65.5t-17 79z" />
<glyph unicode="&#xec;" horiz-adv-x="625" d="M-44 1437l106 235l611 -283l-107 -234zM144 0v1066h338v-1066h-338z" />
<glyph unicode="&#xee;" horiz-adv-x="625" d="M-120 1365l434 362l433 -362l-167 -186l-266 237l-263 -234zM144 0v1066h338v-1066h-338z" />
<glyph unicode="&#xef;" horiz-adv-x="625" d="M-120 1393q0 42 17 81t44.5 66.5t65 44.5t82.5 17q44 0 83 -17t67.5 -44.5t45 -66.5t16.5 -81t-16.5 -79t-45 -65.5t-67.5 -44.5t-83 -16q-45 0 -82.5 16t-65 44.5t-44.5 65.5t-17 79zM144 0v1066h338v-1066h-338zM354 1393q0 42 16.5 81t44.5 66.5t65 44.5t82 17 q44 0 83 -17t66.5 -44.5t44 -66.5t16.5 -81t-16.5 -79t-44 -65.5t-66.5 -44.5t-83 -16q-45 0 -82 16t-65 44.5t-44.5 65.5t-16.5 79z" />
<glyph unicode="&#xf2;" horiz-adv-x="1324" d="M71 534q0 114 40.5 215.5t117.5 178t186 122t246 45.5q139 0 249 -45.5t186 -122t117 -178t41 -215.5q0 -115 -41 -217t-117 -178.5t-186 -122t-249 -45.5q-137 0 -246 45.5t-186 122t-117.5 178t-40.5 217.5zM325 1409l106 235l611 -283l-107 -236zM409 534 q0 -58 18 -107t51 -86.5t79.5 -58.5t103.5 -21t105 21t81 58.5t52 86t19 107.5q0 55 -19 104.5t-52 86t-80.5 58.5t-105.5 22q-57 0 -103.5 -22t-79.5 -58.5t-51 -86t-18 -104.5z" />
<glyph unicode="&#xf3;" horiz-adv-x="1324" d="M71 534q0 114 40.5 215.5t117.5 178t186 122t246 45.5q139 0 249 -45.5t186 -122t117 -178t41 -215.5q0 -115 -41 -217t-117 -178.5t-186 -122t-249 -45.5q-137 0 -246 45.5t-186 122t-117.5 178t-40.5 217.5zM252 1361l611 283l108 -235l-610 -284zM409 534 q0 -58 18 -107t51 -86.5t79.5 -58.5t103.5 -21t105 21t81 58.5t52 86t19 107.5q0 55 -19 104.5t-52 86t-80.5 58.5t-105.5 22q-57 0 -103.5 -22t-79.5 -58.5t-51 -86t-18 -104.5z" />
<glyph unicode="&#xf4;" horiz-adv-x="1324" d="M71 534q0 114 40.5 215.5t117.5 178t186 122t246 45.5q139 0 249 -45.5t186 -122t117 -178t41 -215.5q0 -115 -41 -217t-117 -178.5t-186 -122t-249 -45.5q-137 0 -246 45.5t-186 122t-117.5 178t-40.5 217.5zM228 1365l431 362l436 -362l-168 -186l-266 237l-262 -234z M409 534q0 -58 18 -107t51 -86.5t79.5 -58.5t103.5 -21t105 21t81 58.5t52 86t19 107.5q0 55 -19 104.5t-52 86t-80.5 58.5t-105.5 22q-57 0 -103.5 -22t-79.5 -58.5t-51 -86t-18 -104.5z" />
<glyph unicode="&#xf6;" horiz-adv-x="1324" d="M71 534q0 114 40.5 215.5t117.5 178t186 122t246 45.5q139 0 249 -45.5t186 -122t117 -178t41 -215.5q0 -115 -41 -217t-117 -178.5t-186 -122t-249 -45.5q-137 0 -246 45.5t-186 122t-117.5 178t-40.5 217.5zM184 1393q0 42 16.5 81t44 66.5t65.5 44.5t81 17 q44 0 83 -17t66.5 -44.5t44.5 -66.5t17 -81t-17 -79t-44.5 -65.5t-66.5 -44.5t-83 -16t-81.5 16t-65 44.5t-44 65.5t-16.5 79zM409 534q0 -58 18 -107t51 -86.5t79.5 -58.5t103.5 -21t105 21t81 58.5t52 86t19 107.5q0 55 -19 104.5t-52 86t-80.5 58.5t-105.5 22 q-57 0 -103.5 -22t-79.5 -58.5t-51 -86t-18 -104.5zM717 1393q0 87 59.5 148t147.5 61q45 0 84 -17t66.5 -44.5t44 -66.5t16.5 -81t-16.5 -79t-44 -65.5t-66.5 -44.5t-84 -16q-44 0 -81.5 16t-66.5 44.5t-44 65.5t-15 79z" />
<glyph unicode="&#xf9;" horiz-adv-x="1342" d="M131 433v633h336v-547q0 -114 41 -186t146 -72q106 0 156.5 73t50.5 197v535h338v-1066h-338v152q-45 -84 -134.5 -131.5t-215.5 -47.5q-104 0 -179 32.5t-119 89.5q-51 62 -66.5 143t-15.5 195zM323 1409l106 235l611 -283l-107 -236z" />
<glyph unicode="&#xfb;" horiz-adv-x="1342" d="M131 433v633h336v-547q0 -114 41 -186t146 -72q106 0 156.5 73t50.5 197v535h338v-1066h-338v152q-45 -84 -134.5 -131.5t-215.5 -47.5q-104 0 -179 32.5t-119 89.5q-51 62 -66.5 143t-15.5 195zM243 1365l432 362l435 -362l-168 -186l-265 237l-263 -234z" />
<glyph unicode="&#xfc;" horiz-adv-x="1342" d="M131 433v633h336v-547q0 -114 41 -186t146 -72q106 0 156.5 73t50.5 197v535h338v-1066h-338v152q-45 -84 -134.5 -131.5t-215.5 -47.5q-104 0 -179 32.5t-119 89.5q-51 62 -66.5 143t-15.5 195zM184 1393q0 42 16.5 81t44 66.5t65.5 44.5t81 17q44 0 83 -17t67.5 -44.5 t45.5 -66.5t17 -81t-17 -79t-45.5 -65.5t-67.5 -44.5t-83 -16t-81.5 16t-65 44.5t-44 65.5t-16.5 79zM717 1393q0 87 59.5 148t147.5 61q45 0 84 -17t66.5 -44.5t44 -66.5t16.5 -81t-16.5 -79t-44 -65.5t-66.5 -44.5t-84 -16q-44 0 -81.5 16t-66.5 44.5t-44 65.5t-15 79z " />
<glyph unicode="&#xff;" horiz-adv-x="1359" d="M131 -82h338q4 -91 63 -138.5t143 -47.5q97 0 152 47.5t55 171.5v220q-44 -87 -131.5 -133.5t-208.5 -46.5q-106 0 -184.5 35.5t-123.5 93.5q-50 61 -66 137.5t-16 191.5v617h337v-547q0 -114 40.5 -186t147.5 -72q106 0 155.5 73t49.5 197v535h338v-1093 q0 -126 -39 -218.5t-106 -150.5q-74 -60 -169.5 -87.5t-234.5 -27.5q-131 0 -227 26.5t-168 83.5q-63 51 -104 131t-41 188zM224 1393q0 42 15.5 79t43 64.5t63.5 43t78 15.5q89 0 148 -59t59 -143t-59 -142.5t-148 -58.5q-42 0 -78 16t-63.5 43.5t-43 63.5t-15.5 78z M756 1393q0 42 15.5 79t43 64.5t64.5 43t79 15.5t79.5 -15.5t65.5 -43t43 -64.5t15 -79t-15 -78t-43 -63.5t-65.5 -43.5t-79.5 -16t-79 16t-64.5 43.5t-43 63.5t-15.5 78z" />
<glyph unicode="&#x100;" horiz-adv-x="1459" d="M9 0l553 1549h329l559 -1549h-388l-60 188h-551l-60 -188h-382zM319 1756v255h814v-255h-814zM538 469h376l-186 637z" />
<glyph unicode="&#x101;" horiz-adv-x="1404" d="M78 534q0 119 37 222t105.5 177t165 117t211.5 43q51 0 102 -14.5t94 -39t76.5 -57.5t52.5 -68v152h338v-1066h-338v150q-19 -38 -52.5 -69.5t-76.5 -55t-94 -38t-102 -14.5q-114 0 -211 43t-165.5 117.5t-105.5 177.5t-37 223zM272 1268v252h814v-252h-814zM414 534 q0 -56 18.5 -106t51.5 -86t79.5 -58.5t103.5 -22.5q58 0 105 22.5t80 58.5t51.5 85.5t18.5 106.5q0 55 -18.5 103.5t-51.5 86t-79.5 59.5t-105.5 22q-57 0 -103.5 -22t-79.5 -59.5t-51.5 -86t-18.5 -103.5z" />
<glyph unicode="&#x102;" horiz-adv-x="1459" d="M9 0l553 1549h329l559 -1549h-388l-60 188h-551l-60 -188h-382zM255 2079h269q19 -68 69.5 -113.5t134.5 -45.5t134 45.5t67 113.5h272q-13 -86 -55 -157t-105.5 -120.5t-144 -76t-168.5 -26.5q-91 0 -172 26.5t-143.5 76t-103.5 120.5t-54 157zM538 469h376l-186 637z " />
<glyph unicode="&#x103;" horiz-adv-x="1404" d="M78 534q0 119 37 222t105.5 177t165 117t211.5 43q51 0 102 -14.5t94 -39t76.5 -57.5t52.5 -68v152h338v-1066h-338v150q-19 -38 -52.5 -69.5t-76.5 -55t-94 -38t-102 -14.5q-114 0 -211 43t-165.5 117.5t-105.5 177.5t-37 223zM211 1602h271q17 -68 67 -114t135 -46 q84 0 133.5 45.5t69.5 114.5h270q-13 -87 -55.5 -157.5t-105.5 -120.5t-143.5 -77t-168.5 -27q-91 0 -172 27t-142.5 77t-103.5 120.5t-55 157.5zM414 534q0 -56 18.5 -106t51.5 -86t79.5 -58.5t103.5 -22.5q58 0 105 22.5t80 58.5t51.5 85.5t18.5 106.5q0 55 -18.5 103.5 t-51.5 86t-79.5 59.5t-105.5 22q-57 0 -103.5 -22t-79.5 -59.5t-51.5 -86t-18.5 -103.5z" />
<glyph unicode="&#x104;" horiz-adv-x="1459" d="M9 0l553 1549h329l559 -1549h-180q-22 -15 -44.5 -32t-40.5 -37t-28.5 -45t-10.5 -59q0 -46 26.5 -81t74.5 -35q27 0 60 6.5t65 18.5l-5 -171q-44 -15 -95.5 -24.5t-114.5 -9.5q-144 0 -211.5 63.5t-67.5 150.5q0 71 47.5 134.5t136.5 120.5l-60 188h-551l-60 -188h-382z M538 469h376l-186 637z" />
<glyph unicode="&#x105;" horiz-adv-x="1404" d="M78 534q0 119 37 222t105.5 177t165 117t211.5 43q51 0 102 -14.5t94 -39t76.5 -57.5t52.5 -68v152h338v-1066h-121q-50 -31 -94.5 -75.5t-44.5 -112.5q0 -40 25.5 -70.5t69.5 -30.5q27 0 60 6.5t63 18.5l-4 -171q-44 -15 -95 -24.5t-115 -9.5q-145 0 -215 63.5 t-70 150.5q0 74 51 136t152 125v144q-19 -38 -52.5 -69.5t-76.5 -55t-94 -38t-102 -14.5q-114 0 -211 43t-165.5 117.5t-105.5 177.5t-37 223zM414 534q0 -56 18.5 -106t51.5 -86t79.5 -58.5t103.5 -22.5q58 0 105 22.5t80 58.5t51.5 85.5t18.5 106.5q0 55 -18.5 103.5 t-51.5 86t-79.5 59.5t-105.5 22q-57 0 -103.5 -22t-79.5 -59.5t-51.5 -86t-18.5 -103.5z" />
<glyph unicode="&#x106;" horiz-adv-x="1742" d="M71 777q0 158 55 304.5t160 259.5t255.5 180t340.5 67q180 0 320 -51t238.5 -137t156.5 -203.5t75 -249.5h-374q-13 68 -45.5 126t-82 100.5t-117 67t-148.5 24.5q-112 0 -200 -40.5t-147.5 -108t-91 -156t-31.5 -183.5q0 -102 32.5 -191.5t95.5 -157t152.5 -106.5 t206.5 -39q66 0 126 21t109.5 58t85.5 86.5t51 106.5h380q-22 -124 -85 -232t-162.5 -189t-232 -127.5t-291.5 -46.5q-197 0 -350.5 66.5t-261 178t-164 259.5t-56.5 313zM513 1869l610 283l107 -232l-611 -283z" />
<glyph unicode="&#x107;" horiz-adv-x="1271" d="M73 534q0 110 36.5 211.5t109.5 179t180.5 124t246.5 46.5q135 0 234.5 -37.5t167 -100t104 -143t45.5 -166.5h-338q-11 71 -59 115.5t-152 44.5q-59 0 -104.5 -22t-74 -60t-43.5 -87.5t-15 -104.5q0 -56 15 -106t44.5 -87.5t77 -59.5t113.5 -22q89 0 133 36.5t67 105.5 h338q-13 -91 -53 -170t-108.5 -136t-167 -90.5t-224.5 -33.5q-139 0 -246.5 46.5t-180.5 124t-109.5 179t-36.5 213.5zM276 1361l611 283l107 -235l-612 -284z" />
<glyph unicode="&#x108;" horiz-adv-x="1742" d="M71 777q0 158 55 304.5t160 259.5t255.5 180t340.5 67q180 0 320 -51t238.5 -137t156.5 -203.5t75 -249.5h-374q-13 68 -45.5 126t-82 100.5t-117 67t-148.5 24.5q-112 0 -200 -40.5t-147.5 -108t-91 -156t-31.5 -183.5q0 -102 32.5 -191.5t95.5 -157t152.5 -106.5 t206.5 -39q66 0 126 21t109.5 58t85.5 86.5t51 106.5h380q-22 -124 -85 -232t-162.5 -189t-232 -127.5t-291.5 -46.5q-197 0 -350.5 66.5t-261 178t-164 259.5t-56.5 313zM454 1834l431 363l436 -363l-169 -186l-265 237l-263 -235z" />
<glyph unicode="&#x109;" horiz-adv-x="1271" d="M73 534q0 110 36.5 211.5t109.5 179t180.5 124t246.5 46.5q135 0 234.5 -37.5t167 -100t104 -143t45.5 -166.5h-338q-11 71 -59 115.5t-152 44.5q-59 0 -104.5 -22t-74 -60t-43.5 -87.5t-15 -104.5q0 -56 15 -106t44.5 -87.5t77 -59.5t113.5 -22q89 0 133 36.5t67 105.5 h338q-13 -91 -53 -170t-108.5 -136t-167 -90.5t-224.5 -33.5q-139 0 -246.5 46.5t-180.5 124t-109.5 179t-36.5 213.5zM228 1365l431 362l436 -362l-168 -186l-266 237l-265 -234z" />
<glyph unicode="&#x10a;" horiz-adv-x="1742" d="M71 777q0 158 55 304.5t160 259.5t255.5 180t340.5 67q180 0 320 -51t238.5 -137t156.5 -203.5t75 -249.5h-374q-13 68 -45.5 126t-82 100.5t-117 67t-148.5 24.5q-112 0 -200 -40.5t-147.5 -108t-91 -156t-31.5 -183.5q0 -102 32.5 -191.5t95.5 -157t152.5 -106.5 t206.5 -39q66 0 126 21t109.5 58t85.5 86.5t51 106.5h380q-22 -124 -85 -232t-162.5 -189t-232 -127.5t-291.5 -46.5q-197 0 -350.5 66.5t-261 178t-164 259.5t-56.5 313zM675 1902q0 42 15 81t44.5 67.5t66.5 45t81 16.5q45 0 83.5 -16.5t66 -45t44.5 -67.5t17 -81 t-17 -79.5t-44.5 -65t-66 -44t-83.5 -16.5q-44 0 -81 16.5t-66.5 44t-44.5 65t-15 79.5z" />
<glyph unicode="&#x10b;" horiz-adv-x="1271" d="M73 534q0 110 36.5 211.5t109.5 179t180.5 124t246.5 46.5q135 0 234.5 -37.5t167 -100t104 -143t45.5 -166.5h-338q-11 71 -59 115.5t-152 44.5q-59 0 -104.5 -22t-74 -60t-43.5 -87.5t-15 -104.5q0 -56 15 -106t44.5 -87.5t77 -59.5t113.5 -22q89 0 133 36.5t67 105.5 h338q-13 -91 -53 -170t-108.5 -136t-167 -90.5t-224.5 -33.5q-139 0 -246.5 46.5t-180.5 124t-109.5 179t-36.5 213.5zM435 1391q0 42 17 81t44.5 66.5t65 44t82.5 16.5q44 0 83 -16.5t67.5 -44t45 -66.5t16.5 -81t-16.5 -79.5t-45 -65.5t-67.5 -44t-83 -16q-45 0 -82.5 16 t-65 44t-44.5 65.5t-17 79.5z" />
<glyph unicode="&#x10c;" horiz-adv-x="1742" d="M71 777q0 158 55 304.5t160 259.5t255.5 180t340.5 67q180 0 320 -51t238.5 -137t156.5 -203.5t75 -249.5h-374q-13 68 -45.5 126t-82 100.5t-117 67t-148.5 24.5q-112 0 -200 -40.5t-147.5 -108t-91 -156t-31.5 -183.5q0 -102 32.5 -191.5t95.5 -157t152.5 -106.5 t206.5 -39q66 0 126 21t109.5 58t85.5 86.5t51 106.5h380q-22 -124 -85 -232t-162.5 -189t-232 -127.5t-291.5 -46.5q-197 0 -350.5 66.5t-261 178t-164 259.5t-56.5 313zM435 2007l171 183l263 -240l266 240l167 -183l-433 -365z" />
<glyph unicode="&#x10d;" horiz-adv-x="1271" d="M73 534q0 110 36.5 211.5t109.5 179t180.5 124t246.5 46.5q135 0 234.5 -37.5t167 -100t104 -143t45.5 -166.5h-338q-11 71 -59 115.5t-152 44.5q-59 0 -104.5 -22t-74 -60t-43.5 -87.5t-15 -104.5q0 -56 15 -106t44.5 -87.5t77 -59.5t113.5 -22q89 0 133 36.5t67 105.5 h338q-13 -91 -53 -170t-108.5 -136t-167 -90.5t-224.5 -33.5q-139 0 -246.5 46.5t-180.5 124t-109.5 179t-36.5 213.5zM215 1528l169 182l264 -239l266 241l167 -184l-435 -365z" />
<glyph unicode="&#x10e;" horiz-adv-x="1591" d="M148 0v1549h569q192 0 341 -65.5t252.5 -174t157.5 -248t54 -287.5t-53 -287t-156 -247.5t-253.5 -174t-342.5 -65.5h-569zM312 2007l170 183l263 -240l266 240l168 -183l-434 -365zM507 310h192q108 0 193 38.5t144 103.5t90 148.5t31 173.5q0 89 -31 172.5t-90 149 t-143.5 104.5t-193.5 39h-192v-929z" />
<glyph unicode="&#x10f;" horiz-adv-x="1790" d="M78 534q0 119 37 222t105.5 177t165 117t211.5 43q51 0 102 -14.5t94 -39t76.5 -57.5t52.5 -68v635h338v-1549h-338v150q-19 -38 -52.5 -69.5t-76.5 -55t-94 -38t-102 -14.5q-114 0 -211 43t-165.5 117.5t-105.5 177.5t-37 223zM414 534q0 -56 18.5 -106t51.5 -86 t79.5 -58.5t103.5 -22.5q58 0 105 22.5t80 58.5t51.5 85.5t18.5 106.5q0 55 -18.5 103.5t-51.5 86t-79.5 59.5t-105.5 22q-57 0 -103.5 -22t-79.5 -59.5t-51.5 -86t-18.5 -103.5zM1361 1418q0 91 60.5 152.5t148.5 61.5q106 0 171.5 -75t65.5 -194q0 -120 -30 -204t-85 -135 t-137 -75.5t-183 -24.5v131q65 0 111.5 15.5t76.5 39.5q31 25 46 56t19 62q-4 -4 -20.5 -10t-34.5 -6q-97 0 -153 61t-56 145z" />
<glyph unicode="&#x110;" horiz-adv-x="1591" d="M-76 665v217h224v667h569q192 0 341 -65.5t252.5 -174t157.5 -248t54 -287.5t-53 -287t-156 -247.5t-253.5 -174t-342.5 -65.5h-569v665h-224zM507 310h192q108 0 193 38.5t144 103.5t90 148.5t31 173.5q0 89 -31 172.5t-90 149t-143.5 104.5t-193.5 39h-192v-357h232 v-217h-232v-355z" />
<glyph unicode="&#x111;" horiz-adv-x="1404" d="M78 534q0 119 37 222t105.5 177t165 117t211.5 43q51 0 102 -14.5t94 -39t76.5 -57.5t52.5 -68v265h-236v182h236v188h338v-188h101v-182h-101v-1179h-338v150q-19 -38 -52.5 -69.5t-76.5 -55t-94 -38t-102 -14.5q-114 0 -211 43t-165.5 117.5t-105.5 177.5t-37 223z M414 534q0 -56 18.5 -106t51.5 -86t79.5 -58.5t103.5 -22.5q58 0 105 22.5t80 58.5t51.5 85.5t18.5 106.5q0 55 -18.5 103.5t-51.5 86t-79.5 59.5t-105.5 22q-57 0 -103.5 -22t-79.5 -59.5t-51.5 -86t-18.5 -103.5z" />
<glyph unicode="&#x112;" horiz-adv-x="1226" d="M148 0v1549h945v-289h-586v-351h586v-280h-586v-342h586v-287h-945zM217 1756v255h813v-255h-813z" />
<glyph unicode="&#x113;" horiz-adv-x="1275" d="M76 534q0 117 36 218.5t108 178t177 120.5t245 44q126 0 226.5 -40t172 -106.5t110.5 -155t39 -185.5q0 -33 -1 -70.5t-10 -86.5h-768q3 -48 15 -91.5t40 -75.5t72 -50.5t110 -18.5q89 0 134 35t63 86h332q-11 -76 -52 -141.5t-108.5 -115.5t-159 -79t-207.5 -29 q-139 0 -246.5 41t-180.5 116t-110 178t-37 228zM245 1268v252h814v-252h-814zM411 646h448q0 104 -61 163.5t-159 59.5q-99 0 -163.5 -57.5t-64.5 -165.5z" />
<glyph unicode="&#x114;" horiz-adv-x="1226" d="M148 0v1549h945v-289h-586v-351h586v-280h-586v-342h586v-287h-945zM152 2079h270q20 -68 70 -113.5t134 -45.5q85 0 134.5 45.5t66.5 113.5h272q-13 -86 -55 -157t-105 -120.5t-143.5 -76t-169.5 -26.5q-90 0 -171 26.5t-144.5 76t-104 120.5t-54.5 157z" />
<glyph unicode="&#x115;" horiz-adv-x="1275" d="M76 534q0 117 36 218.5t108 178t177 120.5t245 44q126 0 226.5 -40t172 -106.5t110.5 -155t39 -185.5q0 -33 -1 -70.5t-10 -86.5h-768q3 -48 15 -91.5t40 -75.5t72 -50.5t110 -18.5q89 0 134 35t63 86h332q-11 -76 -52 -141.5t-108.5 -115.5t-159 -79t-207.5 -29 q-139 0 -246.5 41t-180.5 116t-110 178t-37 228zM171 1602h272q17 -68 66.5 -114t134.5 -46q84 0 133.5 45.5t67.5 114.5h272q-13 -87 -55 -157.5t-105.5 -120.5t-144 -77t-168.5 -27q-91 0 -172 27t-143.5 77t-103.5 120.5t-54 157.5zM411 646h448q0 104 -61 163.5 t-159 59.5q-99 0 -163.5 -57.5t-64.5 -165.5z" />
<glyph unicode="&#x116;" horiz-adv-x="1226" d="M148 0v1549h945v-289h-586v-351h586v-280h-586v-342h586v-287h-945zM405 1902q0 42 15 81t44.5 67.5t66.5 45t81 16.5q45 0 83.5 -16.5t66 -45t44.5 -67.5t17 -81t-17 -79.5t-44.5 -65t-66 -44t-83.5 -16.5q-44 0 -81 16.5t-66.5 44t-44.5 65t-15 79.5z" />
<glyph unicode="&#x117;" horiz-adv-x="1275" d="M76 534q0 117 36 218.5t108 178t177 120.5t245 44q126 0 226.5 -40t172 -106.5t110.5 -155t39 -185.5q0 -33 -1 -70.5t-10 -86.5h-768q3 -48 15 -91.5t40 -75.5t72 -50.5t110 -18.5q89 0 134 35t63 86h332q-11 -76 -52 -141.5t-108.5 -115.5t-159 -79t-207.5 -29 q-139 0 -246.5 41t-180.5 116t-110 178t-37 228zM411 646h448q0 104 -61 163.5t-159 59.5q-99 0 -163.5 -57.5t-64.5 -165.5zM429 1391q0 86 60 147t148 61q44 0 82.5 -16.5t66.5 -44t44.5 -66.5t16.5 -81t-16.5 -79.5t-44.5 -65.5t-66.5 -44t-82.5 -16t-82 16t-66.5 44 t-44 65.5t-15.5 79.5z" />
<glyph unicode="&#x118;" horiz-adv-x="1226" d="M148 0v1549h945v-289h-586v-351h586v-280h-586v-342h586v-287h-102q-21 -15 -44 -32t-40.5 -37t-28.5 -45t-11 -59q0 -46 26.5 -81t75.5 -35q27 0 60 6.5t64 18.5l-4 -171q-45 -15 -96 -24.5t-115 -9.5q-144 0 -211.5 63.5t-67.5 150.5q0 71 43.5 131t131.5 124h-626z " />
<glyph unicode="&#x119;" horiz-adv-x="1275" d="M76 534q0 117 36 218.5t108 178t177 120.5t245 44q126 0 226.5 -40t172 -106.5t110.5 -155t39 -185.5q0 -33 -1 -70.5t-10 -86.5h-763q0 -48 12.5 -91.5t40 -75.5t71.5 -50.5t108 -18.5q89 0 134 35t63 86h332q-25 -135 -135.5 -235.5t-298.5 -122.5q-36 -27 -63.5 -62.5 t-27.5 -88.5q0 -46 26.5 -81t75.5 -35q27 0 60 6.5t64 18.5l-4 -171q-45 -15 -95.5 -24.5t-115.5 -9.5q-141 0 -208.5 63.5t-67.5 150.5q0 66 35.5 121.5t111.5 114.5q-113 17 -199 65.5t-143 121.5t-86.5 166t-29.5 200zM411 646h448q0 104 -61 163.5t-159 59.5 q-99 0 -163.5 -57.5t-64.5 -165.5z" />
<glyph unicode="&#x11a;" horiz-adv-x="1226" d="M148 0v1549h945v-289h-586v-351h586v-280h-586v-342h586v-287h-945zM179 2007l169 183l264 -240l266 240l169 -183l-437 -365z" />
<glyph unicode="&#x11b;" horiz-adv-x="1275" d="M76 534q0 117 36 218.5t108 178t177 120.5t245 44q126 0 226.5 -40t172 -106.5t110.5 -155t39 -185.5q0 -33 -1 -70.5t-10 -86.5h-768q3 -48 15 -91.5t40 -75.5t72 -50.5t110 -18.5q89 0 134 35t63 86h332q-11 -76 -52 -141.5t-108.5 -115.5t-159 -79t-207.5 -29 q-139 0 -246.5 41t-180.5 116t-110 178t-37 228zM211 1528l169 182l264 -239l265 241l168 -184l-435 -365zM411 646h448q0 104 -61 163.5t-159 59.5q-99 0 -163.5 -57.5t-64.5 -165.5z" />
<glyph unicode="&#x11c;" horiz-adv-x="1846" d="M71 774q0 159 55 306.5t160 260.5t255.5 180t340.5 67q153 0 280.5 -43t220 -117.5t147.5 -172.5t67 -208h-383q-9 46 -35.5 88t-69.5 74t-100.5 51t-126.5 19q-105 0 -188.5 -42.5t-139.5 -113t-86 -162.5t-30 -189q0 -103 29 -195t87 -162t148 -110.5t210 -40.5 q82 0 145.5 23t110 62.5t75.5 92t38 109.5h-274v268h802v-268h-159q-25 -133 -84 -241.5t-157 -186t-229 -120.5t-298 -43q-194 0 -346 66.5t-254.5 178t-156.5 258.5t-54 311zM460 1834l431 363l436 -363l-168 -186l-266 237l-262 -235z" />
<glyph unicode="&#x11d;" horiz-adv-x="1399" d="M78 534q0 119 36 222t104.5 177t163.5 117t213 43q102 0 193.5 -47.5t135.5 -131.5v152h339v-1060q0 -145 -42 -242.5t-124 -159.5q-77 -58 -181 -86.5t-253 -28.5q-150 0 -250.5 33t-167.5 91q-71 58 -110.5 137t-43.5 168h338q6 -68 65 -123.5t169 -55.5 q120 0 190.5 57.5t70.5 184.5v178q-44 -74 -132.5 -119.5t-192.5 -45.5q-114 0 -210.5 39.5t-165.5 111.5t-107 170.5t-38 218.5zM243 1365l432 362l435 -362l-168 -186l-265 237l-263 -234zM416 534q0 -56 17.5 -106t50.5 -86t79.5 -58.5t103.5 -22.5q58 0 106 22.5 t81 58.5t51.5 85.5t18.5 106.5q0 55 -18.5 103.5t-51.5 86t-81 59.5t-106 22q-57 0 -103.5 -22t-79.5 -59.5t-50.5 -86t-17.5 -103.5z" />
<glyph unicode="&#x11e;" horiz-adv-x="1846" d="M71 774q0 159 55 306.5t160 260.5t255.5 180t340.5 67q153 0 280.5 -43t220 -117.5t147.5 -172.5t67 -208h-383q-9 46 -35.5 88t-69.5 74t-100.5 51t-126.5 19q-105 0 -188.5 -42.5t-139.5 -113t-86 -162.5t-30 -189q0 -103 29 -195t87 -162t148 -110.5t210 -40.5 q82 0 145.5 23t110 62.5t75.5 92t38 109.5h-274v268h802v-268h-159q-25 -133 -84 -241.5t-157 -186t-229 -120.5t-298 -43q-194 0 -346 66.5t-254.5 178t-156.5 258.5t-54 311zM418 2079h272q17 -68 67 -113.5t134 -45.5t134 45.5t70 113.5h270q-13 -86 -55 -157 t-105 -120.5t-144 -76t-170 -26.5q-91 0 -171.5 26.5t-142.5 76t-104 120.5t-55 157z" />
<glyph unicode="&#x11f;" horiz-adv-x="1399" d="M78 534q0 119 36 222t104.5 177t163.5 117t213 43q102 0 193.5 -47.5t135.5 -131.5v152h339v-1060q0 -145 -42 -242.5t-124 -159.5q-77 -58 -181 -86.5t-253 -28.5q-150 0 -250.5 33t-167.5 91q-71 58 -110.5 137t-43.5 168h338q6 -68 65 -123.5t169 -55.5 q120 0 190.5 57.5t70.5 184.5v178q-44 -74 -132.5 -119.5t-192.5 -45.5q-114 0 -210.5 39.5t-165.5 111.5t-107 170.5t-38 218.5zM211 1602h271q17 -68 67 -114t135 -46q84 0 133.5 45.5t69.5 114.5h270q-13 -87 -55.5 -157.5t-105.5 -120.5t-143.5 -77t-168.5 -27 q-91 0 -172 27t-142.5 77t-103.5 120.5t-55 157.5zM416 534q0 -56 17.5 -106t50.5 -86t79.5 -58.5t103.5 -22.5q58 0 106 22.5t81 58.5t51.5 85.5t18.5 106.5q0 55 -18.5 103.5t-51.5 86t-81 59.5t-106 22q-57 0 -103.5 -22t-79.5 -59.5t-50.5 -86t-17.5 -103.5z" />
<glyph unicode="&#x120;" horiz-adv-x="1846" d="M71 774q0 159 55 306.5t160 260.5t255.5 180t340.5 67q153 0 280.5 -43t220 -117.5t147.5 -172.5t67 -208h-383q-9 46 -35.5 88t-69.5 74t-100.5 51t-126.5 19q-105 0 -188.5 -42.5t-139.5 -113t-86 -162.5t-30 -189q0 -103 29 -195t87 -162t148 -110.5t210 -40.5 q82 0 145.5 23t110 62.5t75.5 92t38 109.5h-274v268h802v-268h-159q-25 -133 -84 -241.5t-157 -186t-229 -120.5t-298 -43q-194 0 -346 66.5t-254.5 178t-156.5 258.5t-54 311zM675 1902q0 42 15 81t44.5 67.5t66.5 45t81 16.5q45 0 83.5 -16.5t66 -45t44.5 -67.5t17 -81 t-17 -79.5t-44.5 -65t-66 -44t-83.5 -16.5q-44 0 -81 16.5t-66.5 44t-44.5 65t-15 79.5z" />
<glyph unicode="&#x121;" horiz-adv-x="1399" d="M78 534q0 119 36 222t104.5 177t163.5 117t213 43q102 0 193.5 -47.5t135.5 -131.5v152h339v-1060q0 -145 -42 -242.5t-124 -159.5q-77 -58 -181 -86.5t-253 -28.5q-150 0 -250.5 33t-167.5 91q-71 58 -110.5 137t-43.5 168h338q6 -68 65 -123.5t169 -55.5 q120 0 190.5 57.5t70.5 184.5v178q-44 -74 -132.5 -119.5t-192.5 -45.5q-114 0 -210.5 39.5t-165.5 111.5t-107 170.5t-38 218.5zM416 534q0 -56 17.5 -106t50.5 -86t79.5 -58.5t103.5 -22.5q58 0 106 22.5t81 58.5t51.5 85.5t18.5 106.5q0 55 -18.5 103.5t-51.5 86 t-81 59.5t-106 22q-57 0 -103.5 -22t-79.5 -59.5t-50.5 -86t-17.5 -103.5zM441 1389q0 42 16 81t43.5 67.5t65.5 45t82 16.5t83 -16.5t67.5 -45t45.5 -67.5t17 -81q0 -84 -61 -144.5t-152 -60.5q-44 0 -82 16t-65.5 44t-43.5 65.5t-16 79.5z" />
<glyph unicode="&#x122;" horiz-adv-x="1846" d="M71 774q0 159 55 306.5t160 260.5t255.5 180t340.5 67q153 0 280.5 -43t220 -117.5t147.5 -172.5t67 -208h-383q-9 46 -35.5 88t-69.5 74t-100.5 51t-126.5 19q-105 0 -188.5 -42.5t-139.5 -113t-86 -162.5t-30 -189q0 -103 29 -195t87 -162t148 -110.5t210 -40.5 q82 0 145.5 23t110 62.5t75.5 92t38 109.5h-274v268h802v-268h-159q-25 -133 -84 -241.5t-157 -186t-229 -120.5t-298 -43q-194 0 -346 66.5t-254.5 178t-156.5 258.5t-54 311zM719 -228q0 71 48.5 121t119.5 50q84 0 137 -61t53 -156q0 -98 -24.5 -164t-68.5 -107t-109 -61 t-147 -20v107q55 0 91.5 11.5t60.5 32.5q25 17 37 42.5t14 50.5q-4 -5 -17 -9.5t-27 -4.5q-78 0 -123 48.5t-45 119.5z" />
<glyph unicode="&#x123;" horiz-adv-x="1399" d="M78 534q0 119 36 222t104.5 177t163.5 117t213 43q102 0 193.5 -47.5t135.5 -131.5v152h339v-1060q0 -145 -42 -242.5t-124 -159.5q-77 -58 -181 -86.5t-253 -28.5q-150 0 -250.5 33t-167.5 91q-71 58 -110.5 137t-43.5 168h338q6 -68 65 -123.5t169 -55.5 q120 0 190.5 57.5t70.5 184.5v178q-44 -74 -132.5 -119.5t-192.5 -45.5q-114 0 -210.5 39.5t-165.5 111.5t-107 170.5t-38 218.5zM416 534q0 -56 17.5 -106t50.5 -86t79.5 -58.5t103.5 -22.5q58 0 106 22.5t81 58.5t51.5 85.5t18.5 106.5q0 55 -18.5 103.5t-51.5 86 t-81 59.5t-106 22q-57 0 -103.5 -22t-79.5 -59.5t-50.5 -86t-17.5 -103.5zM433 1437q0 113 28 191.5t80 127.5t128 71t173 22v-124q-119 0 -177 -51q-31 -25 -44 -52t-17 -58q4 4 19.5 9.5t33.5 5.5q90 0 143.5 -57.5t53.5 -136.5q0 -85 -57.5 -143t-139.5 -58 q-102 0 -163 70.5t-61 182.5z" />
<glyph unicode="&#x124;" horiz-adv-x="1545" d="M148 0v1549h359v-627h535v627h356v-1549h-356v615h-535v-615h-359zM340 1834l434 363l433 -363l-167 -186l-266 237l-263 -235z" />
<glyph unicode="&#x125;" horiz-adv-x="1319" d="M144 0v1549h327v-637q44 84 132.5 132.5t212.5 48.5q104 0 175 -32.5t115 -89.5q51 -62 68.5 -144t17.5 -196v-631h-327v546q0 115 -41 187t-147 72q-104 0 -155 -73t-51 -196v-536h-327zM230 1813l431 363l436 -363l-168 -185l-266 236l-264 -234z" />
<glyph unicode="&#x126;" horiz-adv-x="1545" d="M148 0v1549h359v-235h535v235h356v-1549h-356v615h-535v-615h-359zM507 922h535v197h-535v-197z" />
<glyph unicode="&#x127;" horiz-adv-x="1319" d="M-2 1179v182h146v188h327v-188h297v-182h-297v-267q44 84 132.5 132.5t212.5 48.5q104 0 175 -32.5t115 -89.5q51 -62 68.5 -144t17.5 -196v-631h-327v546q0 115 -41 187t-147 72q-104 0 -155 -73t-51 -196v-536h-327v1179h-146z" />
<glyph unicode="&#x128;" horiz-adv-x="658" d="M-162 1891q64 91 144 130t168 39q62 0 109 -17t85 -36t71.5 -35.5t69.5 -16.5q55 0 89 30t63 72l179 -155q-61 -99 -145.5 -141.5t-170.5 -42.5q-62 0 -110 17t-86 36t-72.5 35.5t-67.5 16.5q-55 0 -88.5 -29t-64.5 -74zM148 0v1549h363v-1549h-363z" />
<glyph unicode="&#x129;" horiz-adv-x="625" d="M-175 1437q62 91 143 130t167 39q62 0 108 -15.5t85 -35.5t72 -35.5t69 -15.5q55 0 89.5 29t65.5 73l176 -158q-61 -97 -145.5 -140t-169.5 -43q-62 0 -110 16.5t-87 35.5t-73 35.5t-67 16.5q-55 0 -87 -29t-63 -72zM144 0v1066h338v-1066h-338z" />
<glyph unicode="&#x12a;" horiz-adv-x="658" d="M-76 1756v255h815v-255h-815zM148 0v1549h363v-1549h-363z" />
<glyph unicode="&#x12b;" horiz-adv-x="625" d="M-95 1265v255h814v-255h-814zM144 0v1066h338v-1066h-338z" />
<glyph unicode="&#x12c;" horiz-adv-x="658" d="M-141 2079h270q19 -68 68.5 -113.5t134.5 -45.5q84 0 133.5 45.5t68.5 113.5h271q-13 -86 -55.5 -157t-105 -120.5t-143.5 -76t-169 -26.5q-91 0 -171.5 26.5t-143.5 76t-104.5 120.5t-53.5 157zM148 0v1549h363v-1549h-363z" />
<glyph unicode="&#x12d;" horiz-adv-x="625" d="M-157 1602h269q20 -68 70 -114t134 -46q85 0 134.5 45.5t66.5 114.5h272q-12 -87 -54.5 -157.5t-105.5 -120.5t-143.5 -77t-169.5 -27q-90 0 -171 27t-144 77t-104 120.5t-54 157.5zM144 0v1066h338v-1066h-338z" />
<glyph unicode="&#x12e;" horiz-adv-x="658" d="M59 -255q0 71 43.5 131t131.5 124h-86v1549h363v-1549h-62q-21 -15 -44 -32t-40 -37t-28.5 -45t-11.5 -59q0 -46 26.5 -81t75.5 -35q27 0 59.5 6.5t64.5 18.5l-5 -171q-44 -15 -94.5 -24.5t-115.5 -9.5q-142 0 -209.5 63.5t-67.5 150.5z" />
<glyph unicode="&#x12f;" horiz-adv-x="625" d="M36 -255q0 71 43 131t132 124h-67v1066h338v-1066h-55q-22 -15 -44 -32t-40 -37t-29 -45t-11 -59q0 -46 26.5 -81t75.5 -35q27 0 60 6.5t63 18.5l-4 -171q-44 -15 -95 -24.5t-115 -9.5q-143 0 -210.5 63.5t-67.5 150.5zM95 1420q0 91 62 152.5t155 61.5q47 0 86.5 -16 t69.5 -45t46.5 -69t16.5 -84t-16.5 -83t-46.5 -68.5t-69.5 -46.5t-86.5 -17q-46 0 -85 17t-68.5 46.5t-46.5 68.5t-17 83z" />
<glyph unicode="&#x130;" horiz-adv-x="658" d="M120 1904q0 42 16 81t44 66.5t65.5 44t81.5 16.5q45 0 83.5 -16.5t67.5 -44t45.5 -66.5t16.5 -81t-16.5 -79.5t-45.5 -65t-67.5 -44t-83.5 -16.5q-44 0 -81.5 16.5t-65.5 44t-44 65t-16 79.5zM148 0v1549h363v-1549h-363z" />
<glyph unicode="&#x131;" horiz-adv-x="570" d="M118 0v1066h338v-1066h-338z" />
<glyph unicode="&#x134;" horiz-adv-x="1288" d="M27 536h357q0 -115 51.5 -190.5t155.5 -75.5q103 0 156 69.5t53 194.5v1015h357v-1015q0 -277 -149 -424.5t-417 -147.5q-140 0 -246 44.5t-177 121.5t-106 181.5t-35 226.5zM546 1834l431 363l437 -363l-169 -186l-265 237l-263 -235z" />
<glyph unicode="&#x135;" horiz-adv-x="625" d="M-118 1365l432 362l436 -362l-168 -186l-266 237l-263 -234zM-31 -230q31 -9 49 -11t37 -2q44 0 66.5 24.5t22.5 81.5v1203h338v-1232q0 -104 -23.5 -171.5t-61.5 -105t-90 -52t-110 -14.5q-64 0 -130.5 7.5t-97.5 19.5v252z" />
<glyph unicode="&#x136;" horiz-adv-x="1456" d="M148 0v1549h359v-658l500 658h430l-612 -775l612 -774h-430l-500 654v-654h-359zM559 -205q0 71 49 120t120 49q84 0 137 -60.5t53 -155.5q0 -97 -24.5 -163.5t-68.5 -107.5t-109.5 -61t-147.5 -20v106q53 0 91 12.5t62 31.5q25 18 36 44t15 49q-4 -4 -17.5 -8.5 t-26.5 -4.5q-78 0 -123.5 49t-45.5 120z" />
<glyph unicode="&#x137;" horiz-adv-x="1224" d="M144 0v1549h338v-934l330 451h402l-416 -532l414 -534h-402l-328 447v-447h-338zM435 -205q0 71 49.5 120t117.5 49q84 0 138 -60.5t54 -155.5q0 -97 -24.5 -163.5t-70 -107.5t-110.5 -61t-146 -20v106q55 0 92 12.5t62 31.5q25 18 36 44t13 49q-4 -4 -16.5 -8.5 t-27.5 -4.5q-78 0 -122.5 49t-44.5 120z" />
<glyph unicode="&#x138;" horiz-adv-x="1224" d="M144 0v1066h338v-451l330 451h402l-416 -532l414 -534h-402l-328 447v-447h-338z" />
<glyph unicode="&#x139;" horiz-adv-x="1001" d="M-29 1872l611 283l106 -235l-610 -283zM148 0v1549h359v-1239h440v-310h-799z" />
<glyph unicode="&#x13a;" horiz-adv-x="625" d="M-44 1887l610 283l107 -235l-611 -283zM144 0v1549h338v-1549h-338z" />
<glyph unicode="&#x13b;" horiz-adv-x="1001" d="M148 0v1549h359v-1239h440v-310h-799zM321 -205q0 71 48.5 120t119.5 49q84 0 137 -60.5t53 -155.5q0 -97 -24 -163.5t-68.5 -107.5t-110 -61t-147.5 -20v106q55 0 92 12.5t61 31.5q25 18 37 44t15 49q-5 -4 -18.5 -8.5t-26.5 -4.5q-78 0 -123 49t-45 120z" />
<glyph unicode="&#x13c;" horiz-adv-x="625" d="M135 -205q0 71 48.5 120t117.5 49q85 0 139 -60.5t54 -155.5q0 -97 -24.5 -163.5t-70 -107.5t-110.5 -61t-148 -20v106q56 0 93.5 12.5t61.5 31.5q25 18 35.5 44t13.5 49q-5 -4 -17 -8.5t-27 -4.5q-77 0 -121.5 49t-44.5 120zM144 0v1549h338v-1549h-338z" />
<glyph unicode="&#x13d;" horiz-adv-x="1001" d="M148 0v1549h359v-1239h440v-310h-799zM690 1422q0 45 17 85t44.5 68.5t65 45t80.5 16.5q108 0 174 -75.5t66 -194.5q0 -120 -30 -204t-86.5 -135t-137.5 -75t-184 -24v130q68 0 114 16t76 40q31 24 45.5 55t19.5 62q-5 -4 -21.5 -10t-35.5 -6q-97 0 -152 61t-55 145z" />
<glyph unicode="&#x13e;" horiz-adv-x="1087" d="M144 0v1549h338v-1549h-338zM619 1422q0 45 16.5 85t44 68.5t65.5 45t82 16.5q108 0 173.5 -75.5t65.5 -194.5q0 -120 -29.5 -204t-86.5 -135t-137.5 -75t-183.5 -24v130q68 0 113 16t77 40q31 24 45 55t18 62q-4 -4 -20.5 -10t-34.5 -6q-97 0 -152.5 61t-55.5 145z" />
<glyph unicode="&#x13f;" horiz-adv-x="1056" d="M148 0v1549h359v-1239h440v-310h-799zM652 907q0 47 17 86t46.5 69.5t70.5 48t88 17.5q97 0 161 -64t64 -157t-64 -157t-161 -64q-47 0 -88 17.5t-70.5 47.5t-46.5 70t-17 86z" />
<glyph unicode="&#x140;" horiz-adv-x="973" d="M144 0v1549h338v-1549h-338zM578 761q0 47 17 86.5t47.5 69.5t71 47.5t86.5 17.5q47 0 89 -17.5t72 -47.5t47.5 -69.5t17.5 -86.5q0 -46 -17.5 -86t-47.5 -70t-72 -47.5t-89 -17.5q-46 0 -86.5 17.5t-71 47.5t-47.5 70t-17 86z" />
<glyph unicode="&#x141;" horiz-adv-x="1007" d="M59 522v212l95 45v770h359v-605l303 137v-212l-303 -137v-422h441v-310h-800v566z" />
<glyph unicode="&#x142;" horiz-adv-x="640" d="M4 549v207l142 73v720h363v-549l145 77v-212l-145 -76v-789h-363v621z" />
<glyph unicode="&#x143;" horiz-adv-x="1585" d="M148 0v1549h374l559 -1009v1009h356v-1549h-373l-557 996v-996h-359zM433 1872l611 283l106 -235l-610 -283z" />
<glyph unicode="&#x144;" horiz-adv-x="1342" d="M144 0v1066h338v-154q44 86 133.5 133.5t216.5 47.5q103 0 178.5 -32.5t120.5 -89.5q51 -62 67 -143t16 -195v-633h-338v546q0 115 -41 187t-147 72q-104 0 -155 -73t-51 -196v-536h-338zM312 1361l610 283l108 -235l-610 -284z" />
<glyph unicode="&#x145;" horiz-adv-x="1585" d="M148 0v1549h374l559 -1009v1009h356v-1549h-373l-557 996v-996h-359zM612 -205q0 71 49 120t120 49q84 0 137 -60.5t53 -155.5q0 -97 -24.5 -163.5t-68.5 -107.5t-109.5 -61t-147.5 -20v106q55 0 92 12.5t61 31.5q25 18 37 44t14 49q-4 -4 -17.5 -8.5t-26.5 -4.5 q-78 0 -123.5 49t-45.5 120z" />
<glyph unicode="&#x146;" horiz-adv-x="1342" d="M144 0v1066h338v-154q44 86 133.5 133.5t216.5 47.5q103 0 178.5 -32.5t120.5 -89.5q51 -62 67 -143t16 -195v-633h-338v546q0 115 -41 187t-147 72q-104 0 -155 -73t-51 -196v-536h-338zM515 -205q0 71 48.5 120t117.5 49q85 0 139 -60.5t54 -155.5q0 -97 -24.5 -163.5 t-70 -107.5t-110.5 -61t-147 -20v106q55 0 92.5 12.5t62.5 31.5q25 18 36 44t13 49q-5 -4 -17 -8.5t-28 -4.5q-77 0 -121.5 49t-44.5 120z" />
<glyph unicode="&#x147;" horiz-adv-x="1585" d="M148 0v1549h374l559 -1009v1009h356v-1549h-373l-557 996v-996h-359zM365 2007l169 183l264 -240l266 240l168 -183l-436 -365z" />
<glyph unicode="&#x148;" horiz-adv-x="1342" d="M144 0v1066h338v-154q44 86 133.5 133.5t216.5 47.5q103 0 178.5 -32.5t120.5 -89.5q51 -62 67 -143t16 -195v-633h-338v546q0 115 -41 187t-147 72q-104 0 -155 -73t-51 -196v-536h-338zM259 1528l170 182l263 -239l266 241l167 -184l-435 -365z" />
<glyph unicode="&#x149;" horiz-adv-x="1342" d="M-184 1588q0 75 52 128t128 53q90 0 146.5 -63.5t56.5 -168.5q0 -203 -99.5 -287.5t-274.5 -86.5v116q57 0 96 11.5t66 32.5q27 22 39 47t16 52q-4 -4 -18.5 -8.5t-27.5 -4.5q-85 0 -132.5 52.5t-47.5 126.5zM144 0v1066h338v-154q44 86 133.5 133.5t216.5 47.5 q103 0 178.5 -32.5t120.5 -89.5q51 -62 67 -143t16 -195v-633h-338v546q0 115 -41 187t-147 72q-104 0 -155 -73t-51 -196v-536h-338z" />
<glyph unicode="&#x14a;" horiz-adv-x="1585" d="M148 0v1549h359l574 -1009v1009h356v-1522q0 -276 -149 -422.5t-416 -146.5q-120 0 -213 45.5t-161 122.5l207 222q42 -38 78 -61.5t89 -23.5q99 0 149.5 65.5t55.5 173.5l-570 994v-996h-359z" />
<glyph unicode="&#x14b;" horiz-adv-x="1342" d="M144 0v1066h338v-154q44 86 133.5 133.5t216.5 47.5q103 0 178.5 -32.5t120.5 -89.5q51 -62 67 -143t16 -195v-660q0 -234 -120.5 -359t-339.5 -125q-108 0 -190 36.5t-144 96.5l131 210q33 -32 64 -51.5t79 -19.5q91 0 135.5 63.5t46.5 162.5v559q0 115 -41 187t-147 72 q-104 0 -155 -73t-51 -196v-536h-338z" />
<glyph unicode="&#x14c;" horiz-adv-x="1779" d="M71 774q0 159 55 306.5t161.5 260.5t259 180t344.5 67t344 -67t258 -180t161.5 -260.5t55.5 -306.5q0 -158 -55.5 -305.5t-161.5 -260.5t-258 -180.5t-344 -67.5t-344.5 67.5t-259 180.5t-161.5 260t-55 306zM438 774q0 -95 31 -183.5t89.5 -157t142.5 -109.5t190 -41 t190 41t143 109.5t90 157t31 183.5t-31 184t-90 157.5t-142.5 109t-190.5 40.5q-106 0 -190 -40.5t-142.5 -109t-89.5 -157.5t-31 -184zM485 1756v255h813v-255h-813z" />
<glyph unicode="&#x14d;" horiz-adv-x="1324" d="M71 534q0 114 40.5 215.5t117.5 178t186 122t246 45.5q139 0 249 -45.5t186 -122t117 -178t41 -215.5q0 -115 -41 -217t-117 -178.5t-186 -122t-249 -45.5q-137 0 -246 45.5t-186 122t-117.5 178t-40.5 217.5zM257 1265v255h813v-255h-813zM409 534q0 -58 18 -107 t51 -86.5t79.5 -58.5t103.5 -21t105 21t81 58.5t52 86t19 107.5q0 55 -19 104.5t-52 86t-80.5 58.5t-105.5 22q-57 0 -103.5 -22t-79.5 -58.5t-51 -86t-18 -104.5z" />
<glyph unicode="&#x14e;" horiz-adv-x="1779" d="M71 774q0 159 55 306.5t161.5 260.5t259 180t344.5 67t344 -67t258 -180t161.5 -260.5t55.5 -306.5q0 -158 -55.5 -305.5t-161.5 -260.5t-258 -180.5t-344 -67.5t-344.5 67.5t-259 180.5t-161.5 260t-55 306zM418 2079h270q19 -68 69 -113.5t134 -45.5t134 45.5t68 113.5 h272q-13 -86 -55 -157t-105 -120.5t-144 -76t-170 -26.5q-91 0 -171.5 26.5t-143.5 76t-104 120.5t-54 157zM438 774q0 -95 31 -183.5t89.5 -157t142.5 -109.5t190 -41t190 41t143 109.5t90 157t31 183.5t-31 184t-90 157.5t-142.5 109t-190.5 40.5q-106 0 -190 -40.5 t-142.5 -109t-89.5 -157.5t-31 -184z" />
<glyph unicode="&#x14f;" horiz-adv-x="1324" d="M71 534q0 114 40.5 215.5t117.5 178t186 122t246 45.5q139 0 249 -45.5t186 -122t117 -178t41 -215.5q0 -115 -41 -217t-117 -178.5t-186 -122t-249 -45.5q-137 0 -246 45.5t-186 122t-117.5 178t-40.5 217.5zM188 1602h272q17 -68 67 -114t134 -46t134 45.5t68 114.5 h272q-13 -87 -55 -157.5t-105 -120.5t-144 -77t-170 -27q-91 0 -171.5 27t-143.5 77t-104 120.5t-54 157.5zM409 534q0 -58 18 -107t51 -86.5t79.5 -58.5t103.5 -21t105 21t81 58.5t52 86t19 107.5q0 55 -19 104.5t-52 86t-80.5 58.5t-105.5 22q-57 0 -103.5 -22 t-79.5 -58.5t-51 -86t-18 -104.5z" />
<glyph unicode="&#x150;" horiz-adv-x="1779" d="M71 774q0 159 55 306.5t161.5 260.5t259 180t344.5 67t344 -67t258 -180t161.5 -260.5t55.5 -306.5q0 -158 -55.5 -305.5t-161.5 -260.5t-258 -180.5t-344 -67.5t-344.5 67.5t-259 180.5t-161.5 260t-55 306zM438 774q0 -95 31 -183.5t89.5 -157t142.5 -109.5t190 -41 t190 41t143 109.5t90 157t31 183.5t-31 184t-90 157.5t-142.5 109t-190.5 40.5q-106 0 -190 -40.5t-142.5 -109t-89.5 -157.5t-31 -184zM460 1765l277 398l234 -137l-374 -323zM891 1765l276 398l235 -137l-374 -323z" />
<glyph unicode="&#x151;" horiz-adv-x="1324" d="M71 534q0 114 40.5 215.5t117.5 178t186 122t246 45.5q139 0 249 -45.5t186 -122t117 -178t41 -215.5q0 -115 -41 -217t-117 -178.5t-186 -122t-249 -45.5q-137 0 -246 45.5t-186 122t-117.5 178t-40.5 217.5zM272 1272l277 396l234 -135l-374 -323zM409 534 q0 -58 18 -107t51 -86.5t79.5 -58.5t103.5 -21t105 21t81 58.5t52 86t19 107.5q0 55 -19 104.5t-52 86t-80.5 58.5t-105.5 22q-57 0 -103.5 -22t-79.5 -58.5t-51 -86t-18 -104.5zM703 1272l277 396l234 -135l-374 -323z" />
<glyph unicode="&#x152;" horiz-adv-x="2425" d="M71 772q0 159 55 306.5t161.5 259.5t259 179.5t344.5 67.5q139 0 253 -39t203 -109v112h945v-289h-589v-351h589v-280h-589v-342h589v-287h-945v104q-89 -68 -203 -107t-253 -39q-192 0 -344.5 67.5t-259 180.5t-161.5 259.5t-55 306.5zM438 772q0 -95 31 -183.5 t89.5 -157t142.5 -109.5t190 -41t190 41t143 109.5t90 157t31 183.5t-31 182.5t-90 156t-142.5 109t-190.5 40.5q-106 0 -190 -40.5t-142.5 -109t-89.5 -156t-31 -182.5z" />
<glyph unicode="&#x153;" horiz-adv-x="2117" d="M71 534q0 114 40.5 215.5t117.5 178t186 122t246 45.5q133 0 237 -43t179 -115q71 74 173.5 116t235.5 42q126 0 226.5 -40t172.5 -106.5t111 -155t39 -185.5q0 -33 -2.5 -70.5t-10.5 -86.5h-764q0 -48 12.5 -91.5t40 -75.5t72 -50.5t110.5 -18.5q88 0 133.5 35t63.5 86 h332q-13 -76 -54 -141.5t-108.5 -115.5t-159.5 -79t-207 -29q-135 0 -239 42t-175 116q-76 -72 -180.5 -115t-237.5 -43q-137 0 -246 45.5t-186 122t-117.5 178t-40.5 217.5zM409 534q0 -58 18 -107t51 -86.5t79.5 -58.5t103.5 -21q114 0 185.5 77.5t71.5 195.5 q0 114 -70.5 192.5t-186.5 78.5q-57 0 -103.5 -22t-79.5 -58.5t-51 -86t-18 -104.5zM1260 646h441q0 97 -60 153.5t-159 56.5q-95 0 -158.5 -54.5t-63.5 -155.5z" />
<glyph unicode="&#x154;" horiz-adv-x="1446" d="M148 0v1549h650q129 0 233 -45.5t178 -122t114 -178t40 -215.5q0 -164 -81 -297.5t-227 -201.5l310 -489h-416l-274 429h-168v-429h-359zM365 1872l610 283l106 -235l-610 -283zM507 721h245q55 0 102 22.5t78.5 58.5t49.5 84.5t18 101.5t-18 102t-49.5 85.5t-78 58.5 t-102.5 22h-245v-535z" />
<glyph unicode="&#x155;" horiz-adv-x="922" d="M104 1389l611 283l106 -235l-610 -282zM144 0v1066h338v-173q37 76 124.5 133.5t201.5 57.5q59 0 101 -18v-308q-35 9 -59.5 12.5t-60.5 3.5q-139 0 -223 -82t-84 -276v-416h-338z" />
<glyph unicode="&#x156;" horiz-adv-x="1446" d="M148 0v1549h650q129 0 233 -45.5t178 -122t114 -178t40 -215.5q0 -164 -81 -297.5t-227 -201.5l310 -489h-416l-274 429h-168v-429h-359zM507 721h245q55 0 102 22.5t78.5 58.5t49.5 84.5t18 101.5t-18 102t-49.5 85.5t-78 58.5t-102.5 22h-245v-535zM544 -205 q0 71 49 120t117 49q84 0 138.5 -60.5t54.5 -155.5q0 -97 -24.5 -163.5t-69.5 -107.5t-110.5 -61t-147.5 -20v106q106 0 152.5 43.5t50.5 93.5q-2 -4 -16 -8.5t-28 -4.5q-78 0 -122 49t-44 120z" />
<glyph unicode="&#x157;" horiz-adv-x="922" d="M135 -205q0 71 48.5 120t117.5 49q85 0 139 -59t54 -157q0 -97 -24.5 -162.5t-70 -107.5t-110.5 -61t-148 -19v106q56 0 93.5 11.5t61.5 30.5q44 38 49 95q-5 -4 -17 -9.5t-27 -5.5q-77 0 -121.5 50.5t-44.5 118.5zM144 0v1066h338v-173q37 76 124.5 133.5t201.5 57.5 q59 0 101 -18v-308q-35 9 -59.5 12.5t-60.5 3.5q-139 0 -223 -82t-84 -276v-416h-338z" />
<glyph unicode="&#x158;" horiz-adv-x="1446" d="M148 0v1549h650q129 0 233 -45.5t178 -122t114 -178t40 -215.5q0 -164 -81 -297.5t-227 -201.5l310 -489h-416l-274 429h-168v-429h-359zM241 2007l168 183l266 -240l265 240l168 -183l-435 -365zM507 721h245q55 0 102 22.5t78.5 58.5t49.5 84.5t18 101.5t-18 102 t-49.5 85.5t-78 58.5t-102.5 22h-245v-535z" />
<glyph unicode="&#x159;" horiz-adv-x="922" d="M82 1528l170 182l263 -239l266 241l168 -184l-436 -365zM144 0v1066h338v-173q37 76 124.5 133.5t201.5 57.5q59 0 101 -18v-308q-35 9 -59.5 12.5t-60.5 3.5q-139 0 -223 -82t-84 -276v-416h-338z" />
<glyph unicode="&#x15a;" horiz-adv-x="1340" d="M84 513h359q0 -126 68.5 -197t178.5 -71q87 0 145 50t58 132q0 46 -18.5 78.5t-50.5 56.5t-76.5 43t-95.5 39q-106 40 -202 80t-166.5 96t-112.5 135.5t-42 196.5q0 106 45 188t120 137.5t173.5 83t205.5 27.5q137 0 240.5 -39.5t172.5 -108t103.5 -157.5t34.5 -188h-359 q0 104 -49.5 164t-142.5 60q-78 0 -133 -40t-55 -120q0 -78 60.5 -123t159.5 -80q95 -34 193 -72.5t175 -95t127 -137.5t50 -195q0 -120 -43.5 -213t-120.5 -155.5t-183.5 -95t-235.5 -32.5q-124 0 -231 36.5t-185 107.5t-122.5 173.5t-44.5 235.5zM310 1872l610 283 l108 -235l-610 -283z" />
<glyph unicode="&#x15b;" horiz-adv-x="1127" d="M73 359l332 -3q0 -84 47.5 -120.5t122.5 -36.5q61 0 100.5 23t39.5 76q0 31 -17 50t-51.5 36t-88.5 33t-129 41q-66 19 -126 42.5t-105.5 57t-72 84t-26.5 128.5q0 166 127.5 245.5t343.5 79.5q115 0 203 -27.5t144 -76.5t84.5 -115t28.5 -142h-333q0 66 -34 103t-106 37 q-50 0 -88 -23.5t-38 -71.5q0 -29 18 -48t52.5 -34.5t85 -31t116.5 -36.5q71 -20 132.5 -43.5t108.5 -57.5t75 -85.5t28 -128.5q0 -95 -38 -160t-104.5 -106.5t-154 -59t-186.5 -17.5q-228 0 -359.5 100t-131.5 288zM205 1361l611 283l106 -235l-610 -284z" />
<glyph unicode="&#x15c;" horiz-adv-x="1340" d="M84 513h359q0 -126 68.5 -197t178.5 -71q87 0 145 50t58 132q0 46 -18.5 78.5t-50.5 56.5t-76.5 43t-95.5 39q-106 40 -202 80t-166.5 96t-112.5 135.5t-42 196.5q0 106 45 188t120 137.5t173.5 83t205.5 27.5q137 0 240.5 -39.5t172.5 -108t103.5 -157.5t34.5 -188h-359 q0 104 -49.5 164t-142.5 60q-78 0 -133 -40t-55 -120q0 -78 60.5 -123t159.5 -80q95 -34 193 -72.5t175 -95t127 -137.5t50 -195q0 -120 -43.5 -213t-120.5 -155.5t-183.5 -95t-235.5 -32.5q-124 0 -231 36.5t-185 107.5t-122.5 173.5t-44.5 235.5zM243 1834l432 363 l435 -363l-168 -186l-265 237l-263 -235z" />
<glyph unicode="&#x15d;" horiz-adv-x="1127" d="M73 359l332 -3q0 -84 47.5 -120.5t122.5 -36.5q61 0 100.5 23t39.5 76q0 31 -17 50t-51.5 36t-88.5 33t-129 41q-66 19 -126 42.5t-105.5 57t-72 84t-26.5 128.5q0 166 127.5 245.5t343.5 79.5q115 0 203 -27.5t144 -76.5t84.5 -115t28.5 -142h-333q0 66 -34 103t-106 37 q-50 0 -88 -23.5t-38 -71.5q0 -29 18 -48t52.5 -34.5t85 -31t116.5 -36.5q71 -20 132.5 -43.5t108.5 -57.5t75 -85.5t28 -128.5q0 -95 -38 -160t-104.5 -106.5t-154 -59t-186.5 -17.5q-228 0 -359.5 100t-131.5 288zM135 1365l431 362l436 -362l-168 -186l-266 237 l-265 -234z" />
<glyph unicode="&#x15e;" horiz-adv-x="1340" d="M84 513h359q0 -126 68.5 -197t178.5 -71q87 0 145 50t58 132q0 46 -18.5 78.5t-50.5 56.5t-76.5 43t-95.5 39q-106 40 -202 80t-166.5 96t-112.5 135.5t-42 196.5q0 106 45 188t120 137.5t173.5 83t205.5 27.5q137 0 240.5 -39.5t172.5 -108t103.5 -157.5t34.5 -188h-359 q0 104 -49.5 164t-142.5 60q-78 0 -133 -40t-55 -120q0 -78 60.5 -123t159.5 -80q95 -34 193 -72.5t175 -95t127 -137.5t50 -195q0 -110 -35.5 -196.5t-100.5 -148.5t-157 -99t-203 -48v-95q13 13 35.5 23.5t57.5 10.5t69.5 -14.5t59 -41t39.5 -63t15 -78.5t-15 -82t-45 -72 t-75.5 -50.5t-105.5 -18.5q-31 0 -69.5 8.5t-74 31.5t-62 63t-32.5 102h164q6 -31 24.5 -48.5t49.5 -17.5q34 0 56 23t22 61q0 34 -22 54.5t-53 20.5q-47 0 -66 -38h-144v221q-108 13 -200.5 54t-158.5 111t-102.5 166t-36.5 218z" />
<glyph unicode="&#x15f;" horiz-adv-x="1127" d="M73 359l332 -3q0 -84 47.5 -120.5t122.5 -36.5q61 0 100.5 23t39.5 76q0 31 -17 50t-51.5 36t-88.5 33t-129 41q-66 19 -126 42.5t-105.5 57t-72 84t-26.5 128.5q0 166 127.5 245.5t343.5 79.5q115 0 203 -27.5t144 -76.5t84.5 -115t28.5 -142h-333q0 66 -34 103t-106 37 q-50 0 -88 -23.5t-38 -71.5q0 -29 18 -48t52.5 -34.5t85 -31t116.5 -36.5q71 -20 132.5 -43.5t108.5 -57.5t75 -85.5t28 -128.5q0 -86 -32.5 -148t-89 -103t-133.5 -61.5t-166 -26.5v-101q13 13 35.5 23t57.5 10q36 0 70 -14.5t58.5 -41t40 -62.5t15.5 -78 q0 -43 -15.5 -82.5t-45.5 -71.5t-75.5 -51t-105.5 -19q-31 0 -69.5 8.5t-74 32t-62 63.5t-33.5 101h164q7 -31 26 -48.5t49 -17.5q33 0 55.5 23.5t22.5 61.5q0 33 -22.5 53.5t-53.5 20.5q-46 0 -66 -37h-143v233q-182 24 -281.5 120t-99.5 258z" />
<glyph unicode="&#x160;" horiz-adv-x="1340" d="M84 513h359q0 -126 68.5 -197t178.5 -71q87 0 145 50t58 132q0 46 -18.5 78.5t-50.5 56.5t-76.5 43t-95.5 39q-106 40 -202 80t-166.5 96t-112.5 135.5t-42 196.5q0 106 45 188t121.5 137.5t175.5 83t206 27.5q137 0 240 -39.5t170.5 -108t102 -157.5t34.5 -188h-359 q0 104 -49.5 164t-142.5 60q-78 0 -133 -40t-55 -120q0 -78 60.5 -123t159.5 -80q95 -34 193 -72.5t175 -95t127 -137.5t50 -195q0 -120 -43.5 -213t-120.5 -155.5t-183.5 -95t-235.5 -32.5q-124 0 -231 36.5t-185 107.5t-122.5 173.5t-44.5 235.5zM249 2007l171 183 l264 -240l265 240l168 -183l-436 -365z" />
<glyph unicode="&#x161;" horiz-adv-x="1127" d="M73 356h332q0 -84 47.5 -120.5t122.5 -36.5q61 0 100.5 23t39.5 76q0 31 -17 50t-51.5 36t-88.5 33t-129 41q-66 19 -126 42.5t-105.5 57t-72 84t-26.5 128.5q0 166 127.5 245.5t343.5 79.5q115 0 203 -27.5t144 -76.5t84.5 -115t28.5 -142h-333q0 66 -34 103t-106 37 q-50 0 -88 -23.5t-38 -71.5q0 -29 18 -48t52.5 -34.5t85 -31t116.5 -36.5q71 -20 132.5 -43.5t108.5 -57.5t75 -85.5t28 -128.5q0 -95 -38 -160t-104.5 -106.5t-154 -59t-186.5 -17.5q-228 0 -359.5 100t-131.5 285zM135 1528l168 182l265 -239l266 241l168 -184l-436 -365z " />
<glyph unicode="&#x162;" horiz-adv-x="1125" d="M33 1239v310h1060v-310h-352v-1239h-359v1239h-349zM389 -205q0 71 49 120t117 49q84 0 138 -60.5t54 -155.5q0 -97 -24 -163.5t-69.5 -107.5t-111 -61t-146.5 -20v106q106 0 152.5 43.5t50.5 93.5q-2 -4 -16.5 -8.5t-27.5 -4.5q-78 0 -122 49t-44 120z" />
<glyph unicode="&#x163;" horiz-adv-x="846" d="M38 814v252h167v316h337v-316h243v-252h-243v-381q0 -59 11 -94.5t31 -54t46.5 -25.5t57.5 -7t64 1.5t58 5.5v-259q-38 -6 -94.5 -11.5t-131.5 -5.5q-59 0 -126 8.5t-123 45t-93 113t-37 209.5v455h-167zM316 -205q0 71 49 120t117 49q84 0 138.5 -60.5t54.5 -155.5 q0 -97 -24.5 -163.5t-69.5 -107.5t-110.5 -61t-147.5 -20v106q55 0 93 12.5t61 31.5q25 18 36 44t13 49q-4 -4 -16 -8.5t-28 -4.5q-78 0 -122 49t-44 120z" />
<glyph unicode="&#x164;" horiz-adv-x="1125" d="M33 1239v310h1060v-310h-352v-1239h-359v1239h-349zM131 2007l167 183l266 -240l265 240l169 -183l-436 -365z" />
<glyph unicode="&#x165;" horiz-adv-x="1404" d="M38 814v252h167v316h337v-316h243v-252h-243v-381q0 -59 11 -94.5t31 -54t46.5 -25.5t57.5 -7t64 1.5t58 5.5v-259q-38 -6 -94.5 -11.5t-131.5 -5.5q-59 0 -126 8.5t-123 45t-93 113t-37 209.5v455h-167zM838 1389q0 88 61 151.5t150 63.5q106 0 171 -75t65 -197 q0 -120 -28.5 -204t-85 -135t-137 -75.5t-185.5 -24.5v133q68 0 114 15.5t77 39.5q31 25 45 55.5t19 62.5q-5 -5 -21.5 -10t-33.5 -5q-98 0 -154.5 60.5t-56.5 144.5z" />
<glyph unicode="&#x166;" horiz-adv-x="1125" d="M33 1239v310h1060v-310h-352v-228h228v-197h-228v-814h-359v814h-228v197h228v228h-349z" />
<glyph unicode="&#x167;" horiz-adv-x="846" d="M38 462v182h167v170h-167v252h167v316h337v-316h243v-252h-243v-170h201v-182h-197v-42q0 -55 11 -88.5t30 -50.5t44.5 -23t56.5 -6t64 1.5t58 5.5v-259q-38 -6 -94.5 -11.5t-131.5 -5.5q-59 0 -126 8.5t-123 45t-93 113t-37 209.5v103h-167z" />
<glyph unicode="&#x168;" horiz-adv-x="1452" d="M124 528v1021h358v-1018q0 -53 17.5 -101t50 -83t77 -56t99.5 -21t100.5 21t77 56t49.5 82.5t18 101.5v1018h358v-1021q0 -120 -42 -223.5t-120 -179.5t-190 -120.5t-251 -44.5q-140 0 -250.5 44.5t-189 120.5t-120.5 180t-42 223zM245 1891q62 91 143 130t167 39 q62 0 108.5 -17t85 -36t71.5 -35.5t69 -16.5q55 0 89.5 30t65.5 72l176 -155q-61 -99 -145 -141.5t-170 -42.5q-62 0 -110 17t-86 36t-72.5 35.5t-68.5 16.5q-55 0 -87 -29t-63 -74z" />
<glyph unicode="&#x169;" horiz-adv-x="1342" d="M131 433v633h336v-547q0 -114 41 -186t146 -72q106 0 156.5 73t50.5 197v535h338v-1066h-338v152q-45 -84 -134.5 -131.5t-215.5 -47.5q-104 0 -179 32.5t-119 89.5q-51 62 -66.5 143t-15.5 195zM184 1437q61 91 142 130t168 39q61 0 107.5 -15.5t85.5 -35.5t72 -35.5 t68 -15.5q55 0 89.5 29t65.5 73l177 -158q-62 -97 -146 -140t-171 -43q-61 0 -108.5 16.5t-86.5 35.5t-73 35.5t-67 16.5q-56 0 -88 -29t-63 -72z" />
<glyph unicode="&#x16a;" horiz-adv-x="1452" d="M124 528v1021h358v-1018q0 -53 17.5 -101t50 -83t77 -56t99.5 -21t100.5 21t77 56t49.5 82.5t18 101.5v1018h358v-1021q0 -120 -42 -223.5t-120 -179.5t-190 -120.5t-251 -44.5q-140 0 -250.5 44.5t-189 120.5t-120.5 180t-42 223zM325 1756v255h814v-255h-814z" />
<glyph unicode="&#x16b;" horiz-adv-x="1342" d="M131 433v633h336v-547q0 -114 41 -186t146 -72q106 0 156.5 73t50.5 197v535h338v-1066h-338v152q-45 -84 -134.5 -131.5t-215.5 -47.5q-104 0 -179 32.5t-119 89.5q-51 62 -66.5 143t-15.5 195zM264 1265v255h813v-255h-813z" />
<glyph unicode="&#x16c;" horiz-adv-x="1452" d="M124 528v1021h358v-1018q0 -53 17.5 -101t50 -83t77 -56t99.5 -21t100.5 21t77 56t49.5 82.5t18 101.5v1018h358v-1021q0 -120 -42 -223.5t-120 -179.5t-190 -120.5t-251 -44.5q-140 0 -250.5 44.5t-189 120.5t-120.5 180t-42 223zM247 2079h272q18 -68 68 -113.5 t134 -45.5q85 0 134.5 45.5t66.5 113.5h272q-12 -86 -54.5 -157t-105.5 -120.5t-143.5 -76t-169.5 -26.5q-90 0 -171 26.5t-144.5 76t-104 120.5t-54.5 157z" />
<glyph unicode="&#x16d;" horiz-adv-x="1342" d="M131 433v633h336v-547q0 -114 41 -186t146 -72q106 0 156.5 73t50.5 197v535h338v-1066h-338v152q-45 -84 -134.5 -131.5t-215.5 -47.5q-104 0 -179 32.5t-119 89.5q-51 62 -66.5 143t-15.5 195zM194 1602h273q17 -68 66.5 -114t133.5 -46q85 0 134.5 45.5t67.5 114.5 h273q-13 -87 -55.5 -157.5t-105.5 -120.5t-144 -77t-170 -27q-90 0 -170.5 27t-144 77t-104 120.5t-54.5 157.5z" />
<glyph unicode="&#x16e;" horiz-adv-x="1452" d="M124 528v1021h358v-1018q0 -53 17.5 -101t50 -83t77 -56t99.5 -21t100.5 21t77 56t49.5 82.5t18 101.5v1018h358v-1021q0 -120 -42 -223.5t-120 -179.5t-190 -120.5t-251 -44.5q-140 0 -250.5 44.5t-189 120.5t-120.5 180t-42 223zM429 1918q0 62 23 116t63 95t94.5 64 t116.5 23q61 0 115 -24t95 -65.5t64.5 -95.5t23.5 -113t-23.5 -113.5t-64.5 -95.5t-95 -64.5t-115 -23.5q-62 0 -116.5 23.5t-94.5 64.5t-63 95t-23 114zM612 1918q0 -44 33.5 -77.5t80.5 -33.5q46 0 80 33.5t34 79.5q0 47 -31.5 81t-82.5 34q-49 0 -81.5 -34t-32.5 -83z " />
<glyph unicode="&#x16f;" horiz-adv-x="1342" d="M131 433v633h336v-547q0 -114 41 -186t146 -72q106 0 156.5 73t50.5 197v535h338v-1066h-338v152q-45 -84 -134.5 -131.5t-215.5 -47.5q-104 0 -179 32.5t-119 89.5q-51 62 -66.5 143t-15.5 195zM359 1473q0 64 24 119.5t65 97.5t96 65.5t119 23.5t119.5 -24.5 t97.5 -66.5t65.5 -97.5t23.5 -117.5q0 -61 -23.5 -117t-65.5 -98t-97 -66.5t-120 -24.5q-64 0 -119 24.5t-96 66.5t-65 98t-24 117zM536 1473q0 -51 37 -88.5t90 -37.5t91 37.5t38 92.5q0 51 -36 90t-93 39q-55 0 -91 -39t-36 -94z" />
<glyph unicode="&#x170;" horiz-adv-x="1452" d="M124 528v1021h358v-1018q0 -53 17.5 -101t50 -83t77 -56t99.5 -21t100.5 21t77 56t49.5 82.5t18 101.5v1018h358v-1021q0 -120 -42 -223.5t-120 -179.5t-190 -120.5t-251 -44.5q-140 0 -250.5 44.5t-189 120.5t-120.5 180t-42 223zM316 1765l277 398l234 -137l-373 -323z M747 1765l277 398l234 -137l-373 -323z" />
<glyph unicode="&#x171;" horiz-adv-x="1342" d="M131 433v633h336v-547q0 -114 41 -186t146 -72q106 0 156.5 73t50.5 197v535h338v-1066h-338v152q-45 -84 -134.5 -131.5t-215.5 -47.5q-104 0 -179 32.5t-119 89.5q-51 62 -66.5 143t-15.5 195zM268 1237l276 397l235 -137l-374 -323zM699 1237l276 397l235 -137 l-374 -323z" />
<glyph unicode="&#x172;" horiz-adv-x="1452" d="M124 528v1021h358v-1018q0 -53 17.5 -101t50 -83t77 -56t99.5 -21t100.5 21t77 56t49.5 82.5t18 101.5v1018h358v-1021q0 -110 -35.5 -207t-103 -171t-163.5 -121.5t-215 -61.5q-31 -25 -54.5 -58t-23.5 -82q0 -46 26.5 -81t75.5 -35q27 0 60 6.5t64 18.5l-4 -171 q-44 -15 -95 -24.5t-116 -9.5q-141 0 -208.5 63.5t-67.5 150.5q0 122 135 224q-113 17 -201.5 67t-150.5 124t-95 168t-33 200z" />
<glyph unicode="&#x173;" horiz-adv-x="1342" d="M131 433v633h336v-547q0 -114 41 -186t146 -72q106 0 156.5 73t50.5 197v535h338v-1066h-122q-51 -31 -95.5 -75.5t-44.5 -112.5q0 -40 25.5 -70.5t69.5 -30.5q27 0 60 6.5t65 18.5l-5 -171q-44 -15 -94.5 -24.5t-115.5 -9.5q-146 0 -215.5 63.5t-69.5 150.5 q0 74 50.5 136t153.5 125v146q-45 -84 -134.5 -131.5t-215.5 -47.5q-104 0 -179 32.5t-119 89.5q-51 62 -66.5 143t-15.5 195z" />
<glyph unicode="&#x174;" horiz-adv-x="2288" d="M-2 1549h378l316 -1015l315 1015h276l316 -1015l315 1015h378l-547 -1549h-291l-308 973l-308 -973h-294zM715 1834l431 363l435 -363l-167 -186l-266 237l-266 -235z" />
<glyph unicode="&#x175;" horiz-adv-x="1775" d="M-2 1066h350l196 -635l188 635h312l188 -635l197 635h350l-399 -1066h-274l-217 679l-218 -679h-275zM460 1365l433 362l434 -362l-168 -186l-266 237l-262 -234z" />
<glyph unicode="&#x176;" horiz-adv-x="1416" d="M9 1549h418l329 -609l284 609h395l-768 -1549h-395l285 582zM310 1834l431 363l436 -363l-168 -186l-266 237l-266 -235z" />
<glyph unicode="&#x177;" horiz-adv-x="1359" d="M131 -82h338q4 -91 63 -138.5t143 -47.5q97 0 152 47.5t55 171.5v220q-44 -87 -131.5 -133.5t-208.5 -46.5q-106 0 -184.5 35.5t-123.5 93.5q-50 61 -66 137.5t-16 191.5v617h337v-547q0 -114 40.5 -186t147.5 -72q106 0 155.5 73t49.5 197v535h338v-1093 q0 -126 -39 -218.5t-106 -150.5q-74 -60 -169.5 -87.5t-234.5 -27.5q-131 0 -227 26.5t-168 83.5q-63 51 -104 131t-41 188zM249 1365l435 362l433 -362l-168 -186l-265 237l-264 -234z" />
<glyph unicode="&#x178;" horiz-adv-x="1416" d="M9 1549h418l329 -609l284 609h395l-768 -1549h-395l285 582zM285 1885q0 42 15.5 79t43.5 65t65.5 43.5t79.5 15.5t79.5 -15.5t65 -43.5t43 -65t15.5 -79q0 -82 -58.5 -140.5t-144.5 -58.5q-42 0 -79.5 15t-65.5 42.5t-43.5 64.5t-15.5 77zM819 1885q0 42 15 79t43 65 t64 43.5t79 15.5q42 0 79.5 -15.5t66 -43.5t44.5 -65t16 -79q0 -40 -16 -77t-44.5 -64.5t-66 -42.5t-79.5 -15q-43 0 -79 15t-64 42.5t-43 64.5t-15 77z" />
<glyph unicode="&#x179;" horiz-adv-x="1397" d="M38 0l756 1247h-695v302h1266l-759 -1248h734v-301h-1302zM350 1872l610 283l106 -235l-610 -283z" />
<glyph unicode="&#x17a;" horiz-adv-x="1061" d="M40 0l471 779h-443v287h964l-468 -779h453v-287h-977zM173 1358l610 284l108 -235l-610 -284z" />
<glyph unicode="&#x17b;" horiz-adv-x="1397" d="M38 0l756 1247h-695v302h1266l-759 -1248h734v-301h-1302zM496 1902q0 42 15 81t44 67.5t66.5 45t81.5 16.5t83 -16.5t66.5 -45t44.5 -67.5t17 -81t-17 -79.5t-44.5 -65t-66.5 -44t-83 -16.5t-81.5 16.5t-66.5 44t-44 65t-15 79.5z" />
<glyph unicode="&#x17c;" horiz-adv-x="1061" d="M40 0l471 779h-443v287h964l-468 -779h453v-287h-977zM323 1391q0 86 60 147t148 61q45 0 83 -16.5t65.5 -44t44.5 -66.5t17 -81t-17 -79.5t-44.5 -65.5t-66 -44t-82.5 -16t-82 16t-66.5 44t-44 65.5t-15.5 79.5z" />
<glyph unicode="&#x17d;" horiz-adv-x="1397" d="M38 0l756 1247h-695v302h1266l-759 -1248h734v-301h-1302zM285 2007l171 183l263 -240l265 240l168 -183l-433 -365z" />
<glyph unicode="&#x17e;" horiz-adv-x="1061" d="M40 0l471 779h-443v287h964l-468 -779h453v-287h-977zM122 1528l170 182l263 -239l266 241l167 -184l-435 -365z" />
<glyph unicode="&#x17f;" horiz-adv-x="840" d="M36 814v252h192v93q0 146 39 228t98 124t130 51.5t136 9.5q59 0 105.5 -8.5t77.5 -19.5v-244q-27 7 -50 10.5t-54 3.5q-30 0 -55.5 -3.5t-45.5 -17.5t-32.5 -40.5t-12.5 -73.5v-1179h-336v814h-192z" />
<glyph unicode="&#x192;" horiz-adv-x="1051" d="M-122 -389l42 243q25 -6 48 -9.5t54 -3.5q29 0 53 4.5t46.5 18.5t40 42t30.5 77l146 831h-192l44 252h192l17 93q27 146 79.5 228t119.5 124t139.5 51.5t136.5 9.5q59 0 104.5 -8.5t72.5 -19.5l-42 -244q-25 7 -48.5 10.5t-53.5 3.5q-27 0 -53.5 -3.5t-49.5 -17.5 t-40 -40.5t-25 -73.5l-20 -113h248l-45 -252h-247l-144 -818q-24 -146 -78 -228t-121.5 -124.5t-140.5 -52t-136 -9.5q-59 0 -104.5 8.5t-72.5 20.5z" />
<glyph unicode="&#x218;" horiz-adv-x="1340" d="M84 513h359q0 -126 68.5 -197t178.5 -71q87 0 145 50t58 132q0 46 -18.5 78.5t-50.5 56.5t-76.5 43t-95.5 39q-106 40 -202 80t-166.5 96t-112.5 135.5t-42 196.5q0 106 45 188t120 137.5t173.5 83t205.5 27.5q137 0 240.5 -39.5t172.5 -108t103.5 -157.5t34.5 -188h-359 q0 104 -49.5 164t-142.5 60q-78 0 -133 -40t-55 -120q0 -78 60.5 -123t159.5 -80q95 -34 193 -72.5t175 -95t127 -137.5t50 -195q0 -120 -43.5 -213t-120.5 -155.5t-183.5 -95t-235.5 -32.5q-124 0 -231 36.5t-185 107.5t-122.5 173.5t-44.5 235.5zM498 -228q0 71 48.5 121 t116.5 50q84 0 138.5 -61t54.5 -156q0 -98 -24 -164t-69.5 -107t-111 -61t-147.5 -20v107q106 0 152.5 43t50.5 94q-2 -5 -16 -9.5t-28 -4.5q-78 0 -121.5 48.5t-43.5 119.5z" />
<glyph unicode="&#x219;" horiz-adv-x="1127" d="M73 359l332 -3q0 -84 47.5 -120.5t122.5 -36.5q61 0 100.5 23t39.5 76q0 31 -17 50t-51.5 36t-88.5 33t-129 41q-66 19 -126 42.5t-105.5 57t-72 84t-26.5 128.5q0 166 127.5 245.5t343.5 79.5q115 0 203 -27.5t144 -76.5t84.5 -115t28.5 -142h-333q0 66 -34 103t-106 37 q-50 0 -88 -23.5t-38 -71.5q0 -29 18 -48t52.5 -34.5t85 -31t116.5 -36.5q71 -20 132.5 -43.5t108.5 -57.5t75 -85.5t28 -128.5q0 -95 -38 -160t-104.5 -106.5t-154 -59t-186.5 -17.5q-228 0 -359.5 100t-131.5 288zM389 -211q0 72 49 121.5t119 49.5q85 0 137.5 -59.5 t52.5 -157.5q0 -97 -24 -162.5t-68.5 -107t-109.5 -60.5t-146 -19v106q55 0 91 11.5t61 30.5q46 38 51 95q-5 -4 -18.5 -9.5t-26.5 -5.5q-77 0 -122.5 49.5t-45.5 117.5z" />
<glyph unicode="&#x2b0;" horiz-adv-x="884" d="M139 697v852h213v-342q25 45 73 73.5t119 28.5q104 0 155 -57q31 -38 42 -87.5t11 -115.5v-352h-214v305q0 57 -19 89t-70 32q-97 0 -97 -132v-294h-213z" />
<glyph unicode="&#x2b2;" horiz-adv-x="547" d="M64 445v159q29 -7 50 -7q53 0 54 57v642h223v-661q0 -64 -14 -104t-38.5 -63t-59 -31t-74.5 -8q-38 0 -78.5 4.5t-62.5 11.5zM144 1482q0 55 38.5 94t96.5 39q57 0 96 -39t39 -94q0 -53 -39 -92t-96 -39q-58 0 -96.5 39t-38.5 92z" />
<glyph unicode="&#x2b7;" horiz-adv-x="1149" d="M64 1296h225l100 -340l84 340h202l86 -340l100 340h228l-220 -599h-192l-102 341l-100 -341h-194z" />
<glyph unicode="&#x2b8;" horiz-adv-x="912" d="M133 663h221q0 -38 22.5 -60.5t72.5 -22.5q55 0 78.5 28.5t23.5 96.5v95q-25 -48 -76 -75.5t-121 -27.5q-53 0 -94 16.5t-66 44.5q-31 36 -40.5 84.5t-9.5 115.5v338h221v-305q0 -57 20 -89.5t71 -32.5q95 0 95 133v294h226v-575q0 -79 -17 -136t-57 -91t-103.5 -49.5 t-156.5 -15.5q-164 0 -237 61t-73 173z" />
<glyph unicode="&#x2c6;" horiz-adv-x="1078" d="M102 1515l434 347l433 -347l-175 -194l-258 207l-257 -205z" />
<glyph unicode="&#x2da;" horiz-adv-x="1096" d="M249 1575q0 61 23.5 115.5t64.5 94.5t95.5 63.5t116.5 23.5q61 0 115.5 -23.5t94 -64.5t63 -95.5t23.5 -113.5q0 -60 -23.5 -114t-63 -95t-94 -64t-115.5 -23q-62 0 -116.5 23t-95.5 64t-64.5 95t-23.5 114zM449 1575q0 -38 30 -68t70 -30t68.5 30t28.5 70t-27.5 69.5 t-69.5 29.5q-45 0 -72.5 -30.5t-27.5 -70.5z" />
<glyph unicode="&#x2dc;" horiz-adv-x="1134" d="M135 1464q53 32 91 49t66.5 25.5t48.5 9.5t37 1q25 0 71.5 -9.5t96 -21t95 -21t69.5 -9.5q19 0 36.5 2.5t36.5 9.5t46 17.5t68 31.5l103 -200q-93 -71 -159.5 -85t-97.5 -14q-27 0 -73 9t-96 20t-95.5 19.5t-67.5 8.5q-48 0 -86 -14t-80 -33z" />
<glyph unicode="&#x2e3;" horiz-adv-x="817" d="M62 697l214 303l-210 296h259l84 -157l85 157h258l-210 -296l212 -303h-256l-89 162l-88 -162h-259z" />
<glyph unicode="&#x2000;" horiz-adv-x="1108" />
<glyph unicode="&#x2001;" horiz-adv-x="2216" />
<glyph unicode="&#x2002;" horiz-adv-x="1108" />
<glyph unicode="&#x2003;" horiz-adv-x="2216" />
<glyph unicode="&#x2004;" horiz-adv-x="738" />
<glyph unicode="&#x2005;" horiz-adv-x="554" />
<glyph unicode="&#x2006;" horiz-adv-x="369" />
<glyph unicode="&#x2007;" horiz-adv-x="369" />
<glyph unicode="&#x2008;" horiz-adv-x="277" />
<glyph unicode="&#x2009;" horiz-adv-x="450" />
<glyph unicode="&#x200a;" horiz-adv-x="123" />
<glyph unicode="&#x2010;" horiz-adv-x="700" d="M71 522v270h560v-270h-560z" />
<glyph unicode="&#x2011;" horiz-adv-x="700" d="M71 522v270h560v-270h-560z" />
<glyph unicode="&#x2012;" horiz-adv-x="700" d="M71 522v270h560v-270h-560z" />
<glyph unicode="&#x2013;" horiz-adv-x="1112" d="M89 522v270h935v-270h-935z" />
<glyph unicode="&#x2014;" horiz-adv-x="2224" d="M99 522v270h2026v-270h-2026z" />
<glyph unicode="&#x2018;" horiz-adv-x="658" d="M110 1199q0 120 30.5 203.5t85.5 134.5t136 75.5t184 24.5v-133q-65 0 -112 -15.5t-75 -40.5q-32 -25 -47.5 -54t-19.5 -60q4 4 20.5 9.5t35.5 5.5q97 0 153 -60.5t56 -146.5q0 -89 -61 -151t-148 -62q-106 0 -172 74t-66 196z" />
<glyph unicode="&#x2019;" horiz-adv-x="658" d="M102 1422q0 91 61 153t149 62q106 0 171.5 -75.5t65.5 -194.5q0 -120 -29 -204t-85.5 -135t-137 -75t-185.5 -24v130q68 0 114 16t77 40q32 24 46 55t18 62q-4 -4 -21 -10t-34 -6q-97 0 -153.5 61t-56.5 145z" />
<glyph unicode="&#x201a;" horiz-adv-x="658" d="M102 166q0 91 61 152.5t149 61.5q106 0 171.5 -75t65.5 -195t-29 -203.5t-85.5 -134.5t-137 -75t-185.5 -24v130q68 0 114 15.5t77 40.5q32 24 46 55t18 61q-4 -4 -21 -9.5t-34 -5.5q-97 0 -153.5 61t-56.5 145z" />
<glyph unicode="&#x201c;" horiz-adv-x="1156" d="M110 1199q0 120 30.5 203.5t85.5 134.5t136 75.5t184 24.5v-133q-65 0 -112 -15.5t-75 -40.5q-32 -25 -47.5 -54t-19.5 -60q4 4 20.5 9.5t35.5 5.5q97 0 153 -60.5t56 -146.5q0 -89 -61 -151t-148 -62q-106 0 -172 74t-66 196zM608 1199q0 120 28.5 203.5t85.5 134.5 t137.5 75.5t184.5 24.5v-133q-66 0 -112.5 -15.5t-77.5 -40.5t-45.5 -54t-19.5 -60q5 4 21.5 9.5t34.5 5.5q97 0 153.5 -60.5t56.5 -146.5q0 -89 -61 -151t-149 -62q-106 0 -171.5 74t-65.5 196z" />
<glyph unicode="&#x201d;" horiz-adv-x="1156" d="M102 1422q0 91 61 153t149 62q106 0 171.5 -75.5t65.5 -194.5q0 -120 -29 -204t-85.5 -135t-137 -75t-185.5 -24v130q68 0 114 16t77 40q32 24 46 55t18 62q-4 -4 -21 -10t-34 -6q-97 0 -153.5 61t-56.5 145zM599 1422q0 91 61 153t150 62q106 0 171.5 -75.5t65.5 -194.5 q0 -120 -30.5 -204t-85.5 -135t-137 -75t-184 -24v130q66 0 113 16t75 40q31 24 47 55t20 62q-4 -4 -21 -10t-34 -6q-97 0 -154 61t-57 145z" />
<glyph unicode="&#x201e;" horiz-adv-x="1156" d="M102 166q0 91 61 152.5t149 61.5q106 0 171.5 -75t65.5 -195t-29 -203.5t-85.5 -134.5t-137 -75t-185.5 -24v130q68 0 114 15.5t77 40.5q32 24 46 55t18 61q-4 -4 -21 -9.5t-34 -5.5q-97 0 -153.5 61t-56.5 145zM599 166q0 91 61 152.5t150 61.5q106 0 171.5 -75 t65.5 -195t-30.5 -203.5t-85.5 -134.5t-137 -75t-184 -24v130q66 0 113 15.5t75 40.5q31 24 47 55t20 61q-4 -4 -21 -9.5t-34 -5.5q-97 0 -154 61t-57 145z" />
<glyph unicode="&#x2020;" horiz-adv-x="1030" d="M122 772v248h256v565h274v-565h255v-248h-255v-1175h-274v1175h-256z" />
<glyph unicode="&#x2021;" horiz-adv-x="1030" d="M122 0v241h256v582h-256v243h256v519h274v-519h255v-243h-255v-582h255v-241h-255v-403h-274v403h-256z" />
<glyph unicode="&#x2022;" horiz-adv-x="802" d="M104 690q0 62 23 116.5t63 94t94 62.5t117 23q61 0 116 -23t95 -62.5t63.5 -94t23.5 -116.5q0 -59 -23.5 -113.5t-63.5 -94t-95 -63t-116 -23.5q-62 0 -116.5 23.5t-94.5 63t-63 94t-23 113.5z" />
<glyph unicode="&#x2026;" horiz-adv-x="2180" d="M110 201q0 46 18 87t47.5 71t70.5 47.5t88 17.5q46 0 87 -17.5t71 -47.5t47.5 -71t17.5 -87q0 -47 -17.5 -86t-47.5 -69.5t-71 -47.5t-87 -17q-47 0 -88 17t-70.5 47.5t-47.5 69.5t-18 86zM867 199q0 46 18 87t47.5 71t70.5 47.5t88 17.5q46 0 86.5 -17.5t71 -47.5 t48 -71t17.5 -87q0 -47 -17.5 -86.5t-48 -69.5t-71 -47.5t-86.5 -17.5q-47 0 -88 17.5t-70.5 47.5t-47.5 69.5t-18 86.5zM1623 199q0 46 18 86t47.5 69.5t70.5 47.5t88 18q46 0 87 -18t71 -47.5t47.5 -69.5t17.5 -86q0 -47 -17.5 -86.5t-47.5 -69.5t-71 -47.5t-87 -17.5 q-47 0 -88 17.5t-70.5 47.5t-47.5 69.5t-18 86.5z" />
<glyph unicode="&#x202f;" horiz-adv-x="443" />
<glyph unicode="&#x2030;" horiz-adv-x="2908" d="M159 984v276q0 62 23 118.5t67.5 99t108.5 66.5t144 24t142.5 -24t107 -66.5t69 -98.5t24.5 -119v-276q0 -62 -24.5 -118t-69 -98t-107 -66.5t-142.5 -24.5t-144 24.5t-108.5 66.5t-67.5 98t-23 118zM396 984q0 -47 29 -81t77 -34q49 0 77.5 34t28.5 81v276 q0 47 -28.5 81.5t-77.5 34.5q-48 0 -77 -34.5t-29 -81.5v-276zM485 0l882 1668l235 -117l-885 -1669zM1265 287v277q0 61 23 118t67.5 99t108.5 66.5t144 24.5t142.5 -24.5t107 -66.5t68.5 -98.5t24 -118.5v-277q0 -61 -24 -118t-68.5 -98.5t-107 -65.5t-142.5 -24t-144 24 t-108.5 65.5t-67.5 98.5t-23 118zM1502 287q0 -46 29 -80t77 -34q49 0 77.5 34t28.5 80v277q0 46 -28.5 80.5t-77.5 34.5q-48 0 -77 -34.5t-29 -80.5v-277zM2062 287v277q0 61 23 118t68.5 99t108 66.5t142.5 24.5t143 -24.5t107.5 -66.5t69 -98.5t24.5 -118.5v-277 q0 -61 -24.5 -118t-69 -98.5t-107.5 -65.5t-143 -24t-142.5 24t-108 65.5t-68.5 98.5t-23 118zM2298 287q0 -46 28.5 -80t77.5 -34q51 0 78.5 34t27.5 80v277q0 46 -27.5 80.5t-78.5 34.5q-49 0 -77.5 -34.5t-28.5 -80.5v-277z" />
<glyph unicode="&#x2039;" horiz-adv-x="645" d="M82 555v177l471 383v-294l-228 -177l228 -177v-294z" />
<glyph unicode="&#x203a;" horiz-adv-x="645" d="M93 173v294l226 177l-226 177v294l471 -383v-177z" />
<glyph unicode="&#x2044;" horiz-adv-x="452" d="M-332 0l885 1668l232 -117l-884 -1669z" />
<glyph unicode="&#x205f;" horiz-adv-x="554" />
<glyph unicode="&#x2070;" horiz-adv-x="912" d="M114 984v276q0 62 24 118.5t67.5 99t107 66.5t143.5 24t142.5 -24t108 -66.5t69.5 -98.5t24 -119v-276q0 -62 -24 -118t-69.5 -98t-108 -66.5t-142.5 -24.5t-143.5 24.5t-107 66.5t-67.5 98t-24 118zM352 984q0 -47 27.5 -81t76.5 -34q51 0 79.5 34t28.5 81v276 q0 47 -28.5 81.5t-79.5 34.5q-49 0 -76.5 -34.5t-27.5 -81.5v-276z" />
<glyph unicode="&#x2074;" horiz-adv-x="919" d="M131 918v631h236v-437h124v222h235v-222h95v-194h-95v-221h-235v221h-360z" />
<glyph unicode="&#x2075;" horiz-adv-x="928" d="M122 991h228q0 -50 30.5 -88t86.5 -38q52 0 84.5 37.5t32.5 93.5q0 48 -31 85.5t-86 37.5q-45 0 -68 -17.5t-40 -48.5h-215v496h617v-173h-396v-160q25 36 70 53.5t96 17.5q74 0 125 -26.5t86 -67.5t51.5 -92.5t16.5 -104.5q0 -66 -23 -124t-66.5 -101t-107.5 -68.5 t-146 -25.5q-85 0 -148.5 25.5t-107 68.5t-66.5 99.5t-23 120.5z" />
<glyph unicode="&#x2076;" horiz-adv-x="888" d="M99 996q0 101 49 176l248 377h265l-163 -244q19 -5 37 -11.5t35 -12.5q104 -29 160.5 -106.5t56.5 -178.5q0 -64 -23 -122t-67.5 -101t-108 -68.5t-145.5 -25.5t-146.5 25.5t-107.5 68.5t-66.5 100.5t-23.5 122.5zM325 996q0 -53 32.5 -90t85.5 -37q55 0 85.5 36.5 t30.5 90.5q0 51 -30.5 87t-85.5 36q-53 0 -85.5 -36t-32.5 -87z" />
<glyph unicode="&#x2077;" horiz-adv-x="821" d="M106 1353v196h662l-363 -852h-255l281 656h-325z" />
<glyph unicode="&#x2078;" horiz-adv-x="906" d="M112 937q0 74 44.5 130t102.5 72q-51 18 -87.5 68.5t-36.5 115.5q0 102 83 173.5t236 71.5q152 0 235 -71.5t83 -173.5q0 -64 -35.5 -115t-88.5 -69q57 -17 101.5 -72.5t44.5 -129.5q0 -52 -23.5 -100t-66.5 -83t-105.5 -56t-144.5 -21q-165 0 -253.5 76t-88.5 184z M340 944q0 -42 30.5 -73t83.5 -31t82.5 32.5t29.5 71.5q0 42 -28.5 73.5t-83.5 31.5t-84.5 -30.5t-29.5 -74.5zM356 1311q0 -38 25.5 -65.5t72.5 -27.5q46 0 71.5 28t25.5 65q0 38 -25.5 65.5t-71.5 27.5q-47 0 -72.5 -27.5t-25.5 -65.5z" />
<glyph unicode="&#x2079;" horiz-adv-x="888" d="M102 1250q0 63 23 121t67.5 101t108.5 68.5t146 25.5t146 -25.5t108 -68.5t67.5 -100.5t23.5 -121.5q0 -102 -53 -178l-245 -375h-264l164 243q-139 15 -215.5 101.5t-76.5 208.5zM329 1250q0 -51 32.5 -88t85.5 -37t85 37t32 88q0 52 -32 89t-85 37t-85.5 -37t-32.5 -89 z" />
<glyph unicode="&#x207a;" horiz-adv-x="906" d="M184 958v170h181v186h177v-186h182v-170h-182v-186h-177v186h-181z" />
<glyph unicode="&#x207c;" horiz-adv-x="906" d="M184 836v171h540v-171h-540zM184 1077v170h540v-170h-540z" />
<glyph unicode="&#x207d;" horiz-adv-x="625" d="M133 789v471q0 74 26.5 140.5t76 115t120.5 77t161 28.5v-194q-75 0 -115.5 -49t-40.5 -118v-471q0 -65 41 -114t115 -49v-197q-90 0 -161 29t-120.5 77.5t-76 115t-26.5 138.5z" />
<glyph unicode="&#x207e;" horiz-adv-x="625" d="M108 429v197q73 0 115.5 49t42.5 114v471q0 68 -42.5 117.5t-115.5 49.5v194q89 0 160.5 -28.5t120.5 -77t75.5 -115t26.5 -140.5v-471q0 -73 -26.5 -139t-75.5 -114.5t-120.5 -77.5t-160.5 -29z" />
<glyph unicode="&#x207f;" horiz-adv-x="903" d="M139 697v599h224v-89q48 102 196 102q108 0 162 -59q32 -36 41.5 -84.5t9.5 -114.5v-354h-223v305q0 57 -19 89t-70 32q-97 0 -97 -132v-294h-224z" />
<glyph unicode="&#x2080;" horiz-adv-x="912" d="M114 122q0 62 24 118t67.5 98t107 66.5t143.5 24.5t142.5 -24.5t108 -66.5t69.5 -98t24 -118v-276q0 -62 -24 -118.5t-69.5 -99t-108 -66.5t-142.5 -24t-143.5 24t-107 66.5t-67.5 98.5t-24 119v276zM352 122v-276q0 -47 27.5 -81.5t76.5 -34.5q51 0 79.5 34.5t28.5 81.5 v276q0 46 -28.5 80.5t-79.5 34.5q-49 0 -76.5 -34.5t-27.5 -80.5z" />
<glyph unicode="&#x2081;" horiz-adv-x="658" d="M102 95v160q63 0 104 9.5t64.5 29.5t32.5 49t9 66h203v-852h-239v538h-174z" />
<glyph unicode="&#x2082;" horiz-adv-x="878" d="M120 -443q0 106 16 178.5t45.5 122t70 83.5t90.5 65q91 51 138.5 87t47.5 91q0 44 -23 63t-56 19q-40 0 -64 -25.5t-24 -88.5h-237q0 53 19 103.5t57.5 88.5t100.5 61.5t148 23.5q60 0 116 -14t99 -45.5t70 -81t27 -117.5q0 -51 -18.5 -92t-50 -75.5t-70 -62t-78.5 -49.5 q-42 -25 -70.5 -44t-47.5 -35t-27 -33t-8 -39h363v-184h-634z" />
<glyph unicode="&#x2083;" horiz-adv-x="893" d="M104 -154h236q0 -129 105 -129q46 0 69.5 31t23.5 68q0 49 -24.5 74.5t-82.5 25.5h-91v175h91q57 0 78.5 23t21.5 65q0 45 -22 66t-60 21q-53 0 -70.5 -31.5t-17.5 -82.5h-237q0 51 15 101t53 88.5t100 63t157 24.5q62 0 119.5 -13t100.5 -42t70 -75.5t27 -110.5 q0 -71 -41 -123t-92 -67q57 -17 99 -72t42 -134q0 -64 -26.5 -111.5t-71.5 -79.5t-103 -47.5t-119 -15.5q-93 0 -159.5 23t-108.5 65t-62 98.5t-20 121.5z" />
<glyph unicode="&#x2084;" horiz-adv-x="919" d="M131 -221v630h236v-436h124v221h235v-221h95v-194h-95v-222h-235v222h-360z" />
<glyph unicode="&#x2085;" horiz-adv-x="928" d="M122 -148h228q0 -51 30.5 -88.5t86.5 -37.5q52 0 84.5 37.5t32.5 92.5q0 49 -31 87t-86 38q-45 0 -68 -18t-40 -49h-215v495h617v-172h-396v-159q25 35 70 52.5t96 17.5q74 0 125 -26.5t86 -67.5t51.5 -93t16.5 -105q0 -66 -23 -123.5t-66.5 -100.5t-107.5 -68.5 t-146 -25.5q-85 0 -148.5 25.5t-107 68.5t-66.5 99t-23 121z" />
<glyph unicode="&#x2086;" horiz-adv-x="888" d="M99 -144q0 102 49 177l248 376h265l-163 -243q19 -4 37 -11t35 -14q104 -29 160.5 -106t56.5 -179q0 -63 -23 -121t-67.5 -101t-108 -68.5t-145.5 -25.5t-146.5 25.5t-107.5 68.5t-66.5 100.5t-23.5 121.5zM325 -144q0 -53 32.5 -89.5t85.5 -36.5q55 0 85.5 36.5 t30.5 89.5q0 51 -30.5 88t-85.5 37q-53 0 -85.5 -37t-32.5 -88z" />
<glyph unicode="&#x2087;" horiz-adv-x="821" d="M106 215v194h662l-363 -852h-255l281 658h-325z" />
<glyph unicode="&#x2088;" horiz-adv-x="906" d="M112 -201q0 74 44.5 130t102.5 71q-51 17 -87.5 68.5t-36.5 115.5q0 101 83 173t236 72q152 0 235 -72t83 -173q0 -64 -35.5 -115.5t-88.5 -68.5q57 -17 101.5 -73t44.5 -128q0 -53 -23.5 -101t-66.5 -83t-105.5 -56t-144.5 -21q-165 0 -253.5 76t-88.5 185zM340 -194 q0 -43 30.5 -73.5t83.5 -30.5t82.5 32t29.5 72q0 42 -28.5 72.5t-83.5 30.5t-84.5 -29.5t-29.5 -73.5zM356 173q0 -38 25.5 -65.5t72.5 -27.5q46 0 71.5 27.5t25.5 65.5t-25.5 65.5t-71.5 27.5q-47 0 -72.5 -27.5t-25.5 -65.5z" />
<glyph unicode="&#x2089;" horiz-adv-x="888" d="M102 110q0 64 23 121.5t67.5 101t108.5 69t146 25.5t146 -25.5t108 -69t67.5 -100.5t23.5 -122q0 -101 -53 -176l-245 -377h-264l164 244q-139 15 -215.5 101.5t-76.5 207.5zM329 110q0 -51 32.5 -87t85.5 -36t85 36t32 87q0 53 -32 90t-85 37t-85.5 -36.5t-32.5 -90.5z " />
<glyph unicode="&#x208d;" horiz-adv-x="625" d="M133 122q0 73 26.5 139t76 114.5t120.5 77.5t161 29v-195q-75 0 -115.5 -48.5t-40.5 -116.5v-472q0 -66 41 -114.5t115 -48.5v-197q-90 0 -161 29t-120.5 77.5t-76 115t-26.5 138.5v472z" />
<glyph unicode="&#x208e;" horiz-adv-x="625" d="M108 287v195q89 0 160.5 -29t120.5 -77.5t75.5 -115t26.5 -138.5v-472q0 -73 -26.5 -139t-75.5 -114.5t-120.5 -77.5t-160.5 -29v197q73 0 115.5 48.5t42.5 114.5v472q0 68 -42.5 116.5t-115.5 48.5z" />
<glyph unicode="&#x20ac;" horiz-adv-x="1393" d="M17 522l45 195h92v115h-137l45 194h92q0 112 41.5 213t117.5 177.5t185.5 120.5t244.5 44q131 0 237 -40.5t182.5 -110t120.5 -164t51 -200.5h-359q-11 91 -72 152t-160 61q-53 0 -96 -20t-73 -54.5t-45.5 -81t-15.5 -97.5h378l-44 -194h-334v-115h378l-44 -195h-334 q0 -51 15.5 -97.5t45.5 -80.5t73 -54t96 -20t97.5 20t74 54t46 80.5t16.5 97.5h359q0 -113 -42 -213.5t-119.5 -177t-187 -120.5t-244.5 -44t-244.5 44t-185.5 120.5t-117.5 177t-41.5 213.5h-137z" />
<glyph unicode="&#x2122;" horiz-adv-x="1851" d="M71 1349v200h606v-200h-190v-701h-228v701h-188zM774 648v901h347l169 -574l168 574h342v-901h-223v669l-195 -669h-183l-201 669v-669h-224z" />
<glyph unicode="&#x2190;" horiz-adv-x="1591" d="M22 774l575 531l155 -170l-267 -240h1085v-245h-1083l265 -236l-155 -171z" />
<glyph unicode="&#x2192;" horiz-adv-x="1591" d="M22 652v245h1082l-266 238q42 47 78 83q31 32 54.5 59.5t25.5 27.5l574 -531l-574 -531l-158 171l268 238h-1084z" />
<glyph unicode="&#x25ca;" horiz-adv-x="1233" d="M6 876l421 880h381l418 -880l-416 -876h-383zM369 876l248 -544l248 544l-248 544z" />
<glyph unicode="&#x25fc;" horiz-adv-x="1061" d="M0 0v1062h1062v-1062h-1062z" />
<glyph unicode="&#xf6e9;" horiz-adv-x="933" d="M106 996q0 68 21 127t57.5 99.5t88.5 63.5t114 23q63 0 114.5 -32t68.5 -70v89h224v-599h-224v88q-17 -40 -68 -72t-115 -32q-62 0 -114 23.5t-88.5 64.5t-57.5 98t-21 129zM327 996q0 -51 34.5 -90t87.5 -39q55 0 88 38.5t33 90.5q0 53 -33 90t-88 37q-53 0 -87.5 -37 t-34.5 -90z" />
<glyph unicode="&#xf6ea;" horiz-adv-x="935" d="M139 697v852h224v-342q17 38 68 70t113 32q127 0 205 -87t78 -226q0 -140 -78 -227.5t-205 -87.5q-61 0 -112.5 32t-68.5 72v-88h-224zM363 996q0 -51 33.5 -90t88.5 -39q53 0 86 38.5t33 90.5q0 53 -33 90t-86 37q-55 0 -88.5 -37t-33.5 -90z" />
<glyph unicode="&#xf6eb;" horiz-adv-x="933" d="M106 996q0 68 21 127t57.5 99.5t88.5 63.5t114 23q63 0 114.5 -32t68.5 -70v342h224v-852h-224v88q-17 -40 -68 -72t-115 -32q-62 0 -114 23.5t-88.5 64.5t-57.5 98t-21 129zM327 996q0 -51 34.5 -90t87.5 -39q55 0 88 38.5t33 90.5q0 53 -33 90t-88 37q-53 0 -87.5 -37 t-34.5 -90z" />
<glyph unicode="&#xf6ec;" horiz-adv-x="872" d="M102 996q0 66 21 123.5t64 100.5t105 68.5t146 25.5q78 0 139.5 -23t104 -62t64.5 -88.5t22 -102.5q0 -38 -7 -91h-434q0 -46 24.5 -82t89.5 -36q44 0 67 19t34 45h214q-13 -93 -93.5 -152.5t-219.5 -59.5q-162 0 -251.5 87.5t-89.5 227.5zM327 1059h217q0 51 -28.5 79.5 t-77.5 28.5q-50 0 -80.5 -28.5t-30.5 -79.5z" />
<glyph unicode="&#xf6ed;" horiz-adv-x="536" d="M135 1482q0 55 39 94t94 39q57 0 96 -39t39 -94q0 -53 -39 -92t-96 -39q-55 0 -94 39t-39 92zM157 697v599h223v-599h-223z" />
<glyph unicode="&#xf6ee;" horiz-adv-x="501" d="M139 697v852h224v-852h-224z" />
<glyph unicode="&#xf6ef;" horiz-adv-x="1235" d="M139 697v599h213v-89q20 43 66 72.5t110 29.5q78 0 119 -29.5t58 -76.5q25 47 73.5 76.5t116.5 29.5q64 0 104.5 -19.5t63.5 -54t32 -80t9 -96.5v-362h-213v316q0 110 -77 110q-37 0 -61.5 -27.5t-24.5 -99.5v-299h-213v316q0 110 -74 110q-38 0 -63.5 -28.5 t-25.5 -103.5v-294h-213z" />
<glyph unicode="&#xf6f0;" horiz-adv-x="888" d="M99 996q0 66 23.5 123.5t67.5 100.5t108.5 68.5t146.5 25.5t145.5 -25.5t108 -68.5t67.5 -100.5t23 -123.5q0 -64 -23 -120.5t-67.5 -100t-108 -69t-145.5 -25.5t-146.5 25.5t-108.5 69t-67.5 99.5t-23.5 121zM323 996q0 -53 33.5 -91t88.5 -38t87 37.5t32 91.5 q0 55 -32 91t-87 36t-88.5 -36t-33.5 -91z" />
<glyph unicode="&#xf6f1;" horiz-adv-x="673" d="M139 697v599h224v-97q19 44 68 76t113 32q34 0 60 -9v-203q-25 7 -40 9t-38 2q-71 0 -117 -41t-46 -149v-219h-224z" />
<glyph unicode="&#xf6f2;" horiz-adv-x="800" d="M104 897h221q0 -42 22 -59t60 -17q31 0 48.5 10.5t17.5 35.5q0 29 -32 41t-112 36q-42 11 -80 23.5t-68.5 31t-48.5 48.5t-18 76q0 100 76 145.5t217 45.5q78 0 131 -15.5t86 -43t47.5 -64t14.5 -79.5h-222q0 66 -68 67q-24 0 -42 -10t-18 -34q0 -29 37 -42.5t109 -33.5 q44 -10 83 -22.5t67.5 -32.5t45 -48.5t16.5 -75.5q0 -57 -23 -96t-63 -62t-93 -32t-112 -9q-150 0 -224.5 56.5t-74.5 159.5z" />
<glyph unicode="&#xf6f3;" horiz-adv-x="625" d="M84 1137v159h89v175h223v-175h135v-159h-135v-190q0 -59 23.5 -76t53.5 -17q19 0 36 1t31 4v-162q-25 -5 -58 -8t-81 -3q-40 0 -81 5.5t-73 26.5t-53 63t-21 116v240h-89z" />
<glyph unicode="&#xf8ff;" horiz-adv-x="1769" d="M84 774q0 157 55 304.5t158.5 259.5t252.5 179.5t335 67.5q185 0 334.5 -67.5t252.5 -179.5t158.5 -259.5t55.5 -304.5q0 -156 -55.5 -303.5t-158.5 -260.5t-252.5 -180.5t-334.5 -67.5q-186 0 -335 67.5t-252.5 180.5t-158.5 260t-55 304zM133 774q0 -150 53 -285 q48 -137 148 -244q101 -110 234 -167q148 -64 317 -65q168 0 314 65q133 57 234 167q100 106 148 244q53 135 53 285q0 148 -53 288q-48 132 -148 243q-101 108 -234 168q-146 64 -314 64q-169 0 -317 -64q-133 -59 -234 -168q-100 -111 -148 -243q-53 -140 -53 -288z M292 458q0 11 1 22t3 22q4 11 8 22.5t12 21.5q5 5 20 18l25 16q11 6 25.5 11.5t27.5 10.5l2 2q8 2 19 17q9 13 10 23q0 10 -1 19.5t-3 20.5l-8 44l38 4q0 -11 1 -22t3 -22t3.5 -22.5t1.5 -21.5q0 -22 -16 -45q-15 -19 -31 -29q-2 0 -4 -1t-5 -1q-10 -4 -22.5 -9.5 t-23.5 -12.5q-9 -2 -22 -10q-8 -9 -14 -12q-6 -11 -10 -28q-3 -11 -4 -20t-1 -18h-35zM372 504q55 -33 103.5 -61.5t97 -49.5t101 -33t113.5 -12q47 0 109 3t129.5 10.5t133 24.5t115.5 43q3 0 7 4q-29 -61 -93.5 -118.5t-143.5 -99.5q-126 -68 -234 -69q-108 0 -216 83 t-222 275zM445 1106q0 40 27.5 67.5t65.5 27.5q40 0 67.5 -27.5t27.5 -67.5q0 -38 -27.5 -66.5t-67.5 -28.5q-38 0 -65.5 28.5t-27.5 66.5zM485 572l395 593l-243 -536h393v-57h-545zM509 374q33 -49 75 -82t85 -53t80.5 -28t60.5 -8q55 0 114.5 20t110.5 44.5t86.5 46.5 t43.5 28q-95 -17 -178.5 -33.5t-194.5 -16.5q-30 0 -68 3t-78 13.5t-76 25.5t-61 40zM1102 1106q0 40 27.5 67.5t64.5 27.5q40 0 68 -27.5t28 -67.5q0 -38 -28 -66.5t-68 -28.5q-37 0 -64.5 28.5t-27.5 66.5zM1133 665q2 11 2 22.5t4 19.5l33 -10q0 -5 -1 -10.5t-1 -11.5 v-29q2 -15 3 -31t6 -29q5 -8 6 -15t5 -12q7 -13 17.5 -23t24.5 -21q13 -8 29 -14.5t29 -13.5l33 -14q6 -2 15 -11q13 -8 15 -19q11 -20 14 -42v-26.5t-4 -26.5l-36 8q5 11 5 21v19q-5 20 -9 28q-2 7 -6 11q-3 0 -8 6q-4 0 -9 4l-30 11q-17 8 -36.5 17t-36.5 25 q-22 15 -40 44l-9 24q-2 9 -4 16t-2 15q-5 18 -7 34.5t-2 33.5z" />
<glyph d="M89 519v509q0 112 41 212t117 176.5t184.5 120.5t245.5 44q135 0 244 -44t187 -120.5t120 -175.5t42 -213v-509q0 -112 -42 -211.5t-120 -176t-187 -120.5t-244 -44q-137 0 -245.5 44t-184.5 120.5t-117 176t-41 211.5zM445 631q0 -20 3 -46t10 -43l308 716 q-40 20 -89 21q-104 0 -165 -68.5t-65 -168.5l-1 -19t-1 -47.5v-66v-75.5v-203zM599 283q34 -13 78 -13q53 0 96 20t74 54t48 79.5t17 95.5v378q0 16 -1.5 46t-5.5 45z" />
<glyph d="M89 519v509q0 112 41 212t117 176.5t184.5 120.5t245.5 44q135 0 244 -44t187 -120.5t120 -175.5t42 -213v-509q0 -112 -42 -211.5t-120 -176t-187 -120.5t-244 -44q-137 0 -245.5 44t-184.5 120.5t-117 176t-41 211.5zM445 519q0 -50 16 -95.5t46.5 -79.5t73.5 -54 t96 -20t96 20t74 54t48 79.5t17 95.5v509q0 51 -17 96.5t-48 80t-74 54.5t-96 20t-96 -20t-73.5 -54.5t-46.5 -80t-16 -96.5v-509z" />
<glyph d="M203 1024v253h105q168 0 252 68.5t101 203.5h314v-1549h-363v1024h-409z" />
<glyph d="M148 0q0 188 30 316.5t85.5 216.5t129.5 150t164 117q68 40 127 77t103.5 74t69.5 82.5t25 103.5q0 93 -50.5 133.5t-126.5 40.5q-84 0 -140 -52t-56 -173h-357q0 106 37 197t107.5 157.5t172 103.5t234.5 37q106 0 202.5 -27.5t169.5 -83.5t116 -146t43 -212 q0 -97 -42 -176.5t-103 -141.5t-131.5 -109.5t-128.5 -80.5q-79 -53 -131 -92t-83 -72t-43.5 -68.5t-12.5 -82.5h665v-289h-1076z" />
<glyph d="M91 519h356q0 -126 64 -195t170 -69q100 0 152 61.5t52 141.5q0 97 -51 156t-177 59h-140v276h140q122 0 165 53t43 137q0 89 -49.5 130.5t-127.5 41.5q-115 0 -156 -61.5t-41 -163.5h-358q0 100 30.5 189.5t97 157t170 108t246.5 40.5q108 0 205.5 -26.5t173 -80.5 t119 -136t43.5 -190q0 -131 -68.5 -221.5t-161.5 -121.5q53 -20 99 -53t81 -79.5t55 -107.5t20 -134q0 -110 -45.5 -196.5t-122.5 -146t-178 -90.5t-211 -31q-144 0 -254.5 39.5t-187 112.5t-115 175t-38.5 225z" />
<glyph d="M122 427v1122h355v-819h262v427h358v-427h186v-303h-186v-427h-358v427h-617z" />
<glyph d="M86 526h347q0 -108 65.5 -185t178.5 -77q57 0 102.5 21t77.5 57t49.5 84.5t17.5 104.5q0 53 -16.5 100.5t-48.5 84t-77 57.5t-103 21q-80 0 -134 -35t-89 -107h-334v897h1045v-279h-716v-346q22 36 57.5 62.5t79 44.5t88.5 26.5t90 8.5q128 0 223 -45.5t158 -120.5 t94 -171t31 -198q0 -114 -41 -217t-117 -180t-187 -122t-250 -45q-137 0 -246.5 45t-186 122t-117.5 178.5t-41 213.5z" />
<glyph d="M84 531q0 89 25.5 169.5t69.5 150.5l447 698h402l-309 -465q7 2 22 2q122 -8 220 -56t165.5 -122t104.5 -171.5t37 -205.5q0 -114 -41 -216t-118 -179t-186 -122t-248 -45q-137 0 -246.5 45t-186 122t-117.5 178.5t-41 216.5zM431 531q0 -108 66 -185.5t178 -77.5 q55 0 101.5 21t78.5 56t49.5 83.5t17.5 102.5q0 55 -17.5 102.5t-49.5 83t-78.5 56.5t-101.5 21q-112 0 -178 -76t-66 -187z" />
<glyph d="M166 1247v302h1113l-660 -1549h-382l537 1247h-608z" />
<glyph d="M82 443q0 61 18 119.5t51 108.5t79 85.5t102 51.5q-100 38 -156 130t-56 199q0 91 36 171.5t106 141.5t171 96t230 35t231 -35t171.5 -96t105.5 -141.5t36 -171.5q0 -106 -56 -199t-155 -130q55 -17 101.5 -54t79.5 -86t50.5 -107.5t17.5 -119.5q0 -95 -39 -180.5 t-114 -151t-182.5 -104t-246.5 -38.5q-137 0 -245 37.5t-183.5 102t-114 151.5t-38.5 185zM427 449q0 -42 16.5 -81t46 -67.5t74 -46t99.5 -17.5t100 17.5t74.5 47.5t44.5 67.5t15 79.5t-15 80.5t-44.5 69t-74 47.5t-100.5 17q-114 0 -175 -63.5t-61 -150.5zM460 1119 q0 -78 53 -135t150 -57t150.5 57.5t53.5 134.5q0 78 -53 135t-151 57q-97 0 -150 -57t-53 -135z" />
<glyph d="M84 1017q0 115 41 217t117.5 178t186 121.5t248.5 45.5t248.5 -45.5t186 -121.5t116.5 -177.5t40 -217.5q0 -90 -26 -169.5t-70 -150.5l-446 -697h-403l310 462h-23q-124 9 -221 56.5t-164.5 122t-104 171.5t-36.5 205zM431 1017q0 -110 66.5 -186.5t179.5 -76.5 q112 0 178.5 76.5t66.5 186.5q0 53 -17.5 101.5t-49.5 84.5t-77.5 57t-100.5 21t-100.5 -21t-77.5 -57t-50 -84.5t-18 -101.5z" />
<glyph horiz-adv-x="866" d="M99 996q0 63 22.5 120.5t64.5 102t105 70t147 25.5q78 0 136.5 -21t99.5 -57.5t62.5 -84t27.5 -100.5h-222q-6 35 -29.5 56t-71.5 21q-62 0 -90 -39.5t-28 -92.5q0 -51 28.5 -90t93.5 -39q42 0 64 18t33 48h224q-13 -106 -94 -179t-234 -73q-84 0 -147 25.5t-105 69 t-64.5 99.5t-22.5 121z" />
<glyph horiz-adv-x="614" d="M84 1137v159h97v38q0 80 21.5 125t54 69.5t75 31t84.5 6.5q38 0 67.5 -5.5t50.5 -11.5v-151q-27 8 -59 9q-31 0 -50.5 -12.5t-19.5 -52.5v-46h129v-159h-129v-440h-224v440h-97z" />
<glyph horiz-adv-x="930" d="M106 996q0 139 75.5 226t202.5 87q62 0 112 -25.5t74 -76.5v89h226v-575q0 -158 -80.5 -225t-268.5 -67q-179 0 -257 61t-80 173h224q4 -31 32 -57t81 -26q57 0 90 29.5t33 93.5v86q-21 -39 -68.5 -65.5t-110.5 -26.5q-126 0 -205.5 79.5t-79.5 219.5zM329 996 q0 -51 33.5 -90t88.5 -39q53 0 86 38.5t33 90.5q0 53 -33 90t-86 37q-55 0 -88.5 -37t-33.5 -90z" />
<glyph horiz-adv-x="853" d="M139 697v852h224v-498l161 245h261l-221 -300l221 -299h-263l-159 243v-243h-224z" />
<glyph horiz-adv-x="935" d="M139 445v851h224v-89q17 38 68 70t113 32q127 0 205 -87t78 -226q0 -68 -21 -126t-57.5 -100t-89.5 -65.5t-115 -23.5q-61 0 -112.5 33t-68.5 71v-340h-224zM363 996q0 -51 33 -90t89 -39q53 0 86 38.5t33 90.5q0 53 -33 90t-86 37q-55 0 -88.5 -37t-33.5 -90z" />
<glyph horiz-adv-x="935" d="M106 996q0 68 21 127t59 99.5t89.5 63.5t113.5 23q61 0 112.5 -32t68.5 -70v89h226v-851h-226v340q-17 -38 -68 -71t-113 -33q-127 0 -205 87.5t-78 227.5zM329 996q0 -51 35 -90t87 -39q53 0 86 38.5t33 90.5q0 53 -33 90t-86 37q-52 0 -87 -37t-35 -90z" />
<glyph horiz-adv-x="903" d="M133 942v354h221v-305q0 -57 20 -89.5t71 -32.5q97 0 97 133v294h224v-599h-224v88q-25 -48 -75.5 -76t-121.5 -28q-53 0 -95 17t-66 45q-32 36 -41.5 84.5t-9.5 114.5z" />
<glyph horiz-adv-x="851" d="M62 1296h232l130 -363l135 363h230l-270 -599h-190z" />
<glyph horiz-adv-x="753" d="M84 697l252 413h-230v186h565l-251 -414h237v-185h-573z" />
<glyph horiz-adv-x="669" d="M110 350q0 46 18 85.5t47.5 70t70.5 47.5t88 17q46 0 88 -17t72 -47.5t47.5 -70t17.5 -85.5q0 -47 -17.5 -86.5t-47.5 -69.5t-72 -47.5t-88 -17.5q-47 0 -88 17.5t-70.5 47.5t-47.5 69.5t-18 86.5zM110 1057q0 47 18 88t47.5 70.5t70.5 47.5t88 18q46 0 87 -18t71 -47.5 t47.5 -70.5t17.5 -88q0 -46 -17.5 -86t-47.5 -69.5t-71 -47.5t-87 -18q-47 0 -88 18t-70.5 47.5t-47.5 69.5t-18 86z" />
<glyph horiz-adv-x="1925" d="M44 644q0 215 77.5 386t209 290.5t305.5 183.5t366 64q199 0 368 -55t291 -158t190.5 -252t68.5 -337q0 -177 -32.5 -301.5t-89.5 -201.5t-138 -113t-178 -36q-129 0 -211.5 64.5t-115.5 163.5q-16 -31 -43.5 -57t-63 -46t-76.5 -31t-83 -11q-95 0 -173.5 34.5t-136 95 t-89.5 142.5t-32 175q0 95 33 177t90.5 142.5t136 95t171.5 34.5q42 0 83 -12.5t76.5 -32.5t63 -46.5t43.5 -54.5v123h257v-519q0 -113 27.5 -162t86.5 -49q29 0 54.5 20t44.5 68.5t29.5 132t10.5 211.5q0 133 -48.5 238t-136 177.5t-210 111.5t-268.5 39t-273 -46.5 t-223.5 -136t-152 -218.5t-55.5 -293q0 -133 45.5 -259t137 -223.5t231 -156t328.5 -58.5q86 0 206.5 20t237.5 84l95 -197q-71 -40 -143.5 -66.5t-144 -41t-135 -21t-116.5 -6.5q-245 0 -431.5 77.5t-311 206t-189 295t-64.5 346.5zM728 644q0 -93 57 -160.5t152 -67.5 q49 0 90 17.5t69.5 49.5t44.5 73t16 88q0 95 -59.5 162.5t-160.5 67.5q-95 0 -152 -67.5t-57 -162.5z" />
<glyph horiz-adv-x="633" d="M179 -327v2207h281v-2207h-281z" />
<glyph d="M205 642v270h329v338h289v-338h327v-270h-327v-336h-289v336h-329z" />
<glyph d="M241 399l239 236l-233 232l191 192l233 -232l238 239l203 -203l-238 -239l234 -233l-192 -190l-232 230l-239 -237z" />
<glyph d="M205 438v272h945v-272h-945zM205 840v270h945v-270h-945z" />
<glyph horiz-adv-x="882" d="M168 247v1003q0 124 44.5 235.5t126 194.5t198.5 131.5t263 48.5v-303q-66 0 -118.5 -24t-89.5 -66t-57 -99t-20 -118v-1003q0 -63 20 -118.5t57 -97.5t89.5 -66t118.5 -24v-304q-146 0 -263 48.5t-198.5 132t-126 195t-44.5 234.5z" />
<glyph horiz-adv-x="882" d="M80 -59q66 0 120.5 24t90.5 66t56 97.5t20 118.5v1003q0 61 -20 118t-56 99t-90.5 66t-120.5 24v303q146 0 264 -48.5t200 -131.5t126.5 -194.5t44.5 -235.5v-1003q0 -124 -44.5 -235t-126.5 -194.5t-200 -132t-264 -48.5v304z" />
<glyph horiz-adv-x="700" d="M71 671v269h560v-269h-560z" />
<glyph horiz-adv-x="851" d="M148 -348v2210h571v-294h-232v-1621h232v-295h-571z" />
<glyph horiz-adv-x="851" d="M133 -53h232v1619h-232v294h570v-2208h-570v295z" />
<glyph horiz-adv-x="1054" d="M133 591v296q31 0 65 10t61.5 31t46.5 55t19 83v443q0 86 27.5 151t76 110t114 67.5t141.5 22.5h223v-272h-93q-44 0 -73 -15.5t-46.5 -40.5t-24.5 -57.5t-7 -65.5v-415q0 -72 -25.5 -119.5t-59.5 -76t-71.5 -42t-61.5 -15.5q25 -4 62 -16.5t71 -41.5t59.5 -79.5 t25.5 -130.5v-367q0 -31 7 -63t24.5 -57.5t46.5 -42t73 -16.5h93v-275h-223q-76 0 -141.5 23.5t-114 67.5t-76 110.5t-27.5 152.5v397q0 53 -19 88t-46.5 57t-61.5 32.5t-65 10.5z" />
<glyph horiz-adv-x="1054" d="M148 -73h91q44 0 73.5 16.5t46.5 42t23.5 58t6.5 62.5v367q0 80 24.5 130.5t60 79.5t73 41.5t61.5 16.5q-25 2 -62 15.5t-72.5 42t-60 76t-24.5 119.5v415q0 34 -6.5 66t-23.5 57t-46.5 40.5t-73.5 15.5h-91v272h224q75 0 140.5 -22.5t114 -67.5t76 -110t27.5 -151v-443 q0 -49 18 -83t46.5 -55t62.5 -31t65 -10v-296q-31 0 -65 -10.5t-62.5 -32.5t-46.5 -57t-18 -88v-397q0 -86 -27.5 -152.5t-76 -110.5t-114 -67.5t-140.5 -23.5h-224v275z" />
<glyph horiz-adv-x="1131" d="M82 703v175l471 385v-294l-228 -177l228 -177v-296zM568 703v175l472 385v-294l-228 -177l228 -177v-296z" />
<glyph horiz-adv-x="1131" d="M93 319v296l226 177l-226 177v294l471 -385v-175zM580 319v296l225 177l-225 177v294l471 -385v-175z" />
<glyph horiz-adv-x="1112" d="M89 671v269h935v-269h-935z" />
<glyph horiz-adv-x="2224" d="M99 671v269h2026v-269h-2026z" />
<glyph horiz-adv-x="645" d="M82 703v175l471 385v-294l-228 -177l228 -177v-296z" />
<glyph horiz-adv-x="645" d="M93 319v296l226 177l-226 177v294l471 -385v-175z" />
<glyph d="M91 642v265l1161 393v-306l-716 -217l716 -222v-306z" />
<glyph d="M106 249v306l715 222l-715 217v306l1159 -393v-265z" />
<glyph horiz-adv-x="831" d="M164 126v703q0 106 37.5 201t108 166.5t172.5 113t230 41.5v-279q-106 0 -166.5 -71.5t-60.5 -171.5v-703q0 -48 15 -92.5t45 -78t72 -51.5t95 -18v-280q-129 0 -230.5 41t-172 113t-108 165.5t-37.5 200.5z" />
<glyph horiz-adv-x="680" d="M-76 1630h240q20 -45 62 -76.5t114 -31.5q74 0 116 31.5t61 76.5h239q-13 -78 -51 -136.5t-93 -100.5t-124.5 -63t-147.5 -21t-146 22t-123.5 63t-92.5 101t-54 135zM173 0v1239h336v-1239h-336z" />
<glyph horiz-adv-x="1769" d="M64 774q0 159 55.5 306.5t161.5 260.5t258.5 180t345.5 67q192 0 344.5 -67t259 -180t161.5 -260.5t55 -306.5q0 -158 -55 -305.5t-161.5 -260.5t-259 -180.5t-344.5 -67.5q-193 0 -345.5 67.5t-258.5 180.5t-161.5 260t-55.5 306zM281 774q0 -122 41 -234.5t119 -198.5 t190 -138.5t254 -52.5q141 0 253 52.5t190.5 138.5t119 198.5t40.5 234.5t-40.5 234.5t-119 199t-190.5 138.5t-253 52q-142 0 -254 -52t-190 -138.5t-119 -199.5t-41 -234zM602 994v192h661l-362 -852h-253l281 660h-327z" />
<glyph horiz-adv-x="1412" d="M11 507v223h162v509h484q154 0 274 -52t202.5 -138.5t125.5 -198t43 -231.5t-43 -231.5t-124.5 -197.5t-202 -138t-275.5 -52h-484v507h-162zM507 285h128q78 0 138.5 27.5t102.5 74t64 107.5t22 125t-22 125t-64 107t-103 74.5t-138 28.5h-128v-224h168v-223h-168v-222z " />
<glyph horiz-adv-x="1229" d="M122 416h336q0 -93 47.5 -142.5t125.5 -49.5q61 0 100 32.5t39 88.5q0 61 -48.5 92.5t-141.5 66.5q-86 34 -164 66t-136.5 77t-93 109.5t-34.5 159.5q0 93 40 159.5t105.5 110.5t149.5 65t174 21q126 0 213.5 -34.5t144 -90.5t82 -128t25.5 -147h-334q0 77 -34 120 t-103 43q-51 0 -89.5 -26.5t-38.5 -81.5q0 -53 45.5 -87.5t126.5 -62.5q80 -30 158 -60.5t142.5 -77t104.5 -111t40 -159.5q0 -194 -133 -298t-356 -104q-111 0 -201.5 30t-155 87t-100.5 140.5t-36 191.5zM276 1615l144 166l201 -175l204 175l146 -166l-350 -290z" />
<glyph horiz-adv-x="1441" d="M173 0v1239h342l422 -766v766h335v-1239h-343l-422 745v-745h-334zM422 1509l515 216l83 -208l-516 -217z" />
<glyph horiz-adv-x="1549" d="M110 619q0 128 45.5 245.5t131 208t208 145t279.5 54.5t281 -54.5t209 -145t130.5 -208t45.5 -245.5q0 -177 -85 -329.5t-245 -234.5l106 -139q-11 -7 -54 -29t-92.5 -47.5t-93 -47.5t-54.5 -26l-148 201q-156 0 -280.5 54.5t-209.5 145t-129.5 207.5t-44.5 245zM449 619 q0 -68 22.5 -131.5t64.5 -111t101.5 -76t136.5 -28.5q76 0 136.5 28.5t102.5 76t64 111t22 131.5t-22 130.5t-64 111t-103 77.5t-136 29q-77 0 -136.5 -29t-101.5 -77.5t-64.5 -110.5t-22.5 -131z" />
<glyph horiz-adv-x="1045" d="M91 951v288h865v-288h-266v-149h164v-220h-164v-582h-334v582h-164v220h164v149h-265z" />
<glyph horiz-adv-x="1291" d="M59 1239h392l226 -460l203 460h372l-615 -1239h-373l221 449z" />
<glyph horiz-adv-x="1441" d="M173 0v1239h342l422 -766v766h335v-1239h-343l-422 745v-745h-334zM376 1579l143 168l202 -175l203 175l144 -168l-347 -292z" />
<glyph horiz-adv-x="1319" d="M173 0v1239h564q103 0 188.5 -37t145.5 -99.5t91.5 -144.5t31.5 -175q0 -131 -61 -236.5t-173 -164.5l247 -382h-391l-199 327h-110v-327h-334zM296 1585l145 169l201 -175l203 175l143 -169l-346 -289zM507 591h170q82 0 129.5 57t47.5 135t-48 135t-127 57h-172v-384z " />
<glyph horiz-adv-x="893" d="M104 287h236q0 -128 105 -128q46 0 69.5 31t23.5 69q0 49 -24.5 74.5t-82.5 25.5h-91v175h91q57 0 78.5 23t21.5 64q0 44 -22 65t-60 21q-53 0 -70.5 -30.5t-17.5 -81.5h-237q0 51 15 100.5t53 88.5t100 63.5t157 24.5q62 0 119.5 -13.5t100.5 -42.5t70 -75.5t27 -109.5 q0 -72 -41 -123.5t-92 -66.5q57 -18 99 -72.5t42 -134.5q0 -63 -26.5 -110.5t-71.5 -80t-103 -47.5t-119 -15q-93 0 -159.5 23t-108.5 64.5t-62 98.5t-20 120z" />
<glyph horiz-adv-x="1549" d="M110 619q0 128 45.5 245.5t131 208t208 145t279.5 54.5t281 -54.5t209 -145t130.5 -208t45.5 -245.5q0 -129 -45.5 -245.5t-130.5 -207t-209 -145t-281 -54.5q-156 0 -279 54.5t-208.5 145t-131 207.5t-45.5 245zM361 1628h236q22 -45 62 -76.5t115 -31.5 q76 0 116.5 31.5t60.5 76.5h239q-13 -78 -50.5 -136.5t-93 -100.5t-125.5 -63t-147 -21t-147 22t-124 63t-91.5 101t-50.5 135zM449 619q0 -68 22.5 -131.5t64.5 -111t101.5 -76t136.5 -28.5q76 0 136.5 28.5t102.5 76t64 111t22 131.5t-22 130.5t-64 111t-103 77.5t-136 29 q-77 0 -136.5 -29t-101.5 -77.5t-64.5 -110.5t-22.5 -131z" />
<glyph horiz-adv-x="943" d="M40 1509l515 216l82 -208l-515 -217zM173 0v1239h331v-952h336v-287h-667z" />
<glyph horiz-adv-x="1526" d="M110 621q0 126 45.5 244.5t131 208t207 144t276.5 54.5q148 0 262 -42t195.5 -114t129 -169.5t61.5 -205.5h-350q-17 97 -89 162.5t-196 65.5q-82 0 -143.5 -28.5t-103.5 -77.5t-63.5 -111t-21.5 -131q0 -73 23.5 -137t66.5 -111.5t107 -75t144 -27.5q105 0 178.5 57 t95.5 142h354q-17 -104 -67.5 -194.5t-130.5 -159.5t-191 -108.5t-248 -39.5q-159 0 -284 53t-211.5 142.5t-132 209t-45.5 249.5z" />
<glyph horiz-adv-x="1273" d="M126 348q0 112 60.5 185t145.5 109q-78 27 -135.5 97.5t-57.5 178.5q0 93 38 158.5t100.5 108.5t144.5 63t171 20q133 0 222.5 -34.5t144.5 -91t78.5 -128.5t23.5 -145h-336q0 74 -27.5 118.5t-107.5 44.5q-53 0 -87.5 -30.5t-34.5 -94.5q0 -59 35.5 -98t121.5 -39v-246 q-90 0 -128 -40.5t-38 -111.5q0 -56 40 -100t115 -44q63 0 109 47.5t50 133.5h-97v245h497v-245h-75q-2 -95 -31.5 -175t-90.5 -138t-155 -91.5t-223 -33.5q-86 0 -171.5 23t-152.5 69.5t-108 117.5t-41 167z" />
<glyph horiz-adv-x="1198" d="M82 441h334q0 -80 36.5 -134.5t109.5 -54.5q71 0 109.5 48t38.5 141v798h332v-798q0 -243 -127.5 -357.5t-352.5 -114.5q-122 0 -212.5 36.5t-150.5 99.5t-88.5 149t-28.5 187z" />
<glyph horiz-adv-x="888" d="M102 553q0 64 23 121.5t67.5 101t108.5 68.5t146 25t146 -25t108 -68.5t67.5 -101t23.5 -121.5q0 -102 -53 -177l-245 -376h-264l164 243q-139 15 -215.5 101.5t-76.5 208.5zM329 553q0 -51 32.5 -87.5t85.5 -36.5t85 36.5t32 87.5q0 53 -32 89.5t-85 36.5t-85.5 -36.5 t-32.5 -89.5z" />
<glyph horiz-adv-x="680" d="M159 1520q0 75 51 128t128 53q78 0 131 -53t53 -128q0 -74 -53 -127t-131 -53t-128.5 53t-50.5 127zM173 0v1239h336v-1239h-336z" />
<glyph horiz-adv-x="1391" d="M173 0v1239h334v-483h378v483h335v-1239h-335v473h-378v-473h-334zM332 1464l365 290l362 -290l-152 -168l-210 171l-210 -169z" />
<glyph horiz-adv-x="893" d="M104 984h236q0 -129 105 -128q46 0 69.5 31t23.5 69q0 48 -24.5 73.5t-82.5 25.5h-91v175h91q57 0 78.5 23.5t21.5 65.5q0 44 -22 64.5t-60 20.5q-53 0 -70.5 -31t-17.5 -81h-237q0 50 15 100t53 89t100 63t157 24q62 0 119.5 -13.5t100.5 -42t70 -75t27 -110.5 q0 -71 -41 -123t-92 -67q57 -17 99 -71.5t42 -134.5q0 -64 -26.5 -111.5t-71.5 -80t-103 -47.5t-119 -15q-93 0 -159.5 23.5t-108.5 65.5t-62 98t-20 120z" />
<glyph horiz-adv-x="1319" d="M173 0v1239h564q103 0 188.5 -37t145.5 -99.5t91.5 -144.5t31.5 -175q0 -131 -61 -236.5t-173 -164.5l247 -382h-391l-199 327h-110v-327h-334zM361 1509l517 216l82 -208l-517 -217zM507 591h170q82 0 129.5 57t47.5 135t-48 135t-127 57h-172v-384z" />
<glyph horiz-adv-x="680" d="M-22 1462l362 292l363 -292l-150 -166l-213 168l-209 -168zM173 0v1239h336v-1239h-336z" />
<glyph horiz-adv-x="919" d="M131 918v631h236v-437h124v222h235v-222h95v-194h-95v-221h-235v221h-360z" />
<glyph horiz-adv-x="1377" d="M66 0l451 1239h334l460 -1239h-369l-45 146h-426l-44 -146h-361zM544 396h279l-137 478z" />
<glyph horiz-adv-x="1112" d="M173 0v1239h781v-257h-447v-243h447v-248h-447v-234h447v-257h-781z" />
<glyph horiz-adv-x="1334" d="M46 1239h361l256 -859l257 859h372l-460 -1239h-336z" />
<glyph horiz-adv-x="1296" d="M146 427v812h334v-808q0 -74 46 -126.5t122 -52.5t123.5 53.5t47.5 125.5v808h331v-812q0 -100 -34.5 -184t-99.5 -144.5t-157.5 -96t-210.5 -35.5t-210.5 35.5t-157.5 96t-99.5 144.5t-34.5 184zM241 1504q0 76 52 128t129 52q78 0 131 -52.5t53 -127.5q0 -73 -53 -126 t-131 -53q-77 0 -129 53t-52 126zM679 1504q0 76 52 128t130 52t130.5 -52.5t52.5 -127.5q0 -73 -53.5 -126t-129.5 -53q-78 0 -130 53t-52 126z" />
<glyph horiz-adv-x="943" d="M173 0v1239h334v-952h333v-287h-667zM316 -177q0 61 42.5 104.5t103.5 43.5q74 0 120.5 -52t46.5 -136q0 -171 -82.5 -238t-223.5 -67v93q95 0 134 37.5t43 81.5q0 -2 -13.5 -7.5t-24.5 -5.5q-66 0 -106 43t-40 103z" />
<glyph horiz-adv-x="1769" d="M64 774q0 159 55.5 306.5t161.5 260.5t258.5 180t345.5 67q192 0 343.5 -67t258 -180t161.5 -260.5t55 -306.5q0 -158 -55 -305.5t-161.5 -260.5t-258 -180.5t-343.5 -67.5q-193 0 -345.5 67.5t-258.5 180.5t-161.5 260t-55.5 306zM281 774q0 -122 41 -234.5t119 -198.5 t190 -138.5t254 -52.5q141 0 253 52.5t189 138.5t118 198.5t41 234.5t-41 234.5t-118 199t-189 138.5t-253 52q-142 0 -254 -52t-190 -138.5t-119 -199.5t-41 -234zM544 591q0 73 44.5 129.5t101.5 71.5q-51 17 -87.5 68.5t-36.5 114.5q0 102 83 173.5t236 71.5 q152 0 235 -71.5t83 -173.5q0 -63 -35 -114t-89 -69q57 -18 102 -73.5t45 -127.5q0 -53 -23.5 -100.5t-66.5 -83t-106 -57t-145 -21.5q-165 0 -253 76.5t-88 185.5zM772 597q0 -42 30 -72.5t83 -30.5q52 0 82.5 31.5t30.5 71.5q0 42 -29 73t-84 31q-56 0 -84.5 -29.5 t-28.5 -74.5zM787 964q0 -37 25.5 -64.5t72.5 -27.5q46 0 71.5 27.5t25.5 64.5q0 38 -25.5 65.5t-71.5 27.5q-47 0 -72.5 -27.5t-25.5 -65.5z" />
<glyph horiz-adv-x="888" d="M99 996q0 101 49 176l248 377h265l-163 -244q19 -5 37 -11.5t35 -12.5q104 -29 160.5 -106.5t56.5 -178.5q0 -64 -23 -122t-67.5 -101t-108 -68.5t-145.5 -25.5t-146.5 25.5t-107.5 68.5t-66.5 100.5t-23.5 122.5zM325 996q0 -53 32.5 -90t85.5 -37q55 0 85.5 36.5 t30.5 90.5q0 51 -30.5 87t-85.5 36q-53 0 -85.5 -36t-32.5 -87z" />
<glyph horiz-adv-x="1526" d="M110 621q0 126 45.5 244.5t131 208t207 144t276.5 54.5q148 0 262 -42t195.5 -114t129 -169.5t61.5 -205.5h-350q-17 97 -89 162.5t-196 65.5q-82 0 -143.5 -28.5t-103.5 -77.5t-63.5 -111t-21.5 -131q0 -73 23.5 -137t66.5 -111.5t107 -75t144 -27.5q105 0 178.5 57 t95.5 142h354q-17 -104 -67.5 -194.5t-130.5 -159.5t-191 -108.5t-248 -39.5q-159 0 -284 53t-211.5 142.5t-132 209t-45.5 249.5zM462 1507l518 218l82 -208l-518 -219z" />
<glyph horiz-adv-x="1231" d="M129 810q0 93 32.5 175.5t96 143.5t154 97.5t207.5 36.5q114 0 205.5 -36.5t154.5 -97.5t96 -143.5t33 -175.5q0 -71 -20 -137.5t-56 -121.5l-357 -551h-359l241 361q-99 8 -179 46t-135 97.5t-84.5 137t-29.5 168.5zM438 810q0 -82 49 -138.5t132 -56.5q82 0 131.5 56.5 t49.5 138.5q0 80 -49.5 136t-131.5 56q-84 0 -132.5 -56.5t-48.5 -135.5z" />
<glyph horiz-adv-x="1769" d="M64 774q0 159 55.5 306.5t161.5 260.5t258.5 180t345.5 67q192 0 343.5 -67t258 -180t161.5 -260.5t55 -306.5q0 -158 -55 -305.5t-161.5 -260.5t-258 -180.5t-343.5 -67.5q-193 0 -345.5 67.5t-258.5 180.5t-161.5 260t-55.5 306zM281 774q0 -122 41 -234.5t119 -198.5 t190 -138.5t254 -52.5q141 0 253 52.5t189 138.5t118 198.5t41 234.5t-41 234.5t-118 199t-189 138.5t-253 52q-142 0 -254 -52t-190 -138.5t-119 -199.5t-41 -234zM606 885v159q64 0 106 10t65 30t32.5 48.5t9.5 66.5h203v-851h-241v537h-175z" />
<glyph horiz-adv-x="680" d="M9 1395v222h664v-222h-664zM171 0v1239h338v-1239h-338z" />
<glyph horiz-adv-x="906" d="M184 139v171h540v-171h-540zM184 380v171h540v-171h-540z" />
<glyph horiz-adv-x="1102" d="M173 0v1239h781v-277h-447v-299h447v-267h-447v-396h-334z" />
<glyph horiz-adv-x="658" d="M102 1234v159q63 0 104 10.5t64.5 30.5t32.5 48.5t9 66.5h203v-852h-239v537h-174z" />
<glyph horiz-adv-x="625" d="M133 93v471q0 73 26.5 139.5t76 115t120.5 77t161 28.5v-194q-75 0 -115.5 -48.5t-40.5 -117.5v-471q0 -66 41 -115t115 -49v-197q-90 0 -161 28.5t-120.5 78t-76 115t-26.5 139.5z" />
<glyph horiz-adv-x="1412" d="M173 0v1239h484q152 0 273 -52t203.5 -138.5t125.5 -198t43 -231.5t-43 -231.5t-124.5 -197.5t-202 -138t-275.5 -52h-484zM507 285h128q78 0 138.5 27.5t101.5 74t63 107.5t22 125t-22 125t-63 107t-102 74.5t-138 28.5h-128v-669z" />
<glyph horiz-adv-x="1591" d="M110 619q0 126 44.5 244.5t128.5 209t205.5 145t277.5 54.5q128 0 235 -36.5t184.5 -97.5t122.5 -142.5t55 -174.5h-365q-11 61 -71 112t-159 51q-78 0 -138 -31t-99.5 -82.5t-59.5 -118t-20 -137.5q0 -78 21.5 -145t62 -117t103.5 -80t149 -30q115 0 179 59t81 141h-213 v230h675v-230h-122q-18 -106 -66.5 -193.5t-127 -150.5t-185.5 -97.5t-242 -34.5q-157 0 -280 52t-206 141t-126.5 208t-43.5 251zM586 1524q0 75 51 128t129 53q77 0 130 -53t53 -128q0 -71 -53.5 -124t-129.5 -53q-38 0 -71.5 14.5t-58 39t-37.5 56t-13 67.5z" />
<glyph horiz-adv-x="1235" d="M131 418h318q0 -95 44.5 -147t121.5 -52q73 0 111 47.5t38 107.5q0 71 -38 112.5t-131 41.5h-122v240h122q93 0 124 38.5t31 102.5q0 66 -35.5 97.5t-93.5 31.5q-84 0 -112.5 -45.5t-28.5 -123.5h-318q0 76 23 148t76 127t140.5 89.5t215.5 34.5q88 0 170 -20t144.5 -63 t98.5 -109.5t36 -157.5q0 -104 -57.5 -178.5t-130.5 -97.5q84 -30 143.5 -106t59.5 -196q0 -91 -37 -159.5t-101.5 -115t-147.5 -70.5t-171 -24q-128 0 -221 33.5t-154 93t-89.5 141.5t-28.5 179z" />
<glyph horiz-adv-x="680" d="M-19 1544q88 49 132 57.5t71 8.5q19 0 58 -7.5t80 -16.5t78.5 -16.5t57.5 -7.5q15 0 29.5 2t31.5 7.5t40 14.5t56 24l86 -179q-78 -57 -134 -68.5t-80 -11.5q-22 0 -61 7t-79.5 15.5t-78.5 15t-57 6.5q-40 0 -71.5 -10.5t-66.5 -23.5zM173 0v1239h336v-1239h-336z" />
<glyph horiz-adv-x="2039" d="M110 617q0 128 45.5 245.5t131 208t208 145t279.5 54.5q108 0 198 -36.5t130 -78.5v84h778v-257h-445v-243h445v-248h-445v-234h445v-257h-778v95q-51 -53 -125 -90.5t-203 -37.5q-156 0 -279 54.5t-208.5 144t-131 206.5t-45.5 245zM449 617q0 -68 22.5 -131.5 t64.5 -111t101.5 -76t136.5 -28.5q76 0 136.5 28.5t102.5 76t64 111t22 131.5t-22 131.5t-64 112t-103 77.5t-136 29q-77 0 -136.5 -29t-101.5 -77.5t-64.5 -111.5t-22.5 -132z" />
<glyph horiz-adv-x="1591" d="M110 619q0 126 44.5 244.5t128.5 209t205.5 145t277.5 54.5q128 0 235 -36.5t184.5 -97.5t122.5 -142.5t55 -174.5h-365q-11 61 -71 112t-159 51q-78 0 -138 -31t-99.5 -82.5t-59.5 -118t-20 -137.5q0 -78 21.5 -145t62 -117t103.5 -80t149 -30q115 0 179 59t81 141h-213 v230h675v-230h-122q-18 -106 -66.5 -193.5t-127 -150.5t-185.5 -97.5t-242 -34.5q-157 0 -280 52t-206 141t-126.5 208t-43.5 251zM403 1467l363 289l365 -289l-154 -169l-211 171l-211 -169z" />
<glyph horiz-adv-x="1112" d="M173 0v1239h781v-257h-447v-243h447v-248h-447v-234h447v-257h-781zM279 1502l80 208l517 -217l-82 -208z" />
<glyph horiz-adv-x="1769" d="M64 774q0 159 55.5 306.5t161.5 260.5t258.5 180t345.5 67q192 0 343.5 -67t258 -180t161.5 -260.5t55 -306.5q0 -158 -55 -305.5t-161.5 -260.5t-258 -180.5t-343.5 -67.5q-193 0 -345.5 67.5t-258.5 180.5t-161.5 260t-55.5 306zM281 774q0 -122 41 -234.5t119 -198.5 t190 -138.5t254 -52.5q141 0 253 52.5t189 138.5t118 198.5t41 234.5t-41 234.5t-118 199t-189 138.5t-253 52q-142 0 -254 -52t-190 -138.5t-119 -199.5t-41 -234zM542 637h237q0 -128 103 -128q47 0 69 30.5t22 68.5q0 49 -23 74t-81 25h-90v175h88q60 0 81 23.5t21 65.5 q0 44 -22.5 65t-59.5 21q-53 0 -71 -30.5t-18 -82.5h-236q0 51 15.5 101t51.5 88.5t99.5 62.5t156.5 24q61 0 119 -13t101 -41.5t69.5 -75t26.5 -110.5q0 -72 -41 -123.5t-92 -67.5q57 -17 99.5 -71.5t42.5 -133.5q0 -63 -26.5 -111.5t-71 -80t-101.5 -47.5t-120 -16 q-93 0 -159.5 23.5t-108 65.5t-61.5 98t-20 121z" />
<glyph horiz-adv-x="1112" d="M173 0v1239h781v-257h-447v-243h447v-248h-447v-234h447v-257h-781zM374 1517q0 76 51.5 129t127.5 53q80 0 132 -53t52 -129q0 -71 -52 -125t-132 -54q-38 0 -70 14.5t-56 40t-38.5 57.5t-14.5 67z" />
<glyph horiz-adv-x="1319" d="M173 0v1239h564q103 0 188.5 -37t145.5 -99.5t91.5 -144.5t31.5 -175q0 -131 -61 -236.5t-173 -164.5l247 -382h-391l-199 308h-110v-308h-334zM507 591h170q82 0 129.5 57t47.5 135t-48 135t-127 57h-172v-384z" />
<glyph horiz-adv-x="1279" d="M173 0v1239h561q106 0 191.5 -37t145.5 -99.5t91.5 -144.5t31.5 -175t-31.5 -175t-91.5 -144.5t-145.5 -99.5t-191.5 -37h-227v-327h-334zM507 591h170q82 0 129.5 57t47.5 135t-48 135t-127 57h-172v-384z" />
<glyph horiz-adv-x="1769" d="M64 774q0 159 55.5 306.5t161.5 260.5t258.5 180t345.5 67q192 0 343.5 -67t258 -180t161.5 -260.5t55 -306.5q0 -158 -55 -305.5t-161.5 -260.5t-258 -180.5t-343.5 -67.5q-193 0 -345.5 67.5t-258.5 180.5t-161.5 260t-55.5 306zM281 774q0 -122 41 -234.5t119 -198.5 t190 -138.5t254 -52.5q141 0 253 52.5t189 138.5t118 198.5t41 234.5t-41 234.5t-118 199t-189 138.5t-253 52q-142 0 -254 -52t-190 -138.5t-119 -199.5t-41 -234zM538 648q0 49 12 95t39 84l245 376h265l-164 -245q20 -4 39.5 -10t36.5 -13q101 -29 158 -107t57 -180 q0 -64 -23.5 -121.5t-67.5 -101t-107.5 -67.5t-145.5 -24t-145.5 24t-108 67.5t-67.5 101t-23 121.5zM766 648q0 -51 30.5 -87.5t85.5 -36.5q53 0 85.5 36.5t32.5 87.5q0 53 -32.5 89.5t-85.5 36.5q-55 0 -85.5 -36.5t-30.5 -89.5z" />
<glyph horiz-adv-x="1296" d="M146 427v812h334v-808q0 -74 46 -126.5t122 -52.5t123.5 53.5t47.5 125.5v808h331v-812q0 -100 -34.5 -184t-99.5 -144.5t-157.5 -96t-210.5 -35.5t-210.5 35.5t-157.5 96t-99.5 144.5t-34.5 184zM399 1526q0 53 19.5 98.5t52.5 79t78.5 53.5t98.5 20t98.5 -20t79 -54.5 t52.5 -80t19 -96.5t-19 -96t-52.5 -78t-79 -53t-98.5 -20t-98.5 20t-78.5 53t-52.5 78t-19.5 96zM568 1526q0 -31 24.5 -53.5t55.5 -22.5t55.5 23.5t24.5 54.5q0 32 -22 57t-58 25t-58 -25t-22 -59z" />
<glyph horiz-adv-x="1737" d="M173 0v1239h411l290 -828l289 828h403v-1239h-325v768l-241 -768h-248l-256 768v-768h-323z" />
<glyph horiz-adv-x="2001" d="M51 1239h354l234 -770l230 770h264l232 -770l232 770h353l-441 -1239h-283l-224 717l-223 -717h-285zM637 1456l363 291l365 -291l-153 -166l-212 170l-211 -168z" />
<glyph horiz-adv-x="1412" d="M173 0v1239h484q152 0 273 -52t203.5 -138.5t125.5 -198t43 -231.5t-43 -231.5t-124.5 -197.5t-202 -138t-275.5 -52h-484zM342 1583l145 167l201 -175l203 175l147 -167l-350 -291zM507 285h128q78 0 138.5 27.5t101.5 74t63 107.5t22 125t-22 125t-63 107t-102 74.5 t-138 28.5h-128v-669z" />
<glyph horiz-adv-x="878" d="M120 0q0 106 16 177.5t45.5 122t70 84.5t90.5 65q91 51 138.5 86t47.5 91q0 45 -23 63t-56 18q-40 0 -64 -25t-24 -87h-237q0 53 19 102.5t57.5 88.5t100.5 62.5t148 23.5q60 0 116 -15t99 -45.5t70 -80.5t27 -119q0 -50 -18.5 -91t-50 -75.5t-70 -62t-78.5 -49.5 q-42 -25 -70.5 -43.5t-47.5 -35t-27 -33.5t-8 -38h363v-184h-634z" />
<glyph horiz-adv-x="1334" d="M173 0v1239h334v-515l367 515h394l-470 -620l470 -619h-394l-367 513v-513h-334zM519 -177q0 61 42.5 104.5t101.5 43.5q76 0 121 -52t45 -136q0 -171 -81 -238t-224 -67v93q95 0 134 37.5t45 81.5q-2 -2 -15 -7.5t-25 -5.5q-66 0 -105 43t-39 103z" />
<glyph horiz-adv-x="1391" d="M173 0v1239h334v-483h378v483h335v-1239h-335v473h-378v-473h-334z" />
<glyph horiz-adv-x="977" d="M144 329v288q27 0 53.5 7t47.5 22t34 42t13 64v295q0 145 86 224.5t228 79.5h210v-260h-71q-38 0 -64.5 -13.5t-41.5 -34.5t-22 -48.5t-7 -54.5v-265q0 -57 -20 -94t-48.5 -60t-58 -34.5t-50.5 -13.5q20 -2 50 -12t58.5 -33t48.5 -63t20 -101v-237q0 -27 7 -53.5 t22 -48.5t41.5 -35.5t64.5 -13.5h71v-258h-210q-142 0 -228 77t-86 223v270q0 80 -46.5 110.5t-101.5 30.5z" />
<glyph horiz-adv-x="1591" d="M110 619q0 126 44.5 244.5t128.5 209t205.5 145t277.5 54.5q128 0 235 -36.5t184.5 -97.5t122.5 -142.5t55 -174.5h-365q-11 61 -71 112t-159 51q-78 0 -138 -31t-99.5 -82.5t-59.5 -118t-20 -137.5q0 -78 21.5 -145t62 -117t103.5 -80t149 -30q115 0 179 59t81 141h-213 v230h675v-230h-122q-18 -106 -66.5 -193.5t-127 -150.5t-185.5 -97.5t-242 -34.5q-157 0 -280 52t-206 141t-126.5 208t-43.5 251z" />
<glyph horiz-adv-x="1769" d="M64 774q0 159 55.5 306.5t161.5 260.5t258.5 180t345.5 67q192 0 343.5 -67t258 -180t161.5 -260.5t55 -306.5q0 -158 -55 -305.5t-161.5 -260.5t-258 -180.5t-343.5 -67.5q-193 0 -345.5 67.5t-258.5 180.5t-161.5 260t-55.5 306zM281 774q0 -122 41 -234.5t119 -198.5 t190 -138.5t254 -52.5q141 0 253 52.5t189 138.5t118 198.5t41 234.5t-41 234.5t-118 199t-189 138.5t-253 52q-142 0 -254 -52t-190 -138.5t-119 -199.5t-41 -234zM562 354q0 106 16.5 178t45 121.5t69.5 84t92 62.5q91 53 138.5 88.5t47.5 91.5q0 42 -23.5 60.5 t-56.5 18.5q-40 0 -64.5 -24t-24.5 -86h-236q0 53 19 103t57.5 88.5t100.5 62t148 23.5q59 0 116 -14.5t100 -45.5t69.5 -81t26.5 -118q0 -51 -19 -93t-49.5 -75t-69.5 -61t-79 -50q-42 -25 -70.5 -43.5t-47.5 -35t-26.5 -33.5t-7.5 -38h363v-184h-635z" />
<glyph horiz-adv-x="1296" d="M146 427v812h334v-808q0 -74 46 -126.5t122 -52.5t123.5 53.5t47.5 125.5v808h331v-812q0 -100 -34.5 -184t-99.5 -144.5t-157.5 -96t-210.5 -35.5t-210.5 35.5t-157.5 96t-99.5 144.5t-34.5 184zM316 1444v224h664v-224h-664z" />
<glyph horiz-adv-x="1293" d="M93 0l584 962h-527v277h1053l-586 -963h557v-276h-1081zM319 1566l145 168l201 -174l202 174l146 -168l-348 -292z" />
<glyph horiz-adv-x="912" d="M114 287v277q0 61 24 118t67.5 99t107 66.5t143.5 24.5t142.5 -24.5t108 -66.5t69.5 -98.5t24 -118.5v-277q0 -61 -24 -118t-69.5 -98.5t-108 -65.5t-142.5 -24t-143.5 24t-107 65.5t-67.5 98.5t-24 118zM352 287q0 -46 27.5 -80t76.5 -34q51 0 79.5 34t28.5 80v277 q0 46 -28.5 80.5t-79.5 34.5q-49 0 -76.5 -34.5t-27.5 -80.5v-277z" />
<glyph horiz-adv-x="1377" d="M66 0l451 1239h334l460 -1239h-178q-38 -25 -69.5 -55.5t-31.5 -81.5q0 -38 21.5 -66.5t61.5 -28.5q19 0 46 5.5t51 15.5l-5 -139q-37 -11 -77.5 -18.5t-94.5 -7.5q-122 0 -178.5 51t-56.5 122q0 57 36 104.5t106 98.5l-45 146h-426l-44 -146h-361zM544 396h279l-137 478 z" />
<glyph horiz-adv-x="1388" d="M173 0v1239h334v-155h378v155h335v-1239h-335v473h-378v-473h-334zM507 756h378v147h-378v-147z" />
<glyph horiz-adv-x="1291" d="M59 1239h392l226 -460l203 460h372l-615 -1239h-373l221 449zM276 1504q0 74 52 127t126 53q77 0 129 -53.5t52 -126.5q0 -71 -52 -121.5t-129 -50.5q-74 0 -126 50.5t-52 121.5zM715 1504q0 74 50.5 127t127.5 53q76 0 127.5 -53.5t51.5 -126.5q0 -71 -51.5 -121.5 t-127.5 -50.5q-78 0 -128 50.5t-50 121.5z" />
<glyph horiz-adv-x="829" d="M144 -110h198v1187h-198v274h515v-1733h-515v272z" />
<glyph horiz-adv-x="1319" d="M173 0v1239h564q103 0 188.5 -37t145.5 -99.5t91.5 -144.5t31.5 -175q0 -131 -61 -236.5t-173 -164.5l247 -382h-391l-199 327h-110v-327h-334zM504 -177q0 61 43.5 104.5t102.5 43.5q76 0 121 -52t45 -136q0 -171 -82 -238t-223 -67v93q93 0 133 37.5t46 81.5 q-2 -2 -15.5 -7.5t-24.5 -5.5q-68 0 -107 43t-39 103zM507 591h170q82 0 129.5 57t47.5 135t-48 135t-127 57h-172v-384z" />
<glyph horiz-adv-x="1526" d="M110 621q0 126 45.5 244.5t131 208t207 144t276.5 54.5q148 0 262 -42t195.5 -114t129 -169.5t61.5 -205.5h-350q-17 97 -89 162.5t-196 65.5q-82 0 -143.5 -28.5t-103.5 -77.5t-63.5 -111t-21.5 -131q0 -73 23.5 -137t66.5 -111.5t107 -75t144 -27.5q105 0 178.5 57 t95.5 142h354q-17 -104 -67.5 -194.5t-130.5 -159.5t-191 -108.5t-248 -39.5q-159 0 -284 53t-211.5 142.5t-132 209t-45.5 249.5zM418 1602l144 165l202 -172l200 172l146 -165l-346 -291z" />
<glyph horiz-adv-x="1769" d="M64 774q0 159 55.5 306.5t161.5 260.5t258.5 180t345.5 67q192 0 343.5 -67t258 -180t161.5 -260.5t55 -306.5q0 -158 -55 -305.5t-161.5 -260.5t-258 -180.5t-343.5 -67.5q-193 0 -345.5 67.5t-258.5 180.5t-161.5 260t-55.5 306zM281 774q0 -122 41 -234.5t119 -198.5 t190 -138.5t254 -52.5q141 0 253 52.5t189 138.5t118 198.5t41 234.5t-41 234.5t-118 199t-189 138.5t-253 52q-142 0 -254 -52t-190 -138.5t-119 -199.5t-41 -234zM544 637h228q0 -51 31 -88.5t86 -37.5q53 0 85.5 37.5t32.5 93.5q0 48 -31.5 86t-86.5 38q-44 0 -67.5 -18 t-40.5 -49h-215v495h618v-172h-397v-159q25 36 70.5 53t96.5 17q73 0 125 -26.5t86 -67.5t50.5 -93t16.5 -104q0 -66 -23 -124t-66.5 -101t-107.5 -68.5t-146 -25.5q-84 0 -148 25.5t-107 68.5t-66.5 99t-23.5 121z" />
<glyph horiz-adv-x="680" d="M-42 1504q0 76 52 129t129 53q78 0 131 -53.5t53 -128.5q0 -71 -53 -124t-131 -53q-37 0 -70 14t-57.5 38.5t-39 57t-14.5 67.5zM173 0v1239h336v-1239h-336zM396 1504q0 76 52 129t130 53t130.5 -53.5t52.5 -128.5q0 -35 -14.5 -67.5t-40 -57t-58.5 -38.5t-70 -14 q-38 0 -71.5 14t-58 38.5t-38.5 57t-14 67.5z" />
<glyph horiz-adv-x="1112" d="M173 0v1239h781v-257h-447v-243h447v-248h-447v-234h447v-257h-781zM264 1509l517 216l82 -208l-518 -217z" />
<glyph horiz-adv-x="906" d="M112 937q0 74 44.5 130t102.5 72q-51 18 -87.5 68.5t-36.5 115.5q0 102 83 173.5t236 71.5q152 0 235 -71.5t83 -173.5q0 -64 -35.5 -115t-88.5 -69q57 -17 101.5 -72.5t44.5 -129.5q0 -52 -23.5 -100t-66.5 -83t-105.5 -56t-144.5 -21q-165 0 -253.5 76t-88.5 184z M340 944q0 -42 30.5 -73t83.5 -31t82.5 32.5t29.5 71.5q0 42 -28.5 73.5t-83.5 31.5t-84.5 -30.5t-29.5 -74.5zM356 1311q0 -38 25.5 -65.5t72.5 -27.5q46 0 71.5 28t25.5 65q0 38 -25.5 65.5t-71.5 27.5q-47 0 -72.5 -27.5t-25.5 -65.5z" />
<glyph horiz-adv-x="1452" d="M124 528v1021h358v-1018q0 -53 17.5 -101t50 -83t77 -56t99.5 -21t100.5 21t77 56t49.5 82.5t18 101.5v1018h358v-1021q0 -120 -42 -223.5t-120 -179.5t-190 -120.5t-251 -44.5q-140 0 -250.5 44.5t-189 120.5t-120.5 180t-42 223zM441 1637l192 288h212l-193 -288h-211z M743 1637l192 288h213l-192 -288h-213z" />
<glyph horiz-adv-x="1045" d="M91 951v288h865v-288h-266v-951h-334v951h-265zM369 -177q0 61 43.5 104.5t102.5 43.5q76 0 121 -52t45 -136q0 -171 -81 -238t-224 -67v93q93 0 133 37.5t46 81.5q-2 -2 -15.5 -7.5t-24.5 -5.5q-68 0 -107 43t-39 103z" />
<glyph horiz-adv-x="906" d="M184 261v170h181v186h177v-186h182v-170h-182v-185h-177v185h-181z" />
<glyph horiz-adv-x="919" d="M131 221v630h236v-435h124v221h235v-221h95v-195h-95v-221h-235v221h-360z" />
<glyph horiz-adv-x="1291" d="M162 424h307q0 -79 48.5 -135.5t132.5 -56.5t133 58t49 139q0 78 -49 136.5t-133 58.5q-61 0 -101 -27t-64 -78h-295v720h874v-241h-577v-248q38 52 106 79t141 27q104 0 180.5 -37.5t126.5 -97.5t74 -136t24 -156q0 -93 -33.5 -177t-95 -146t-153 -98.5t-207.5 -36.5 q-118 0 -208 36.5t-152 98.5t-95 144t-33 174z" />
<glyph horiz-adv-x="1296" d="M146 427v812h334v-808q0 -74 46 -126.5t122 -52.5t123.5 53.5t47.5 125.5v808h331v-812q0 -100 -34.5 -184t-99.5 -144.5t-157.5 -96t-210.5 -35.5t-210.5 35.5t-157.5 96t-99.5 144.5t-34.5 184zM232 1632h239q19 -47 60 -78.5t117 -31.5q73 0 115 33t62 77h239 q-13 -78 -51 -137.5t-93 -100.5t-124.5 -63t-147.5 -22q-157 0 -270.5 85.5t-145.5 237.5z" />
<glyph horiz-adv-x="1526" d="M110 621q0 126 45.5 244.5t131 208t207 144t276.5 54.5q148 0 262 -42t195.5 -114t129 -169.5t61.5 -205.5h-350q-17 97 -89 162.5t-196 65.5q-82 0 -143.5 -28.5t-103.5 -77.5t-63.5 -111t-21.5 -131q0 -73 23.5 -137t66.5 -111.5t107 -75t144 -27.5q105 0 178.5 57 t95.5 142h354q-17 -104 -67.5 -194.5t-130.5 -159.5t-191 -108.5t-248 -39.5q-159 0 -284 53t-211.5 142.5t-132 209t-45.5 249.5zM409 1493l363 290l363 -290l-151 -166l-212 166l-210 -166z" />
<glyph horiz-adv-x="943" d="M-9 1588l144 166l201 -175l204 175l144 -166l-348 -292zM173 0v1239h334v-952h335v-287h-669z" />
<glyph horiz-adv-x="1760" d="M173 0v1239h336v-1239h-336zM644 441h333q0 -80 37 -134.5t109 -54.5q71 0 109 48t38 141v798h336v-798q0 -243 -129.5 -357.5t-353.5 -114.5q-122 0 -212 36.5t-150 99.5t-88.5 149t-28.5 187z" />
<glyph horiz-adv-x="1226" d="M148 0v1549h945v-289h-586v-351h586v-280h-586v-342h586v-287h-945zM363 1637l192 288h213l-193 -288h-212zM665 1637l194 288h213l-192 -288h-215z" />
<glyph horiz-adv-x="1526" d="M110 621q0 126 45.5 244.5t131 208t207 144t276.5 54.5q148 0 262 -42t195.5 -114t129 -169.5t61.5 -205.5h-350q-17 97 -89 162.5t-196 65.5q-82 0 -143.5 -28.5t-103.5 -77.5t-63.5 -111t-21.5 -131q0 -73 23.5 -137t66.5 -111.5t107 -75t144 -27.5q105 0 178.5 57 t95.5 142h354q-17 -104 -67.5 -194.5t-130.5 -159.5t-191 -108.5t-248 -39.5q-159 0 -284 53t-211.5 142.5t-132 209t-45.5 249.5zM589 1524q0 75 51.5 128t129.5 53t131 -53t53 -128q0 -71 -53.5 -124t-130.5 -53q-38 0 -71.5 14.5t-57.5 39t-38 56t-14 67.5z" />
<glyph horiz-adv-x="1262" d="M144 418v403q0 91 34.5 171t97 142.5t153 98t204.5 35.5q110 0 200.5 -35.5t154 -98t97.5 -142.5t34 -171v-403q0 -91 -34 -171.5t-97.5 -142.5t-154 -97.5t-200.5 -35.5q-112 0 -203.5 35.5t-154 97.5t-97 142.5t-34.5 171.5zM464 418q0 -73 45.5 -127t123.5 -54 t121.5 54t43.5 127v403q0 73 -44 127t-121 54q-78 0 -123.5 -54.5t-45.5 -126.5v-403z" />
<glyph horiz-adv-x="1377" d="M66 0l451 1239h334l460 -1239h-369l-45 146h-426l-44 -146h-361zM272 1630h239q21 -45 62.5 -76.5t114.5 -31.5t115 31.5t60 76.5h241q-13 -78 -51 -136.5t-93 -100.5t-124.5 -63t-147.5 -21t-147.5 22t-123.5 63t-93 101t-52 135zM544 396h279l-137 478z" />
<glyph horiz-adv-x="1296" d="M146 427v812h334v-808q0 -74 46 -126.5t122 -52.5t123.5 53.5t47.5 125.5v808h331v-812q0 -100 -34.5 -184t-99.5 -144.5t-157.5 -96t-210.5 -35.5t-210.5 35.5t-157.5 96t-99.5 144.5t-34.5 184zM301 1409l221 332l199 -124l-301 -256zM646 1409l221 332l199 -124 l-300 -256z" />
<glyph horiz-adv-x="1293" d="M93 0l584 962h-527v277h1053l-586 -963h557v-276h-1081z" />
<glyph horiz-adv-x="977" d="M164 -124h70q76 0 105.5 48.5t29.5 102.5v237q0 61 20 101t47.5 63t57.5 33t50 12q-19 2 -49.5 13.5t-58 34.5t-47.5 59.5t-20 94.5v265q0 55 -29.5 103t-105.5 48h-70v260h208q143 0 228.5 -79.5t85.5 -224.5v-295q0 -38 13 -64.5t34 -41.5t48 -22t53 -7v-288 q-53 0 -100.5 -30.5t-47.5 -110.5v-270q0 -146 -85.5 -223t-228.5 -77h-208v258z" />
<glyph horiz-adv-x="1112" d="M173 0v1239h781v-257h-447v-243h447v-248h-447v-234h447v-257h-781zM226 1395v222h661v-222h-661z" />
<glyph horiz-adv-x="680" d="M173 0v1239h336v-1239h-336z" />
<glyph horiz-adv-x="1258" d="M146 352q0 53 16.5 100.5t45.5 86.5t66.5 66.5t79.5 38.5q-78 29 -127.5 102t-49.5 163q0 74 30 138.5t88.5 113.5t142.5 78t193 29q106 0 190 -29t142.5 -78t88 -114t29.5 -138q0 -90 -49.5 -163t-126.5 -102q42 -13 80.5 -41t66 -66.5t44 -86t16.5 -100.5 q0 -76 -31.5 -144.5t-94 -120.5t-152 -83t-203.5 -31q-115 0 -206 30t-152.5 82t-94 121.5t-32.5 147.5zM454 361q0 -64 46 -112t131 -48q82 0 128 48.5t46 111.5q0 61 -45 109.5t-129 48.5q-85 0 -131 -47.5t-46 -110.5zM477 895q0 -57 40 -100t114 -43q71 0 110.5 43 t39.5 100q0 55 -40 99t-110 44q-74 0 -114 -42t-40 -101z" />
<glyph horiz-adv-x="1334" d="M173 0v1239h334v-515l367 515h394l-470 -620l470 -619h-394l-367 513v-513h-334z" />
<glyph horiz-adv-x="1526" d="M110 621q0 126 45.5 244.5t131 208t207 144t276.5 54.5q148 0 262 -42t195.5 -114t129 -169.5t61.5 -205.5h-350q-17 97 -89 162.5t-196 65.5q-82 0 -143.5 -28.5t-103.5 -77.5t-63.5 -111t-21.5 -131q0 -73 23.5 -137t66.5 -111.5t107 -75t144 -27.5q105 0 178.5 57 t95.5 142h354q-15 -97 -62 -183.5t-120 -153t-171 -109t-220 -52.5v-57q11 10 29.5 19.5t50.5 9.5q66 0 108 -48.5t42 -113.5q0 -72 -50 -127t-149 -55q-33 0 -66 10.5t-62 30.5t-47.5 52t-23.5 76h142q4 -22 18.5 -36.5t38.5 -14.5q25 0 41 18t16 46q0 25 -15 41t-40 16 q-38 0 -51 -28h-128v161q-139 13 -250 70.5t-186 146t-115 200.5t-40 233z" />
<glyph horiz-adv-x="1779" d="M249 774q0 129 43.5 249.5t126.5 211t202.5 145.5t269.5 55t270 -55t202.5 -145.5t126 -211t43.5 -249.5q0 -130 -43.5 -249.5t-126 -210t-202 -146.5t-270.5 -56q-150 0 -269.5 56t-202.5 146.5t-126.5 210t-43.5 249.5zM350.5 664.5q18.5 -105.5 75 -195t149 -153.5 t217.5 -84q124 -19 230 7.5t187 88t136 151t80 194.5q21 106 4 210.5t-74 194t-150 154t-217 85.5q-124 19 -230 -8.5t-186.5 -88.5t-135.5 -150.5t-80 -193.5q-24 -106 -5.5 -211.5zM580 1637l192 288h214l-192 -288h-214zM885 1637l192 288h213l-193 -288h-212z" />
<glyph horiz-adv-x="1195" d="M141 0v869q0 74 23.5 145.5t76.5 128t142.5 91t222.5 34.5q88 0 171.5 -20t146 -63t100.5 -108.5t38 -158.5q0 -53 -17 -99.5t-44.5 -82t-62.5 -60t-73 -34.5q42 -13 79.5 -41.5t67.5 -67.5t47.5 -88t17.5 -107q0 -89 -28.5 -156.5t-79.5 -113.5t-121.5 -69.5 t-155.5 -23.5q-66 0 -107 7t-72 18v234q22 -4 50 -8.5t41 -4.5q55 0 99 38.5t44 116.5q0 57 -36 103.5t-114 46.5h-40v242h38q78 0 110 40.5t32 98.5q0 62 -39 96.5t-94 34.5q-64 0 -98.5 -47t-34.5 -122v-869h-330z" />
<glyph horiz-adv-x="1769" d="M64 774q0 159 55.5 306.5t161.5 260.5t258.5 180t345.5 67q192 0 344.5 -67t259 -180t161.5 -260.5t55 -306.5q0 -158 -55 -305.5t-161.5 -260.5t-259 -180.5t-344.5 -67.5q-193 0 -345.5 67.5t-258.5 180.5t-161.5 260t-55.5 306zM281 774q0 -122 41 -234.5t119 -198.5 t190 -138.5t254 -52.5q141 0 253 52.5t190.5 138.5t119 198.5t40.5 234.5t-40.5 234.5t-119 199t-190.5 138.5t-253 52q-142 0 -254 -52t-190 -138.5t-119 -199.5t-41 -234zM536 564v630h236v-436h123v222h238v-222h93v-194h-93v-222h-238v222h-359z" />
<glyph horiz-adv-x="680" d="M42 1502l82 208l515 -217l-82 -208zM173 0v1239h336v-1239h-336z" />
<glyph horiz-adv-x="1591" d="M110 619q0 126 44.5 244.5t128.5 209t205.5 145t277.5 54.5q128 0 235 -36.5t184.5 -97.5t122.5 -142.5t55 -174.5h-365q-11 61 -71 112t-159 51q-78 0 -138 -31t-99.5 -82.5t-59.5 -118t-20 -137.5q0 -78 21.5 -145t62 -117t103.5 -80t149 -30q115 0 179 59t81 141h-213 v230h675v-230h-122q-18 -106 -66.5 -193.5t-127 -150.5t-185.5 -97.5t-242 -34.5q-157 0 -280 52t-206 141t-126.5 208t-43.5 251zM350 1632h239q19 -47 61 -78.5t116 -31.5q73 0 114.5 33t61.5 77h240q-13 -78 -51 -137.5t-93.5 -100.5t-125.5 -63t-146 -22 q-155 0 -271.5 85.5t-144.5 237.5z" />
<glyph horiz-adv-x="1779" d="M59 0l589 1239h969v-257h-445v-243h445v-248h-445v-234h445v-257h-781v146h-349l-63 -146h-365zM593 396h243v548z" />
<glyph horiz-adv-x="1296" d="M146 427v812h334v-808q0 -74 46 -126.5t122 -52.5t123.5 53.5t47.5 125.5v808h331v-812q0 -100 -34.5 -184t-99.5 -144.5t-157.5 -96t-210.5 -35.5t-210.5 35.5t-157.5 96t-99.5 144.5t-34.5 184zM281 1462l363 292l363 -292l-151 -166l-212 168l-211 -168z" />
<glyph horiz-adv-x="943" d="M173 0v1239h334v-952h333v-287h-667z" />
<glyph horiz-adv-x="831" d="M120 -114q53 0 96 18t71.5 51.5t44.5 78t16 92.5v703q0 100 -60 171.5t-168 71.5v279q128 0 229.5 -41.5t172.5 -113t108 -166.5t37 -201v-703q0 -105 -37 -199.5t-108 -166.5t-173 -113t-229 -41v280z" />
<glyph horiz-adv-x="1377" d="M66 0l451 1239h334l460 -1239h-369l-45 146h-426l-44 -146h-361zM403 1511l82 207l517 -218l-82 -208zM544 396h279l-137 478z" />
<glyph horiz-adv-x="1591" d="M110 619q0 126 44.5 244.5t128.5 209t205.5 145t277.5 54.5q128 0 235 -36.5t184.5 -97.5t122.5 -142.5t55 -174.5h-365q-11 61 -71 112t-159 51q-78 0 -138 -31t-99.5 -82.5t-59.5 -118t-20 -137.5q0 -78 21.5 -145t62 -117t103.5 -80t149 -30q115 0 179 59t81 141h-213 v230h675v-230h-122q-18 -106 -66.5 -193.5t-127 -150.5t-185.5 -97.5t-242 -34.5q-157 0 -280 52t-206 141t-126.5 208t-43.5 251zM626 -194q0 63 43 105.5t103 42.5q76 0 120.5 -52t44.5 -136q0 -169 -80 -236.5t-224 -69.5v93q93 0 132.5 37.5t46.5 82.5q-2 -2 -15.5 -6.5 t-24.5 -4.5q-68 0 -107 42t-39 102z" />
<glyph horiz-adv-x="1028" d="M80 -2l606 1411l300 -126l-608 -1414z" />
<glyph horiz-adv-x="625" d="M108 -71q73 0 115.5 49t42.5 115v471q0 68 -42.5 117t-115.5 49v194q89 0 160.5 -28.5t120.5 -77t75.5 -115t26.5 -139.5v-471q0 -74 -26.5 -139.5t-75.5 -115t-120.5 -78t-160.5 -28.5v197z" />
<glyph horiz-adv-x="1293" d="M93 0l584 962h-527v277h1053l-586 -963h557v-276h-1081zM471 1517q0 76 52 129t129 53q78 0 131 -53t53 -129q0 -35 -14 -67t-40 -57.5t-59 -40t-71 -14.5q-37 0 -70 14.5t-57.5 40t-39 57.5t-14.5 67z" />
<glyph horiz-adv-x="1293" d="M93 0l584 962h-527v277h1053l-586 -963h557v-276h-1081zM359 1509l517 216l82 -208l-517 -217z" />
<glyph horiz-adv-x="1045" d="M91 951v288h865v-288h-266v-951h-334v951h-265zM175 1585l144 167l203 -173l204 173l143 -167l-347 -291z" />
<glyph horiz-adv-x="888" d="M102 1250q0 63 23 121t67.5 101t108.5 68.5t146 25.5t146 -25.5t108 -68.5t67.5 -100.5t23.5 -121.5q0 -102 -53 -178l-245 -375h-264l164 243q-139 15 -215.5 101.5t-76.5 208.5zM329 1250q0 -51 32.5 -88t85.5 -37t85 37t32 88q0 52 -32 89t-85 37t-85.5 -37t-32.5 -89 z" />
<glyph horiz-adv-x="1015" d="M173 0v1239h334v-952h333v-287h-667zM593 619q0 40 15.5 76.5t43 64t64 43.5t78.5 16t78.5 -16t64 -43.5t43.5 -64t16 -76.5t-16 -76t-43.5 -62.5t-64 -42.5t-78.5 -16t-78.5 16t-64 42.5t-43 62.5t-15.5 76z" />
<glyph horiz-adv-x="658" d="M102 538v159q63 0 104 10t64.5 29.5t32.5 48.5t9 66h203v-851h-239v538h-174z" />
<glyph horiz-adv-x="821" d="M106 1353v196h662l-363 -852h-255l281 656h-325z" />
<glyph horiz-adv-x="1296" d="M146 427v812h334v-808q0 -74 46 -126.5t122 -52.5t123.5 53.5t47.5 125.5v808h331v-812q0 -100 -34.5 -184t-99.5 -144.5t-157.5 -96t-210.5 -35.5t-210.5 35.5t-157.5 96t-99.5 144.5t-34.5 184z" />
<glyph horiz-adv-x="1441" d="M173 0v1239h334l430 -766v766h335v-1203q0 -243 -128.5 -356t-354.5 -113q-92 0 -167.5 34t-132.5 96l184 206q33 -25 57 -40t59 -15q64 0 102 42t42 114l-426 741v-745h-334z" />
<glyph horiz-adv-x="952" d="M108 411v237l71 27v564h336v-445l211 82v-237l-211 -82v-270h334v-287h-670v438z" />
<glyph horiz-adv-x="1045" d="M91 951v288h865v-288h-266v-951h-334v951h-265z" />
<glyph horiz-adv-x="1112" d="M173 0v1239h781v-257h-447v-243h447v-248h-447v-234h447v-257h-781zM203 1462l361 292l365 -292l-150 -166l-213 168l-210 -168z" />
<glyph horiz-adv-x="1125" d="M133 973v266h931l-528 -1239h-342l418 973h-479z" />
<glyph horiz-adv-x="1291" d="M59 1239h392l226 -460l203 460h372l-615 -1239h-373l221 449zM283 1464l363 290l365 -290l-155 -168l-210 171l-211 -169z" />
<glyph horiz-adv-x="1296" d="M146 427v812h334v-808q0 -74 46 -126.5t122 -52.5t123.5 53.5t47.5 125.5v808h331v-812q0 -100 -34.5 -184t-99.5 -144.5t-157.5 -96t-210.5 -35.5t-210.5 35.5t-157.5 96t-99.5 144.5t-34.5 184zM361 1517l82 208l517 -216l-82 -209z" />
<glyph horiz-adv-x="1112" d="M173 0v1239h781v-257h-447v-243h447v-248h-447v-234h447v-257h-781zM208 1588l144 166l203 -175l203 175l145 -166l-348 -292z" />
<glyph horiz-adv-x="1108" d="M89 869q0 78 26 150t83 127t143 88.5t208 33.5q88 0 169.5 -21t145 -64.5t101 -109.5t37.5 -157q0 -71 -22 -121t-52.5 -86t-63 -62t-54.5 -45q-27 -22 -46 -40t-32 -38t-19 -45t-6 -61h-335q0 55 8.5 100.5t27.5 83t50 69.5t80 63q25 16 49.5 33.5t44.5 39.5t32.5 48.5 t12.5 62.5q0 57 -35.5 85.5t-92.5 28.5q-53 0 -92 -37t-39 -126h-329zM336 175q0 82 59 140.5t145 58.5q42 0 79.5 -16t66.5 -43.5t44 -63.5t15 -76q0 -42 -15 -80t-44 -65.5t-66.5 -43t-79.5 -15.5q-44 0 -81 15.5t-64.5 43t-43 65.5t-15.5 80z" />
<glyph horiz-adv-x="1769" d="M64 774q0 159 55.5 306.5t161.5 260.5t258.5 180t345.5 67q192 0 343.5 -67t258 -180t161.5 -260.5t55 -306.5q0 -158 -55 -305.5t-161.5 -260.5t-258 -180.5t-343.5 -67.5q-193 0 -345.5 67.5t-258.5 180.5t-161.5 260t-55.5 306zM281 774q0 -122 41 -234.5t119 -198.5 t190 -138.5t254 -52.5q141 0 253 52.5t189 138.5t118 198.5t41 234.5t-41 234.5t-118 199t-189 138.5t-253 52q-142 0 -254 -52t-190 -138.5t-119 -199.5t-41 -234zM546 895q0 64 23.5 122t67.5 101t108 67.5t146 24.5t146.5 -24.5t108.5 -67.5t67.5 -100.5t23.5 -122.5 q0 -103 -53 -178l-247 -377h-262l163 244q-139 15 -215.5 102.5t-76.5 208.5zM774 895q0 -53 32 -89t85 -36t85.5 36t32.5 89q0 51 -32.5 88t-85.5 37t-85 -36.5t-32 -88.5z" />
<glyph horiz-adv-x="1112" d="M171 0v1239h783v-257h-447v-243h447v-248h-447v-234h447v-257h-783zM173 1504q0 76 53 129t130 53q78 0 131 -53.5t53 -128.5q0 -35 -14.5 -67.5t-40 -57t-58.5 -38.5t-71 -14q-37 0 -72 14t-59 38.5t-38 57t-14 67.5zM612 1504q0 76 51.5 129t128.5 53t130 -53.5 t53 -128.5q0 -71 -53 -124t-130 -53q-38 0 -71 14t-57.5 38.5t-38 57t-13.5 67.5z" />
<glyph horiz-adv-x="1239" d="M59 0l368 619l-368 620h368l194 -374l195 374h366l-368 -620l368 -619h-366l-195 372l-194 -372h-368z" />
<glyph horiz-adv-x="1549" d="M110 619q0 128 45.5 245.5t131 208t208 145t279.5 54.5t281 -54.5t209 -145t130.5 -208t45.5 -245.5q0 -129 -45.5 -245.5t-130.5 -207t-209 -145t-281 -54.5q-156 0 -279 54.5t-208.5 145t-131 207.5t-45.5 245zM414 1409l221 332l199 -124l-298 -256zM449 619 q0 -68 22.5 -131.5t64.5 -111t101.5 -76t136.5 -28.5q76 0 136.5 28.5t102.5 76t64 111t22 131.5t-22 130.5t-64 111t-103 77.5t-136 29q-77 0 -136.5 -29t-101.5 -77.5t-64.5 -110.5t-22.5 -131zM758 1409l222 332l199 -124l-299 -256z" />
<glyph horiz-adv-x="1549" d="M110 619q0 128 45.5 245.5t131 208t208 145t279.5 54.5t281 -54.5t209 -145t130.5 -208t45.5 -245.5q0 -129 -45.5 -245.5t-130.5 -207t-209 -145t-281 -54.5q-156 0 -279 54.5t-208.5 145t-131 207.5t-45.5 245zM369 1509q0 78 52 129.5t130 51.5t129.5 -52.5 t51.5 -128.5q0 -74 -51.5 -125.5t-129.5 -51.5t-130 51.5t-52 125.5zM449 619q0 -68 22.5 -131.5t64.5 -111t101.5 -76t136.5 -28.5q76 0 136.5 28.5t102.5 76t64 111t22 131.5t-22 130.5t-64 111t-103 77.5t-136 29q-77 0 -136.5 -29t-101.5 -77.5t-64.5 -110.5t-22.5 -131 zM808 1509q0 78 50.5 129.5t127.5 51.5q78 0 131 -52.5t53 -128.5q0 -74 -53 -125.5t-131 -51.5t-128 51.5t-50 125.5z" />
<glyph horiz-adv-x="878" d="M120 697q0 105 16 177.5t45.5 122.5t70 84t90.5 65q91 51 138.5 86.5t47.5 90.5q0 44 -23 62.5t-56 18.5q-40 0 -64 -25.5t-24 -86.5h-237q0 53 19 102.5t57.5 88.5t100.5 62t148 23q60 0 116 -14.5t99 -45.5t70 -80.5t27 -118.5q0 -51 -18.5 -91.5t-50 -75t-70 -62 t-78.5 -50.5q-42 -25 -70.5 -43t-47.5 -35t-27 -33t-8 -39h363v-183h-634z" />
<glyph horiz-adv-x="1207" d="M152 0q0 152 24.5 255.5t67.5 176t103 122.5t133 94q59 36 108 65.5t84 59t54 62t19 77.5q0 65 -37 95.5t-89 30.5q-62 0 -102 -39t-40 -130h-320q0 80 28 152t85 127t143.5 87.5t203.5 32.5q86 0 166 -21t140.5 -67.5t97 -117.5t36.5 -171q0 -78 -30.5 -138.5t-77 -110 t-103.5 -88.5t-107 -69q-62 -40 -104 -68t-66.5 -53.5t-35.5 -51t-11 -60.5h527v-252h-897z" />
<glyph horiz-adv-x="1549" d="M110 619q0 128 45.5 245.5t131 208t208 145t279.5 54.5t281 -54.5t209 -145t130.5 -208t45.5 -245.5q0 -129 -45.5 -245.5t-130.5 -207t-209 -145t-281 -54.5q-156 0 -279 54.5t-208.5 145t-131 207.5t-45.5 245zM449 619q0 -68 22.5 -131.5t64.5 -111t101.5 -76 t136.5 -28.5q76 0 136.5 28.5t102.5 76t64 111t22 131.5t-22 130.5t-64 111t-103 77.5t-136 29q-77 0 -136.5 -29t-101.5 -77.5t-64.5 -110.5t-22.5 -131z" />
<glyph horiz-adv-x="1377" d="M66 0l451 1239h334l460 -1239h-369l-45 146h-426l-44 -146h-361zM354 1395v222h661v-222h-661zM544 396h279l-137 478z" />
<glyph horiz-adv-x="821" d="M106 657v194h662l-363 -851h-255l281 657h-325z" />
<glyph horiz-adv-x="1459" d="M9 0l553 1549h329l559 -1549h-388l-60 188h-551l-60 -188h-382zM451 1637l193 288h215l-194 -288h-214zM538 469h376l-186 637zM756 1637l193 288h212l-192 -288h-213z" />
<glyph horiz-adv-x="1229" d="M122 416h336q0 -93 47.5 -142.5t125.5 -49.5q61 0 100 32.5t39 88.5q0 61 -48.5 92.5t-141.5 66.5q-86 34 -164 66t-136.5 77t-93 109.5t-34.5 159.5q0 93 40 159.5t104.5 110.5t148 65t174.5 21q126 0 214.5 -34.5t145 -90.5t82 -128t25.5 -147h-334q0 77 -34 120 t-103 43q-51 0 -89.5 -26.5t-38.5 -81.5q0 -53 45.5 -87.5t126.5 -62.5q80 -30 158 -60.5t142.5 -77t104.5 -111t40 -159.5q0 -194 -133 -298t-356 -104q-111 0 -201.5 30t-155 87t-100.5 140.5t-36 191.5zM259 1467l362 291l363 -291l-152 -167l-211 171l-210 -169z" />
<glyph horiz-adv-x="1264" d="M171 329v910h318v-644h192v329h321v-329h142v-266h-142v-329h-321v329h-510z" />
<glyph horiz-adv-x="1549" d="M110 619q0 128 45.5 245.5t131 208t208 145t279.5 54.5t281 -54.5t209 -145t130.5 -208t45.5 -245.5q0 -129 -45.5 -245.5t-130.5 -207t-209 -145t-281 -54.5q-156 0 -279 54.5t-208.5 145t-131 207.5t-45.5 245zM449 619q0 -68 22.5 -131.5t64.5 -111t101.5 -76 t136.5 -28.5q76 0 136.5 28.5t102.5 76t64 111t22 131.5t-22 130.5t-64 111t-103 77.5t-136 29q-77 0 -136.5 -29t-101.5 -77.5t-64.5 -110.5t-22.5 -131zM458 1509l515 216l82 -208l-515 -217z" />
<glyph horiz-adv-x="1112" d="M141 1628h239q20 -45 61 -76.5t116 -31.5q74 0 116 31.5t59 76.5h241q-13 -78 -50.5 -136.5t-94 -100.5t-126 -63t-145.5 -21q-156 0 -271 84t-145 237zM173 0v1239h778v-257h-444v-243h444v-248h-444v-234h444v-257h-778z" />
<glyph horiz-adv-x="1296" d="M146 427v812h334v-808q0 -74 46 -126.5t122 -52.5t123.5 53.5t47.5 125.5v808h331v-812q0 -100 -34.5 -184t-99.5 -144.5t-157.5 -96t-210.5 -35.5t-210.5 35.5t-157.5 96t-99.5 144.5t-34.5 184zM287 1544q89 49 132 57.5t70 8.5q22 0 61 -7.5t80 -16.5t78 -16.5 t58 -7.5q15 0 29.5 2t30.5 7.5t39.5 14.5t56.5 24l85 -179q-78 -57 -133 -68.5t-80 -11.5q-22 0 -61 7t-80 15.5t-78 15t-58 6.5q-40 0 -70.5 -10.5t-66.5 -23.5z" />
<glyph horiz-adv-x="1229" d="M122 416h336q0 -93 47.5 -142.5t125.5 -49.5q61 0 100 32.5t39 88.5q0 61 -48.5 92.5t-141.5 66.5q-86 34 -164 66t-136.5 77t-93 109.5t-34.5 159.5q0 93 40 159.5t104.5 110.5t148 65t174.5 21q126 0 214.5 -34.5t145 -90.5t82 -128t25.5 -147h-334q0 77 -34 120 t-103 43q-51 0 -89.5 -26.5t-38.5 -81.5q0 -53 45.5 -87.5t126.5 -62.5q80 -30 158 -60.5t142.5 -77t104.5 -111t40 -159.5q0 -194 -133 -298t-356 -104q-111 0 -201.5 30t-155 87t-100.5 140.5t-36 191.5zM314 1509l515 216l83 -208l-516 -217z" />
<glyph horiz-adv-x="745" d="M168 166q0 42 15.5 78.5t43.5 64t64 43t81 15.5q88 0 145.5 -59t57.5 -142q0 -84 -57.5 -143t-145.5 -59q-45 0 -81 16t-64 43.5t-43.5 64t-15.5 78.5zM203 447v792h339v-792h-339z" />
<glyph horiz-adv-x="2001" d="M51 1239h354l234 -770l230 770h264l232 -770l232 770h353l-441 -1239h-283l-224 717l-223 -717h-285z" />
<glyph horiz-adv-x="906" d="M112 241q0 73 44.5 129.5t102.5 72.5q-51 17 -87.5 68t-36.5 115q0 102 83 174t236 72q152 0 235 -72t83 -174q0 -63 -35.5 -114.5t-88.5 -68.5q57 -17 101.5 -73t44.5 -129q0 -53 -23.5 -100.5t-66.5 -83t-105.5 -56t-144.5 -20.5q-165 0 -253.5 76t-88.5 184zM340 247 q0 -42 30.5 -72.5t83.5 -30.5t82.5 32t29.5 71q0 42 -28.5 73.5t-83.5 31.5t-84.5 -30t-29.5 -75zM356 615q0 -38 25.5 -65.5t72.5 -27.5q46 0 71.5 28t25.5 65t-25.5 64.5t-71.5 27.5q-47 0 -72.5 -27.5t-25.5 -64.5z" />
<glyph horiz-adv-x="1549" d="M110 619q0 128 45.5 245.5t131 208t208 145t279.5 54.5t281 -54.5t209 -145t130.5 -208t45.5 -245.5q0 -129 -45.5 -245.5t-130.5 -207t-209 -145t-281 -54.5q-156 0 -279 54.5t-208.5 145t-131 207.5t-45.5 245zM411 1462l363 292l365 -292l-153 -166l-209 168 l-213 -168zM449 619q0 -68 22.5 -131.5t64.5 -111t101.5 -76t136.5 -28.5q76 0 136.5 28.5t102.5 76t64 111t22 131.5t-22 130.5t-64 111t-103 77.5t-136 29q-77 0 -136.5 -29t-101.5 -77.5t-64.5 -110.5t-22.5 -131z" />
<glyph horiz-adv-x="1198" d="M82 441h334q0 -80 36.5 -134.5t109.5 -54.5q71 0 109.5 48t38.5 141v798h332v-798q0 -243 -127.5 -357.5t-352.5 -114.5q-122 0 -212.5 36.5t-150.5 99.5t-88.5 149t-28.5 187zM513 1456l363 291l363 -291l-148 -164l-215 166l-215 -164z" />
<glyph horiz-adv-x="829" d="M173 -382v1733h513v-272h-197v-1189h197v-272h-513z" />
<glyph horiz-adv-x="1296" d="M146 427v812h334v-808q0 -74 46 -126.5t122 -52.5t123.5 53.5t47.5 125.5v808h331v-812q0 -91 -28.5 -169.5t-84 -138.5t-133 -98t-176.5 -48q-27 -19 -45 -45.5t-18 -64.5t22.5 -66.5t59.5 -28.5q22 0 49 5.5t51 15.5l-5 -139q-37 -11 -79 -18.5t-92 -7.5 q-122 0 -179 51t-57 122q0 51 27 93t80 85q-186 29 -291 153t-105 299z" />
<glyph horiz-adv-x="1441" d="M173 0v1239h342l422 -766v766h335v-1239h-343l-422 745v-745h-334zM564 -177q0 61 43 104.5t103 43.5q75 0 121.5 -52t46.5 -136q0 -171 -81.5 -238t-224.5 -67v93q93 0 133 37.5t45 81.5q-3 -2 -14.5 -7.5t-25.5 -5.5q-66 0 -106 43t-40 103z" />
<glyph horiz-adv-x="928" d="M122 991h228q0 -50 30.5 -88t86.5 -38q52 0 84.5 37.5t32.5 93.5q0 48 -31 85.5t-86 37.5q-45 0 -68 -17.5t-40 -48.5h-215v496h617v-173h-396v-160q25 36 70 53.5t96 17.5q74 0 125 -26.5t86 -67.5t51.5 -92.5t16.5 -104.5q0 -66 -23 -124t-66.5 -101t-107.5 -68.5 t-146 -25.5q-85 0 -148.5 25.5t-107 68.5t-66.5 99.5t-23 120.5z" />
<glyph horiz-adv-x="1229" d="M122 416h336q0 -93 47.5 -142.5t125.5 -49.5q61 0 100 32.5t39 88.5q0 61 -48.5 92.5t-141.5 66.5q-86 34 -164 66t-136.5 77t-93 109.5t-34.5 159.5q0 93 40 159.5t104.5 110.5t148 65t174.5 21q126 0 214.5 -34.5t145 -90.5t82 -128t25.5 -147h-334q0 77 -34 120 t-103 43q-51 0 -89.5 -26.5t-38.5 -81.5q0 -53 45.5 -87.5t126.5 -62.5q80 -30 158 -60.5t142.5 -77t104.5 -111t40 -159.5q0 -177 -112 -278.5t-306 -119.5v-70q11 10 29.5 19t50.5 9q63 0 106.5 -48.5t43.5 -112.5q0 -71 -50 -126.5t-149 -55.5q-33 0 -67.5 10t-62.5 30 t-48 52.5t-24 78.5h144q6 -51 58 -51q25 0 41 16.5t16 45.5q0 25 -16.5 41t-40.5 16q-36 0 -52 -26h-125v172q-190 19 -304 132.5t-114 312.5z" />
<glyph horiz-adv-x="1377" d="M66 0l451 1239h334l460 -1239h-369l-45 146h-426l-44 -146h-361zM285 1504q0 76 52 129t127 53q80 0 132 -53.5t52 -128.5q0 -71 -52 -124t-132 -53q-37 0 -69 14t-56.5 38.5t-39 57t-14.5 67.5zM544 396h279l-137 478zM724 1504q0 76 50.5 129t128.5 53t130.5 -53.5 t52.5 -128.5q0 -71 -53 -124t-130 -53q-38 0 -71.5 14t-57.5 38.5t-37 57t-13 67.5z" />
<glyph horiz-adv-x="1231" d="M124 429q0 71 20 136.5t55 122.5l360 551h357l-241 -361q15 -4 48 -11.5t45 -17.5q80 -15 141.5 -54t104.5 -95t66.5 -126t23.5 -145q0 -93 -33 -175.5t-96 -143.5t-155.5 -98t-207.5 -37q-114 0 -205 37t-154 98t-96 143.5t-33 175.5zM433 429q0 -80 48.5 -136 t130.5 -56q85 0 134.5 56.5t49.5 135.5q0 82 -49.5 138.5t-134.5 56.5q-82 0 -130.5 -56.5t-48.5 -138.5z" />
<glyph horiz-adv-x="1549" d="M110 619q0 128 45.5 245.5t131 208t208 145t279.5 54.5t281 -54.5t209 -145t130.5 -208t45.5 -245.5q0 -129 -45.5 -245.5t-130.5 -207t-209 -145t-281 -54.5q-156 0 -279 54.5t-208.5 145t-131 207.5t-45.5 245zM445 1395v222h661v-222h-661zM449 619q0 -68 22.5 -131.5 t64.5 -111t101.5 -76t136.5 -28.5q76 0 136.5 28.5t102.5 76t64 111t22 131.5t-22 130.5t-64 111t-103 77.5t-136 29q-77 0 -136.5 -29t-101.5 -77.5t-64.5 -110.5t-22.5 -131z" />
<glyph horiz-adv-x="1377" d="M66 0l451 1239h334l460 -1239h-369l-45 146h-426l-44 -146h-361zM325 1490l363 293l365 -293l-152 -165l-211 170l-213 -168zM544 396h279l-137 478z" />
<glyph horiz-adv-x="888" d="M99 298q0 102 49 177l248 376h265l-163 -243q19 -4 37 -10.5t35 -13.5q104 -29 160.5 -106t56.5 -180q0 -64 -23 -121t-67.5 -100.5t-108 -68.5t-145.5 -25t-146.5 25t-107.5 68.5t-66.5 100.5t-23.5 121zM325 298q0 -53 32.5 -89t85.5 -36q55 0 85.5 36t30.5 89 q0 51 -30.5 87.5t-85.5 36.5q-53 0 -85.5 -36t-32.5 -88z" />
<glyph horiz-adv-x="891" d="M126 798v219q93 0 151.5 13.5t92 41t45.5 70t12 97.5h276v-1239h-323v798h-254z" />
<glyph horiz-adv-x="1026" d="M49 1283l299 126l608 -1411l-302 -129z" />
<glyph horiz-adv-x="1110" d="M173 0v1239h781v-257h-447v-243h447v-248h-447v-234h447v-257q-38 -25 -69 -55.5t-31 -81.5q0 -38 20.5 -66.5t60.5 -28.5q20 0 47 5.5t50 15.5l-6 -139q-38 -11 -77.5 -18.5t-92.5 -7.5q-122 0 -178.5 51t-56.5 122q0 57 34.5 104.5t105.5 98.5h-588z" />
<glyph horiz-adv-x="928" d="M122 294h228q0 -51 30.5 -88.5t86.5 -37.5q52 0 84.5 37.5t32.5 92.5q0 49 -31 86.5t-86 37.5q-45 0 -68 -17.5t-40 -48.5h-215v495h617v-172h-396v-160q25 36 70 54t96 18q74 0 125 -26.5t86 -67.5t51.5 -93t16.5 -106q0 -66 -23 -123t-66.5 -100.5t-107.5 -68.5 t-146 -25q-85 0 -148.5 25t-107 68.5t-66.5 99.5t-23 120z" />
<glyph horiz-adv-x="1275" d="M159 0v1239h569q128 0 206.5 -36t121.5 -87.5t59 -111.5t16 -109q0 -59 -19 -105.5t-48 -79.5t-64.5 -54t-66.5 -30q27 -6 63 -25t68.5 -52.5t55 -82t22.5 -116.5q0 -49 -16 -110t-59 -114t-122.5 -89.5t-205.5 -36.5h-580zM494 243h148q46 0 77 12.5t48.5 32.5t25 44 t7.5 48q0 20 -6.5 43.5t-24 44.5t-48.5 34t-79 13h-148v-272zM494 745h143q91 0 125 44.5t34 90.5q0 20 -6.5 43.5t-23 43t-48.5 33t-81 13.5h-143v-268z" />
<glyph horiz-adv-x="1441" d="M173 0v1239h342l422 -766v766h335v-1239h-343l-422 745v-745h-334z" />
<glyph horiz-adv-x="1229" d="M122 416h336q0 -93 47.5 -142.5t125.5 -49.5q61 0 100 32.5t39 88.5q0 61 -48.5 92.5t-141.5 66.5q-86 34 -164 66t-136.5 77t-93 109.5t-34.5 159.5q0 93 40 159.5t104.5 110.5t148 65t174.5 21q126 0 214.5 -34.5t145 -90.5t82 -128t25.5 -147h-334q0 77 -34 120 t-103 43q-51 0 -89.5 -26.5t-38.5 -81.5q0 -53 45.5 -87.5t126.5 -62.5q80 -30 158 -60.5t142.5 -77t104.5 -111t40 -159.5q0 -194 -133 -298t-356 -104q-111 0 -201.5 30t-155 87t-100.5 140.5t-36 191.5z" />
<glyph horiz-adv-x="1549" d="M110 619q0 128 45.5 245.5t131 208t208 145t279.5 54.5t281 -54.5t209 -145t130.5 -208t45.5 -245.5q0 -129 -45.5 -245.5t-130.5 -207t-209 -145t-281 -54.5q-156 0 -279 54.5t-208.5 145t-131 207.5t-45.5 245zM449 619q0 -68 22.5 -131.5t64.5 -111t101.5 -76 t136.5 -28.5q76 0 136.5 28.5t102.5 76t64 111t22 131.5t-22 130.5t-64 111t-103 77.5t-136 29q-77 0 -136.5 -29t-101.5 -77.5t-64.5 -110.5t-22.5 -131zM489 1517l81 208l519 -216l-82 -209z" />
<glyph horiz-adv-x="912" d="M114 984v276q0 62 24 118.5t67.5 99t107 66.5t143.5 24t142.5 -24t108 -66.5t69.5 -98.5t24 -119v-276q0 -62 -24 -118t-69.5 -98t-108 -66.5t-142.5 -24.5t-143.5 24.5t-107 66.5t-67.5 98t-24 118zM352 984q0 -47 27.5 -81t76.5 -34q51 0 79.5 34t28.5 81v276 q0 47 -28.5 81.5t-79.5 34.5q-49 0 -76.5 -34.5t-27.5 -81.5v-276z" />
<glyph horiz-adv-x="680" d="M33 -203q0 57 34.5 104.5t105.5 98.5v1239h336v-1239h-144q-38 -25 -68.5 -55.5t-30.5 -81.5q0 -38 21 -66.5t61 -28.5q19 0 45.5 5.5t51.5 15.5l-4 -139q-38 -11 -79 -18.5t-94 -7.5q-122 0 -178.5 51t-56.5 122z" />
<glyph horiz-adv-x="658" d="M173 -215v1566h316v-1566h-316z" />
</font>
</defs>
</svg>
